<?xml version="1.0" standalone="no"?>
<!DOCTYPE svg PUBLIC "-//W3C//DTD SVG 1.1//EN" "http://www.w3.org/Graphics/SVG/1.1/DTD/svg11.dtd" >
<svg xmlns="http://www.w3.org/2000/svg" xmlns:xlink="http://www.w3.org/1999/xlink" version="1.1">
<metadata></metadata>
<defs>
<font id="paintedregular" horiz-adv-x="1014" >
<font-face units-per-em="2048" ascent="1638" descent="-410" />
<missing-glyph horiz-adv-x="508" />
<glyph horiz-adv-x="0" />
<glyph unicode="&#xd;" horiz-adv-x="508" />
<glyph unicode=" "  horiz-adv-x="508" />
<glyph unicode="&#x09;" horiz-adv-x="508" />
<glyph unicode="&#xa0;" horiz-adv-x="508" />
<glyph unicode="!" horiz-adv-x="615" d="M143 3h4l-4 5v20q0 10 4 14l-4 12q0 56 33 124q20 0 37 12q15 -6 33 -6h4l-4 6q1 5 8 5q49 -13 49 -28q-4 0 -4 -3q7 0 17 -20q-39 -26 -58 -85q-25 0 -41 -65q-15 -28 -21 -28h-12l-8 3q0 -15 -29 -20q0 3 -4 3l4 14q0 1 -4 37zM176 686q4 11 4 26v2q0 9 -4 9l4 14v88 q0 3 4 3q0 3 -4 3q6 51 12 51l-4 5q15 111 25 111l-4 6l37 192l62 213q4 0 12 3q87 -19 123 -60q25 -46 29 -85h-4l4 -5q-5 -77 -16 -77q0 -3 4 -3q-71 -244 -83 -244q-12 -41 -37 -93q0 -5 -16 -51l4 -6q-16 -29 -16 -34q4 -15 4 -17q-8 -18 -25 -85l4 -6l-16 -48 q0 -3 4 -3l-4 -20l4 -14h-4l4 -5q-8 -10 -8 -15l4 -25q-9 -9 -9 -17l5 -14h-5l5 -6l-5 -17h-8v20q-8 8 -12 20q4 5 4 11v6q0 5 -8 5q-4 -3 -4 -19l-13 5l-8 -8v-6q12 0 12 -6q0 -17 -12 -34q10 0 12 -14q-6 0 -12 -17q-8 3 -12 3v3l4 14h-8v3q0 10 -4 25l4 6q-21 67 -25 139 h4l-4 6v34q0 13 -4 28zM192 -46h9v-2q-5 -6 -5 -9h-4v11zM196 553h9v11h-9v-11zM209 575h4q8 0 8 6v3h-4q-8 -1 -8 -6v-3zM221 394v28q7 0 12 -17q-4 -5 -4 -11h-8zM225 357v6h8v-6h-8zM225 539h4v5h-4v-5zM229 513h4v6h-4v-6zM233 663h9v3h-9v-3zM246 550h4v8h-4v-8z M246 590l8 -3v11h-4q0 -3 -4 -8zM262 456h4q9 -1 9 -5v-9h-9z" />
<glyph unicode="&#x22;" horiz-adv-x="746" d="M91 1273q16 19 22 97q6 0 6 4l-6 28q17 64 45 87q-17 0 -17 5q11 41 11 60v4l-5 23l11 5l16 -9q39 14 39 23l11 4h6l11 -4q2 9 11 9q50 0 72 -60q11 -1 11 -9v-9q0 -17 -5 -42q11 -18 11 -32q-27 -131 -50 -142q-83 -97 -83 -221v-37q0 -6 -17 -14l-11 5q-6 -8 -6 -23 h-11q-53 0 -72 248zM370 1277q16 19 22 97q6 0 6 4l-6 28q17 64 45 87q-17 0 -17 5q11 41 11 60v4l-5 23l11 5l16 -9q39 14 39 23l11 4h6l11 -4q2 9 11 9q50 0 72 -60q11 -1 11 -9v-9q0 -17 -5 -42q11 -18 11 -32q-27 -131 -50 -142q-83 -97 -83 -221v-37q0 -6 -17 -14 l-11 5q-6 -8 -6 -23h-11q-53 0 -72 248z" />
<glyph unicode="&#x26;" horiz-adv-x="1058" d="M12 140q65 136 97 145q124 145 171 191q88 85 316 280l9 13l-18 12l-22 -4q0 9 -9 9l-17 -17h-9l-13 8q-4 0 -13 -13q-14 5 -14 9q-35 -5 -57 -13l-8 4l-53 -38h-4q-5 0 -5 4q-27 -8 -35 -8q0 4 -4 4q0 -8 -9 -8t-9 8q9 0 9 9v4l-66 21q0 8 -9 21q0 41 145 166 q67 78 114 123q40 45 40 60q-19 12 -70 119q-18 0 -31 59q0 9 22 9v8l-13 21q0 19 61 30v-4l9 4q34 0 88 -178h8q120 133 172 161q0 3 26 17h31q44 -8 44 -42q0 -24 -9 -47q9 -14 9 -21q-9 -25 -31 -34l-9 4q0 -9 -9 -9l-22 5q-22 -16 -22 -26h-13l-9 4q-7 -22 -52 -38 q0 -14 -70 -64l-27 -46h-4l-9 4q-16 -20 -40 -34v-4h-4q-9 0 -9 13q-6 0 -13 -17h13v-5q0 -6 -17 -17h-9v5l4 8h-4q-7 0 -18 -17v-13h9q-34 -29 -123 -131h-4v-17h13q82 0 294 89q35 4 57 21h27q4 0 4 -4l22 13h13q4 0 4 -5l9 5q88 0 106 -90q0 -17 4 -34q-14 -76 -53 -76 q-52 -34 -127 -59q-2 -13 -75 -51q-83 -53 -118 -64q-126 -80 -281 -221q0 -10 -79 -81q-40 -49 -40 -55q9 -37 136 -42q100 0 246 46l27 -4q125 25 298 128h9q-44 -36 -44 -47q-23 -28 -48 -43q-42 -51 -97 -89q-4 -7 -4 -21q0 -13 4 -30q-4 -22 -4 -42v-9l4 -21h-4l4 -8 q0 -5 -4 -5l4 -8q0 -10 -4 -17q4 -36 13 -64q-4 -23 -4 -34q8 -27 8 -38v-21l-8 -13q0 -15 17 -85h-4q-6 0 -84 132q-62 83 -105 182q-16 0 -26 9q-53 -17 -53 -21l-22 4h-4l-14 -9q-8 5 -13 5t-22 -22l-17 9q-7 -17 -13 -17h-5v8l5 9h-18q0 -17 -9 -17q-4 8 -4 13h-26 q0 -17 -9 -17h-22q-10 0 -18 4q-14 -9 -26 -9v13h-13q0 -13 -9 -13h-4q-9 0 -9 9q-15 -9 -27 -9h-17q-12 14 -44 22q0 3 -48 25q-27 47 -31 72zM354 735h5q7 4 17 4v4q-4 0 -13 4zM363 60q9 0 9 8h-9v-8zM609 786h9q0 8 -9 8v-8zM714 -153q7 0 14 -13v-17q-14 5 -14 26v4z M714 204q9 0 9 13v4h-4zM732 242q9 -1 9 -8l-5 -9h5q7 0 17 17v9h-17q-9 -2 -9 -9zM802 289q2 -9 9 -9q6 0 13 13v4l-22 -4v-4z" />
<glyph unicode="'" horiz-adv-x="439" d="M91 1273q16 19 22 97q6 0 6 4l-6 28q17 64 45 87q-17 0 -17 5q11 41 11 60v4l-5 23l11 5l16 -9q39 14 39 23l11 4h6l11 -4q2 9 11 9q50 0 72 -60q11 -1 11 -9v-9q0 -17 -5 -42q11 -18 11 -32q-27 -131 -50 -142q-83 -97 -83 -221v-37q0 -6 -17 -14l-11 5q-6 -8 -6 -23 h-11q-53 0 -72 248z" />
<glyph unicode="*" horiz-adv-x="1024" d="M218 1333q0 17 6 36q11 35 36 53q17 12 34 12q9 0 18 -3q20 -6 74 -62q47 -49 112 -75q-4 71 -37 130q-37 66 -37 84q0 32 23.5 51.5t62.5 19.5q37 0 61.5 -18t24.5 -47q0 -21 -36 -89q-33 -61 -37 -130q66 25 113 75q51 55 69 61q11 3 21 3q18 0 35 -10q26 -17 38 -53 q6 -19 6 -36q0 -15 -4 -28q-10 -30 -38 -38q-6 -2 -19 -2q-25 0 -76 9q-28 5 -55 5q-41 0 -81 -11q44 -55 105 -83q68 -32 79 -47q13 -18 13 -38q0 -9 -2 -17q-8 -30 -39 -53q-29 -22 -59 -22q-1 0 -1 1q-31 0 -48 23q-12 17 -22 94q-10 67 -47 125q-38 -58 -46 -124 q-9 -75 -20 -90q-19 -25 -49 -27h-5q-28 0 -57 21q-30 21 -39 51q-4 10 -4 20q0 17 11 32q13 17 83 51q61 29 105 82q-41 11 -80 11q-27 0 -53 -5q-54 -11 -78 -11q-9 0 -14 2q-30 9 -41 38q-6 13 -6 29z" />
<glyph unicode="+" horiz-adv-x="1111" d="M33 740v20q0 35 40 52v20q1 8 8 8q9 0 16 -4q7 4 16 4q20 -64 100 -64h20q4 0 4 -4q4 0 4 4q45 -5 68 -12l8 4l8 -4l8 4l24 -4l4 8v112q0 9 4 16l-4 8q8 81 8 172q0 27 -16 44v4q1 8 8 8h4q33 0 96 -52q22 -19 36 -52q14 0 32 -104l-4 -20q8 -13 8 -24v-24l4 -48h-4l4 -8 v-32q43 -5 52 -8l16 4q147 0 448 -72q4 0 4 4q40 0 40 -20l20 16h4q10 -8 16 -8q0 -32 -64 -32q0 -6 -40 -20l-8 4q-28 -8 -48 -8h-44l-12 -8h-20q-126 -12 -220 -12v4q-8 -4 -12 -4q-19 0 -124 -4q-8 -15 -8 -32v-40l-12 -20q8 -1 8 -8v-8q-12 -100 -20 -100h-4v12h-4 q0 -8 -4 -8l4 -8l-12 -16q4 -35 4 -40q0 -9 -24 -16q0 -6 -8 -16v-36h-4l-8 4l-4 -8v-12l8 4h4v-4l-4 -8l-8 4h-4v-8l4 -20q-7 0 -20 -52l4 -8v-4h-8v4q0 133 -48 444q-65 0 -264 48q-80 49 -80 84zM473 344q4 0 12 -4v8q0 8 -8 8h-4v-12zM509 376v12h8v-12h-8zM757 724h12 v12h-12v-12zM1017 664h4v8h-4v-8zM1069 680q8 0 8 -4q-4 -8 -4 -12q8 0 8 8v4q0 8 -8 8h-4v-4zM1149 676q4 7 4 16q8 -1 8 -8q0 -8 -8 -8h-4z" />
<glyph unicode="," horiz-adv-x="557" d="M135 -174q16 19 22 97q6 0 6 4l-6 28q17 64 45 87q-17 0 -17 5q11 41 11 60v4l-5 23l11 5l16 -9q39 14 39 23l11 4h6l11 -4q2 9 11 9q50 0 72 -60q11 -1 11 -9v-9q0 -17 -5 -42q11 -18 11 -32q-27 -131 -50 -142q-83 -97 -83 -221v-37q0 -6 -17 -14l-11 5q-6 -8 -6 -23 h-11q-53 0 -72 248z" />
<glyph unicode="-" horiz-adv-x="894" d="M57 633v4q0 21 15 28q1 16 9 16h5q0 -12 21 -12h6l15 4v-4l5 4h30l29 4v-4l6 4h15q3 0 3 -4l6 4h56q2 0 2 -4q6 4 9 4q16 -4 18 -4q3 0 3 4q48 -5 79 -12q3 0 3 4q127 -12 147 -16l6 4l41 -8l6 4q6 -4 9 -4v-16l-3 -8h6q3 24 9 24h14l15 -4v-4l-3 -20q7 0 12 -4l3 8v4 l-6 12l6 4l12 -4h17q-3 -21 -3 -24v-4h3q6 28 12 28q3 -7 3 -20l15 4v4h-12q3 12 18 12q5 -1 5 -8l-3 -8h3l9 8l9 -8q0 12 6 12l15 -4v-12h-3q-6 4 -9 4l-15 -16q3 0 3 -4q-6 -4 -9 -4q-5 4 -9 4v-28h-8v4l3 20q-6 0 -6 8q3 0 3 4q-3 0 -9 4q-6 -24 -15 -24h-9v-16h-3 q-5 0 -5 8q2 8 2 12l-5 4h-6l-9 -8h-6l-6 4q-8 -28 -12 -28l-3 8v20q-3 0 -8 4q0 -8 -6 -8h-15q0 -24 -6 -24q-4 23 -9 32q3 0 3 4h-3q-4 0 -11 -20l5 -4q-4 -16 -8 -16q-3 8 -3 12h-6l-9 -8l-18 4q0 -8 -6 -8q-5 0 -5 8l-21 -4h-3l-6 4q0 -12 -6 -12h-3q0 10 -6 20l3 8h-3 l-5 -4l3 -8q0 -14 -33 -20q0 8 -6 8q-5 -4 -11 -4v4q-11 -8 -24 -8l-6 20q3 8 3 12l-6 4l-3 -8v-4q0 -4 3 -4q0 -24 -35 -24l-15 4q-2 0 -38 -4v4q-4 -4 -38 -8l-6 4l-6 -4q-6 0 -6 4l-20 -4h-42q-10 0 -26 4q-12 -8 -21 -8l-6 4q-25 -8 -29 -8q-31 0 -47 92zM110 613h3v12 h-3v-12zM116 649h3v8h-3v-8zM151 573h3v8h-3v-8zM222 649q1 -8 6 -8v8h-6zM260 581h15q0 8 -6 8h-9v-8zM301 613q5 4 12 4v8h-6q-6 -1 -6 -8v-4zM304 577h3q7 8 12 8v4q-7 0 -12 4l-3 -8v-8zM345 577l21 -4l3 8v4l-3 8l-15 -4l-6 4v-16zM363 645h6q6 0 6 8l-6 4q-6 -1 -6 -8 v-4zM427 577h3q6 0 6 8h-3q-6 -1 -6 -8zM454 593q6 0 6 8h-6v-8zM475 629l5 -4h3v4q0 8 -6 8zM489 581h3v8h-3v-8zM513 581h6v8h-6v-8zM554 581q6 0 6 8h-6v-8zM613 629h6v4h-6v-4zM660 625q6 0 6 -12h6q-9 13 -9 20h-3v-8zM751 589h9v-8h-3q-6 0 -6 8zM760 597v8q6 -1 6 -8 h-6zM783 625v8q6 -1 6 -8l12 8l3 -8v-8l-15 4q0 -4 -3 -4zM792 597h12q0 -8 -6 -8t-6 8zM813 589v8q6 0 11 4l3 -8l-6 -4h-8z" />
<glyph unicode="." horiz-adv-x="557" d="M127 -16q11 9 11 14l-5 24h5l-5 7l16 20v21q21 0 33 34l-5 7q0 12 44 48q33 11 33 17l56 3q5 -5 5 -20h6l27 3v-7q-16 0 -16 -7v-3q30 -41 44 -82q0 -43 -83 -96q-19 0 -39 -24q-18 0 -44 -48q6 0 6 -3q-15 0 -23 -27v-14h-11v41q-11 0 -16 -41q-15 0 -17 -17h-11 q0 4 6 34q-11 18 -17 75l6 7l-6 21v13z" />
<glyph unicode="0" horiz-adv-x="841" d="M0 301q0 225 228 652q99 147 188 230q167 157 167 179q0 14 10 14q56 -27 56 -33v-9l-10 -14v-10l10 5l5 -9q-10 -2 -10 -10l10 -19q0 -4 -5 -4q5 -45 30 -108v-14q15 -3 15 -38q10 0 10 9q-5 10 -5 14h10l6 -32l-11 -5l-10 5v-10q2 -14 36 -28q5 -8 5 -19q-10 -1 -10 -9 v-14q0 -7 15 -14q-8 -19 -15 -19q0 5 -5 5l-5 -10v-4h5q9 4 15 4q15 -52 15 -98l-10 -5h-15q-5 -14 -10 -14q0 -9 30 -24v-47l-20 -23l5 -47l-10 -5l-16 10h-5v-10l16 -19v-14h-6l-10 5q0 -5 -5 -5q-5 9 -5 14q-10 -1 -10 -9l5 -23l25 4h6q-20 -84 -31 -84q-10 4 -15 4 l-5 -9v-19l10 5q0 -5 5 -5q-5 -7 -5 -28h-5l-15 9h-5q-10 -1 -10 -9v-14q20 0 20 -19l-5 -9q5 -9 5 -14q-24 -78 -41 -94l5 -10v-9q-9 0 -25 -9l5 -10q-14 -40 -25 -42q0 9 -10 9l-5 -9v-5h15v-9q0 -5 -5 -5l5 -9v-5q-29 -12 -36 -66q-37 -23 -66 -61q-149 -150 -309 -150 q-73 23 -147 146q5 8 5 18v5q-21 0 -25 132zM117 333h10v5q0 10 -10 10v-15zM127 286l25 -28l-5 -9q10 -17 10 -38h-5q24 -42 51 -42h25v-14h10q17 12 86 33q0 4 41 28h5l10 -5q0 9 36 33q0 17 20 24q0 15 35 33q5 35 56 93q0 19 51 104q0 38 30 80q0 18 41 136 q26 113 35 131l-5 24v5q0 2 20 23l-10 14v14q0 11 5 19q-15 16 -20 94q20 4 20 9q-23 39 -45 104q-19 0 -46 70l-20 14q0 -28 -10 -28h-5v19q-11 -2 -11 -10q6 -8 6 -18h-31v-29q0 -14 -20 -14q-10 5 -15 5v-5q0 -10 5 -19q-26 -25 -26 -32q0 -21 -30 -29l5 -9l-5 -19 q5 -9 5 -14q-9 -5 -20 -5v-23q-31 -32 -31 -38l5 -9q-5 -8 -5 -19h-5l-15 10h-5l15 -19q-64 -132 -81 -132v-9q0 -29 -30 -61q5 -9 5 -14q-31 -7 -31 -57v-4q-20 0 -20 -10v-32h-5l-10 4q0 -4 -5 -4l5 -10v-23q-30 -19 -30 -24v-5l10 -14q0 -4 -21 -14l5 -23q-10 -2 -10 -10 l5 -9q-30 -76 -30 -99q-10 -1 -10 -9q10 0 10 -14q0 -10 -5 -52q5 -9 5 -14l-10 -5l-10 5v-5zM127 371h5v9h-5v-9zM228 690l10 -4v14q-10 -2 -10 -10zM355 897h5v9h-5v-9zM400 131h10v5h-10v-5zM400 996h5v9h-5v-9zM421 164h5q10 0 10 10l-10 4l-5 -9v-5zM476 244 q5 -8 5 -23h11q0 3 5 28l-11 5q0 -10 -10 -10zM537 272h15v5q0 9 -10 9h-5v-14zM613 488l10 -4h16v18q0 7 -16 15h-5q-5 -25 -5 -29zM623 1226h16l-6 23h-10v-23zM633 606h6v9h-6v-9zM639 1198q10 -24 10 -33h5v28q0 9 -10 9q0 -4 -5 -4zM704 827l16 -19q9 4 15 4 q-15 31 -31 33v-18zM715 775h5v9h-5v-9zM715 935q5 -29 15 -29v19q-10 0 -10 14h-5v-4z" />
<glyph unicode="1" horiz-adv-x="480" d="M0 -205q0 47 13 94q-6 18 -6 36l13 32q0 3 -7 35q0 12 27 54q-14 0 -14 9v18q0 6 66 36v4q0 9 -13 9h-13l-33 -4l-7 8q20 39 20 41l-6 44l19 23q-13 15 -13 27v22q2 9 13 9l-6 31q46 202 79 416q-7 9 -7 14l112 434q18 98 40 98h13q70 0 79 -67v-22q0 -5 -7 -5l7 -9 q0 -10 -7 -18q0 -4 7 -4q-20 -150 -40 -193q7 -8 7 -13q-20 -14 -33 -121h-13v-36q-16 -70 -33 -98q7 -8 7 -18q-22 -64 -33 -67q0 -16 6 -40q-20 -32 -20 -36q7 -8 7 -18q-13 -12 -39 -121q-7 0 -7 -13l7 -18q-20 -35 -20 -45v-18h-20v-9l13 -13q-18 -22 -26 -98 q-10 0 -20 -14q9 0 20 -13l-13 -18q6 0 6 -5q-10 0 -33 -102l7 -9q0 -9 -13 -9h-7q0 13 -13 13h-7q-6 -28 -19 -54q6 -7 6 -17q-8 -41 -20 -41l7 -9q-13 -46 -13 -49l6 -9q-13 -15 -13 -27v-31h-13v4zM53 250q13 0 13 9v5h-13v-14zM59 268h13q10 0 20 14v18h-13 q-9 0 -20 -14v-18zM66 210l13 5h7v-32h-14zM66 349q0 -7 26 -14v9l-6 23h-7q0 -7 -13 -18zM79 389q7 -9 7 -13l13 4q-7 9 -7 14zM92 488h20v9h-20v-9zM99 353h6v9h-6v-9zM99 523h13l7 18v5h-7q0 -8 -13 -23zM105 398h7l7 22q-14 -1 -14 -8v-14zM112 564q2 -9 13 -9h20 q-5 26 -13 26q-13 -4 -20 -4v-13zM112 658h7q0 4 6 13l-13 4v-17zM125 497h7v13h-7v-13zM125 635q7 -8 7 -13h20v22h-7q-20 -4 -20 -9zM125 689q0 -7 20 -14q15 0 20 23q-7 0 -7 4l-13 -4q-13 4 -20 4v-13zM138 756q7 -9 7 -13h7l6 22v4h-13q0 -13 -7 -13z" />
<glyph unicode="2" d="M0 47v24l20 19l-15 24v4q23 19 46 71v10l-5 9q22 10 86 109h10l-5 10l56 99q35 40 81 137q29 25 71 123q59 67 92 152q27 16 86 104v9h-15v5q56 54 91 161q10 0 10 9v5l-15 19q25 37 25 43q0 12 -15 33l5 28q0 10 -10 10q-11 0 -20 -5q-10 5 -16 5q0 -10 -10 -10h-10v5 q2 9 10 9l-5 10q2 9 10 9h5v-14h11q15 10 35 14l-5 10v19q2 9 10 9q12 0 20 -4l82 9q13 0 25 -24q0 -143 -71 -298q-13 -33 -25 -33v-14q0 -18 -66 -95q-36 -78 -82 -113q-18 -13 -86 -119q-11 -6 -71 -109q-15 -10 -96 -146q-21 0 -21 -38h-20v14h-5q0 -5 -5 -14h10v-19 q-32 -63 -66 -104q-5 9 -5 14q-10 -2 -10 -10q0 -22 66 -28q24 10 106 28h11v-9h10q10 0 10 9h-15v5q1 10 10 10q9 -5 20 -5q0 7 20 19q11 -2 11 -10v-4l-11 -15v-14l11 -14v-19q0 -7 -21 -19h-15v10h10v9q-38 0 -46 -38l-35 5q0 -7 -15 -14l5 -10v-4q-26 0 -76 -34h-11v5 q6 9 6 14l-11 5q-7 0 -15 -19q10 -5 15 -5v-9q-18 0 -121 -71h-11q-30 19 -30 47zM122 904q7 0 15 24q-5 9 -5 14q0 9 117 147q51 42 61 42q15 27 50 38q0 19 11 19q9 -5 15 -5q15 26 56 52q7 0 15 -14q-15 -28 -15 -47q5 -8 5 -19q-6 0 -26 -33v9h-10q-10 -38 -20 -38h-5 v19q24 38 45 38v24q0 9 -10 9q-7 0 -15 -14v-24h-5l-15 10q-13 -17 -26 -104q-25 0 -40 -81q-14 0 -36 -57q-7 0 -15 -14l5 -23q-20 -10 -35 -10q-43 0 -66 33l-36 -4h-5q-10 0 -10 9zM137 256l10 -5l5 9l-10 5zM167 289h6v9h-6v-9zM183 118q5 -9 5 -14h10q7 0 15 14 q0 7 -15 15h-10q0 -6 -5 -15zM228 147q2 -10 11 -10l10 14v5h-5q-10 -5 -16 -5v-4zM233 412h11l5 19q-8 0 -16 -14v-5zM269 204q5 -8 5 -29l20 14q-5 19 -25 19v-4zM269 459h5v10h-5v-10zM269 1027h5v10h-5v-10zM289 483h5q11 0 11 9h-6q-10 -1 -10 -9zM310 1070h10v14 q-10 -2 -10 -10v-4zM335 180q20 7 20 14q0 10 -10 10h-10v-24zM335 1103q2 -10 10 -10q10 0 10 10v14h-5q-10 -5 -15 -5v-9zM391 246q1 10 10 10v-10h-10zM401 199v5q30 38 30 47q-10 15 -10 24h10q21 -8 21 -34q-21 -4 -21 -28q11 -1 11 -9v-5h-11l-15 9q0 -9 -10 -9h-5z M462 1226q27 40 40 42h6q7 0 20 -18q-5 -10 -5 -15q-14 0 -31 10q-6 -29 -15 -29h-5q-10 0 -10 10zM472 227v14q10 -1 10 -9v-14q-10 0 -10 9zM482 270q0 5 5 5l-5 9q0 9 26 9l-6 -9q6 -9 6 -14h-26zM492 1197q2 10 10 10v-10h-10zM497 218v14h11v-5q0 -9 -11 -9zM513 241 q0 7 25 24h10v-14q0 -5 -5 -5l5 -9v-5h-10q-13 9 -25 9zM528 298q1 10 10 10q15 -5 15 -29h-5q-8 0 -20 19zM574 270v5h10v-15q-10 0 -10 10zM584 298l5 10l-5 9l30 14h10q0 -28 -35 -38q0 5 -5 5zM609 251v9h10v-9h-10zM624 275v9q16 0 36 19h5l-10 -14v-10l5 -9h-5 q-15 5 -15 9l-11 -4h-5zM629 1287l16 -9l5 19l-10 5h-6q0 -5 -5 -15zM645 336v5h10v-14q-10 0 -10 9zM685 322v5q39 42 66 42q26 -3 26 -28h-5l5 -10q-11 -10 -11 -28h-25l-10 -5v10q35 19 35 33q-5 19 -30 19q0 -29 -41 -29v-9h-10zM802 355v5q0 7 20 19h5q8 0 16 -15 l-6 -9q-16 9 -25 9q0 -9 -10 -9zM827 317v5q0 7 16 14h5q-11 -11 -11 -19h-10zM858 346q24 42 30 42q5 0 5 -5l10 5q8 0 16 -14q0 -10 -31 -14v-10h10v-4q0 -8 -20 -19q-20 4 -20 19zM929 346v9h10q0 -9 -10 -9z" />
<glyph unicode="3" horiz-adv-x="959" d="M-111 -176q42 74 67 89l-6 10q16 13 41 47l26 -5v5q-5 8 -5 19q0 17 112 122q38 48 92 95l62 66q0 9 25 23q16 13 16 29l194 198q44 56 51 56q18 40 87 137q36 72 36 99v5h-5q-103 -32 -251 -160q-79 -52 -92 -52q-41 38 -41 42v5q7 32 92 75q156 140 282 180 q0 16 138 23l25 -37q-6 -124 -127 -312q-52 -80 -103 -146q-87 -99 -153 -151q0 -11 -36 -33q0 -9 -108 -99q0 -20 -92 -85h-10v14h-5q-15 -5 -15 -28h10v-10h-31v10h-5q0 -33 -41 -43l-15 -9q0 9 -10 9q0 -9 -11 -9q0 5 -5 5q0 -5 -5 -5l5 -9l-107 -104q-48 -67 -77 -71 q0 5 -5 5zM206 1012q55 117 102 147q69 53 139 103l179 100h25q0 21 103 42v-5l10 5h5q11 0 20 -5q10 5 16 5q5 -8 5 -19h15l10 5q4 -19 26 -38v-5q-49 -122 -128 -212l-51 -56l-31 -34q0 -8 -112 -132q-56 -69 -87 -85q-14 -23 -21 -23l-5 9q60 76 67 76q14 47 30 47 q10 -5 16 -5l5 10l-10 14v9q70 103 81 109q0 15 93 174q30 58 30 81v23q0 10 -10 10h-10q-104 -48 -251 -208q-81 -80 -112 -142q-66 -42 -93 -42q-56 5 -56 42zM247 168q5 -9 5 -14h5v14h-10zM334 229h5v10h-5v-10zM355 319q10 0 10 9h-10v-9zM365 258h5v14h-5v-14z M457 366l15 -9q0 4 5 4q-5 10 -5 15h-5q-10 -2 -10 -10zM498 399h10v5h-10v-5zM651 583h10v5h-10v-5zM692 621h5v9h-5v-9zM800 1357q10 0 10 9h-10v-9z" />
<glyph unicode="4" horiz-adv-x="816" d="M0 724v9q26 73 38 73h9v23h-9v9l62 87q20 0 28 60q8 1 43 87l19 13q-5 9 -5 14q25 69 52 69l-5 23q53 100 53 110q22 87 52 87v9h9l-4 -23q37 -33 37 -87q0 -13 -18 -73l4 -9q-46 -118 -147 -284q-16 -50 -47 -101q0 -14 71 -18q52 0 190 41q0 5 4 13q-6 0 -14 14 q12 0 19 37l29 32v9l-5 18q43 70 43 87q19 0 19 23l-5 9q39 78 66 147q19 0 19 14q-5 0 -5 4l10 5l-5 9v9q0 26 38 78q-9 0 -9 9v23l4 9q-9 0 -9 10h5l23 -5q0 11 19 23h5q8 -41 24 -41q1 9 9 9l5 -28q-15 -9 -24 -9v-23q-47 -137 -47 -151q-12 -9 -19 -9v-5l5 -32l-53 -68 q11 0 15 -23l-10 -5q0 9 -9 9q-10 -1 -10 -9l5 -9q0 -37 -33 -60v-4l19 -18l-10 -5q0 7 -14 14q-16 -5 -19 -19l24 -4v-9q-20 -22 -33 -42v-9q14 0 14 -14q27 36 99 46l91 32q4 -13 28 -13q4 15 28 27q29 0 29 -18h33v9l-5 9q15 0 34 5v-23h28q12 -19 19 -19v-9h-14 q-11 0 -19 5h-5v-5h10q0 -9 -10 -9h-14q-5 0 -5 5l-9 -5h-38q-95 -15 -157 -50l-14 9q-23 -23 -57 -23q-13 0 -33 -32q-5 9 -5 14h-9q-38 -59 -38 -64h-5l-19 13l-5 -23h14q-47 -40 -47 -45q9 -2 9 -10q-28 -17 -28 -41q9 -1 9 -9l-23 5h-15v-14q0 -9 19 -9q0 -3 -33 -55 q5 0 5 -5q-12 -9 -19 -9v-37l-9 5q-5 -6 -5 -23h9v-5q-12 0 -33 -54l5 -33q-28 0 -43 -105q-9 -1 -9 -9l4 -9q-4 -46 -14 -46l5 -9v-5l-10 -13v-5q0 -17 5 -41q-9 -18 -9 -51q0 -7 9 -64q-19 -4 -19 -27h-9q0 10 -5 18q5 0 5 5h-15l-9 -5l-10 18l5 10q-5 25 -5 36q0 12 5 37 l-5 18l15 78l-5 9q14 38 28 142q29 55 29 64l-5 23l33 60q5 0 5 4l-5 23l19 9l-9 19q22 38 52 123l-9 -4h-15l5 23h-5l-28 -37q-44 -18 -157 -37q0 -9 -9 -9h-57q-48 0 -76 83zM204 14l9 4q10 -1 10 -9v-4h-10q-9 0 -9 9zM218 92h10v9h-10v-9zM228 0v9q9 -1 9 -9h-9z M256 1076h10v9h-10v-9zM270 467h5q9 5 14 5v9h-4q-7 0 -15 -14zM280 398l9 -4l5 23h-9zM289 1287h5v9h-5v-9zM299 431h9q0 9 -9 9v-9zM327 513h5v9h-5v-9zM332 559h5v9h-5v-9zM346 586l10 -4q9 0 9 13q-4 9 -4 14h-10zM346 715h10v4h-10v-4zM527 994h4l10 4q-5 9 -5 14h-5 q0 -10 -4 -18zM545 1026h5v9h-5v-9zM593 1191h5v14h-5v-14zM607 1186h5v14h-5v-14zM626 1296l10 -4h4q-4 8 -4 13q-10 -1 -10 -9zM636 1214q9 0 9 9h-9v-9zM678 1314h10q-5 9 -5 14h-5v-14zM688 911h14v5h-14v-5zM693 1420v9h9q0 -5 5 -14l-10 -4zM716 1388v9h10v-9h-10z " />
<glyph unicode="5" horiz-adv-x="1103" d="M-29 -111h10v-12h-10v12zM16 -80q18 0 216 168q41 43 66 43v-6l201 167q10 -6 15 -6q0 21 80 118q35 47 46 161q-16 99 -31 99q-76 -1 -236 -87q-83 -60 -171 -180h-10v13h-5q0 -25 -40 -25q0 8 -25 31q0 22 -20 49v7q15 0 30 43v37q0 105 181 459q41 73 105 235 q41 58 66 74l-5 13q1 12 10 12l15 -12q27 43 40 43l40 -25q10 6 15 6v-6l10 6h5l31 -24q16 12 25 12l10 -19q-5 -10 -5 -24h5q10 0 10 31h15l35 12l10 -19l-10 -18q10 -15 10 -25q20 9 20 19l-5 31h25l15 12q8 -50 21 -50q9 0 25 38l35 6l5 -13l-5 -31l10 -6h10q12 13 20 13 l-5 31h5q5 0 5 -7l25 19l5 -12q-3 -44 -10 -44q-10 6 -15 6l-10 -18l10 -19l-10 -6h-10q0 19 -10 19h-10q-11 0 -20 -44q5 0 5 -6q-11 -6 -45 -12v31q-10 0 -10 12h-16l5 -12v-6q0 -7 -5 -7l5 -12q0 -21 -90 -31q0 19 -10 19h-10v-19h-50q0 19 -10 19h-10q0 -7 -6 -19 q-65 6 -100 19q-54 -121 -65 -137q0 -26 -86 -179l-25 -38q0 -30 -15 -30q0 6 -5 6q0 -6 -5 -6l5 -13v-6l-55 -81q-15 -41 -51 -99v-12h5l96 68q0 6 5 6q9 -6 20 -6q2 24 96 62v-6q23 18 30 18l20 -6q41 31 55 31q10 -2 10 -12q-5 -12 -5 -19l10 -6l25 6q-10 20 -10 31 q8 8 51 13v-7q0 -24 -11 -24q10 -29 21 -31q15 4 25 43q-15 0 -15 12v13h5q15 -6 15 -13l10 7h15v-13l10 6h5q35 -25 35 -80l-10 -6q5 -12 5 -19q-5 -19 -10 -19q0 -7 25 -30q-10 -2 -10 -13l-10 6h-15v-37h20q0 -12 -10 -12q0 6 -5 6q-10 -20 -10 -37v-19q-15 0 -15 -6 q10 -20 10 -31l-5 -12q5 -11 5 -25q-13 0 -20 -56q-20 -49 -121 -192q-37 -46 -75 -62l-40 -37l-16 12q-13 -37 -90 -62q0 -12 -10 -12h-5q-10 0 -10 12q-25 0 -25 -31l-20 7q-41 -25 -56 -25q-7 25 -15 25h-5v-7l5 -12q-10 -37 -20 -37q0 10 -20 25q0 -26 -25 -37 q0 12 -10 12q0 -27 -55 -43v6q-39 -31 -51 -31v6l-10 -6h-5v18zM117 -18v-12h5v12h-5zM212 583q8 0 15 19h-5q-10 -2 -10 -13v-6zM227 44q20 -16 20 -25h5l11 7l-5 12l5 12l-16 13q0 -13 -20 -13v-6zM318 831h5v12h-5v-12zM348 868h5v12h-5v-12zM393 131h10q0 12 -10 12v-12 zM433 156h10l6 25l-11 6h-5v-31zM474 211h5v13h-5v-13zM474 1153h5v19h-5v-19zM489 676h15q0 12 -10 12zM534 236q5 -12 5 -18q10 0 10 12q-10 0 -10 12h-5v-6zM629 1246h21v12h-21v-12zM640 354q5 -12 5 -19h5l5 25h-15v-6zM645 515h5v12h-5v-12zM650 416h5v18h-5v-18z M670 397q1 -12 10 -12l5 12q0 13 -10 13zM675 1215h5q10 0 10 12l-10 7h-5v-19zM680 472q9 -29 20 -31v12q-5 12 -5 19q5 0 5 6l-15 12q-5 -12 -5 -18zM705 744h5v13h-5v-13zM705 1283h15q10 0 10 12q0 13 -10 13h-10zM710 1246h10v12h-10v-12zM750 1215h5q10 6 15 6v13 q-10 0 -10 18h-10v-37zM780 1302h5v12h-5v-12zM846 1240h10q8 0 20 25v6h-5l-25 -6v-25zM966 1265v12q3 0 20 6q0 -9 -15 -18h-5zM981 1333v12h10v-12h-10zM991 1308v6l36 31h5v-6q0 -8 -26 -31h-15zM1057 1339v6h10v-6h-10zM1097 1351v13q10 -2 10 -13h-10z" />
<glyph unicode="6" horiz-adv-x="832" d="M-4 13q0 28 23 120q0 25 -18 70q0 120 41 278q11 10 60 153q11 6 74 136q66 94 153 245l148 186q8 0 88 114q129 0 129 -87q-21 -131 -74 -131q-8 -22 -101 -82q-113 -106 -195 -201q-46 -69 -97 -131q-96 -162 -120 -311v-54q158 247 259 300q25 26 194 98v16h5 q0 -16 18 -16q1 7 24 21h4q134 -15 134 -49l5 -11q-8 -61 -42 -114q-8 0 -37 -49q-9 0 -51 -98l-87 -153q-97 -115 -125 -125q-18 -34 -60 -54q-105 -82 -204 -82q-32 0 -32 11l-10 -6q-19 33 -37 33q-32 -68 -50 -82q0 13 -19 27v28zM-4 -64q0 8 14 17v-6q-5 -10 -5 -16h-9 v5zM158 198q20 -16 32 -16q179 0 338 283v16h-5q-52 0 -152 -49l-14 -16q-5 0 -5 5q-127 -94 -194 -223zM306 127q1 -11 9 -11v17h-9v-6zM398 154h5q7 0 14 17v5q-7 0 -19 -22z" />
<glyph unicode="7" horiz-adv-x="992" d="M0 1192q28 84 96 84q0 14 212 32h200q9 0 16 -4q15 8 36 8q4 0 4 -4q20 4 96 8v-4q72 12 300 36q0 7 20 8q6 0 12 -12q-9 -11 -72 -44v-4h4q10 0 44 8v-4q-49 -49 -52 -60q4 -8 4 -12h8l20 4v-4q-1 -12 -64 -28q0 -6 36 -76v-12q0 -76 -60 -76q-57 -8 -96 -24v4 q-8 0 -116 -52q-7 0 -28 -16l-48 -36q0 -10 -32 -20q-3 -18 -68 -68q-52 -39 -52 -56q-12 0 -32 -28q4 0 4 -4q-10 0 -32 -32q-15 0 -80 -92q0 4 -4 4q0 -15 -68 -128q-50 -99 -68 -188q-24 -60 -24 -112h-8q0 12 -8 12q4 12 8 12q-8 13 -8 20h-8q0 -6 -8 -16v-24h-4l-8 4 l-4 -8v-36h8v-4h-8v-12q0 -4 4 -4l-4 -8v-52q0 -4 -4 -4q8 -23 12 -64v-4h-4q-52 109 -52 208v48q0 245 248 596q125 156 200 228v4q-38 0 -100 8q-8 -4 -12 -4q-16 8 -24 8q-4 0 -4 -4l-20 4h-48q-92 -16 -100 -16h-16q-50 0 -124 76zM76 248h4v8h-4v-8zM92 424h4v8h-4v-8z M96 180v4h4q8 -4 12 -4v-4q0 -8 -8 -8zM120 400h4q6 0 12 12h-4q-6 0 -12 -12zM124 344h8l4 20h-12v-20zM896 1228h8v8h-8v-8z" />
<glyph unicode="8" horiz-adv-x="968" d="M0 148v36q0 75 235 349q6 22 123 145q-22 2 -49 30q0 3 3 10q0 52 -23 52q0 5 -3 53q0 28 26 112q48 105 111 191q144 168 163 168q0 -3 3 -3q0 14 46 42q19 20 60 43l12 -6q3 0 14 16q9 0 20 10h43q28 -11 28 -59v-4h18q4 0 8 -9q-8 0 -8 -17h-3q-4 0 -9 10v7h6v3h-9 q-7 -7 -11 -7q0 -8 6 -29l5 3h3q26 -22 26 -53q0 -6 -6 -23q6 -1 6 -6v-23q0 -8 -3 -14l6 -13q-6 -21 -6 -23q6 -34 6 -36h-3l-6 3l-3 -6v-23q-8 0 -8 -17q3 -17 3 -20q20 17 20 37h2q9 -14 9 -37q-6 -25 -26 -49v-7q6 -1 6 -6v-3q-17 -13 -17 -17q0 -40 -97 -145 q-7 -11 -63 -56l-3 -6v-4q25 0 34 -62l-6 -3q-20 26 -25 26v-7q8 -17 8 -33l-6 -3h-2q-60 12 -60 17q-15 -7 -20 -7q0 -29 31 -33l6 3q10 -6 23 -6q0 4 8 10q9 -4 9 -7l20 3h3q40 -17 40 -33q0 -60 -52 -108q-18 -43 -34 -53q-6 -8 -6 -16h-3l-8 6q-6 -12 -6 -26l6 -10 q-3 -6 -3 -10h-6l-6 23h-5q0 -11 -15 -39l-5 3q-3 0 -12 -13l6 -13q-12 -50 -23 -50h-3l3 23h-3q-13 0 -26 -46q6 -1 6 -6v-7h-3l-11 7q-12 -15 -12 -17v-3l6 -10v-10q0 -2 -20 -23q-6 0 -6 13h-5q-6 -1 -12 -16q6 -11 6 -20q-5 0 -31 -40h-3l-6 4q-11 -33 -34 -33 q-33 -47 -95 -82q-67 -37 -97 -37v4q-12 -7 -17 -7q-73 0 -138 49q0 7 -22 23q0 6 -6 17l-6 -3q-9 0 -17 62zM112 151l11 -6q47 0 149 39q200 115 314 330q0 30 -40 102q-14 30 -14 36q-16 0 -132 -115q0 -3 -68 -79q-16 -21 -37 -33q-2 -15 -43 -60q-118 -128 -118 -151 q-9 0 -22 -63zM366 767q0 -10 26 -16h8q69 0 195 66q88 70 140 184q46 97 83 214q0 5 3 39q-6 15 -11 17v-3l2 -7q-25 -56 -45 -56q-114 -30 -163 -95q-19 0 -72 -73q-57 -58 -57 -66q-3 -20 -52 -62q0 -10 -37 -46q-3 -25 -11 -37v-3q0 -7 3 -13q-12 -20 -12 -36v-7z M375 1011h3v6h-3v-6zM389 1037h3q6 0 6 7h-3q-6 -1 -6 -7zM392 984h3q5 0 5 7v7h-8v-14zM412 1007q4 0 8 10l-5 4l-3 -7v-7zM446 181q19 9 20 17q0 6 -5 6q-15 -5 -15 -23zM492 230h3q4 0 8 10v4h-5q-6 -1 -6 -7v-7zM543 658q6 4 9 4q4 -4 14 -4q3 6 3 14q0 6 -5 6h-3 q-11 -10 -18 -10v-10zM549 655q5 -13 9 -13v3q-3 7 -3 10h-6zM581 649h5v6h-5v-6zM635 484q3 -6 3 -10h6l5 20h-8q-6 0 -6 -10zM792 1340h6v3h-6v-3zM827 1195q5 0 5 7v6q-5 -1 -5 -6v-7zM838 1090v6h3v-6h-3z" />
<glyph unicode="9" horiz-adv-x="964" d="M0 791v8q3 27 26 51h5q-22 -43 -22 -59h-9zM4 694l5 25q0 10 -5 17q7 17 13 17h5v-4l-5 -22q7 0 14 13v4l-9 13v13q13 14 13 42l22 -4h4l5 21q-7 0 -14 13v17l70 105q-4 0 -4 5l9 4q13 0 13 -17h4q13 4 13 25l-26 13q-9 0 -30 -34q-35 -38 -35 -55h-9v9q-6 0 -13 -22 q-18 7 -18 13q32 30 70 93q4 0 13 13l-4 8v5h9v-13h13l-5 21q0 10 35 42q0 26 31 26q9 26 57 59q2 10 30 21q0 -4 5 -4v4l-5 9q18 22 31 25q9 14 9 25l22 -4q0 16 26 34h4q0 -9 4 -9t53 34q-6 0 -13 13q22 5 22 13q5 -5 26 -5q0 11 52 38l31 22q23 0 39 -13h13q0 9 5 17 q-5 0 -5 4l35 9v-17h13q7 0 14 12q-5 0 -5 5l9 4q1 -9 9 -9q13 0 35 13l8 -4l9 4q38 -6 79 -63q4 -17 4 -30q0 -5 -4 -13q9 -47 9 -63h-9l4 -9v-8q0 -6 -13 -13q-9 0 -9 9l5 29l-40 -46l-8 4h-5q0 -7 -8 -21q6 0 13 -13q0 -8 -9 -8h-22v-5q4 -8 4 -12q-27 -11 -39 -55 q-6 -23 -65 -85q-7 -17 -14 -17v4q-17 0 -21 -54q-7 0 -53 -64q-35 -38 -35 -46l-9 -26h5l161 186q0 11 62 76q25 44 48 60q13 40 13 42q-5 8 -5 13q32 10 57 50h9q26 -54 26 -63h-8v8q-9 -1 -9 -8v-38q-23 -47 -31 -47q5 -8 5 -12q-15 -48 -57 -123l-22 -38 q-42 -50 -66 -131q-30 -48 -70 -140q-40 -80 -61 -110q0 -10 -65 -118l-18 -38q-7 -35 -52 -81q-13 -41 -13 -46h-9l-13 8l-22 -38v13h-9q0 -17 -9 -17l5 -21v-9h-5l-21 17q0 -8 -5 -8l5 -9l-5 -8h13v-4q-12 -14 -22 -38q-8 -2 -8 -9q8 -1 8 -8l-8 -4q0 4 -5 4 q-3 -17 -8 -17l4 -9v-8q0 -9 -9 -9q0 -4 5 -4q-14 -36 -14 -42h-8q0 13 -9 13v-30h-9q-4 38 -13 38h-4l-9 -4l4 -9v-4h-8q0 17 -13 72h4l-4 9q0 4 4 12l-4 21q4 68 13 68q-5 8 -5 13q31 129 96 245q14 38 57 106q22 29 22 51h4v-9h5q0 5 4 13q-4 7 -4 17q46 56 61 97 q4 0 39 55l-17 13h-13q0 -9 -5 -9q9 -14 9 -25v-9h-4q-14 9 -22 9l-9 -13q5 -8 5 -13q-30 -10 -35 -29q8 -2 8 -9l-13 -8h-4v13q-18 -7 -18 -13v-13h5q8 4 13 4q0 -16 -31 -16q0 16 -13 16q-6 0 -13 -12q4 -8 4 -13l-8 -4h-22v-21h-5q-4 0 -4 4q-30 -27 -92 -55v-9h-4v13 l4 9h-4q-34 -30 -61 -30q-8 4 -18 4l-8 -4l-9 4l-57 -8l-9 12q5 36 5 60q-18 8 -18 21t18 29l-9 5q-9 0 -9 -13h-4q0 4 -5 13zM26 867q7 17 13 17v-25h-4q-9 0 -9 8zM35 647h9v4h-9v-4zM35 719h9v8q-9 -1 -9 -8zM35 761l9 -29h4q0 13 18 34v25l21 -4l9 12v5q0 8 -9 8h-4v-8 h-9l-8 4l-31 -34v-13zM48 668l9 -4v4l65 -21q26 17 40 17q4 -8 4 -13h18v17h4q10 0 17 -4q38 34 62 34q39 21 52 34l13 -9q15 30 35 30q12 25 18 25h8l9 -4q13 38 18 38l8 -4q5 17 13 29l9 -4q9 0 13 34l18 13h4q9 0 9 -13q9 0 9 9l-5 29l9 4l13 -8q9 0 9 8l-5 30q7 0 62 63 l56 72q15 0 18 34q27 13 61 85q31 31 39 51q0 24 -39 29q0 -20 -70 -42h-17v8h-5q-2 -19 -105 -55l-52 -34q-9 0 -35 -21q-96 -67 -122 -93q-11 0 -101 -97q-52 -51 -52 -72h-9q-4 0 -4 4q-9 -4 -14 -4l5 -21l-9 -4h-9v8h-4q0 -5 -22 -25v-13h5q8 4 13 4v-4q-19 -46 -48 -63 l4 -22q-15 0 -18 -25q5 -8 5 -13h-5l5 -8zM70 859l4 -30q6 0 48 63q5 0 5 5v8h-5q-17 -21 -35 -21l5 -8l-9 -5q0 5 -4 5q0 -7 -9 -17zM74 626q2 -8 9 -8v8h-9zM114 918h4q0 5 17 29h-8q-13 -21 -13 -25v-4zM127 909q10 0 17 -4l5 9l-5 8q5 8 5 13h-5q-7 0 -17 -17v-9z M140 1019h9q0 13 8 13q-4 8 -4 13h-4q0 -7 -9 -17v-9zM153 947q0 -6 13 -12h4v25q10 0 14 17l-5 8v5l13 21h-17q-5 0 -13 -17q0 -13 13 -13q0 -17 -22 -29v-5zM162 1066q0 -12 8 -26q22 7 22 30q-4 0 -4 4q-18 -8 -26 -8zM175 1074q9 0 9 9v4h-9v-13zM179 926h5q0 7 8 17 l-8 4l-5 -8v-13zM192 969q0 -6 13 -13q7 0 14 13v12h-18q-9 -1 -9 -8v-4zM192 1019q9 0 9 -4q5 0 22 13q-4 8 -4 12h-9q-7 0 -18 -16v-5zM201 622q9 4 13 4v4h-13v-8zM201 1074h4l18 13q-4 8 -4 13h-5q-6 0 -13 -13v-13zM219 1049l17 -13l17 21v5q-13 0 -13 8h-8 q-10 0 -13 -21zM223 998q0 -6 17 -13q9 14 9 22l-9 4h-8q-9 -1 -9 -9v-4zM227 634h9q9 0 9 9v8h-5q-8 -4 -13 -4v-13zM227 1104l9 -4q7 0 17 17v12q-26 0 -26 -25zM253 1083h9v4h-9v-4zM258 1019h4q9 5 13 5v12h-8q-9 -1 -9 -8v-9zM262 1134q2 -9 9 -9l22 25q-5 9 -5 13h-4 q0 -8 -22 -21v-8zM267 668q8 5 13 5v12h-13v-17zM267 1070q8 4 13 4v9h-5q-8 -2 -8 -9v-4zM288 1117q5 -9 5 -13h22l4 17l-13 8zM293 1176q4 -21 9 -21q17 6 17 12v13h-4zM306 1189h4v12h-4v-12zM310 643v8h9v-8h-9zM315 1201q13 0 13 -21h4q9 0 9 9v4l-4 8q8 0 8 21l22 -4 q0 4 4 4l-4 9q4 7 4 17q-24 0 -30 -26q-16 0 -26 -21zM328 1129h9q4 13 4 26q-9 -5 -13 -5v-21zM350 1163l13 -8q17 18 17 25h-9q-19 -8 -21 -17zM358 300q9 0 9 9l-9 4v-13zM358 1117q2 -9 9 -9l9 13q-5 0 -13 4zM371 618v8h5v-8h-5zM376 1273v4q1 9 9 9h4v-4q0 -9 -9 -9 h-4zM385 1184h4q12 0 22 21l-13 9q-13 -4 -13 -25v-5zM389 1248q6 0 13 12v5h-4q-9 -2 -9 -9v-8zM393 1134h5l4 16q-9 0 -9 -12v-4zM406 1231l22 -4l5 21h-5q-20 -8 -22 -17zM415 1172q2 -9 9 -9h13l-4 9v4l4 8h-9q-6 0 -13 -12zM433 1290h8q0 8 -8 8v-8zM446 1256 q10 0 17 -4l5 21h-9q-6 0 -13 -13v-4zM450 732q2 -9 9 -9l9 17h-9q-9 -1 -9 -8zM472 1320h18v8h-5q-8 -4 -13 -4v-4zM485 1273q9 4 13 4v5h-13v-9zM490 478h4v8h-4v-8zM524 626h9v4h-9v-4zM524 1345l22 -4l18 8q-5 8 -5 17q-22 0 -35 -21zM546 939q0 -6 13 -13l5 9v12 q-5 0 -13 5l-5 -9v-4zM546 1298h9v5h-9v-5zM551 1231h8v4h-8v-4zM586 1311h8v9h-8v-9zM625 939h9q0 8 -9 8v-8zM638 964q4 0 4 -4q9 4 14 4q-5 9 -5 13h-9q0 -4 -4 -13zM699 922q9 0 9 9v8q-9 -1 -9 -8v-9zM747 994h9v13h-9v-13zM769 1150q5 -8 5 -12q21 5 21 12h-8 q-5 0 -5 -4l-8 4h-5zM769 1252h5q17 6 17 13q0 8 -9 8l-13 -17v-4zM774 1117h4v8h-4v-8zM791 1066h9v8q-9 -1 -9 -8zM795 1163h14q0 13 8 13q0 -4 5 -4l4 8v4l-9 -4q0 9 -8 9q-7 0 -14 -13v-13zM800 1142q9 0 9 13v4h-5zM804 1125q0 -6 13 -13h5v5q0 8 -9 8h-9zM813 1252v13 l9 12v21h8q0 -23 9 -46q-4 -7 -4 -17l4 -8h-4q-7 0 -13 17q4 8 4 12v9h-4v-13h-9zM839 1286v8h9v-8h-9zM844 1227q5 19 17 21v-13q0 -9 -4 -17q4 -7 4 -17v-8h-9q-3 34 -8 34z" />
<glyph unicode=":" horiz-adv-x="557" d="M100 187l3 56q6 0 17 33q36 44 48 44l7 -5q34 12 34 33h21l20 16l7 -5v5l24 -5q5 0 14 11h13l21 -6l7 6q57 -6 75 -17q30 6 34 6v-11q-17 -2 -17 -17q-41 -5 -41 -16h41v-11h-14q-27 -8 -27 -23q-3 0 -3 6q-48 -26 -48 -44q-24 -20 -24 -39q-53 -83 -96 -83 q-41 14 -82 44h-3q-7 0 -7 -16h-7l3 27v6q-15 0 -20 5zM127 709l6 7l-6 21v13q11 9 11 14l-5 24h5l-5 7l16 20v21q21 0 33 34l-5 7q0 12 44 48q33 11 33 17l56 3q5 -5 5 -20h6l27 3v-7q-16 0 -16 -7v-3q30 -41 44 -82q0 -43 -83 -96q-19 0 -39 -24q-18 0 -44 -48q6 0 6 -3 q-15 0 -23 -27v-14h-11v41q-11 0 -16 -41q-15 0 -17 -17h-11q0 4 6 34q-11 18 -17 75z" />
<glyph unicode=";" horiz-adv-x="557" d="M135 682l6 7l-6 21v13q11 9 11 14l-5 24h5l-5 7l16 20v21q21 0 33 34l-5 7q0 12 44 48q33 11 33 17l56 3q5 -5 5 -20h6l27 3v-7q-16 0 -16 -7v-3q30 -41 44 -82q0 -43 -83 -96q-19 0 -39 -24q-18 0 -44 -48q6 0 6 -3q-15 0 -23 -27v-14h-11v41q-11 0 -16 -41 q-15 0 -17 -17h-11q0 4 6 34q-11 18 -17 75zM140 -47q16 19 22 97q6 0 6 4l-6 28q17 64 45 87q-17 0 -17 5q11 41 11 60v4l-5 23l11 5l16 -9q39 14 39 23l11 4h6l11 -4q2 9 11 9q50 0 72 -60q11 -1 11 -9v-9q0 -17 -5 -42q11 -18 11 -32q-27 -131 -50 -142q-83 -97 -83 -221 v-37q0 -6 -17 -14l-11 5q-6 -8 -6 -23h-11q-53 0 -72 248z" />
<glyph unicode="&#x3c;" d="M87 674v83l840 484v-167l-625 -359l625 -355v-167z" />
<glyph unicode="=" horiz-adv-x="1484" d="M29 1021v4q0 21 20 28q2 16 12 16h8q0 -12 28 -12h8l20 4v-4l8 4h40l40 4v-4l8 4h20q4 0 4 -4l8 4h76q4 0 4 -4q8 4 12 4q21 -4 24 -4q4 0 4 4q65 -5 108 -12q4 0 4 4q173 -12 200 -16l8 4l56 -8l8 4q8 -4 12 -4v-16l-4 -8h8q4 24 12 24h20l20 -4v-4l-4 -20q9 0 16 -4 l4 8v4l-8 12l8 4l16 -4h24q-4 -21 -4 -24v-4h4q8 28 16 28q4 -7 4 -20l20 4v4h-16q4 12 24 12q8 -1 8 -8l-4 -8h4l12 8l12 -8q0 12 8 12l20 -4v-12h-4q-8 4 -12 4l-20 -16q4 0 4 -4q-8 -4 -12 -4q-8 4 -12 4v-28h-12v4l4 20q-8 0 -8 8q4 0 4 4q-4 0 -12 4q-8 -24 -20 -24 h-12v-16h-4q-8 0 -8 8q4 8 4 12l-8 4h-8l-12 -8h-8l-8 4q-11 -28 -16 -28l-4 8v20q-4 0 -12 4q0 -8 -8 -8h-20q0 -24 -8 -24q-5 23 -12 32q4 0 4 4h-4q-5 0 -16 -20l8 -4q-6 -16 -12 -16q-4 8 -4 12h-8l-12 -8l-24 4q0 -8 -8 -8t-8 8l-28 -4h-4l-8 4q0 -12 -8 -12h-4 q0 10 -8 20l4 8h-4l-8 -4l4 -8q0 -14 -44 -20q0 8 -8 8q-7 -4 -16 -4v4q-15 -8 -32 -8l-8 20q4 8 4 12l-8 4l-4 -8v-4q0 -4 4 -4q0 -24 -48 -24l-20 4q-2 0 -52 -4v4q-6 -4 -52 -8l-8 4l-8 -4q-8 0 -8 4l-28 -4h-56q-14 0 -36 4q-16 -8 -28 -8l-8 4q-34 -8 -40 -8 q-42 0 -64 92zM81 649l8 4h8v-8h4q8 0 8 8l-4 20h-4v-8h-8v32l20 8v12l-4 8l8 4l8 -16l8 4q32 -4 32 -12q-8 -1 -8 -8l4 -8l-4 -8v-4h4q0 4 4 12q-4 8 -4 12q11 10 32 16q0 19 56 24v-4q14 8 56 12v-4q16 8 44 8h16q4 0 4 -4q6 5 40 8q12 -4 12 -8q8 4 12 4q53 0 108 -8 q4 0 4 4q48 -7 48 -12q8 4 12 4q75 -14 96 -24q22 4 32 4q12 -4 12 -8q-4 -8 -4 -12h12v12h4q8 -1 8 -8l8 4h12l16 -12q1 8 8 8h8q31 -10 36 -24h8l-4 -8v-4h4l8 24h8l4 -16h4l16 12q16 -8 16 -12l8 4q26 -4 40 -12l24 4q0 -20 20 -32h24q0 12 8 12l20 -4q1 8 8 8 q6 0 12 -12l20 4h8v-8q4 0 12 4q44 -3 44 -12l8 4h12l12 -8h4l12 8l16 -12q1 8 8 8h12q9 0 16 -4q6 4 44 8q8 -4 12 -4l20 12l8 -4q0 6 40 24h4q8 -1 8 -8v-4q0 -5 -28 -20q4 -8 4 -12q-21 -16 -40 -16l4 -8l-128 -68q0 8 -8 8h-24l-16 -12h-16l-8 4l-4 -8q-4 0 -12 4 q-22 -4 -36 -4q0 8 -8 8q0 -8 -12 -8l-16 4l-8 -4q-7 0 -32 8l-20 -4l-52 12q-8 -4 -12 -4q-158 32 -340 56l-8 -4q-12 4 -12 8q-8 -4 -12 -4q-23 0 -44 8l-20 -4l-20 4l-8 -4q-12 4 -12 8l-8 -4h-44q-4 0 -4 4l-8 -4h-92q-9 0 -16 4q-7 -4 -16 -4h-12q-4 0 -4 4l-8 -4 l-24 4l-8 -4q-67 0 -128 52zM101 1001h4v12h-4v-12zM109 1037h4v8h-4v-8zM121 665h8v8h-8v-8zM121 697h8v-4l-4 -8q4 0 12 -4v4q-6 16 -12 16h-4v-4zM157 961h4v8h-4v-8zM193 677h4l4 8v4h-4q0 -4 -4 -12zM197 713l24 -4v12h-16q-8 -1 -8 -8zM237 725q1 -8 8 -8h4v12 q-8 -4 -12 -4zM245 657h4v8h-4v-8zM245 705h4v8h-4v-8zM253 1037q1 -8 8 -8v8h-8zM277 705q8 0 8 12v4h-4zM301 673q8 0 8 8v4q-8 -1 -8 -8v-4zM305 969h20q0 8 -8 8h-12v-8zM361 1001q7 4 16 4v8h-8q-8 -1 -8 -8v-4zM365 673h4v8h-4v-8zM365 965h4q10 8 16 8v4q-9 0 -16 4 l-4 -8v-8zM421 965l28 -4l4 8v4l-4 8l-20 -4l-8 4v-16zM445 1033h8q8 0 8 8l-8 4q-8 -1 -8 -8v-4zM477 717h4v12h-4v-12zM509 717h8v8h-8v-8zM533 965h4q8 0 8 8h-4q-8 -1 -8 -8zM569 981q8 0 8 8h-8v-8zM597 1017l8 -4h4v4q0 8 -8 8zM617 969h4v8h-4v-8zM649 969h8v8h-8v-8 zM697 609h4v8h-4v-8zM705 969q8 0 8 8h-8v-8zM733 685h4v8h-4v-8zM765 701q8 -10 8 -20q8 0 8 8v4q-8 0 -8 8h-8zM785 1017h8v4h-8v-4zM821 681h4v8h-4v-8zM825 565h12v8h-12v-8zM829 689q1 -8 8 -8v8h-8zM849 1013q8 0 8 -12h8q-12 13 -12 20h-4v-8zM885 565q8 0 8 8h-8v-8 zM913 653q8 0 8 8h-8v-8zM933 661h4v8h-4v-8zM945 645q0 -6 16 -12l4 8v16q-10 -8 -20 -8v-4zM957 573h8v8h-8v-8zM957 661h8v4h-8v-4zM973 977h12v-8h-4q-8 0 -8 8zM985 985v8q8 -1 8 -8h-8zM997 541h8v4q0 8 -8 8v-12zM1013 661h12v-8h-4q-8 0 -8 8zM1017 1013v8 q8 -1 8 -8l16 8l4 -8v-8l-20 4q0 -4 -4 -4zM1029 985h16q0 -8 -8 -8t-8 8zM1057 977v8q9 0 16 4l4 -8l-8 -4h-12zM1069 1013v4h8q8 -1 8 -8l-8 -4q-8 0 -8 8zM1081 533h4v12h-4v-12zM1081 585h4v12h-4v-12zM1089 629q1 -8 8 -8h4v4q0 6 -12 12v-8zM1101 981v8h12v-8h-12z M1125 981v8h8v-8h-8zM1145 541h12v12h-4q-8 -1 -8 -8v-4zM1157 981v8h8v-8h-8zM1173 585h4v8h-4v-8zM1177 981v4h8v-4h-8zM1229 557h12v12h-12v-12zM1241 981v8h4v-8h-4zM1265 597h4v8h-4v-8zM1297 981v8h4v-8h-4zM1309 593h4v8h-4v-8zM1405 661v12q2 0 16 4v-4 q0 -6 -12 -12h-4z" />
<glyph unicode="&#x3e;" d="M87 193v167l625 355l-625 359v167l840 -484v-83z" />
<glyph unicode="?" horiz-adv-x="804" d="M41 37q10 12 15 57q3 0 3 2l-3 16q11 37 29 51q-11 0 -11 3q8 24 8 35v2l-4 14l7 2l11 -5q26 8 26 13l7 3h4l7 -3q2 6 8 6q33 0 48 -35q7 -1 7 -5v-6q0 -9 -4 -24q8 -11 8 -19q-18 -76 -33 -83q-56 -56 -56 -128v-21q0 -4 -11 -8l-7 2q-4 -4 -4 -13h-7q-35 0 -48 144z M126 415q0 2 3 2l-3 6v2q18 22 73 174q14 17 30 67q59 104 177 246q9 19 36 51q56 76 89 182q11 43 11 115q-4 5 -4 8q-37 -4 -66 -40l-44 -49q-15 -26 -52 -58l-40 -57q-19 -9 -56 -13q-59 0 -129 48l-7 8v6q19 15 37 50q14 0 18 19q16 0 22 24q34 25 41 27q68 58 103 67 q14 16 18 16h4l7 -3q17 28 122 59q35 8 48 8q30 0 59 -11q8 -10 22 -13q18 -39 18 -46l8 3h3v-5q15 -50 15 -70q-15 -62 -37 -112q-10 -60 -147 -246q-25 -23 -147 -190q-78 -95 -111 -144q-21 -48 -40 -59q0 -10 -19 -19q0 -5 -14 -27l-8 3h-3l-34 -29h-3z" />
<glyph unicode="@" horiz-adv-x="2019" d="M100 508q0 242 124 464.5t345.5 342t456.5 119.5q362 0 609 -230t247 -566q0 -270 -176 -439q-175 -168 -346 -170q-63 1 -100.5 18t-61.5 54q-29 -37 -82 -64.5t-133 -27.5q-144 0 -256.5 100.5t-112.5 233.5q1 87 53 166.5t132.5 115t173.5 49.5q67 16 110 42.5 t43 74.5q-2 69 -41 125t-129 56q-72 0 -121.5 -59t-50.5 -125h-45v159q0 20 72 40q73 20 178 20q109 -2 193.5 -64.5t84.5 -157.5v-589q0 -117 94 -117q185 35 267 191.5t82 382.5q-20 335 -232 540q-197 188 -480 188q-205 0 -392.5 -137.5t-269.5 -355.5 q-67 -178 -67 -361q0 -313 129.5 -511.5t305 -290.5t318.5 -92q274 0 575 208v-75q-263 -184 -571 -184q-240 0 -461 122.5t-343 342t-122 461.5zM753 343q0 -107 64 -194t183 -87q97 5 126 167v476q-54 -63 -154 -83q-83 -10 -151 -80t-68 -199z" />
<glyph unicode="A" horiz-adv-x="873" d="M17 -18l14 196q0 4 -4 4q5 39 7 47q0 3 -3 3q5 80 10 80l-3 7q55 389 130 674q72 220 148 343q44 74 44 87q0 11 14 22l17 -4h4q48 21 48 55q13 0 20 7h14q69 -29 83 -337q-4 -111 -4 -144l-3 -8l3 -7q-7 -97 -17 -170q3 -7 3 -11q-6 -12 -6 -22q3 -26 3 -29 q-9 0 -14 -94h11v-22q-10 0 -14 -86l3 -8q-3 -6 -3 -14v-4l127 -69q57 -21 110 -54q23 0 27 -14l7 3h7v-7q-37 -6 -45 -25q-21 -8 -31 -8v-3h11v-7q-18 0 -41 7q0 -5 -11 -11q-2 0 -20 4l-7 -4q-4 0 -4 4l-134 -22l4 -36v-22q0 -4 -4 -4l4 -7q10 -230 24 -311q-4 -6 -4 -18 h-13l-7 3v-3q3 -7 3 -15q-10 0 -13 -18h-4v-11l17 -14q0 -11 -10 -11v-11q3 0 3 4q14 -4 24 -4v-7l-6 -11q10 0 10 -15q7 0 7 11t-7 47h3q6 0 14 -58q-3 -14 -14 -14q-6 4 -10 4v-4q1 -7 7 -7q-7 -18 -10 -18q-7 3 -11 3q0 -3 -3 -3l-7 10v8l7 -4h3q7 0 7 7q-3 7 -3 15h-11 q0 -15 -6 -15q-4 9 -14 69l3 25q-13 0 -24 113l10 7q2 -7 7 -7v3l-3 18h-4q0 -10 -6 -10q-11 16 -11 29q5 14 11 14h13l7 -4v4l-3 14q3 7 3 11q-3 0 -3 4q-18 -4 -28 -15h-3q0 20 -7 55q0 3 3 3q-6 30 -10 98q5 15 10 15q2 -8 7 -8h7q-8 26 -20 26l-7 11q2 21 10 21l21 -3v7 q-11 0 -11 7v4l7 11v3h-3q-11 -7 -17 -7l-7 11v4l3 7q-16 11 -79 29q0 4 -82 40q-74 63 -100 90h-3v-11q-11 -67 -59 -286q-16 -54 -31 -123q-46 -130 -65 -130h-3q-14 7 -14 21zM209 649q133 -22 210 -55q5 -3 17 -3v3q0 17 -3 22q3 40 3 69v65q0 19 -3 33q3 19 3 36v148 q0 4 3 4l-3 7v91q0 8 3 14q-3 6 -3 15q0 238 -27 271q-7 0 -7 7q-21 0 -28 -43q-11 -10 -55 -120l-24 -76q-12 -22 -17 -65q-7 0 -17 -50h-4l4 -19q-10 -58 -21 -58q4 -19 4 -21l-11 -26q4 -19 4 -21q-19 -132 -24 -142l3 -7q0 -18 -7 -18q0 -3 4 -3q-4 -12 -4 -58z M285 1181h3v7h-3v-7zM312 1257h7v3h-7v-3zM450 1485h3v7h-3v-7zM467 696h7v3h-7v-3zM470 174q1 -7 7 -7q7 27 7 29q-10 0 -10 11h-4v-4l4 -7zM474 124h3l10 7l7 -4q0 9 7 18v4q0 7 -7 7h-3v-11h-4l-10 8l-3 -8v-21zM474 276h7v7h-7v-7zM487 8q3 -22 11 -22q0 8 3 15 q-3 7 -3 10q-7 -3 -11 -3zM487 334h4v11h-4v-11zM487 764h4v8h-4v-8zM491 -46q7 -12 7 -19q10 0 10 15l-3 18h-4q-3 0 -10 -14zM491 189q5 0 10 11q0 7 -7 7l-3 -7v-11zM494 48q1 -8 7 -8l4 8v3h-11v-3zM498 250q8 8 14 8q0 7 -7 7h-4zM498 312h3v7h-3v-7zM508 211 q1 -8 7 -8v4q0 7 -7 7v-3zM512 -148q3 -6 3 -14h14v3q-7 17 -14 18zM512 153q1 -8 6 -8v8q0 7 -6 7v-7zM515 4q5 -14 10 -14h7v3q0 6 -14 15q0 -4 -3 -4zM515 48q3 -12 14 -15v15h-14zM515 73q1 -7 7 -7l3 18h-10v-11zM515 98q1 -7 7 -7v15h-7v-8zM515 116q7 0 7 8q0 7 -7 7 v-15zM518 -32l7 -4h7v4q0 7 -7 7q-7 -1 -7 -7zM522 15q7 0 7 7v8q-7 -2 -7 -8v-7zM522 -94l14 11q8 -7 13 -7v-7q-10 0 -10 -15h-7q0 7 -10 18zM522 -246q1 8 7 8l7 -4l3 7q6 -3 17 -3v-15q0 -3 -3 -3q13 -38 13 -44l-6 -4h-4q0 7 -10 19l3 32l-7 4q0 -15 -10 -15 q-5 0 -10 11v7zM532 -285h10v-8q0 -7 -6 -7h-4v15zM542 -61h7v-11h-7v11zM542 -318q6 0 18 11l10 -15q0 -5 -14 -14h-10zM546 -220l7 3l7 -11v-3h-4q-5 0 -10 11zM563 -369h7v-7h-7v7zM566 -347h7v-11h-7v11zM566 -398h11l7 -25h-4q-14 6 -14 25zM639 406h10q0 7 -7 7h-3v-7 zM659 381l7 -4h4q6 0 6 7v11h-3q-5 0 -14 -14zM683 406l7 -4h4q6 0 6 8v3q-3 0 -10 4zM707 373h11q0 6 6 15v4l-13 3l-4 -7v-15zM738 402h4v8h-4v-8z" />
<glyph unicode="B" horiz-adv-x="1041" d="M-270 -180l8 13v20h5q12 -4 12 -8l9 4h4q4 0 4 -4q14 8 22 8l21 -4q0 6 102 54q134 80 161 112q-34 40 -34 70q0 14 12 33q0 192 166 949l-4 9q0 4 4 4l-4 29v8q0 62 80 158q34 66 43 99l21 4v-4l8 4h4l17 -16h5q213 128 347 128l9 -4q4 0 12 4q114 0 153 -99 q16 -6 26 -34l-5 -24v-9h-8l4 -8l9 4h8q0 -12 -25 -62q0 -4 4 -4q-4 -83 -26 -83l-8 4l-4 -8h8q0 -23 -178 -203l-42 -54v-8q165 -137 165 -170q30 -50 30 -75l-5 -21q9 -1 9 -8l-4 -21q4 -7 4 -16q-13 0 -26 -46l13 9v-9l-17 -16q4 -8 4 -17q-33 -11 -33 -16l4 -21 q-46 -37 -47 -42l-8 5q-7 0 -17 -17q8 -1 8 -8q0 -9 -8 -9l-9 5q-11 0 -29 -50q-26 -4 -26 -21h-4q-6 0 -13 13q-13 0 -17 -29q9 -2 9 -9v-4h-5l-12 8q-11 -8 -17 -8l4 -16q-4 -9 -4 -13h-4q-9 0 -9 8q-8 -4 -13 -4q5 -8 5 -12q-7 -17 -13 -17q-8 4 -17 4q-6 -29 -13 -29 l-8 5q-13 0 -21 -38h-5q0 8 -8 8h-4l-13 -8l4 -8l-42 -33v-4h-9v4q4 8 4 12q-3 0 -21 -25l4 -8v-4l-46 -25v12q-11 0 -13 -16l-8 4q-13 -17 -22 -17l5 -8q-5 -8 -5 -12h-12q-4 0 -4 4q-43 -29 -43 -46h-21q-18 -33 -26 -33q-16 0 -33 -25l-17 -8l8 -17l-13 -8l-21 4 q-6 -16 -13 -16q-8 4 -12 4q0 -5 -64 -37l-34 -25q-16 -30 -131 -58q0 -10 -55 -17q0 -4 -5 -4q0 6 -25 12l-17 -8q-21 4 -21 8l-9 -4h-8v4l4 21q-4 0 -4 4q-14 -8 -21 -8l-17 8q-8 -4 -13 -4zM-211 -192l17 -4v4q0 6 -12 12q0 -4 -5 -12zM-96 -180v-4h8v4h-8zM-66 -130v-8 h4v8h-4zM-41 -105l8 -4v12q-8 -1 -8 -8zM-3 -126v-12h9v12h-9zM188 205h4v9h-4v-9zM209 214h4v12h-4v-12zM230 60q5 -8 5 -12q8 0 8 8l-8 4h-5zM230 189h13v4q0 8 -8 8h-5v-12zM239 309q8 0 8 8v9q-8 -2 -8 -9v-8zM247 118l17 9h21q0 29 89 74q51 34 51 42q18 8 26 8 q1 -8 8 -8h9q0 8 4 8l-4 8v9q26 25 51 41q0 14 38 25q0 15 97 99q89 96 89 174q-18 88 -63 125q-52 29 -89 29q-53 -67 -123 -83q-77 25 -77 149v12q0 57 68 96h9l-5 8v25l51 29q20 33 26 33h8v-8h4q3 33 13 33l13 -8h4q0 11 51 33l85 79q31 10 76 78q45 36 59 87 q-29 18 -29 21l-21 -17h-5q-9 0 -17 5q-7 -5 -17 -5h-4q-8 0 -8 9v4l12 16v5h-12q0 -42 -43 -42h-4q-6 0 -13 17q-16 -3 -38 -38h-34q0 -9 -4 -16q-17 8 -25 8q0 -8 -9 -8l-8 4q-25 -38 -81 -62q-8 4 -13 4q0 -22 -34 -29q-4 -12 -8 -12l4 -9v-4q-3 0 -29 -8l4 -29 q-30 -136 -38 -286q4 -35 4 -54q0 -126 -59 -311q0 -26 -26 -58l4 -8q0 -4 -4 -12l4 -21q-12 -14 -21 -79q-12 -50 -17 -50l4 -16q-8 -57 -21 -104v-21zM302 1022q9 0 9 8h-9v-8zM324 102q8 0 8 8h-8v-8zM324 131q1 -8 8 -8l4 8v4h-12v-4zM324 984h4v9h-4v-9zM324 1042 q8 0 8 9v4q-8 -1 -8 -8v-5zM328 1059h8v4q-4 8 -4 13h-4v-17zM353 1130h4v8h-4v-8zM366 164q1 -8 8 -8v8h-8zM387 1096h4v9h-4v-9zM391 1146h5l4 17q-9 0 -9 -13v-4zM413 127h4q8 4 13 4v8h-9q-8 -1 -8 -8v-4zM446 1287h9v8h-9v-8zM485 960q8 0 8 8h-8v-8zM544 1386l8 -4 q9 0 9 9q-5 0 -13 4zM548 1275h9v4h-9v-4zM574 1299h4q8 0 8 9l-8 4l-4 -8v-5zM582 1420l9 -5l4 9v4h-4q-9 -1 -9 -8zM599 1304q6 0 13 12v8q-6 0 -13 -12v-8zM599 1362h4v8h-4v-8zM603 330h13v12h-13v-12zM603 1432q16 0 26 -8q8 0 8 8v8q0 9 -8 9q-26 -12 -26 -17z M629 334q6 0 13 17h-9zM658 1449q7 0 13 -13q38 10 38 25l-8 4h-4q-6 0 -13 -12l-17 8zM663 388q4 0 12 -4v12h-12v-8zM688 425h9v8h-9v-8zM688 1072h13v4q0 8 -9 8h-4v-12zM697 1345h4v8h-4v-8zM697 1428h4q8 0 8 8h-12v-8zM718 1018h4q8 4 13 4v4h-13zM722 1101h4q9 0 9 8 v4h-13v-12zM722 1457q1 -8 9 -8l4 8h-13zM726 479h5v8h-5v-8zM726 1432h13v8h-13v-8zM731 367q1 8 8 8h4v-8h-12zM748 1453l21 4q27 -8 29 -8v4q-5 16 -38 16q-6 0 -12 -12v-4zM752 1047h8v8q-8 -1 -8 -8zM777 541h4v13h-4v-13zM777 1420h4v8h-4v-8zM781 454q9 0 9 8v5h-9 v-13zM781 1154h9v9h-9v-9zM807 1453h8v12h-4q0 -4 -4 -12zM811 504q9 0 9 8t-9 8v-16zM811 558h9l4 29l-13 -9l4 -8v-4zM811 1105q6 0 13 12h-4q-9 -1 -9 -8v-4zM815 525h5q6 0 12 12v4q-6 0 -17 -16zM815 694q2 -8 9 -8h4v8q0 9 -8 9h-5v-9zM841 1386q1 -8 8 -8h4 q-4 8 -4 13h-8v-5zM841 1428q4 0 12 -4l5 8q-10 0 -17 4v-8zM841 1444h8q0 9 -8 9v-9zM845 603q8 0 8 9h-8v-9zM875 1233h8v13q-8 -2 -8 -9v-4zM875 1283h4l4 8h-4zM900 1312q6 0 13 12h-4q-9 -1 -9 -8v-4zM909 1382q1 -8 8 -8v4q0 8 -8 8v-4z" />
<glyph unicode="C" horiz-adv-x="1005" d="M0 444q5 15 11 15l-4 18q0 44 46 185q7 0 21 51q-7 0 -7 8q15 29 21 29l-4 8q18 21 18 36v12q7 0 21 14l-4 8v7q75 155 354 480q105 113 137 125q45 32 87 48q0 15 11 15q38 -10 38 -37q7 -41 14 -166h-3q6 -12 14 -92l35 -81q0 -85 -84 -115h-25q-59 10 -59 33 q0 9 -11 23v11q10 20 25 177l-7 3q-60 -61 -77 -99q-26 -23 -123 -137q-7 0 -95 -107q-17 -26 -38 -40q3 -7 3 -11q-24 -22 -24 -30q-40 -53 -77 -114q-8 0 -11 -22q-6 -4 -14 -4v-11q0 -12 -31 -85q0 -11 -14 -37q3 -7 3 -11q-10 -19 -14 -55l4 -26q-3 -22 -7 -22 q30 -190 52 -229q37 -111 53 -111q0 -23 52 -70q0 -6 28 -26q27 -17 56 -26q7 4 11 4q3 0 3 -4q39 0 106 37q37 41 84 78q2 17 42 48q14 21 63 62q38 34 59 67l32 29q3 8 87 78q0 15 21 18q-26 -43 -52 -66q-94 -103 -98 -103q-23 -30 -35 -30q-8 -24 -35 -44q0 -19 -21 -19 v-22q-28 -9 -28 -29h-7v3l3 8l-7 3q-11 -12 -17 -44q-15 0 -35 -29q-11 0 -11 -11h-7v11h-3q-5 0 -28 -45h-4q-3 7 -3 15h-4q-28 -18 -28 -37h-7l-7 4q0 -8 -42 -26v7h-14q0 -12 -35 -18l-21 4q-25 -4 -28 -4q0 5 -11 11l-21 -4q0 11 -49 26q-24 14 -24 19t-7 14l-7 -3h-4 q-21 22 -31 22q0 9 -49 55q0 4 -25 37q0 8 -24 44q-46 128 -46 185q-3 0 -3 4v40q0 16 3 41q-7 12 -7 22zM81 654q17 4 17 30h-7q0 -19 -10 -19v-11zM105 680q11 0 18 33l-14 8q0 -21 -4 -41zM112 643h4v8h-4v-8zM133 713h4v8h-4v-8zM161 713h7v8h-7v-8zM161 747q7 0 7 7v7 q-7 -1 -7 -7v-7zM165 669h3q0 17 7 26v4h-7l-3 -15v-15zM168 809h4v15h-4v-15zM238 -3v-18h4q5 0 10 11q0 7 -7 7h-7zM245 953h7v4h-7v-4zM879 403q6 15 11 15v-18h-4z" />
<glyph unicode="D" horiz-adv-x="1005" d="M8 179q16 171 48 332h6q0 4 -6 4q113 636 140 747q-32 10 -32 18v5q11 13 16 31h-5q-14 0 -16 -18h-6q-7 0 -21 28l16 18v13q-16 17 -16 32l-11 -4q-11 16 -11 36v14q0 43 113 54q9 0 70 14q38 -3 38 -9l10 4q214 0 388 -145q93 -84 139 -264q17 -66 17 -87v-50 q0 -10 5 -18q-5 -24 -11 -64q0 -4 6 -4q0 -138 -135 -382q-50 -70 -161 -182q-5 0 -59 -46q-51 -35 -92 -68q-9 0 -59 -37q-36 -30 -91 -63q-14 -16 -43 -23l-33 -18q-12 -28 -48 -28q0 9 -11 9l-48 -18l-11 5l-5 -9l5 -73h-5q-49 39 -81 246zM67 438q11 0 11 9v5h-11v-14z M89 88q139 124 295 236q252 205 286 273q86 138 86 269q-6 25 -6 36h6l-6 9v9q0 5 6 5q-22 130 -70 214q-56 94 -210 132l-22 4q-59 0 -59 -18q0 -59 -16 -164l5 -9q-21 -117 -53 -195q5 -9 5 -14q-14 -18 -21 -73q-8 -6 -33 -59l6 -9v-9l-43 -87q10 -1 10 -9v-9 q0 -8 -32 -23q-5 -14 -5 -27q16 0 16 -9v-5q-23 -12 -27 -54q-22 -17 -22 -28l11 -18l-21 -9l5 -23q0 -12 -27 -36v-5q2 -9 11 -9q-5 -18 -22 -18l11 -32q-16 0 -27 -41v-4l11 -14q-11 -25 -32 -32q11 -15 11 -27q0 -9 -22 -9q0 -8 11 -27q-11 -12 -16 -82zM94 -67h16 q6 0 6 -5l10 5h11q0 -9 11 -32h-27q0 11 -27 32zM159 898h10v13h-5q0 -4 -5 -13zM159 1339h5v9h-5v-9zM164 1321h11v5h-11v-5zM164 1362h5v9h-5v-9zM180 124h11v9q-11 -1 -11 -9zM180 734h5l6 23v4h-11v-27zM196 1307h16v5h-16v-5zM207 1321h5v14h-5v-14zM223 1348h6v9h-6 v-9zM261 802h5q8 0 16 14v4h-5q-11 -4 -16 -4v-14zM298 147h11v13h-11v-13zM304 215h11v5q0 9 -11 9v-14zM341 242h11v5q0 9 -11 9v-14zM379 274h5v9h-5v-9zM454 356q2 -9 11 -9v9h-11zM487 365h10v5h-10v-5zM675 570q8 0 16 18h-11zM675 1207h11v5h-11v-5zM686 515h5l11 19 h-11q0 -11 -5 -19zM686 606q5 -8 5 -13h5v13h-10zM713 1107h10l6 18h-11zM756 966q1 -9 10 -9v9h-10zM756 1021h5v9h-5v-9zM788 902l11 -4v13q-11 -1 -11 -9zM831 811h5v9h-5v-9z" />
<glyph unicode="E" horiz-adv-x="1255" d="M0 77q0 123 29 153q0 34 17 205q0 5 -4 5q24 178 34 374q-9 21 -9 31q12 0 25 153v77q0 5 5 5q-5 10 -5 16q0 32 5 77q0 3 -5 30q0 100 42 220v6q0 4 -8 41q0 20 17 30h8l13 -10q0 41 55 41v-5q0 -10 -13 -10v-11q30 -25 59 -25q4 0 4 5q46 -5 46 -10l9 5h12l13 -10 q9 0 17 5l25 -16l38 5q38 -15 46 -15l8 5q39 -6 51 -15q7 5 16 5q2 -10 9 -10q2 0 17 5q42 -4 42 -10l8 5q30 -2 30 -11q4 0 4 6l21 -6q4 0 12 6l55 -11q4 0 4 5l88 -10l9 5q46 -5 46 -15q-8 -2 -8 -10v-5q4 0 12 -5l4 10q-4 10 -4 15l9 5h134q10 0 17 5l8 -5l26 5l12 -10 h13v10h4l13 -10h25l21 5l4 -10q-34 -5 -34 -20l-8 5h-13q0 -26 -8 -26h-8l8 15v6q-15 0 -34 -31l-8 5q-14 -10 -25 -10h-17q0 -16 -8 -16h-13q-4 0 -4 5q-31 -15 -122 -25v5q-52 -15 -114 -15v5q-13 -11 -25 -11q-4 10 -4 16q-11 -17 -59 -21q-4 0 -4 5l-109 -10 q-22 5 -51 5h-25q-4 0 -4 5l-9 -5q-37 4 -37 11q-18 -11 -26 -11l-180 26q0 -5 -4 -5l4 -10q0 -24 4 -159q0 -112 -29 -282h33q20 0 42 -5q5 0 13 5q77 -10 197 -10h17q15 0 84 36v-10q-13 0 -34 -41l-8 5q-14 -26 -21 -26v-5q13 0 13 -10l-13 -10l-8 5h-5v-5h9 q-60 -52 -223 -52q-24 0 -50 11q-4 0 -4 -6l-63 11q-21 -90 -30 -103l4 -10q-28 -93 -50 -200l-38 -189q0 -21 -8 -36q28 -61 88 -61v-6l8 6l68 -16q4 0 4 5q74 -15 285 -15h9v-15h4q8 0 8 15h38v-15h13q8 17 71 20q5 -10 5 -15h16q0 15 9 15h25l21 -5q0 11 88 26v5l17 -5 l29 5v-11h-21q-12 -15 -79 -40h-5v10h9v5h-13q-11 -41 -21 -41q-8 0 -8 10q4 0 4 5h-13q0 -20 -8 -20h-4v10h-9q0 -5 5 -5q0 -31 -47 -36q0 -5 -8 -5q-4 0 -4 5q-38 -15 -189 -36v5q-26 -8 -135 -15q-23 5 -38 5h-134q-21 0 -21 10q-22 -15 -80 -15q-54 15 -63 77zM71 328 q5 -10 5 -16h4v16q0 10 -9 10v-10zM113 486h5v16h-5v-16zM193 1511h9v5h-9v-5zM294 824h9v6h-9v-6zM399 1326h9v10q-9 -1 -9 -10zM454 1388l21 -5l-4 10l4 10h-4q-11 -10 -17 -10v-5zM475 1326l12 10l9 -5v11h-21v-16zM504 67h4q9 0 9 10v5h-13v-15zM555 1357h8v15h-8v-15z M567 77h4v10h-4v-10zM593 1403q8 0 8 10h-8v-10zM622 1377h8v11h-8v-11zM664 1342q7 0 17 -11v26h-4q-6 0 -13 -15zM828 1326h8q9 0 9 10v6h-17v-16zM828 1388h17v5q0 10 -9 10q-8 -2 -8 -10v-5zM857 1357h13q0 10 -9 10zM887 1331h12q9 0 9 11v5h-13q-8 -2 -8 -11v-5z M920 1372l4 -10q9 5 13 5l-4 10q-8 -5 -13 -5zM945 1326q8 5 17 5v5h-17v-10zM979 1362q4 -9 4 -20h17v5q-6 20 -12 20zM1067 1393h9v10h-9v-10z" />
<glyph unicode="F" horiz-adv-x="968" d="M-119 1367v19q5 14 32 14v14h-11v9q28 0 32 14v23h11q0 -18 10 -18l292 28q0 4 148 18v-4q13 4 53 9q6 0 16 -5l53 5l32 -5q152 0 440 84h11v-9q0 -8 -42 -33q-14 -28 -59 -28q0 -14 32 -14q0 -11 -42 -23q-11 -21 -22 -23h-5l-10 4q0 -14 -11 -14v14h-11q-6 0 -26 -27 l-6 18q-28 -45 -42 -51q-14 0 -32 -14q-10 5 -16 5q-7 -20 -26 -28q-10 4 -16 4q-17 0 -40 -11q-10 1 -27 1q-34 0 -98 -4q-25 9 -53 9q-68 0 -152 -52q-23 -156 -49 -357v-13l53 -5h74l27 5v-5q182 35 249 84q0 10 37 18l5 -9q-47 -29 -47 -75q-16 0 -37 -27h-6v4q6 9 6 14 h-6q-12 0 -21 -51q-19 0 -64 -33q-8 0 -58 -27q-101 -38 -133 -38q-13 2 -28 -7l-19 3q-13 -8 -29 -8q-12 -45 -26 -150l11 -85v-30q0 -28 1 -46l-2 -25q3 -19 -3 -43l5 -45q-5 -64 -21 -108q-35 -104 -64 -144q-15 0 -31 -37h-32v-5q5 -9 5 -14q-29 -8 -53 -37q-8 0 -21 19 q-10 -5 -16 -5q30 0 80 200q0 5 -6 5l6 18q-16 376 -22 437l22 172l-6 10q74 223 100 434q-76 9 -137 9q-20 0 -39 -1q-31 3 -72 18q-37 46 -48 51zM93 116q2 -9 11 -9v5q0 9 -11 9v-5zM491 912q16 -16 16 -24q10 5 16 5l-11 14l5 23h-5q-8 0 -21 -18zM517 870q11 0 11 9 h-11v-9zM549 930q2 -9 11 -9q10 0 10 9t-10 9q-11 -1 -11 -9zM555 888h15v10h-5q-10 -2 -10 -10zM560 1372h10v5h-10v-5zM666 1372l10 -5l6 10v4h-6q-10 -1 -10 -9zM740 1400h16q0 9 -11 9h-5v-9zM740 1470h5v9h-5v-9zM820 1451q10 0 10 9h-10v-9z" />
<glyph unicode="G" horiz-adv-x="1304" d="M13 341q4 7 4 12l-4 23h4q0 4 -4 4q0 133 99 455q64 180 226 367q105 119 141 140q82 76 233 144q77 66 92 66h15q35 0 61 -97l-3 -28q0 -4 3 -11l-3 -28q0 -54 42 -74q15 -19 15 -23q-4 -35 -46 -117q-4 0 -15 -35h-27q-33 0 -69 51q4 7 4 12q-27 62 -50 77 q-145 -27 -366 -335q-86 -118 -161 -373l4 -8q-46 -121 -69 -261q4 -7 4 -16v-4q0 -3 -4 -3q27 -138 57 -207q24 -35 69 -35q36 0 161 105q0 7 49 51q62 67 146 183q-8 34 -8 54q0 30 15 47l8 -4h8q7 0 7 8v4q-27 6 -27 27h-7q0 -6 -8 -15h8v-8h-4q-4 0 -4 4l-7 -4 q-74 5 -77 19q8 0 8 8l-8 4q-5 -19 -11 -19h-8q-31 21 -31 27h8v8q-15 0 -15 11q0 8 -8 8q0 -4 -4 -4q0 6 -11 12l4 19l-4 16l7 4q13 -8 20 -8l-8 12v7l19 -3q133 15 157 15q23 -4 23 -8l15 4l61 -4l8 4l46 -11q6 3 15 3q19 -2 19 -11q4 0 4 4q40 -4 49 -16q8 4 12 4 q2 0 38 -19l19 3q0 -5 12 -11q8 0 15 4q37 -15 118 -35q0 -4 4 -4l23 4v-4q-10 -24 -15 -24q0 4 -4 4l-4 -8l8 -3h15q16 6 16 31l19 -4h23v-4q0 -8 -8 -8q-4 0 -4 4q-7 -4 -11 -4l3 -8l-11 -15l11 -8q4 15 31 19v8h8q7 -1 7 -8q0 -15 -23 -15v-4h8v-12l-27 -4q-4 0 -4 4 l-19 -11q-5 15 -11 15h-4l-19 -15q0 7 -8 7h-7v-11h-8q-8 0 -8 7q4 0 4 4h-15q0 -15 -12 -15l-3 8q-12 -4 -12 -8l-27 4h-15l-23 -4l-7 4l-27 -4l-15 4l-8 -4l-19 4q-31 -14 -31 -105v-63q0 -16 -4 -43q4 -6 4 -19q-19 -80 -30 -105q3 -28 3 -31q-7 -13 -7 -24v-31h-12 q8 -21 16 -105q0 -20 -27 -39q-8 0 -8 8l4 19l-8 -4h-3q0 7 -23 63l7 15q-21 0 -38 63v19q-19 0 -19 43q-27 47 -27 93q-4 0 -4 4v8q1 19 8 19q-19 57 -19 71q-26 -29 -54 -51q0 -16 -7 -16q0 4 -4 4l4 8q-4 7 -4 16h-4q-41 -53 -114 -117q-13 -22 -43 -39q0 -13 -38 -31 q0 -20 -7 -20h-4v8h-15q0 -16 -12 -16l4 -7q0 -8 -8 -8h-4v8h-3q-42 -22 -42 -28q7 -1 7 -7h-4q-12 7 -23 7q0 -5 -11 -11l-8 4l-7 -12l-8 4q-28 -12 -65 -12q-40 0 -95 82v8q0 4 3 4q0 8 -19 15q-4 8 -7 35l-19 -8l-4 8q1 8 7 8q-8 39 -15 47l4 19v12q-4 0 -12 4l-3 -8 l3 -23v-4h-3q-13 0 -27 117q0 22 -4 27zM44 314h11l4 19q-4 8 -4 12h-8q0 -10 -3 -31zM47 364h4l4 20q-8 -2 -8 -8v-12zM47 454q2 -8 8 -8l4 8v4q0 7 -8 7l-4 -7v-4zM47 469h4q0 12 8 32v3h-4l-8 -27v-8zM51 282q8 0 8 8h-8v-8zM51 536h8v7q-8 -1 -8 -7zM86 294h3v8h-3v-8z M89 345h4v8h-4v-8zM101 263q27 0 30 -4l4 8v4q0 6 -23 11q0 -6 -11 -19zM105 216q4 -7 4 -11h3v11h-7zM105 228h4v12h-4v-12zM109 146h7v4l-4 20h-3v-24zM109 368q30 6 30 23h-4l-7 -3l-16 7zM109 430h3v8h-3v-8zM116 434q13 -7 19 -7l4 7l-8 12q4 7 4 16h-4q-7 0 -15 -28z M120 216h4v8h-4v-8zM120 321q1 -7 8 -7h3q0 4 4 11l-15 4v-8zM120 477h11q0 4 4 12l-11 8h-4v-20zM124 127q4 0 4 -4q15 4 15 23v4q0 8 -8 8q0 -9 -11 -31zM124 337h4q8 0 11 19h-4q-8 0 -11 -19zM128 111q6 -39 15 -39v24q-10 19 -15 19v-4zM128 501q8 0 11 19h-4 q-7 -1 -7 -8v-11zM139 578h4v8h-4v-8zM166 508h4v8h-4v-8zM185 10q5 0 11 12v7h-11v-19zM196 956h8q0 8 -8 8v-8zM395 45v8h4v-8h-4zM410 103h8q0 8 -8 8v-8zM452 571q0 -6 12 -12q0 6 8 16v7h-8q-6 0 -12 -11zM502 512h8q0 9 4 16h-12l4 -8zM510 555h7v4h-7v-4zM514 208h3 v8h-3v-8zM540 520q8 -10 8 -19h8l-4 19h-12zM559 501h8v3h-8v-3zM579 504q5 0 11 12h-4q-7 -1 -7 -8v-4zM621 282h7q16 7 16 28h-12q0 -7 -11 -20v-8zM624 520h8v8h-8v-8zM632 391h4v8h-4v-8zM636 427h8v3h-8v-3zM655 520h8v8h-8v-8zM659 337h15v8h-4q-7 -4 -11 -4v-4z M666 512q0 -6 16 -11l4 7l-8 4h-12zM674 543h12v4q-4 0 -12 4v-8zM716 606h4v7h-4v-7zM785 555q1 -8 8 -8v12h-8v-4zM968 485q2 -8 8 -8h11v8l-19 4v-4zM968 532l27 -4l4 8v7q-21 -4 -31 -4v-7zM987 497h8v4h-8v-4zM1010 516h8q8 0 8 8h-16v-8zM1030 532q0 -6 11 -12h4 q7 0 7 12q-3 7 -3 11q-19 -5 -19 -11zM1037 477q8 0 8 8h-8v-8zM1041 489h8v4q0 8 -8 8v-12zM1064 512q1 -8 8 -8l11 16v4q0 8 -8 8h-3q-8 -2 -8 -8v-12zM1072 493h7v4h-7v-4zM1091 493q1 -8 7 -8l4 8v4h-11v-4zM1190 524h8v-8q-8 0 -8 8zM1217 497v7q0 6 38 20v-4 q-1 -8 -34 -23h-4z" />
<glyph unicode="H" horiz-adv-x="1164" d="M9 697q0 30 102 30q134 22 134 27v4q32 403 63 583q-3 7 -3 10q0 4 3 10q-7 35 -7 75q19 75 53 75q0 6 36 6h3q44 0 63 -50q18 0 18 -28q-10 -47 -10 -50v-38q0 -39 -8 -54q0 -4 4 -10l-14 -231q3 -6 3 -10l-21 -169l4 -17l-7 -34q0 -4 3 -4l-7 -34h4q143 31 169 44 q3 0 10 123l7 3q0 -3 4 -3q0 5 7 13v7h-14q0 25 14 37v10h-7q4 44 7 51l7 -3h4v13h-11q11 100 28 163q0 4 -3 4q0 23 17 23q0 3 -10 10q24 145 56 228h7l7 -4v7h-7v3q36 92 53 92q16 -7 18 -14v-3q0 -3 -4 -3q2 -8 14 -21q0 -8 -10 -27q3 0 3 -3q-5 -5 -21 -48q-3 0 -3 -6 l3 -7l-14 -48l3 -17q0 -13 -17 -13v-4l7 -10v-7l-7 -10v-3h7q-4 -35 -11 -44q4 -7 4 -10l-4 -7q4 -6 4 -14q0 -6 -7 -17l3 -20q-5 -34 -10 -34l3 -17v-10q0 -10 -14 -10l4 -7v-17h7v-24h-4l-7 4v-11l4 -6l-11 -7q4 -7 4 -10h3v7h7v-21h-3l-11 7v-3q11 -15 11 -48 q-6 -3 -14 -3v-4q7 -8 7 -13q-7 -11 -7 -17l7 3q0 -3 3 -3q-7 -39 -7 -48h4v-3h-7q7 -24 7 -27l-7 -14l3 -7q-7 -13 -7 -20q7 -1 7 -7v-3l-10 -20h7q10 0 105 27q6 -4 14 -4q0 13 96 34q0 4 3 4h7l11 -7h7l7 3l-4 7v7l35 7v-7l-3 -7l11 -7h7l-4 24h11q7 -1 7 -7t-7 -20h3 l21 10l-3 7q3 20 10 20q7 -3 11 -3q-9 -44 -42 -44q-19 -14 -25 -14q-11 7 -18 7q0 -4 -3 -4l3 -6v-4q0 -5 -10 -10l-14 10q0 -6 -7 -6l3 -7v-7l-32 -17q0 -3 -3 -3q-7 3 -11 3q-7 -21 -17 -24h-4v7h-7q-32 -26 -32 -34h-3l-11 7h-7v-17q0 -5 -10 -10q-7 8 -7 17h-11l-3 -17 q7 -1 7 -7q-51 -29 -64 -41l-24 -13q7 -14 7 -21q-4 -6 -4 -10h-3l-7 4l-4 -24q6 -4 14 -4v-3q0 -24 -14 -24q0 -2 -4 -44q0 -3 4 -10q-7 -11 -7 -20v-7q11 0 11 14h7v-14q0 -15 -18 -37q3 -7 3 -11l11 7h4v-10h-15v-7l8 -10q-8 -10 -11 -41q11 0 11 -6q-8 -21 -18 -24 q0 7 -7 7v-4q15 -27 21 -27q-7 -9 -11 -44q7 0 7 -3q-21 -26 -21 -38q4 -6 4 -10l10 7h4q0 -16 -18 -20q0 -11 -7 -48l4 -13l-7 -34q3 -7 3 -10q-21 -34 -28 -116q-28 -61 -32 -61q0 7 -24 44q0 9 -25 51v58q14 0 14 7v6h-3q-7 -3 -11 -3v3q2 24 11 24l-4 7v3l11 14v3 q-7 0 -7 -10h-7q0 24 14 24v3h-7v14l10 13v11l-7 10q0 25 11 27q0 3 -4 10q11 142 11 234q0 27 14 27v7l-11 13q1 5 18 14q-4 6 -4 17h-3q0 -17 -7 -17q0 34 -7 34q-123 -54 -183 -58q-11 -9 -18 -23v-4l7 -10l-11 -17q4 -6 4 -14q-14 -23 -14 -33q7 -2 7 -7v-4 q-18 -16 -18 -37h7v-7l-10 -13l3 -17q-17 -5 -17 -38q7 -1 7 -6q-14 -5 -14 -10q3 -7 3 -11q-15 -34 -25 -40q0 -22 -14 -72l4 -6q-18 -26 -32 -126l-10 -7l3 -6q-25 -86 -56 -143q0 -7 -21 -10v10h7v7h-14q-7 27 -22 27q0 13 -17 24l7 24q-7 0 -7 6v4q46 140 84 447 q0 19 7 109l-24 3h-67q-7 0 -7 10h-25q-56 42 -67 61q-15 0 -28 38zM20 693h3v7h-3v-7zM153 52h4v7h-4v-7zM164 103h7q0 7 -7 7v-7zM175 56h7v7q-7 -1 -7 -7zM182 178h3l4 17q-7 -1 -7 -7v-10zM185 134h4v7h-4v-7zM185 151h4v7h-4v-7zM206 266h7v7h-7v-7zM217 398l7 -3v10 q-7 -1 -7 -7zM224 154h3v7h-3v-7zM234 324h8v10q-8 -1 -8 -7v-3zM242 514h7v10h-7v-10zM249 565h7v13h-7v-13zM256 388h7q0 4 3 10h-3q-7 -1 -7 -6v-4zM256 453q1 -7 7 -7l3 7l-7 3h-3v-3zM277 510l7 -3h3v7q0 6 -7 6q0 -3 -3 -10zM301 442h4q5 0 11 14l-8 3h-3zM305 490h11 v10h-4q-7 -1 -7 -7v-3zM312 290v3q1 7 7 7l7 -10l-10 -7zM312 310h4v7h-4v-7zM330 456q5 0 10 10v7q-7 -3 -10 -3v-14zM340 514q7 0 7 6h-7v-6zM562 120q4 -6 4 -10h3v10h-7zM562 124h4v10h-4v-10zM587 29h3q5 0 11 10v24h-4q-8 0 -10 -34zM587 507h3q7 0 7 7v3h-3 q-7 -1 -7 -7v-3zM587 561h3q7 0 7 7v3h-7q0 -3 -3 -10zM601 83h3v10h-3v-10zM604 392h7q8 0 8 6h-15v-6zM608 344h7v7h-7v-7zM608 442h3q8 0 8 7v7h-4q-7 -1 -7 -7v-7zM608 866h11q0 7 3 7q-3 5 -3 20h-8q0 -8 -3 -27zM611 232h4v7h-4v-7zM611 303h8v7h-8v-7zM611 910 q11 4 11 21v10q-8 0 -11 -31zM636 507l11 7q-4 5 -4 17h-3l-4 -17v-7zM636 843q7 0 7 10v3h-3zM636 938q5 0 11 10q-4 6 -4 10h-3l-4 -17v-3zM636 1124h4l3 14v3h-3l-4 -14v-3zM640 609h3v10h-3v-10zM647 1178h3v7h-3v-7zM661 392h7q0 3 3 10l-7 3l-3 -7v-6zM668 358h3v6h-3 v-6zM668 368h3v7h-3v-7zM671 1341h4v7h-4v-7zM689 456v3h7v-3h-7zM689 595v3q1 7 7 7h4v-10q0 -7 -7 -7zM693 704h3v6h-3v-6zM707 1473h3v7h-3v-7zM710 1344h7v4h-7v-4zM710 1484h4v6h-4v-6zM717 1212h4v7h-4v-7zM759 1507q8 0 11 27v4h-3q-8 -28 -8 -31zM781 836l7 -4l3 7 v4h-3q-7 -1 -7 -7zM812 843h14q0 4 -10 10h-4v-10zM833 822h11v4q0 6 -7 6l-4 -6v-4zM833 873q6 -13 11 -13q7 0 7 6q-3 6 -3 14h-7q-8 -1 -8 -7zM862 839h10v7q0 7 -7 7l-3 -7v-7zM862 860h3q0 7 4 13h-7v-13zM890 880l3 -17h4l7 3l-4 7v14q2 6 7 6h4q0 -10 7 -10h4 q7 0 7 7q-8 17 -11 17q-17 -4 -28 -27zM1055 941h7v-7q-7 0 -7 7zM1059 921v6h7v-6h-7z" />
<glyph unicode="I" horiz-adv-x="398" d="M70 55q0 4 4 12l-4 24l4 8l-4 8q0 4 4 12q-4 16 -4 28q0 4 4 12l-4 24v48q0 4 4 4l-4 8v16l8 12q-8 15 -8 32v16q0 6 12 12l-12 36q4 22 4 36l-4 24q3 16 8 16l-4 24q0 33 4 148h4l-4 8q0 4 4 4q0 4 -4 4q8 140 28 252l-4 8l60 508q7 120 40 120q12 16 16 16l4 -8v-4h-8 v-8l8 4l16 -128q0 -4 -4 -4l4 -20v-48q0 -9 4 -16q-4 -12 -8 -12l4 -20v-96q0 -8 -8 -8q0 4 -4 4v-12h8v-28q0 -10 -8 -36l8 -4q-12 -129 -24 -164l8 -4q-4 -52 -12 -84q4 -8 4 -12q0 -28 -12 -28v-8q8 0 8 -4q-8 -96 -16 -96v-12l8 -12q-3 -28 -8 -28l4 -8l-8 -20 q0 -4 4 -4q-5 -120 -16 -120l4 -8v-4q0 -4 -4 -4q4 -8 4 -12q0 -16 -8 -48l4 -8q0 -5 -8 -44l4 -8l-8 -28l4 -8q-3 -44 -12 -44q-4 7 -4 20h-4q-4 -21 -4 -24q8 -4 12 -4v-12q0 -12 4 -12q-3 -45 -16 -56l4 -20h-8v-4l12 -16v-36h-4l-20 4q0 -4 -4 -4q0 -5 28 -24l4 -8 q-29 -28 -44 -64q4 -8 4 -12l-12 -8l-16 28q-11 0 -16 36zM86 523q6 0 16 16l-8 4l-8 -12v-8zM90 631h8v4h-8v-4zM114 323q16 6 16 12v8q0 8 -8 8l-8 -12v-16zM118 431q8 0 8 8v12q-8 -1 -8 -8v-12zM122 223h4v12h-4v-12zM126 159h4v8h-4v-8zM146 691q4 -8 4 -12h4 q0 20 20 20v12h-4q-16 -5 -24 -20zM150 411h8l4 20v4q-8 0 -12 -24zM154 467h4q6 0 12 12v8h-4q-9 0 -12 -20zM158 927h4v8h-4v-8zM182 1487h4v8h-4v-8zM194 959h8v12q-8 -1 -8 -8v-4zM210 1095h4q8 0 8 8t-8 8l-4 -8v-8zM210 1211q1 -8 8 -8l4 16h-4q-8 -1 -8 -8zM214 1159 h4v8h-4v-8z" />
<glyph unicode="J" horiz-adv-x="742" d="M-328 -180l5 27v35q1 9 9 9q0 -5 4 -5v14l-9 13q27 17 27 75h5q9 -1 9 -9q0 -11 -9 -53l9 -4h5v13q0 10 4 18l-4 9l9 57h4q9 0 9 -26h9q5 60 5 88v9q0 5 4 5l-4 8l4 31q32 -8 32 -48q18 -170 78 -337q88 -213 127 -283h9q50 150 182 487q109 336 109 394q41 103 100 483 q59 283 82 350q0 22 4 22q0 4 -4 4q12 84 27 84l-5 9l5 22h-5q-7 0 -18 -26q-9 4 -14 4q-4 0 -13 -4l-73 13q0 -4 -4 -4l-5 9l-23 -5q-36 0 -36 18h-5l-13 -9q-109 11 -109 53q-5 0 -5 5l9 17q-6 0 -13 14h13q0 6 -27 22q21 8 23 17v5h-19l-4 26q18 9 18 14l23 -5h32l27 5 q9 -5 14 -5q4 0 4 5l23 -5h4q16 0 23 5q5 0 14 -5q76 5 118 5h41q10 0 18 -5q17 0 77 18q32 0 37 -4q46 4 72 4h123q40 0 300 -31l9 4q50 -9 50 -13l9 5q82 -6 82 -23h5l13 9q41 -3 41 -13q-9 -1 -9 -9l5 -9l-10 -4h-13l-32 4v-9q5 0 14 -4q8 4 13 4v-4q0 -6 -27 -13 q0 -9 -9 -9h-9q-9 0 -9 9q9 14 9 22h-23q0 -5 -4 -13q4 -8 4 -18h-4l-14 9l-18 -14h-9v5l4 31h-13q-10 0 -14 -36h9v-8l-23 -5l5 22v5q-10 0 -23 -27q-31 -9 -54 -9l-10 5q0 -14 -9 -14l-9 5q-120 -36 -209 -49q-149 -26 -168 -35q0 -56 -132 -510q-54 -167 -109 -522 q-74 -292 -173 -479q-104 -236 -104 -252q-27 0 -27 -13q15 0 22 -5q-31 -59 -31 -66q18 -34 18 -53v-18q0 -4 -5 -4q5 -9 5 -14q0 -75 -114 -110l-50 -27q-9 0 -9 9l-23 -5q-75 20 -77 45q-161 167 -168 279q-36 104 -36 279q0 4 -5 13zM-283 -127v-13h10v13h-10zM-264 -43 q6 0 13 -17q-4 -9 -4 -14h4q9 0 9 9v40h-4q-15 -4 -18 -18zM-260 46v9h5v-9h-5zM-255 -87v-4q4 -32 4 -36h9v18l-4 22h-9zM299 -96q2 -9 9 -9l5 9v5q-9 -5 -14 -5zM504 1175h4v9h-4v-9zM1004 1441h9v4h-9v-4zM1026 1383h9q0 5 5 14l-9 4l-5 -9v-9zM1054 1406q1 -9 9 -9l9 13 v4h-9q-9 -1 -9 -8zM1063 1383h9q0 9 -9 9v-9zM1072 1428h4q9 0 9 9h-13v-9zM1099 1397h5v9h-5v-9zM1122 1406l9 -5h9v18h-14q0 -5 -4 -13zM1131 1383h14q0 9 -10 9zM1135 1432h19l9 13v5h-28v-18zM1154 1414q9 0 9 -13h13v9q0 7 -18 13zM1213 1432h9q9 0 9 9v9h-9 q-9 -2 -9 -9v-9zM1226 1406h9v8h-9v-8zM1363 1445v5h4l23 -5v-8h-18q-9 0 -9 8zM1376 1410v9h9v-9h-9z" />
<glyph unicode="K" horiz-adv-x="988" d="M50 487q29 239 29 412l4 25q-4 7 -4 15l4 7q0 4 -4 4l7 50l-3 7q3 32 7 39l-4 8q9 73 15 86q0 3 -4 3l7 47l-3 7q22 259 47 323q19 32 25 32l18 -4v-3l-3 -7q11 0 11 -15q7 -25 10 -25l-3 -7v-4h3v8h4q19 0 40 -90q-4 0 -4 -4q16 0 29 -154q4 0 4 -25h-4q3 -6 7 -43 q-3 -20 -3 -29l3 -25l-7 -18l4 -14q-4 -75 -7 -79l3 -7l-3 -25q3 -20 3 -32q-14 -22 -14 -33v-3l7 -11v-4q0 -12 -11 -25v-10q7 -9 7 -22q23 6 160 169q96 88 155 168q124 142 214 212h4v-4q-104 -114 -112 -115q0 -12 -19 -25v-7q2 -7 8 -7q16 31 32 36q0 10 22 25 q0 8 33 32q0 11 25 11q0 3 -4 3q8 22 15 22q1 -7 7 -7q0 5 11 11v-4q-10 -17 -44 -39q-5 -18 -25 -18l4 -18q-27 -29 -29 -29v4q11 13 11 21q-60 -56 -69 -86h7q0 15 25 43q0 7 22 14v-3q-29 -37 -29 -40l7 -3q20 28 26 28q9 9 47 54h3v-3q-95 -130 -112 -144v-3q4 -7 4 -11 q-29 -7 -29 -36q-24 -15 -36 -61h-4l-7 4q0 -15 -8 -15l4 -7q-7 -9 -7 -18h-4l-11 7h-3q-6 0 -11 -14q11 0 11 -14q-4 -11 -7 -11q-12 7 -19 7l-3 -7q7 -1 7 -7v-7q0 -22 -36 -54q0 -25 -7 -25h-4v3l4 25q-11 0 -22 -39q11 0 11 -7q-52 -73 -66 -108q7 -5 19 -46q3 0 3 -4 l-11 -14q20 -45 29 -47h4l7 18h7q0 -32 19 -32q0 5 10 10l8 -10q0 -7 -11 -7v-15q4 -27 14 -29v4q-3 7 -3 11l11 7l3 -7l-3 -7l10 -33q-3 -31 -3 -39l7 -4h4l-4 25h7v22h8q0 -6 7 -14l-4 -33l7 -3l15 7l7 -11q0 -7 -7 -7q3 -18 11 -25l7 3h4q7 -1 7 -7l-7 -10l-8 3h-3 q0 -18 -11 -21q3 -7 3 -11h4q15 9 15 25q5 0 14 -18v-4l-7 -10v-18q14 5 14 18h8q10 -21 10 -25q-7 0 -10 -25q7 -12 7 -22v-4q0 -3 -4 -3q4 -7 4 -11q9 7 14 7q0 9 -7 33l18 10q0 -3 4 -3q0 -4 -4 -11q4 -32 11 -43q-5 0 -11 -11q4 -7 4 -11h11v8h3q8 -2 8 -8v-25q1 0 14 4 q7 -4 11 -4v-10q0 -8 43 -76v-3l-11 7h-7q0 -18 -7 -18v-4h11l18 15q11 -13 11 -25q-7 -2 -7 -8l3 -18h7q0 11 8 11q18 -51 18 -57v-4q-11 0 -11 -7q7 -32 7 -47l-3 -7q3 0 10 -3l4 25q-4 0 -4 3h4q-7 12 -7 22l11 7q7 -12 7 -21v-11l-4 -7q37 -19 37 -54q-4 0 -11 -4 q-8 24 -8 33h-3q0 -9 -7 -18v-11q1 -7 7 -7h3l8 3l11 -39q0 -7 -8 -7h-7q0 15 -7 28l-7 -3q-15 7 -15 21h4q0 15 -29 25l-4 15h4q-4 39 -11 39h-7q0 -7 -4 -7l4 -7v-4h-8q-7 23 -7 29q7 0 7 7v4q0 5 -11 10q-7 -1 -7 -7q4 -7 4 -11h-4q-5 1 -14 18q3 7 3 15q-23 0 -32 25 l-44 50q0 8 -32 36q-69 97 -98 129q-110 133 -163 244q-31 61 -36 61q-22 -13 -22 -32q-28 -11 -36 -36q-8 0 -29 -25q-5 0 -26 -36l-10 -7l3 -18q0 -22 -7 -22q0 -4 4 -4q-4 -28 -11 -28h-4l-7 3v-14h11q3 -7 3 -11q-11 -46 -14 -46l3 -7q-7 -40 -21 -58h-4v-7q15 0 15 -14 q-26 -46 -26 -54h7v11h8l-22 -112l-7 4h-4l4 -18q-4 -7 -4 -11h7v-7q-9 0 -14 -32q0 -23 14 -36v-7l-7 -11q7 -1 7 -7v-4h-3q-11 4 -11 8l-18 -11q-25 0 -37 100h4q-11 19 -11 86v47l-3 18h3l-3 7l3 21q-3 31 -3 47q0 3 3 22q0 3 -3 3l3 18v83q0 4 -7 39zM86 437h7v3h-7v-3z M115 114h4l3 14q-7 0 -7 -10v-4zM115 164q5 0 11 11v18q-11 -2 -11 -29zM119 218h3l4 18v14h-4l-3 -18v-14zM144 408q1 -7 7 -7l4 7h-11zM144 1007h7v4h-7v-4zM148 455l7 -4l4 7v4q0 7 -8 7q0 -8 -3 -14zM151 347q11 4 11 7l8 -3h3v7q0 7 -7 7q0 -7 -15 -7v-11zM159 408h3v7 h-3v-7zM227 1441h8v7h-8v-7zM246 580h7l3 18h-7zM300 652q1 -7 7 -7q0 5 7 14v11h-3q-5 0 -11 -11v-7zM329 731h4v7h-4v-7zM354 838h4v8h-4v-8zM376 864q7 0 7 7h-7v-7zM380 781h3v7h-3v-7zM383 713h4v7h-4v-7zM398 691l7 -3q-4 7 -4 11h-3v-8zM405 742q5 -15 11 -15 q0 4 3 11l-14 7v-3zM409 752h7v11q-7 -1 -7 -7v-4zM430 634l8 -4q7 0 7 8v3h-7q-8 -1 -8 -7zM430 817q0 -5 11 -11q6 0 11 14l-18 4zM434 577h11v10q-5 0 -11 -10zM434 968h7v3h-7v-3zM441 670v7h7q8 0 11 -29h-7q0 9 -11 22zM445 595q5 0 14 -11l4 14l-18 7v-10zM452 993h7 v7h-7v-7zM456 838h11q-4 7 -4 11h-7v-11zM456 885h3v7h-3v-7zM477 573q2 -7 8 -7l3 7v14q-5 0 -11 -10v-4zM481 469h7q0 8 4 14h-11v-14zM481 530q4 -21 11 -21q-4 19 -4 32q-7 0 -7 -11zM485 455h3v7h-3v-7zM492 598h4v7h-4v-7zM503 455q3 -7 3 -11q7 4 11 4v10q0 7 -7 7 h-4q0 -3 -3 -10zM503 501h3q8 0 8 8v7h-8q0 -8 -3 -15zM503 552q5 -15 11 -15l3 22l-7 3q-7 0 -7 -10zM510 910q7 0 7 7v7q-7 -1 -7 -7v-7zM514 1061h7v3h-7v-3zM528 1064q1 -7 7 -7q4 11 8 11q-4 7 -4 11h-4q-7 -1 -7 -8v-7zM532 362h3v7h-3v-7zM535 422q2 -7 8 -7v11h-8 v-4zM535 473h8v18h-8v-18zM535 1039l8 -3l3 14q-5 0 -11 -11zM539 1011h4v7h-4v-7zM554 455q5 -15 10 -15q6 9 11 29q-5 14 -11 14v-3q4 -6 4 -15q-5 0 -14 -10zM554 1093q1 -7 7 -7h7v14q0 7 -7 7q-7 -1 -7 -7v-7zM557 408q1 -7 7 -7h4q0 8 4 14l-8 4q-7 -1 -7 -7v-4z M557 1043q1 -7 7 -7h4v14h-4q-7 -1 -7 -7zM586 275h11v4q0 7 -7 7l-4 -7v-4zM586 379q4 -7 4 -10h7v14h-11v-4zM586 1071q4 -6 4 -10h11v14h-8zM586 1122q4 -7 4 -11h11v7q0 7 -8 7zM590 1132q5 0 11 11v11q-6 0 -11 -11v-11zM604 344q1 -8 7 -8h4q0 12 4 18q-4 0 -4 4 q-7 -4 -11 -4v-10zM604 1147l15 -11l7 4q-11 14 -11 21q-5 0 -11 -14zM608 250q1 -7 7 -7v11h-7v-4zM611 297h8v4h-8v-4zM611 1093h11l-3 18q-8 -1 -8 -7v-11zM622 1118h4v7h-4v-7zM622 1183q8 0 8 7v7q-8 -1 -8 -7v-7zM633 272q7 3 11 3q0 6 -11 11v-14zM637 1197 q1 -7 7 -7l15 25l-11 7q-8 -1 -8 -7v-4l4 -7q-7 -1 -7 -7zM640 293q2 -7 8 -7v7q0 8 -8 8v-8zM644 1172h4v7h-4v-7zM648 1143q7 0 7 7v4h-7v-11zM662 197q1 -8 7 -8l4 8v7h-11v-7zM662 258q6 -15 11 -15l4 7v11h-8zM677 1190h7v11q-7 -2 -7 -8v-3zM680 229l8 -11q0 -4 -4 -4 q5 -14 11 -14h3v4h-7q7 23 7 32l-7 4q-5 0 -11 -11zM688 164q5 0 10 15l-7 3zM709 197q4 -7 4 -11h11l3 18q-8 0 -14 3q0 -3 -4 -10zM713 268v11q7 -1 7 -7v-4h-7zM717 139l7 -3q5 14 11 14q-4 7 -4 11h-11q-3 -19 -3 -22zM742 118l3 -8q8 4 11 4v7l-3 25h-4q0 -5 -7 -14 v-14zM764 89q10 -9 10 -18h4l4 32l-8 4q-5 0 -10 -11v-7zM785 1305v3q0 5 11 11l4 -7l-11 -7h-4zM803 1391q2 7 8 7h3q0 -7 -7 -7h-4zM811 17q7 -11 7 -18h4v4q-5 18 -11 18v-4zM811 1330v7q1 7 7 7l4 -7zM858 -37q4 0 14 -28v-7q-14 5 -14 25v10zM858 -76h3q8 -1 8 -7v-4 h-4q-7 0 -7 7v4zM876 -80q7 -1 7 -7v-3q-7 0 -7 7v3zM887 -115h7v-4h-7v4z" />
<glyph unicode="L" horiz-adv-x="1037" d="M0 200q0 51 90 62q36 82 61 182q160 420 266 732q10 7 50 146q30 74 40 155q49 37 91 58l10 -4l10 4q49 0 95 -124v-5q0 -85 -60 -226q-81 -228 -146 -319q0 -23 -55 -111q0 -19 -80 -156q0 -38 -41 -57q-5 -27 -15 -27q0 5 -5 5q-43 -76 -65 -129q-20 0 -25 -27h-10v14 h-10q-15 -32 -15 -40q10 9 30 9l5 -9q-34 -57 -50 -111q-10 -2 -10 -9h5q38 0 100 9q26 -5 50 -5h30q12 0 21 5q20 -9 35 -9q11 0 20 4q195 -14 241 -31l25 5q90 -19 90 -36q10 5 15 5q51 -24 51 -45l-5 -26l10 -5q15 22 15 31q20 -25 50 -48v-18l-5 -22l10 -5q1 9 10 9h10 v-27h-5l-20 14q0 -9 -10 -9l-15 18l-10 -5q-20 0 -20 27q-27 -5 -30 -5q-19 14 -81 23q0 13 -10 13t-10 -13l-25 4q-22 -25 -156 -40l-130 -9l-10 5q-35 -5 -56 -5h-10q-5 0 -5 5q-5 0 -5 -5l-20 5q-73 0 -180 -27h-5q-33 0 -81 53v14l5 8q-20 7 -20 14l5 31l-5 26l10 18 q0 12 -40 36zM121 213h10l5 22q-12 0 -15 -22zM146 342l10 -5v13q-10 -1 -10 -8zM151 222q6 0 20 31v22h-5l-15 -44v-9zM176 306q5 -8 5 -13h10l5 22l-15 9q0 -10 -5 -18zM196 492q10 0 10 9h-10v-9zM231 421h5v14h-5v-14zM236 444h10v9q-10 -2 -10 -9zM276 528h5v9h-5v-9z M311 492v9h10v-9h-10zM326 563q5 -8 5 -13q8 0 15 13q-10 0 -10 14q-10 0 -10 -14zM377 648h5q10 0 10 9q0 8 -10 8h-5v-17zM402 697h10v8h-10v-8zM698 155h15v9h-15v-9zM874 67q1 -9 10 -9l5 9v8q-10 -4 -15 -4v-4z" />
<glyph unicode="M" horiz-adv-x="1570" d="M30 977q0 5 6 5l-6 25v49q0 331 89 400q22 0 22 15q60 0 117 -103q50 -305 50 -493v-29q37 41 95 171q83 138 134 239q91 134 105 185q22 0 56 30h6l16 -10h17q0 29 17 29l22 -14h6l22 14h11v-10l-6 -9l17 -10v5q-5 9 -5 14q5 10 5 15h6q11 -1 11 -10l-6 -34q11 0 22 -29 q-5 -10 -5 -15q27 -13 28 -19v-10l-6 -29l17 -30v-24q13 0 17 -25q-12 -15 -12 -24q6 -35 6 -39l-6 -20l6 -19q0 -10 -11 -34q0 -5 5 -15q0 -32 -44 -352l5 -9l-5 -10l5 -20q-11 -16 -11 -29l11 -5q78 188 117 342q39 69 67 161q45 124 78 191q11 10 28 102q3 0 28 29l-6 30 v5q31 4 45 44l11 -5h5v5h-11v4q9 20 39 20h23q23 -16 55 -59v-9q-16 0 -16 -10v-15q16 0 16 20h6q0 -12 16 -30l-5 -24q22 -36 22 -59q-11 -1 -11 -9v-20q22 0 22 -34h6q0 23 11 34q-6 9 -6 20h12q0 -6 5 -15l-5 -10q11 -41 11 -53q-6 -10 -6 -15l6 -10l-6 -10l11 -24 q-5 -9 -5 -20q0 -4 22 -29v-39q0 -55 -6 -142q6 -9 6 -14h-6q0 -5 6 -5q-4 -29 -11 -29l5 -10q-5 -64 -5 -103h-6q0 -5 6 -5q-7 -48 -17 -48q11 -20 11 -30q-16 -77 -33 -322q0 -11 5 -19q-5 -45 -11 -250h-5l5 -9v-74l6 -29q-6 -9 -6 -14q6 -44 6 -54l-6 -34 q11 -78 17 -176l-6 -10q12 -19 17 -122l-5 -24l11 -83h-6l-17 9h-27v-24l-12 -15q12 -1 12 -9v-10q0 -10 -12 -10h-11q0 29 -33 29q0 28 -33 54l-45 137q-6 6 -6 34v15l6 9q-13 0 -17 39q6 27 6 44q-11 0 -11 15q11 30 11 49q-6 14 -11 14q5 53 11 64q-11 0 -11 10 q0 9 11 34l-11 34l11 122l-6 10q8 102 17 102q0 5 -6 5q6 106 17 147v10q0 9 -11 9q6 25 22 25v14q0 5 -11 39v5l11 15q0 5 -5 5l5 19l-5 25q5 48 22 63q0 14 -11 30q5 72 17 122l-6 19q6 37 11 49q-5 9 -5 20q0 8 11 24l11 -5h5q0 10 -16 10v15q16 17 16 34l-16 24 q0 17 16 39v15l-11 14q0 5 11 40v19l-11 15q11 18 11 39v5l-11 14q0 8 11 44q-13 47 -39 83q0 22 -33 39q0 -9 -11 -9q-11 4 -17 4l-5 -9l-12 5h-5l-11 -44h11v-5q-11 -48 -33 -78q11 -2 11 -10q0 -12 -34 -44q0 -9 -11 -59l6 -9q-12 -54 -39 -54l5 -49q0 -16 -33 -54l-6 -9 q6 -27 6 -44q-29 -112 -45 -122q-5 0 -5 -5q11 -2 11 -10q0 -10 -11 -10v10h-6v-10q11 -1 11 -10v-5q0 -18 -33 -63q17 0 17 -10q-23 -39 -39 -93q11 -1 11 -9q-22 -47 -50 -88l11 -25q-6 -19 -39 -53v-5h17v-5q-23 0 -23 -10l11 -15v-4q0 -8 -16 -54l5 -10q-3 -34 -39 -68 l11 -5q-11 -55 -27 -83q11 -18 11 -39h-6l-11 5v-5q6 -10 6 -15q-15 0 -23 -34q6 -10 6 -15q-11 -16 -11 -24h-11v24h-11l-6 -24l6 -10q-12 -30 -28 -34h-6v5l11 14v5q-16 0 -16 25q-9 0 -23 -20l6 -10h-6q-11 0 -11 15h-17l-11 -5l-33 64v44l33 39v9l-11 15q0 6 6 49 q-6 27 -6 39q22 8 22 34v5q0 4 -16 15l22 39l-6 10q0 4 6 4q-8 20 -17 20q0 4 28 63q-11 37 -11 40q11 16 11 29q-11 0 -11 10q11 0 11 9q0 6 -5 15l5 44l-5 24q5 19 5 39l-5 30q11 21 16 63q-11 0 -11 10l17 20l-6 24q13 0 17 24q-11 31 -11 39q11 15 11 35l-6 34 q6 24 12 24l-6 10v29l6 30q-6 8 -6 24h6l-6 10v102q0 10 -11 10h-17q-50 -83 -78 -166q-16 0 -44 -98q-22 -24 -39 -88q0 -13 -117 -288q-28 -62 -28 -97q-78 -136 -106 -391v-5l6 -10q-19 -92 -95 -92h-39q-117 47 -117 171q-16 0 -16 9v20q16 15 22 34q-6 9 -6 15 q17 44 17 73v5q0 11 -6 19q0 5 6 5l-11 93l5 20q-11 123 -11 141l6 10q-4 8 -11 58l5 10q-7 78 -11 88q0 5 6 5zM525 1163q12 0 12 10h-12v-10zM542 1051h6v9h-6v-9zM637 89h11v-10q-11 0 -11 10zM659 1290h11v15q-11 -2 -11 -10v-5zM687 89h11l6 24q-8 0 -17 -14v-10z M776 147h6v10h-6v-10zM787 543q2 -10 11 -10v5q0 10 -11 10v-5zM787 689q2 -9 11 -9v9h-11zM809 201h6v10h-6v-10zM815 655q2 -10 11 -10v10h-11zM821 714h11v5h-11v-5zM821 846h5v9h-5v-9zM821 880h5v10h-5v-10zM821 987h5v10h-5v-10zM826 1183q10 0 28 -15l5 34h-5 l-17 -10h-5v10h-6v-19zM837 416h11v19q-11 -1 -11 -9v-10zM837 763h6v9h-6v-9zM843 348h5v9h-5v-9zM843 494h5v10h-5v-10zM843 1241l11 -5v15q-11 -2 -11 -10zM843 1256h11v10h-11v-10zM848 1100h6v9h-6v-9zM848 1305h6v14h-6v-14zM882 650h5v10h-5v-10zM882 719l11 -5v14 q-11 -1 -11 -9zM893 528h5v10h-5v-10zM926 616h11v10h-11v-10zM960 714q11 0 11 10v4q-11 -1 -11 -9v-5zM960 919h11v10q-11 -2 -11 -10zM1015 953h6v10h-6v-10zM1043 1056h17l-6 34q6 0 6 5h-6q-11 -18 -11 -39zM1065 1158h6v15h-6v-15zM1088 1168h5v10h-5v-10zM1116 1334 h5q11 5 17 5v10l5 34q-14 0 -27 -49zM1121 1275h6v10h-6v-10zM1121 1290h6q0 10 11 10v9q-8 0 -17 -14v-5zM1177 1461h11v10q-11 -2 -11 -10zM1249 1471q2 -10 11 -10v15h-11v-5zM1277 1432q2 -10 11 -10v24h-11v-14zM1283 1495q22 -28 22 -34h5v5q-5 18 -5 44h-6 q0 -15 -16 -15zM1288 250h6v10h-6v-10zM1288 1407h11q0 10 -11 10v-10zM1294 -292v-5q1 -10 11 -10h5q-5 10 -5 15h-11zM1299 860q2 -9 11 -9v4q0 10 -11 10v-5zM1316 1319q11 0 11 10t-11 10v-20zM1327 1461q8 -20 17 -20v5q-9 20 -17 20v-5zM1327 1515q0 -7 17 -15v5 q0 10 -11 10h-6zM1333 -375v-15h11v5q0 10 -11 10zM1333 636h5v9h-5v-9zM1333 1383q1 -10 11 -10v10h-11zM1355 211h11v5h-11v-5zM1355 1368q3 -29 17 -29h5q-13 34 -22 34v-5zM1360 250h6v10h-6v-10zM1360 -268v-14q12 0 12 9v5h-12zM1366 -219v-5q0 -7 22 -19h6 q0 6 -28 24zM1366 387h6v9h-6v-9zM1366 792h11q-5 9 -5 15h-6v-15zM1366 816q11 0 11 15v5h-5zM1366 870q11 -12 11 -19h11q-11 15 -11 24h-11v-5zM1372 -160v-5q1 -10 11 -10v5q0 10 -11 10zM1372 518h11v5h-11v-5zM1372 528h11v5h-11v-5zM1372 587q5 -10 5 -15h6v15h-11z M1372 929q5 -9 5 -20h6q0 11 5 20q-6 0 -16 5v-5zM1377 558h6v9h-6v-9zM1377 631h11q0 10 -11 10v-10zM1377 694h6v10h-6v-10zM1388 1427v9h11q0 -9 -11 -9zM1388 1480v10h11v-10h-11zM1394 1046h17v14h-6q-11 -1 -11 -9v-5zM1394 1197h5v10h-5v-10zM1405 1251q11 0 11 10v9 h-11v-19z" />
<glyph unicode="N" horiz-adv-x="890" d="M9 102q22 7 22 32v41q0 10 25 48l61 380q4 28 4 109v20q0 4 4 4l-4 8v4q0 21 4 36l-4 29l4 36q0 3 -4 24l4 28q-4 36 -4 45q0 4 4 4l-4 20v4q0 26 4 53l-4 20q0 8 4 8l-4 48v81q0 4 4 4l-4 8v81q0 14 4 36q-4 6 -4 24q12 57 69 57h4q91 0 91 -117q0 -15 4 -36 q10 3 65 117q16 0 38 88q61 57 117 57q32 -20 43 -36q37 0 64 -182q6 0 17 -65q5 0 5 -4l-5 -28q8 -26 18 -125h-5q4 -9 9 -53l-4 -8q8 -104 13 -230q0 -4 -5 -4l5 -20v-44q0 -10 4 -17q-4 -7 -4 -12q7 -21 13 -109l-5 -20q0 -152 65 -565q-4 -7 -4 -20l8 -17q0 -12 -13 -12 q6 -20 13 -20l-4 -8v-4q18 0 30 -48l-9 -5q0 -4 5 -4l-5 -20q5 -8 5 -12q-13 0 -13 -4q4 -8 4 -12h-4q-177 170 -233 347q-34 136 -34 360l-5 8q5 7 5 16v4q0 24 -5 24l5 40v122q0 32 4 84q-4 7 -4 21q4 22 4 44q0 4 -4 4l4 20v109q0 22 -4 57q4 8 4 12q-4 35 -4 60v13 q0 9 -5 16l5 8q-17 99 -30 133q-13 0 -31 -97l-8 -4l4 -16q-30 -95 -47 -230q-26 -66 -56 -315l-30 -109l4 -20v-16q-67 -441 -103 -441q-35 -44 -87 -44q0 -4 -4 -4q-42 0 -52 56q-23 0 -34 45zM384 1285h8v4h-8v-4zM534 1394q9 0 9 8v4q-9 -1 -9 -8v-4zM560 905h5q8 0 8 8 v9h-8zM565 1136q1 -9 8 -9v13h-8v-4zM565 1301h4q9 0 9 8v4q-9 -4 -13 -4v-8zM569 788q6 0 13 12l-9 4l-4 -8v-8zM578 748h4v8h-4v-8zM578 841h4v8h-4v-8zM582 344h4v8h-4v-8zM608 1031h13v4h-13v-4zM659 199h9v8h-9v-8zM664 -23v-4h8v12q-8 -1 -8 -8zM672 114h5v8h-5v-8z M737 -136v-17l13 -8v8q-9 0 -9 17h-4z" />
<glyph unicode="O" horiz-adv-x="996" d="M8 229q0 3 4 24q0 4 -4 4q0 186 150 558q68 166 239 375q0 13 125 130q132 147 142 147q20 24 50 24h13q30 0 62 -16v28q0 18 -8 33l8 4q13 -39 42 -73l4 -21q-4 -8 -4 -12l8 4q9 -11 9 -32h-4v-13l8 4h4l13 -48q-4 -8 -4 -13l8 4q50 -133 50 -150q0 -14 -4 -21 q4 -27 4 -44v-45q-25 -15 -25 -21q-8 -28 -8 -48v-9q0 -8 12 -8v-4q-12 -15 -12 -36v-9q1 -8 8 -8q-8 -20 -8 -28l4 -25q-4 -35 -4 -61v-16q0 -8 -9 -8l4 -8v-41h-8v-29h8q0 -12 -8 -32q4 -7 4 -16q0 -13 -12 -41l4 -20q-4 -13 -8 -13l4 -8q-10 -73 -25 -73q-3 0 -13 -25 l4 -8v-8q-8 -49 -33 -73l4 -8q-38 -69 -38 -86h5v-4q-53 -78 -155 -175q-171 -167 -380 -167q-54 0 -126 49l5 8v4q-43 32 -71 82q-38 65 -38 122zM25 306h4v8h-4v-8zM83 229q9 0 9 8v12q-9 -1 -9 -8v-12zM129 237q5 -94 59 -94q0 -15 62 -20h13q131 0 284 118 q105 65 188 187q104 161 104 391v118q0 9 -4 17q4 7 4 12q-25 152 -33 167v28h8v8l-8 -4q-66 111 -67 147h-4q-214 -201 -297 -318q-146 -205 -288 -598q-17 -96 -21 -159zM685 1446h4v8h-4v-8zM722 278h9v8q-9 -2 -9 -8zM773 432q1 -8 8 -8v16h-8v-8zM785 331v8h4v-8h-4z M789 339v8q9 10 9 16h8v-4q-11 -20 -17 -20zM810 375v13h9v-5q0 -8 -9 -8zM810 510h9v8q0 8 -9 8v-16zM810 1459q9 0 9 8v8q-9 -1 -9 -8v-8zM819 485h4v8h-4v-8zM835 1365h4l5 16v4h-5l-4 -16v-4zM839 546q9 0 9 8q-4 8 -4 13h-5v-21zM839 571h9l4 20q-7 0 -13 -20z M844 1275h8v4h-8v-4zM848 1035l8 -4v12q-8 -1 -8 -8zM852 994l4 -28h9v4l-9 12l4 16q-4 8 -4 17h-4v-21zM852 1088q8 0 8 8v4q-8 -1 -8 -8v-4zM860 933h9q0 5 4 12v5h-4q0 -7 -9 -17zM860 1051h5v17h-5v-17zM865 766h4q8 0 8 8v9q-6 0 -12 -17zM865 1043h8v8q-8 -1 -8 -8z M869 823h4l4 8v4h-4q0 -4 -4 -12zM898 1096h8v8q-8 -1 -8 -8zM898 1125q1 -9 8 -9v9h-8zM898 1153q1 -8 8 -8v8q0 8 -8 8v-8zM898 1165q8 0 8 8h-8v-8zM898 1231h8q0 8 -8 8v-8z" />
<glyph unicode="P" horiz-adv-x="882" d="M-160 1209v12q34 79 110 112q404 231 624 231h7q9 0 16 4q78 0 159 -96q23 -53 23 -112v-16q0 -130 -34 -196q0 -23 -34 -89q-69 -146 -103 -181q-82 -114 -133 -170q-75 -85 -80 -85q-7 0 -49 -54q-22 0 -57 -46q-41 -26 -92 -73v-39l-3 -23q3 -8 3 -12q-7 -99 -7 -131 q-8 0 -8 -11v-12h-4v-8h8v-15q-6 -9 -15 -39h7v8h8v-27q0 -8 -8 -8l8 -34q-4 -21 -4 -35q4 -20 4 -23q-4 -12 -8 -12l4 -8q0 -16 -7 -30q3 -8 3 -12q-3 0 -3 -4q7 -1 7 -8v-3q-7 -28 -7 -31h-8q0 15 -23 15v-8q15 -17 15 -19l8 4q8 -1 8 -8v-11q0 -8 -8 -8l-4 8q4 0 4 4 q-16 0 -27 23q-7 0 -26 23q7 0 7 8q-15 0 -15 11v4q0 4 4 4q-11 14 -23 116q0 3 4 3l-4 20v50q0 22 4 62q-4 7 -4 11q8 34 8 93v38q-8 16 -12 16q-33 -24 -156 -47q-26 10 -26 16q71 41 190 131q0 6 8 15v74q0 22 3 61q-3 7 -3 16q0 11 3 11q-3 46 -3 66v154q0 14 3 35 q-3 6 -3 23q0 15 3 15l-3 47v42q0 59 3 162q-44 -14 -110 -89h-27q-7 0 -7 8l-8 -4h-11q-14 15 -84 39q0 21 -15 42zM-54 361h4v8h-4v-8zM-23 384q6 -15 11 -15v3q-4 8 -4 12h-7zM3 396h8v7h-8v-7zM34 388h7v8h-7v-8zM83 434h4v12h-4v-12zM91 399h4v12h-4v-12zM91 415h4v8 h-4v-8zM114 1317h7v8h-7v-8zM133 -9v-12q7 0 7 8v4h-7zM140 6q2 -8 8 -8h4v27q-6 0 -12 -11v-8zM140 -40q2 -8 8 -8l4 8h-12zM144 -33h8v8q-8 -1 -8 -8zM148 272q4 -7 4 -11h4v11h-8zM163 1248q12 -45 38 -247h-4l4 -8v-46l4 -23q0 -4 -4 -4l4 -23q0 -28 4 -89q0 -4 -4 -11 q4 -27 4 -43v-54q0 -27 -4 -85h4q58 47 110 124q13 1 46 61q114 134 140 182l61 96q0 10 53 108q38 88 38 127q12 20 12 54v31q-8 70 -61 70q-37 -8 -42 -8l-7 4q-115 -15 -350 -178q-41 -31 -46 -38zM186 1375h11v12h-3q-8 -1 -8 -8v-4zM190 1344h7q8 0 8 8t-8 8h-7v-16z M190 1406q1 -8 7 -8l4 8l-7 4h-4v-4zM216 558l12 -8l7 11l-11 8h-4q0 -4 -4 -11zM216 1375h8q8 0 8 8q-4 7 -4 11q-8 -3 -12 -3v-16zM220 1425h4q8 0 8 8l-8 4l-4 -8v-4zM224 523h8v11h-4q0 -4 -4 -11zM247 534q4 -7 4 -11h3l4 15h-11v-4zM247 1398h11v8h-11v-8zM270 1406 q4 0 11 -4l4 8v11h-4q-6 0 -11 -15zM273 1433h8q0 8 -8 8v-8zM277 554h8v7h-8v-7zM281 612h4v7h-4v-7zM304 1468q1 -8 7 -8l4 8q0 7 -7 7zM308 642h7v8h-7v-8zM311 1425q8 0 8 8v4q-8 -1 -8 -8v-4zM323 1437q1 -8 7 -8h4l8 4q-6 15 -12 15zM330 581h4v11h-4v-11zM330 1452h4 q0 4 4 12h-8v-12zM357 1464q4 0 11 -4v12h-11v-8zM361 646l7 -4l4 8v4h-4q-7 -1 -7 -8zM368 720h4v7h-4v-7zM384 723q1 -7 7 -7v11h-7v-4zM384 1487h15q0 6 -12 12h-3v-12zM410 1491q27 0 27 -8q11 4 11 8q-7 12 -7 19q3 0 3 4h-11q0 -4 4 -4q0 -10 -27 -15v-4zM414 808h8v8 q-8 -1 -8 -8zM418 693h4v11h-4v-11zM441 754q7 0 7 12v4h-4zM452 1522q8 0 8 7h-8v-7zM463 1514q16 -2 16 -12h7v8h-7l3 8v4q-4 0 -11 4zM471 804q8 0 8 8v8q-8 -1 -8 -8v-8zM494 1502h4q9 8 15 8v16h-8q0 -7 -11 -20v-4zM498 1533h7v4q0 8 -7 8v-12zM517 1518q1 -8 7 -8h8 v4q-4 7 -4 12h-4q-7 -2 -7 -8zM524 1529h8v8q-8 -1 -8 -8zM547 1537h15q0 6 -11 12h-4v-12zM551 1518h15v4h-15v-4zM562 1526q14 0 23 -8q8 0 8 8v7l-8 12q-17 -12 -23 -12v-7zM597 1522q0 -9 19 -12v16l-16 3zM608 1495h4v7h-4v-7zM635 1522q0 -6 11 -12h4q-8 13 -8 23h-7 v-11zM661 1506q4 -7 4 -11h4v11l-8 4v-4zM695 1213h4v8h-4v-8z" />
<glyph unicode="Q" horiz-adv-x="964" d="M13 466l4 7q-4 8 -4 12h4l-4 8v100q0 4 4 4q0 4 -4 4q4 172 103 396q132 273 344 459q90 75 174 85q6 19 13 19l9 -4q2 8 9 8h5q69 -32 98 -100q-9 -29 -9 -35q75 -150 81 -235v-15l9 -12v-15q0 -4 -5 -4l5 -8v-27q0 -11 4 -11l-4 -20v-77q0 -8 -5 -15q0 -4 5 -4l-14 -77 q5 -8 5 -12q-3 -27 -9 -27l4 -7v-20q0 -4 -4 -4l4 -7q0 -4 -4 -4q0 -4 4 -12q-10 -72 -18 -92q5 -8 5 -12q-18 -33 -45 -123q5 -15 5 -27q-67 -179 -157 -320q-15 -17 -27 -65q9 -28 9 -58l-4 -8q9 -14 9 -31q-5 -7 -5 -11q10 0 32 -62q4 0 4 -15h-9v-20q10 0 67 -30 q0 -6 -13 -12h-5q-33 0 -36 12l-22 -4q-14 7 -22 7l-9 -3q-34 10 -130 96l-9 -4q0 4 -4 4q-40 -50 -67 -69q0 3 -5 3l5 8v4q-8 0 -14 -19l-8 4h-14v-8h-9q-4 0 -4 4q-24 -3 -41 -20q-76 0 -187 124q-40 81 -54 123q-27 115 -40 274zM196 396q0 -89 58 -242q8 0 40 -47h18 q32 16 99 85q-18 82 -18 243l-5 27q5 6 5 23l-5 27h5l-5 8v46q0 49 63 69q8 4 18 4l13 -19q-4 -8 -4 -12l9 -4h22l36 -150q-5 0 -5 -4q5 0 23 -23q98 187 98 228q27 62 76 601q0 4 4 11l-4 23v66q0 8 -9 8q-16 -12 -31 -12q-15 8 -27 8q-52 -8 -255 -197 q-133 -128 -170 -358q-11 0 -40 -235q-3 -62 -9 -62l5 -19v-27q0 -9 -5 -16q5 -6 5 -15v-4q0 -16 -5 -31zM411 15h4v7h-4v-7zM442 38h4v8h-4v-8zM598 277h5l9 23h-9q0 -13 -5 -19v-4zM652 -12q6 0 13 -12h-4q-9 0 -9 8v4zM656 381h5q0 10 13 23v8q-18 -4 -18 -27v-4z M688 439h9q0 7 -9 7v-7zM701 477h5v12h-5v-12zM723 508h5v8h-5v-8zM741 1445l9 -4q-4 7 -4 11h-5v-7z" />
<glyph unicode="R" horiz-adv-x="1205" d="M0 53v4q0 29 19 35q0 11 4 11l-4 8v35q2 8 8 8l-8 19q4 27 4 43q0 13 -4 20q6 62 8 70q0 4 -4 4q4 21 4 31q8 171 8 210v129q0 3 4 3l-4 8v86l-4 39h4q-4 7 -4 11q0 115 -15 433q-4 7 -4 11h4q-11 25 -16 55q0 65 89 109h8q51 -41 51 -78q-4 0 -4 -4q14 -20 35 -101h4 q188 244 326 272l66 16q18 0 81 -27q70 -7 70 -24v-39l8 4h8v-19q-8 -12 -16 -12v-11h4l16 23l8 -4q6 4 15 4l19 -55q-3 -6 -3 -15q11 -20 11 -39l-4 -27q12 0 16 -35q0 -68 -27 -172q-13 -1 -27 -66q-5 0 -28 -43q-35 -28 -35 -54l-58 -78q-14 -10 -50 -55q8 -10 46 -27 q0 -5 62 -39q16 0 66 -47q39 -16 39 -39q12 0 31 -15q22 0 28 -35q32 0 167 -160q10 -29 50 -97q27 -71 35 -129q0 -58 -47 -109q0 -11 -23 -23q-39 -50 -50 -51l-8 -4h-8l-12 8h-3q0 -19 -8 -19h-4q-8 0 -8 8v3h8v12q-4 0 -4 -4q-8 4 -12 4q-12 -8 -19 -8l4 -7v-8h-8 q-16 27 -16 35q4 7 4 12q-55 179 -124 338q-36 65 -85 137l7 11h-7v-8h-4l-43 51v20l-19 -4l-16 35l-8 -4l-19 31l-12 -8q-8 0 -11 31h-4l-12 -7h-4q-31 29 -78 54q-37 -23 -62 -23h-35q-4 0 -4 4l-7 -4q-6 0 -12 11l4 8l8 -4h4q7 0 7 8v8q-4 0 -11 4q-20 0 -20 -8 q-4 0 -4 4l-19 -4l-12 8l4 7v4q-19 0 -19 8q0 6 11 12q8 -4 12 -4l4 8q-8 0 -8 8v7q47 53 97 63v-4l24 11l7 -3q17 0 125 124q98 131 124 265l-4 8q4 40 8 46q-8 89 -23 121h-8q-143 0 -272 -175q-30 -24 -70 -90l-43 -74q-39 -92 -39 -120q0 -12 4 -28q0 -182 -58 -564 q-5 -31 -12 -31l4 -20q-8 -92 -8 -156l-3 -15q3 -7 3 -16l-3 -7q3 -7 3 -16t-3 -16l3 -7q0 -8 -3 -8q3 -53 19 -109q-8 -55 -27 -55q0 -9 -31 -19v-4h-8q0 7 -8 19q-7 0 -23 -23q0 22 -35 43q-12 20 -16 35q8 13 8 23h-11v4l3 8q-10 0 -15 43q-4 0 -4 4zM43 306h4v8h-4v-8z M47 259h3v16h-3v-16zM47 477l7 -4h4v4q0 8 -8 8zM50 162h8v7h-8v-7zM50 415q4 -8 4 -12h4v12h-8zM66 504h4v8h-4v-8zM66 582h4v8h-4v-8zM70 387h4v8h-4v-8zM70 403h4q0 10 8 31h-8l-4 -23v-8zM70 477h4l4 16v4h-4l-4 -16v-4zM74 247h4v16h-4v-16zM93 477h4v12h-4v-12z M93 676h4v7h-4v-7zM101 504q6 0 12 12l-8 4h-4v-16zM109 617h4v12h-4v-12zM124 551h4v8h-4v-8zM132 185h4v8h-4v-8zM136 95h4v8h-4v-8zM136 150h4v8h-4v-8zM140 1162h8v8q-8 -1 -8 -8zM144 668l7 -4v12q-7 -2 -7 -8zM148 602h3v11h-3v-11zM148 699l7 -12l-4 -7h4q2 7 8 7 q-8 13 -8 24q-7 -2 -7 -8v-4zM151 637q2 -8 8 -8v8h-8zM287 1275h8v4h-8v-4zM307 750l19 -4v4q-7 14 -7 31q5 0 11 11h-8q-9 0 -15 -42zM311 1310h4v8h-4v-8zM338 1338q1 -8 8 -8t7 8l-7 3h-8v-3zM342 1275h8v8q-8 -1 -8 -8zM369 765h4v8h-4v-8zM377 839h4v8h-4v-8z M396 1392q4 -8 4 -12q8 0 8 8v4h-12zM408 757h8v4h-8v-4zM423 1419q4 -7 4 -11h8v7q0 8 -8 8q0 -4 -4 -4zM427 1357h8q0 8 -8 8v-8zM435 742h4v8h-4v-8zM454 1365h4v8h-4v-8zM486 1408h7q0 7 -7 7v-7zM489 726q2 -8 8 -8v8h-8zM493 866h8v4h-8v-4zM536 1447q8 0 8 7v4 q-8 -1 -8 -8v-3zM540 707h4v11h-4v-11zM590 1497h8v8h-8v-8zM598 672h4q8 0 8 8h-12v-8zM602 730h8q0 8 -8 8v-8zM621 866h4q20 18 20 32h-4q-6 0 -20 -32zM625 711q4 -8 4 -12h8v8q-8 0 -8 8h-4v-4zM672 1443h4v7h-4v-7zM680 703l8 -4h3l-3 19h-4q0 -8 -4 -15zM684 594h4 q0 4 3 12h-7v-12zM684 1478h7q0 7 -7 7v-7zM695 1447q8 0 8 11v4h-4zM699 1338h4v7h-4v-7zM707 683h8v8q-8 -1 -8 -8zM730 1396h4v8h-4v-8zM738 644h4q4 14 4 16q-8 0 -8 -12v-4zM750 497h7v7q-7 -1 -7 -7zM754 664h3v8h-3v-8zM765 629q8 0 8 8l-8 4v-12zM792 594h4l4 15 q-8 0 -8 -11v-4zM804 500h4v8h-4v-8zM804 609h4v8h-4v-8zM909 497q8 0 8 7h-8v-7zM940 49h8q0 8 -8 8v-8zM940 76h4v8h-4v-8zM963 84h8v8q-8 -2 -8 -8zM967 49h4q0 6 8 15q-4 8 -4 12h-4l-4 -23v-4zM998 80h4v8h-4v-8zM998 185h4v8h-4v-8z" />
<glyph unicode="S" horiz-adv-x="939" d="M-9 12v11h8v-11h-8zM-1 -14h3q9 0 12 -19q4 0 15 34q4 0 4 3v8l-12 15v4l8 11v8l-8 11l8 11v26l4 19q-8 0 -8 8q0 26 8 41l7 -4h4q0 19 8 30h-4l4 8l-8 11q0 21 12 30q0 28 -12 49l8 4h4v-8h3v8q-3 0 -3 4q11 0 22 37h4v11h-7q-8 -15 -8 -22h-8q0 7 -7 7v4h7v4l-7 11 q23 0 23 38v3h7v8l-7 11v4q6 8 11 34q-4 6 -4 15l4 15h7q0 -4 -3 -4l3 -7q-3 -7 -3 -15q3 0 3 -4q-3 0 -3 -4q7 0 7 -11h4q0 4 4 11q-4 0 -4 4q6 0 11 15q-7 12 -7 22v15q11 0 11 23q-4 0 -4 4q4 0 4 3l8 -3l15 11l11 -15v-8q0 -5 -11 -11l-11 8h-8v-38q0 -10 8 -22 q-4 0 -4 -4q7 -1 7 -8l-3 -7v-8h3q0 15 23 23q0 -4 4 -4q-8 -15 -8 -22q35 -26 35 -31v-7h-8q-4 0 -4 4q-6 -4 -15 -4v-11q0 -9 19 -12q1 8 8 8h3v-8q-9 0 -11 -15q13 0 19 -41q-11 0 -19 -15q6 0 23 -26v-15q0 -9 -4 -15q4 -7 4 -15v-23l-15 -15q11 -4 11 -23v-7 q-15 -17 -15 -19q11 0 11 -22q71 48 220 188q102 89 145 135q77 78 121 161q0 50 -125 132q-164 43 -217 90q-76 34 -76 53q4 6 4 15q-18 10 -19 15v7l8 -3h4l-4 26q7 12 7 22q-7 0 -15 23q0 29 42 98q5 22 11 22h8v-7q19 9 19 33h8l7 -3q8 17 8 30h7v-8h4q0 3 12 34l-8 11 q15 8 15 12q8 -4 12 -4l-4 -8q4 -7 4 -11h3v15q8 0 8 -11h4v19h-12v7q35 53 42 53l4 -8l-4 -7q11 0 11 -8l-7 -15h11q8 28 8 30h4l7 -4l12 19l-4 19q-17 -7 -19 -15q4 -7 4 -11h-4q-6 0 -12 11v4l38 41h4v-7l-4 -8h12v-7l-4 -8q4 0 4 -4q15 2 15 30q-7 4 -11 4v8q0 5 11 11 v-11h4q23 7 23 18l15 19v8q-15 0 -15 -19h-12v4q38 43 38 56h4l4 -19q-6 0 -12 -11v-4q9 0 16 4q6 -4 15 -4l3 19q-7 0 -7 8q0 24 53 41q0 13 30 19q4 7 4 11h4l8 -4q9 20 22 23q2 -8 8 -8q0 34 42 34q7 0 7 -19l8 4q26 -9 26 -15q-5 0 -11 -15h4q7 4 11 4l8 -12l-8 -3 q8 -13 8 -19h-12v7h-3v-11q0 -6 15 -15v11q7 0 11 -22q-7 -4 -11 -4l7 -11v-8q-19 -4 -22 -4q-4 7 -4 19h-4q0 -10 -11 -22v-4h11v-8q0 -7 -8 -7h-3q-8 0 -8 7v19l8 12v3h-4q0 -11 -8 -11q-15 6 -15 23h-4q-8 0 -15 -4q-7 4 -15 4l-15 -15h-8q-7 0 -7 7l7 15h-4 q-11 -4 -11 -7q4 -8 4 -12q-8 0 -8 -11h-4l-7 4q-12 -17 -12 -23h-7v4q4 7 4 11h-16l4 -19q-16 -15 -23 -15q0 8 -7 8l-4 -8v-18h-11l-8 18q-7 -1 -7 -7q3 -21 3 -30q-7 -17 -15 -19h-4l4 8q-4 0 -4 3h8v4h-4q-23 -5 -23 -11v-4h12v-7q-9 0 -15 -4l3 -8v-7h-7q0 15 -8 15 l-11 -15q7 0 7 -4l-3 -8q3 -6 3 -15q-38 -40 -38 -56l8 4h4l-8 -11q8 -2 8 -8q0 -7 -8 -7l-15 11h-8l4 -8q0 -26 -7 -26l-8 4q-7 -4 -11 -4q1 -8 7 -8q-7 -9 -11 -56h-8q-7 0 -7 8v3q6 0 11 8q0 4 -4 4l4 18v4h-8q-6 0 -11 -19l4 -7l-4 -8q8 -12 8 -18l-23 -19h-4v7l12 15v4 l-8 -4h-8v4l8 11q0 8 -8 8q-3 -5 -3 -23h3q0 -13 -15 -30v-3l8 3h4q0 -5 -8 -34l8 4v-7q-8 -17 -16 -19l-3 7q3 0 3 4h-3q-6 0 -16 -15q0 -37 91 -67v-4l-3 -8h3l23 4q61 -16 61 -30h4q8 0 15 4q15 -3 61 -38q2 0 15 4q15 -6 15 -11l-4 -8q9 -22 15 -22h4q0 18 8 18l7 -11 l-7 -15l15 -11h4q0 4 4 11q19 0 38 -38l-4 -18l19 -12v8h11l-4 -19v-11q9 0 15 -4q8 4 12 4v-4q0 -4 -4 -4q2 -12 30 -30q0 -11 8 -11h4l7 4q8 -16 8 -23h-4q5 -29 12 -37v-4h-8q0 -9 4 -15q-4 -7 -4 -15v-4l8 -11q-13 -30 -19 -30q0 3 -4 3v-7q7 0 7 -4q-7 -36 -53 -90 q-25 -47 -129 -158q-6 0 -79 -71q-26 0 -46 -38l-102 -75q-3 -11 -46 -30q-54 -44 -68 -101q-32 -13 -50 -27q-11 0 -49 -7l-8 15q8 0 8 7v4h-15q-14 0 -57 26q-4 0 -4 -3v-8h-8q0 11 -3 26l-19 -3l7 -12v-41h-4q-18 11 -26 11l-23 -26h-4q-24 0 -41 68zM21 -44v-8 q4 -7 4 -11h4v4q-4 6 -4 15h-4zM37 -33q1 -8 7 -8h4l4 15l-8 4zM44 91q1 -8 8 -8h4q-5 19 -12 19v-11zM44 143q1 -7 8 -7l4 7q-8 10 -8 15h-4v-15zM48 34q0 -27 11 -30q0 20 4 34q-4 7 -4 15h-3q0 -7 -8 -7v-12zM52 -11v-7h4v7h-4zM56 211h3q0 19 8 19l4 -8l-4 -7v-8h4 q0 12 11 12v15q0 7 -7 7q0 -7 -19 -7v-23zM59 83q10 -18 16 -18l3 7q0 5 -11 11h-8zM59 162h4v12h-4v-12zM59 177q4 0 12 -3l-4 -19v-12h8l3 19q0 20 -11 23h-8v-8zM63 95h12l3 26v11h-7l-8 -34v-3zM63 245h4l4 19h-8v-19zM67 4h4l11 8q-7 17 -15 19v-27zM67 -14v-12l8 -3 q-4 6 -4 15h-4zM67 46l8 -4l7 11v8h-11q0 -9 -4 -15zM93 395q4 -9 8 -37q-4 -15 -4 -30h8q0 11 4 11q-5 49 -8 56q4 8 4 11q-3 0 -12 -11zM93 425q2 -7 8 -7v7h-8zM97 53q4 -7 4 -11h4v11h-8zM97 102q15 0 15 -11h8q-3 13 -23 22v-11zM97 298h8v3h-8v-3zM97 320q4 -7 4 -11 h8v4q-4 7 -4 11h-8v-4zM101 211q4 -7 4 -11h4v11h-8zM105 132h7q8 0 8 8l-8 3zM105 459v8h4v-8h-4zM105 546l4 18l-4 8l7 4l4 -8v-26h-4zM105 598v11h7v-11h-7zM128 376h3v8h-3v-8zM128 459v4q8 0 11 22h4q7 -15 7 -26q-7 -4 -11 -4q-7 4 -11 4zM154 305l12 -7h3q6 0 16 15 v7q-14 -4 -16 -4h-11q-4 -7 -4 -11zM166 444v8q7 -4 11 -4v-4h-11zM177 324h4v7h-4v-7zM181 249h4v7h-4v-7zM188 222h4v8h-4v-8zM207 -52v-4h12v4h-12zM207 91q5 0 19 22q-3 0 -3 4q-12 0 -16 -26zM242 87q7 0 7 8h-7v-8zM260 -14v-4h8v4h-8zM279 1019q8 0 8 8v3 q-8 -1 -8 -7v-4zM298 140q2 -8 8 -8v11h-8v-3zM298 170h4v7h-4v-7zM302 993q4 -7 4 -19q7 0 11 19q-3 5 -3 22q-6 0 -12 -22zM306 1038h4v7h-4v-7zM314 1049h3v8h-3v-8zM317 31h4v7h-4v-7zM317 944h4v7h-4v-7zM329 1011h7q0 12 12 12v15h-8q0 -7 -11 -19v-8zM333 959h7v7 q-7 -1 -7 -7zM333 1075l15 -7l4 7v8h-16zM333 1090h7v8h-7v-8zM336 933q4 -7 4 -15h8v7q0 5 -12 11v-3zM336 1049h8l4 8v3h-4q0 -7 -8 -7v-4zM348 1042q7 0 7 -15q9 0 12 30l-8 3h-4q0 -6 -7 -15v-3zM352 57q7 0 7 8h-7v-8zM352 132l7 -4v12q-7 -1 -7 -8zM352 1098 q5 -15 11 -15q0 15 11 15v4h-3zM355 1008h8q0 7 -8 7v-7zM355 1064h4v8h-4v-8zM363 940q8 0 8 8l-8 3v-11zM363 1113h8v7h-8v-7zM367 933h7v3h-7v-3zM367 1075q7 0 7 8v4q-7 -2 -7 -8v-4zM382 1098q6 4 19 4q-4 7 -4 11q8 12 8 22v12h-4q-8 -1 -8 -8q4 -7 4 -11 q-10 0 -15 -30zM390 891l7 -4q0 15 12 38q-9 0 -16 4v-4l8 -11q-11 -15 -11 -23zM401 865h4v7h-4v-7zM405 230h7v4h-7v-4zM412 1132q1 -8 8 -8q1 8 7 8l-3 7q3 21 3 30q-6 0 -11 -18q4 -8 4 -12q-8 -1 -8 -7zM412 1184q19 15 19 38l-7 4q-12 0 -12 -23h4zM431 267h8v8h-8v-8 zM435 1147h4l4 7h-4zM443 1173q4 0 11 -4v30q-6 0 -11 -26zM446 1120v4h8v-4h-8zM450 861h15q0 6 -11 11h-4v-11zM450 1109v4q1 7 8 7v-3q0 -8 -8 -8zM469 1196q12 3 12 22q0 8 -8 8h-4v-4q0 -9 4 -15q-4 -7 -4 -11zM488 1237h4v7h8v-3l-4 -8h11l4 26v4h-8q-5 0 -15 -22v-4z M503 861q7 4 16 4v4q-4 0 -12 3l-4 -7v-4zM507 1214v8h8v-8h-8zM511 1331v7h4v-7h-4zM515 335h4q0 6 7 15h-4q-7 0 -7 -11v-4zM515 1338v8h4v-8h-4zM526 865h4v7h-4v-7zM526 1233v8h8v-8h-8zM526 1301q12 0 12 15v4h-4q0 -6 -8 -15v-4zM530 824q7 3 11 3v8h-3q-8 -1 -8 -8 v-3zM538 790h3v7h-3v-7zM553 801q7 0 7 11v4h-3zM583 1357q8 0 8 8h-8v-8zM587 771q7 4 11 4v4q0 7 -7 7l-4 -7v-8zM594 839h4v7h-4v-7zM602 1399q8 0 8 -12h3q0 4 4 12l-15 11v-11zM610 745l7 -4l4 7v4h-4q-7 -1 -7 -7zM617 805l8 -4h4v4q0 7 -8 7zM648 681h7q0 7 -7 7v-7z M655 1410q8 0 8 -11h7q0 7 4 7q-4 7 -4 11h-7q-8 -1 -8 -7zM670 700h4v7h-4v-7zM674 745h8v7h-8v-7zM682 1447l4 -7q7 4 11 4q0 7 -8 7h-7v-4zM689 763h4v8h-4v-8zM697 771h8q-4 7 -4 11h-4v-11zM701 414q7 0 7 8h-7v-8zM701 515q7 0 7 12v3h-3zM705 1158v8h7v-8h-7z M705 1173q1 8 7 8v-8h-7zM712 1102v7q12 26 19 26v8l-4 8l-7 -4h-4q15 58 15 71l-4 8q8 15 8 26h4l7 -4q1 19 12 19h7v-19l-26 -15v-11l4 -19h-4l4 -7q0 -4 -4 -12l4 -22v-4q-8 -27 -8 -30v-19q-10 0 -19 -7h-4zM712 1181v7q1 8 8 8v-8q0 -7 -8 -7zM716 688q6 -15 11 -15v4 q-5 15 -11 15v-4zM720 530h4v8h-4v-8zM720 707q5 -15 11 -15l4 8q-8 0 -8 11zM720 730h4v7h-4v-7zM724 433q5 0 11 11v4h-4q-7 -1 -7 -8v-7zM727 549h8v8q-8 -1 -8 -8zM727 594h4q0 4 4 12h-8v-12zM727 654q8 0 8 8v4h-8v-12zM727 715h4v7h-4v-7zM743 628q0 -5 11 -11v4 q0 7 -8 7h-3zM743 707q0 -6 15 -15h3q-11 9 -11 15h-7zM743 1429h7v3h-7v-3zM746 594h4v12h-4v-12zM746 632h4q8 0 8 7h-12v-7zM746 643h4v11h-4v-11zM746 677q0 -6 15 -15q8 0 8 8q0 5 -19 15zM746 1286v4q12 10 15 60l8 3h4v-18q0 -16 -12 -30q8 -16 8 -23l-8 -4h-7 q-8 0 -8 8zM750 455h8q0 3 7 23l-7 4q0 -6 -8 -15v-12zM750 504h4q0 13 11 26v8h-7q0 -15 -8 -26v-8zM750 564h4q0 7 7 19h-3q-8 -1 -8 -7v-12zM750 1181q4 33 11 33h8v-3q0 -4 -4 -4l8 -15l-12 -26q4 -7 4 -15t-7 -8l-4 8l4 26zM754 485h4v8h-4v-8zM754 1361v4h7v-4h-7z M758 1226v3q1 8 7 8v-11h-7zM765 1410h8q-4 7 -4 11h-4v-11zM773 530q1 -7 7 -7v19q-7 -1 -7 -8v-4zM773 576l7 -4v11q-7 -1 -7 -7zM773 587q6 0 15 15h-8q0 -8 -7 -8v-7zM777 639l3 -18h8l-8 11q8 15 12 15l-4 7v4q0 4 4 4q-3 11 -15 15v-7q0 -9 3 -16q-3 -6 -3 -15z M780 485h4q0 8 8 8v4h-8l-4 -8v-4zM780 1462q0 -5 12 -11v11h-12zM788 512h8v7h-8v-7zM788 628q6 0 15 -7v7q0 6 -11 11l-4 -7v-4zM799 1350v3q0 6 12 12l4 -8l-12 -7h-4zM807 572h11v7h-3q-8 -1 -8 -7zM807 632q8 0 8 7q0 8 -8 8v-15zM834 617v19q5 0 11 -12z" />
<glyph unicode="T" horiz-adv-x="1000" d="M-17 868v10l12 -10q5 0 21 71q26 63 44 75v-10q-14 -40 -20 -40q0 5 -4 5q0 -9 -8 -30v-5h4l4 25h4l12 -10h8q0 15 4 35h8v-10h9q20 20 20 45q-8 0 -8 5q6 21 12 21h4v-5l-4 -26l8 -5h4q8 0 8 15q-4 10 -4 16l8 5l-4 10v10h8v-20h8l21 40q16 0 16 30q37 0 37 61h8 q0 -25 16 -25q0 10 4 10l-4 10v10l8 15q7 -5 16 -5l-12 -20q9 0 16 -5v20l-4 10h4l-4 10q6 21 13 21l20 -6q0 6 4 6l-4 10v5q1 10 8 10h4l-8 -56h4q5 0 20 41q-4 0 -4 5h8v5l-4 25l17 15h8q8 -1 8 -10q-8 -2 -8 -10q4 0 4 -5q4 0 4 5l20 -5h8v25q2 10 8 10l17 -15q8 0 8 10 v15h-17v5q0 5 21 26q7 -5 16 -5l8 15q-4 0 -4 5l8 5h4v-10l-12 -20h4q15 0 33 20q8 -2 8 -10q8 5 12 5l-4 10q37 34 37 45q29 0 32 -15q-16 -7 -16 -15v-10h4q12 0 12 25h8l4 -20h4q0 11 4 20q-4 0 -4 5q6 0 12 20l9 -5h4l20 31h4q8 -2 8 -10q-4 0 -4 -5q4 0 4 -6 q-8 -5 -12 -5v-10q4 0 12 -5q0 17 25 20q17 36 24 36q0 -9 20 -15v5q-4 10 -4 15q12 10 29 15l8 -15q-8 -2 -8 -10q12 0 32 -20l8 15q-6 0 -12 15v5q13 0 28 20q5 0 13 -5q27 5 44 5h4l13 -10h4q12 20 20 20q11 0 28 -15h9l24 30q24 -30 28 -30h4l25 30h4v-10h12l16 21v-6 l-4 -10q4 0 4 -5q-4 0 -4 -5h12q14 31 25 31l8 -5q13 10 24 10l4 -10l-4 -11h8l17 11q1 -11 8 -11l16 16q6 0 12 -16q-8 0 -12 -40l12 -10h4l-4 10q4 46 17 66q-5 0 -5 5l9 5q9 -36 16 -36h4q0 26 8 26h4q8 -2 8 -10v-5l-8 -16v-5h8l16 21q11 -21 17 -21v-10h-12 q1 -10 8 -10q0 -20 -45 -40q-4 9 -4 20h-12q-8 0 -8 -15q4 -10 4 -15q-8 -2 -8 -11v-5h20v-10q-41 -15 -53 -35l-12 10q-12 -5 -12 -10q4 -10 4 -15q-13 0 -69 -41q-166 -91 -334 -91l-109 -30q-4 0 -4 5l-94 -25l4 -10q-12 -34 -12 -46t29 -25v-5h-9v-10q14 0 17 -30 l-4 -26q61 -330 61 -429h-4q8 -26 8 -41q-4 -26 -4 -30q0 -11 4 -20q0 -171 -78 -435q-4 -40 -32 -85q4 -10 4 -16q-6 0 -24 -40q0 18 -25 51v15l-8 -5l-8 5q-8 -5 -12 -5v15l-4 25h-8q0 -15 -9 -15q-8 0 -8 10h4l-4 10q7 14 17 56q-7 5 -17 5v5q0 10 25 15q0 5 -4 15l4 46 l-4 30q4 44 4 76v65q8 0 8 26h-8q0 43 8 65q-4 28 -4 46v15l8 15v10l-8 -5h-4l4 10v96q0 5 4 5l-4 10v51q0 11 4 20l-4 10q4 43 4 71v5q0 5 4 5l-4 10v25q1 11 8 11q4 -10 4 -16q-4 -9 -4 -15l8 -5h4v5l-4 10q8 20 8 56l-8 5q3 35 8 35l-4 10v36q0 12 8 45h8v-15l-4 -25 q18 -20 21 -20v5l-8 15q0 22 12 66q-6 0 -12 15q1 42 32 86v25q0 10 -8 10q-6 0 -12 -15l-8 5q-48 0 -171 -76q-77 -56 -85 -56q-10 -22 -53 -45l-73 -81v-20h4q0 20 8 20l16 -15q0 15 8 15h8q6 0 13 -15q-54 -43 -65 -61q-11 0 -21 -10h-4q-4 0 -4 5q-8 -5 -12 -5v-5 l12 -20l-8 -5q-3 0 -28 35q0 -5 -4 -5q-18 20 -33 56zM24 832h4v11h-4v-11zM60 832h4v11h-4v-11zM76 848h9v5h-9v-5zM280 1176q12 0 12 -10l-4 -10h8q0 5 -8 40h-4q0 -11 -4 -20zM292 1206h4v10h-4v-10zM345 1227h16v5q-4 9 -4 15h-4q0 -8 -8 -20zM365 1297v10h8v-10h-8z M381 44v10h4v-10h-4zM426 868h4l-4 10v5h8v-25q-8 0 -8 10zM430 292l8 -5q8 0 8 10q-8 0 -8 25h-4zM434 373q4 -20 4 -36h4l4 26zM434 782q0 -7 12 -15v25h-4q-8 -2 -8 -10zM438 211h8v10q-8 -1 -8 -10zM438 393q8 0 8 10v10q-8 -1 -8 -10v-10zM438 504h8q0 10 -8 10v-10z M438 580q0 -7 12 -15v5q0 10 -8 10h-4zM438 640h8q-4 9 -4 21h-4v-21zM438 716l8 -5v5q-4 10 -4 15h-4v-15zM442 605h4v10h-4v-10zM446 1024v16q0 5 4 5l-4 10q6 20 12 20q4 -10 4 -15l-8 -20q4 -10 4 -16h-12zM454 1085q2 10 8 10l5 -10v-5q-8 5 -13 5zM467 893 q1 -10 8 -10v5q0 10 -8 10v-5zM467 1100v15h8v-15h-8zM479 1050h4v10h-4v-10zM491 85h4v10h-4v-10zM495 1065q1 -10 8 -10v10h-8zM499 120h4l4 10v5h-4q0 -5 -4 -15zM499 201h4v15h-4v-15zM523 1019h4v11h-4v-11zM527 1095v15h9v-15h-9zM564 1403v5q1 11 8 11q8 -2 8 -11 l-8 -5h-8zM808 1444q6 0 16 -10l4 10q-13 10 -20 10v-10zM901 1398q8 0 8 10v5q-8 -1 -8 -10v-5zM974 1504q2 11 9 11h4v-11h-13zM1023 1403q1 -10 8 -10h12l5 20l-9 6h-4q-5 0 -12 -16zM1031 1333q2 -10 8 -10l4 10h-12zM1035 1474q4 -10 4 -15h9v5q-5 10 -5 15h-8v-5z M1080 1383q8 0 8 10l20 -5h5v5l-5 26q5 0 5 5h-5q-28 0 -28 -41zM1125 1393h4l28 5q0 -5 4 -5q8 19 8 41v5h-8l-36 -41v-5zM1173 1555l9 5q8 -2 8 -10l-8 -5q-9 0 -9 10zM1206 1469h12q8 0 8 10v5h-12q-8 -1 -8 -10v-5zM1259 1520h4q8 -2 8 -11v-10q0 -10 -8 -10q0 4 -4 31z " />
<glyph unicode="U" horiz-adv-x="1095" d="M4 161h5l-5 10q26 278 82 472l92 341q9 67 18 87q-4 9 -4 14q11 6 64 231q27 59 27 116l-4 9q1 17 32 39q0 32 50 43h32q43 0 101 -111v-4q-13 -21 -23 -102q-11 -13 -41 -144q-32 -107 -129 -380q-86 -277 -137 -486h-9v-5q0 -53 -9 -91q19 -24 23 -24h13q89 69 156 183 q113 141 133 202q77 121 87 168q40 57 73 144q77 91 87 164q15 0 41 106l37 115q19 64 46 125q-5 9 -5 20q22 0 50 86q5 0 5 5q64 0 64 -19h5l9 5l4 -10v-77h14q-32 -137 -46 -265h-4q0 -4 4 -4q-32 -303 -78 -477q-105 -284 -105 -519l5 -10l-5 -24q0 -3 5 -62l-5 -20 l14 -24l-14 -19q3 -39 14 -39h4v5q-9 0 -9 5q5 9 5 15h9q0 -14 23 -77l-14 -10q0 -6 41 -39v-14h-22q-107 55 -161 159q-73 167 -73 332q-4 0 -4 5q4 26 4 43v38h-9q0 -11 -50 -86q0 -16 -78 -92q0 -9 -73 -53q-104 -129 -174 -144l-83 -19h-4q-22 0 -37 29q-64 46 -64 134z M41 137h4v10h-4v-10zM105 205q4 -10 4 -15h9q-4 10 -4 15h-9zM105 344h4v10h-4v-10zM114 253q9 0 9 9l-9 5v-14zM150 436h5v9h-5v-9zM205 763h5v9h-5v-9zM251 796h5v10h-5v-10zM301 1109h5v10h-5v-10zM663 51h9v5q0 9 -9 9v-14zM709 378h4v10h-4v-10zM723 128h4v9h-4v-9z M723 185h4v15h-4v-15zM732 -7v-10h9v10h-9zM736 142h9v10h-9v-10zM759 -118l14 -9h4q0 11 -4 19q4 9 4 14h-4q-11 0 -14 -24zM768 474h5v15h-5v-15zM924 1205q1 -9 9 -9v5q0 9 -9 9v-5zM942 1460h9v5h-9v-5zM951 1369h10q0 10 -10 10v-10zM951 1504v5h5q7 0 14 -15v-9h-9 q0 7 -10 19zM956 1427h9q0 9 -9 9v-9z" />
<glyph unicode="V" horiz-adv-x="951" d="M-4 1356q0 82 46 111h37q93 -65 109 -138q0 -20 -4 -98q8 -72 8 -107q0 -5 -4 -5l4 -22v-5q0 -110 50 -223q75 -243 75 -384h5q77 231 129 349q79 159 192 415l8 -5h9v9q0 9 -9 9q17 63 34 63q6 0 12 13q-8 0 -8 9v4q0 17 21 50q15 58 25 58l4 -9v-14h-8v-9q21 13 21 40 q-9 0 -9 14q9 45 30 45l-5 22q21 0 21 40h4q8 -4 17 -4q0 4 4 13l-4 27v4h8v-13h5l8 4q4 -8 4 -13q-4 -14 -8 -14l4 -8l-8 -14v-4q12 0 12 -9q-67 -216 -79 -313l8 5q0 -5 4 -5q-11 -47 -21 -111q-8 0 -25 -103q-46 -150 -91 -272q-76 -118 -155 -366q-67 -279 -83 -331 q-35 -36 -71 -94l-9 -4q0 9 -21 9q0 -9 -8 -9q-9 36 -38 36v-5l-33 14l-21 -5l-16 27v4l4 9q-7 0 -17 32l4 9q-8 20 -8 44q0 6 21 49q-21 113 -59 433q-46 210 -71 402q-11 19 -46 228h5q-5 7 -9 44q0 5 4 5zM238 8q5 0 13 -5v5q0 9 -9 9zM272 3h12q0 9 -8 9h-4v-9zM297 267 h4v9h-4v-9zM363 209h5v8h-5v-8zM388 360h5v9h-5v-9zM685 1311h4v9h-4v-9zM702 1195q1 -9 8 -9l4 9q0 9 -8 9zM714 1146h4v9h-4v-9zM727 1338q4 0 12 -4l4 8q0 7 -12 14l-4 -9v-9zM735 1177h4q0 9 8 9v9q-6 0 -12 -13v-5zM735 1374h8v13h-4q0 -5 -4 -13zM739 1307h4v9h-4v-9z M760 1508q4 -9 4 -14h13l8 5q-4 22 -8 22zM764 1383q1 -9 9 -9l4 9v9h-4q-9 -2 -9 -9zM764 1441q1 -9 9 -9h4v9q0 9 -9 9zM777 1463h4v9h-4v-9zM793 1476h9v5h-9v-5zM793 1539q13 0 13 -13h4v13q-8 0 -8 9q8 18 8 27h-8zM802 1503h4v9h-4v-9zM844 1600q7 71 17 71h4 q-7 -76 -17 -76q0 5 -4 5z" />
<glyph unicode="W" horiz-adv-x="1251" d="M-4 1100v16q0 58 46 100q20 4 23 4q49 -48 69 -144q50 -161 50 -224v-8q0 -100 -34 -287q0 -11 30 -204h-3q3 -7 3 -12q10 3 70 136q125 306 184 539q8 16 11 16v-12q0 -32 -23 -80l4 -24h8v28h4q7 -1 7 -8q-7 -28 -7 -32l4 -20q0 -27 -20 -56q-3 0 -3 -12q0 -7 11 -7 l-11 -56v-8l7 -12q-27 -149 -103 -396q-77 -182 -112 -315q-26 -28 -54 -28h-27q-80 30 -80 116v8q27 220 27 235q-4 7 -4 16l4 16l-31 188q-8 37 -8 60l4 8q-8 13 -8 24v16q0 13 4 20q-19 264 -38 315q-4 38 -4 84zM123 697h7q0 8 -7 8v-8zM127 305h3v8h-3v-8zM127 317h3v8 h-3v-8zM127 753h3v8h-3v-8zM184 70h4v8h-4v-8zM307 521h8v4h-8v-4zM342 605h7v8h-7v-8zM399 685h4v8h-4v-8zM415 856h7v12h-7v-12zM442 677h3l-3 8v72q0 22 3 56q-3 7 -3 11q10 40 15 40l-4 8v4q12 11 12 100l7 4l4 -8v-16q0 -4 -4 -4q4 -8 8 -36l-4 -8q3 -17 16 -24v-4h7 l-4 8v4h8q0 -9 4 -16q-4 -7 -4 -12q0 -9 27 -79q0 -18 12 -52q3 -16 3 -28q-3 -8 -3 -12q10 0 34 -124q0 -4 -4 -4l31 -144h-4q15 -35 15 -48q-3 -7 -3 -16q16 0 50 -163q4 0 11 -36q9 1 46 143q50 136 73 268q31 129 73 363l42 160q62 240 139 403q46 101 103 184v8h8 q0 -18 4 -24l-4 -24v-24q-8 0 -27 -68q3 0 12 -12q0 -9 -23 -20q-12 -38 -12 -52l8 -4q-21 -71 -31 -71v8l8 15h-8l-4 -15l4 -20h-4q4 -8 4 -12q-11 -21 -15 -60h-8v8q-8 -2 -8 -8v-8h8v-12q-15 -52 -15 -68h-12v8h-7v-4q0 -8 11 -8v-24h-4l-7 4l-4 -8h7v-8l-7 -12v-4l7 -12 l-30 -112v-12q-8 -1 -8 -8q5 0 11 -12q-11 -19 -11 -52v-16q-8 -12 -12 -28q4 -7 4 -16v-8q0 -8 -7 -8l3 -20q-7 -13 -7 -24v-4q0 -9 4 -15q-8 -29 -23 -136q3 -8 3 -12q-46 -286 -103 -455q-41 -106 -77 -232q-30 -36 -77 -36h-15q-46 41 -46 60q-15 3 -96 200 q-77 202 -77 347zM445 1032v16q15 32 20 32h4v-20l3 -48h-7l-4 40h-8q0 -20 -8 -20zM465 992v8h7v-8h-7zM484 868q4 -7 4 -12h7l-3 20h-4q0 -8 -4 -8zM511 781q1 -8 7 -8v4q0 8 -7 8v-4zM515 409h3v8h-3v-8zM618 305h8v4h-8v-4zM810 389q8 0 8 8h-8v-8zM868 389q8 0 8 8v4 q-8 -1 -8 -8v-4zM910 876h8v8h-8v-8zM918 1072h4v8h-4v-8zM945 908l8 -4h3v4q0 8 -7 8zM972 1152h7q0 8 -7 8v-8zM976 1240h3v8h-3v-8zM979 1064h4v8h-4v-8zM987 1076h12v4q0 8 -8 8q0 -4 -4 -12zM1002 1128l8 -4v4q-4 8 -4 12h-4v-12zM1002 1264h4v16h-4v-16zM1002 1348h4 v8h-4v-8zM1026 1272q7 -28 7 -32q-4 0 -4 -4h4q8 20 8 32l-8 4h-7zM1026 1320h11v4q0 8 -8 8h-3v-12zM1052 1372q8 0 8 8v4q-8 -2 -8 -8v-4zM1060 1324h4v8h-4v-8zM1072 1443q1 -8 7 -8h8v8q0 8 -8 8q-7 -1 -7 -8zM1110 1531h8v8h-8v-8zM1141 1635h7v16h-3q0 -9 -4 -16z" />
<glyph unicode="X" horiz-adv-x="1091" d="M0 1476q9 23 15 23h8q0 -16 7 -16l19 4q0 -4 45 -31q72 -70 83 -70l90 -112q0 -13 34 -70q39 -46 68 -155q14 -9 38 -82q14 -23 18 -23q68 171 170 481l53 159l7 4l-4 8q0 36 30 58q27 0 76 -78q0 -13 4 -19l-8 -85l4 -8q0 -69 -83 -349q-19 -36 -64 -194 q-53 -141 -53 -144q-6 -12 -22 -73v-4q8 -11 18 -39l-3 -19l7 4h4q10 0 15 -35q18 0 30 -43q8 -1 8 -8l-4 -8q23 0 26 -31q-7 -3 -11 -3q4 -7 4 -16q12 8 19 8q7 -8 7 -31l8 4q62 -72 82 -105q-7 -4 -11 -4v-4l4 -27h-8q15 -22 15 -31l-15 -16q-15 18 -15 28l8 4l7 -4v7 q0 6 -15 16q0 -16 -11 -16q-5 0 -41 43v4q4 0 11 4l-4 8l4 7q-5 1 -15 20v4h15v11q0 17 -15 43h-8q12 -14 12 -27l-12 -8q4 -35 12 -35q-4 -6 -4 -19h-4q-5 0 -19 19q0 3 4 23v4h-4q0 -11 -7 -11q-6 0 -12 11v4l4 20q-8 0 -15 -4q-5 0 -53 66q-26 27 -26 46q15 0 15 8v4 q0 6 -15 15q0 -23 -7 -23q-9 0 -15 31h-12l-124 -314q-9 -7 -19 -47q-79 -142 -79 -182q-26 -37 -26 -116v-4q0 -8 -8 -8h-4v4q0 12 4 12q-4 13 -4 38h-3q-4 -27 -12 -27l4 -8v-3q-13 0 -22 -24v-4q1 -7 7 -7l8 19h3v-12l-3 -7q3 -8 3 -12h-3l-12 8v-8h-7q-12 61 -19 78v11 q0 20 11 20v11q-7 0 -7 -11h-8q-7 38 -7 77v31q0 163 158 574l45 105v12q0 18 -30 62q-95 196 -245 407q-94 124 -94 202zM23 1441h11q0 10 11 23v8h-15q0 -10 -7 -31zM34 1406q7 0 7 8v3q-7 -1 -7 -7v-4zM56 1433q6 0 12 12h-4q-8 -2 -8 -8v-4zM79 1394h8q0 15 7 23h-7 q0 -6 -8 -15v-8zM113 1382q7 0 7 8h-7v-8zM117 1336h7v4h-7v-4zM136 1305h3q8 0 8 8l-8 4l-3 -8v-4zM139 1355h8v8q-8 -1 -8 -8zM143 1255q8 0 8 7h-8v-7zM162 1274q7 0 7 12v3h-3zM162 1324h4v8h-4v-8zM166 1227h3v8h-3v-8zM173 44h4l11 24v4h-4q0 -9 -11 -24v-4zM177 106 q7 0 7 8v4q-7 -1 -7 -8v-4zM181 184h7v4h-7v-4zM192 1227h8v20h-4zM192 1282l8 -4v4q-4 7 -4 11h-4v-11zM196 1200h7l4 16q-6 0 -11 -16zM200 -2h3v11h-3v-11zM200 21h3q0 10 8 20v3h-4q0 -7 -7 -7v-16zM200 56h3v12h-3v-12zM200 79h3v8h-3v-8zM203 -18v-11q1 -8 8 -8 q0 4 4 12q-4 6 -4 15q-8 -1 -8 -8zM203 137h4v8h-4v-8zM203 188h8v12q-8 -2 -8 -8v-4zM203 1255h4v7h-4v-7zM211 269h4v8h-4v-8zM215 -2h3v8h-3v-8zM218 1177h8l4 15q-6 0 -12 -11v-4zM222 29l8 -12v-15l-4 -8l7 -4q4 12 4 43l-15 11v-15zM222 1227h8v8h-8v-8zM226 52l7 -4 q0 6 8 16h-4q-5 0 -11 -12zM226 106h7v4h-7v-4zM226 273h15q0 6 -15 12v-12zM230 169h7v7q-7 -1 -7 -7zM233 114h4v8h-4v-8zM245 1196h3v8h-3v-8zM252 343h4v12h-4v-12zM256 134h4v7h-4v-7zM256 184q8 0 8 8v11h-4zM271 1057q1 -8 8 -8v8h-8zM271 1150l8 -4v12q-8 -2 -8 -8z M271 1165h4q0 8 7 8v4h-7l-4 -8v-4zM279 211h3q0 9 4 16v4h-4q0 -5 -3 -12v-8zM279 324h3v7h-3v-7zM279 479h3v8h-3v-8zM279 1123h3q8 0 8 7l-8 4h-3v-11zM282 1014q8 0 8 12v4h-4zM282 1076h4v8h-4v-8zM282 1181h4v8h-4v-8zM301 979h4q0 10 8 20v3q-10 0 -12 -15v-8z M301 1092q8 0 8 7v4q-8 -1 -8 -8v-3zM305 296h4v8h-4v-8zM305 343h4q0 9 4 16v3h-4q0 -4 -4 -11v-8zM305 397h4q0 4 4 12h-8v-12zM305 506h8v8q-8 -2 -8 -8zM309 234h4q0 5 3 12v4h-3q0 -4 -4 -12v-4zM309 463h4v8h-4v-8zM320 1010h4q5 0 11 12v4h-4q0 -6 -11 -16zM328 483 q7 0 7 7h-7v-7zM328 956h7v19q-7 -1 -7 -8v-11zM354 867l7 -4h4q0 18 8 27v12h-4zM358 649q7 0 7 12v4h-4zM358 913h7l-4 8l8 12l-8 3l-3 -7v-16zM358 964h3q0 19 12 35v7h-4q0 -5 -11 -23v-19zM361 452h8v7h-8v-7zM369 936h4v16h-4v-16zM380 863q4 -8 4 -12q6 0 11 16 q-3 7 -3 11h-4q0 -15 -8 -15zM388 646h7v3h-7v-3zM388 909q7 0 7 8v4q-7 -1 -7 -8v-4zM407 774h7v7q-7 -1 -7 -7zM414 564h4v8h-4v-8zM418 673h4v7h-4v-7zM437 859q7 0 7 8v4q-7 -2 -7 -8v-4zM463 878q8 0 8 8v4q-8 -1 -8 -8v-4zM467 719h4v8h-4v-8zM467 828h4v8h-4v-8z M493 1006q6 0 12 12v4h-4q-8 -1 -8 -8v-8zM520 607q6 4 15 4v11q0 8 -8 8q-7 -1 -7 -8v-15zM520 646q3 -8 3 -12h4v4q-4 7 -4 15h-3v-7zM520 657h7q8 0 8 8v19h-4q-6 0 -11 -11v-16zM520 1142h3v8h-3v-8zM523 824h4v8h-4v-8zM523 886h4v8h-4v-8zM523 933q8 0 8 7h-8v-7z M523 1092q8 0 8 7v4q-8 -1 -8 -8v-3zM542 967h8v8q-8 -1 -8 -8zM546 545q1 -8 7 -8h4q8 0 8 8v7q0 8 -8 8h-4q-7 -1 -7 -8v-7zM546 587q15 7 15 28h-8zM546 622h4v8h-4v-8zM572 556l12 -7q0 3 3 23q-3 7 -3 12h-8zM572 1247q8 0 8 8h-8v-8zM576 510h8v8h-8v-8zM576 1309h4v8 h-4v-8zM591 521q1 -7 8 -7q0 4 3 4l4 -8l-4 -8q4 -7 4 -12h-4q4 -7 4 -11q-4 -8 -4 -12q4 0 19 20v7q0 14 -15 31l-7 -4l-8 4v-4zM599 541h7v11h-7v-11zM602 1068h8v4h-8v-4zM602 1382h4v8h-4v-8zM625 475q4 -19 19 -19v3q-4 7 -4 20q-7 -4 -15 -4zM625 1305h8l3 15h-7 q0 -8 -4 -15zM625 1402h8v8q-8 -2 -8 -8zM629 1247q7 0 7 8v3q-7 -1 -7 -7v-4zM648 1379h7q0 4 4 11v4h-4q0 -6 -7 -15zM651 1483h4v8h-4v-8zM670 1615q1 -8 8 -8q0 5 3 12l-7 4h-4v-8zM678 386q7 -2 7 -8v-8l-4 -8h16v16l-8 12v3h11q6 0 12 -11v-12l-8 4h-4q13 -23 19 -23 h4v11q-11 0 -11 8q5 0 15 12q-30 43 -30 54l-16 4l-3 -8q7 -1 7 -8h-4q0 -3 4 -3q-4 -27 -7 -35zM678 1414h7v7q-7 -1 -7 -7zM708 1538h4q5 0 15 15h-8q0 -6 -11 -15zM738 339l15 16q-4 6 -4 15q6 0 23 -23v-4l-11 -15l11 -8h4v8h7q6 0 11 -12v-4q0 -8 -7 -8q4 -7 4 -11 l19 3h3v-31l12 8h3q19 -15 19 -35h-4q15 -22 15 -27h4v8q-8 0 -11 19h4q38 -34 52 -66l-7 -11v-20q26 0 26 -27l8 -4q5 0 11 12q-7 0 -7 8v7q22 -12 22 -34q-7 -2 -7 -8l7 -12q-4 -7 -4 -11h-3l-27 31v-4l4 -20l-8 -4l-7 12l7 4q-7 12 -7 27h-8v-15h-18v3l3 16q-3 7 -3 15 l-15 -11q-19 11 -19 23q3 8 3 12l-7 -4h-4q-19 9 -19 35l-7 -4q-19 31 -23 31q-39 40 -53 66v8q3 0 23 3v-3q-4 -7 -4 -16l4 -8l19 4q7 0 7 -11v-12q6 -4 23 -4l-4 -19q15 -4 27 -12l3 8zM825 250h7v4h-7v-4zM843 192l8 4q1 -8 7 -8h4v4q0 6 -15 15h-4v-15zM847 169h4v7h-4 v-7zM866 176q8 -12 8 -23q-4 0 -4 -4h7q0 16 4 16l-4 7q0 8 12 8v8q0 5 -19 19h-4v-4h8v-15zM915 165h4l19 -24v-4l-8 4q0 -4 -4 -4q-11 15 -11 28zM938 64h15q7 -1 7 -8v-8q-13 -4 -15 -4q-7 13 -7 20zM964 37v4h26v-16h-4q-22 4 -22 12zM964 75q4 8 4 12h15q0 -4 3 -12 v-11q16 0 23 -16l-4 -7q30 0 34 -39l-7 -4q-34 30 -34 39q0 6 -27 23q0 6 -7 15zM1047 2h11v-8h-11v8z" />
<glyph unicode="Y" horiz-adv-x="886" d="M8 1385l4 14q-4 24 -4 28q9 66 19 66q27 0 30 -14l7 4h11q87 -83 109 -193q15 -24 41 -220q0 -96 78 -221q38 -87 38 -101q18 12 78 178q111 363 194 483q34 84 57 84q8 0 37 14q4 -6 4 -14l11 7q41 -60 41 -129q0 -59 -30 -116q-105 -188 -138 -301q0 -14 -8 -14 q0 -3 4 -3q-27 -106 -71 -179q0 -8 -86 -150q-26 -36 -26 -52q7 -13 7 -28v-11q17 0 23 -14v-17h-4q-20 21 -34 21q-9 -18 -14 -18h-4l-8 4q-63 -100 -101 -270q-17 -97 -22 -101q-7 3 -11 3v-3q0 -3 11 -11q0 -19 -15 -38q4 -7 4 -11q-22 -59 -26 -59q0 3 -4 3 q-9 -24 -15 -24q0 3 -4 3q11 29 19 39v28h-8l4 -18q-22 -54 -34 -66q-3 0 -3 3l-8 -3h-3v3l7 14q-7 14 -7 25l3 21q-3 23 -3 45q0 4 3 4q0 3 -3 3l7 60q-4 19 -4 38l4 18q0 3 -4 3q23 163 71 287h8l-4 18q45 109 45 119q-41 88 -90 248q-37 48 -108 252q-75 184 -75 259z M38 1304h4v7h-4v-7zM38 1409h4v7h-4v-7zM172 -15q5 0 15 21v4q-9 0 -15 -25zM176 27h4v11h-4v-11zM176 101q1 -7 8 -7l3 7h-11zM176 129h4v10h-4v-10zM180 41h4q0 4 3 11v3h-3q0 -3 -4 -10v-4zM180 146h4q0 4 3 11h-7v-11zM180 199h7v7q-7 -1 -7 -7zM184 1045h3v7h-3v-7z M199 73h7v7q-7 -1 -7 -7zM229 129q7 0 7 7h-7v-7zM229 870h3q0 16 4 21v4h-4l-3 -14v-11zM232 83h4v7h-4v-7zM232 143h8v3q0 7 -8 7v-10zM232 251q8 0 8 7h-8v-7zM232 440h8v7q-8 -1 -8 -7zM236 272h4v7h-4v-7zM236 300h7v7q-7 -1 -7 -7zM236 402q7 3 11 3v11q-5 0 -11 -11 v-3zM236 849h4v7h-4v-7zM243 363h8v4h-8v-4zM262 370h4v7h-4v-7zM262 475q8 0 8 7h-8v-7zM262 874h4v10h-4v-10zM266 426h4v7h-4v-7zM311 465q5 0 11 10h-4q-7 -1 -7 -7v-3zM311 573q1 -7 7 -7v7h-7zM311 622h3v7h-3v-7zM311 751h3v7h-3v-7zM314 419h4v7h-4v-7zM314 717h4 v10h-4v-10zM341 591q8 0 11 17q-9 0 -11 -17zM371 727h3v7h-3v-7zM389 640q8 0 8 10v4h-4zM389 689h4v10h-4v-10zM389 741h4q0 5 7 14h-3q-8 0 -8 -11v-3zM442 842q7 0 7 7v4q-7 -1 -7 -7v-4zM471 979h8v7q-8 -1 -8 -7zM475 937h8v3h-8v-3zM498 1098h3v7h-3v-7zM528 1052h3 v14h-3v-14zM528 1105h3v17h-3v-17zM554 1000h3v7h-3v-7zM580 1315h4v7h-4v-7zM584 1171h3v7h-3v-7zM606 1311h4v7h-4v-7zM636 1371h4v7h-4v-7zM692 1462h4v7h-4v-7z" />
<glyph unicode="Z" horiz-adv-x="1328" d="M-86 49h8q9 -2 9 -9h-9q-8 0 -8 9zM-69 36q4 17 16 17l8 -4q23 9 63 20q0 4 4 4q0 -4 4 -4q-8 -13 -8 -20q27 49 78 49q15 13 92 183q84 161 323 487q146 203 394 461q5 2 178 176q-278 -110 -377 -110q-29 0 -120 -4v4q-4 0 -4 -4q-143 0 -170 28q-14 0 -63 123v4h13 l8 -4l-4 -16v-9h4q11 45 25 45l8 -4q0 8 42 13q20 -5 20 -9q5 0 5 4q105 -4 153 -4h41l13 -8l12 8h33l17 -12q0 6 13 12q18 0 45 -16q4 7 4 16h21q12 0 37 -16q6 20 13 20h8l8 -4l-4 -8v-4h13q0 12 8 12h4q0 -12 8 -12h5l16 21h4l29 -9q9 17 25 17q43 -8 46 -8q0 5 20 16h5 l16 -12q29 20 46 20q4 -8 4 -12l29 8l-4 8v4q4 0 12 4q0 -6 13 -12h8q2 16 12 16v-4q-4 -8 -4 -12q7 0 17 16q-4 8 -4 13l29 24h4v-16h8v8l-8 12v4q1 8 8 8l4 -16q21 6 21 29v12h13q0 -14 20 -20l-4 -9v-4l29 -4v8h4l9 -4q0 4 4 4l8 -12v-4h-4l-8 4l-5 -8v-8h9v-12 q-27 0 -38 -21q9 0 9 -4q-4 -12 -9 -12q-8 4 -12 4q0 -16 -25 -16v-5h8v-12h-8l-8 4q-9 -54 -33 -90q0 -110 -257 -314q-144 -143 -158 -180q-31 -40 -79 -147q-71 -99 -153 -233q-82 -114 -187 -237l-87 -139q47 -4 112 -20l8 4q122 -18 237 -45v-4q4 0 4 4q58 -10 58 -21 l8 4q60 -16 174 -36q2 0 17 4q4 0 12 -4q29 4 46 4l17 -4q19 10 78 20q41 20 58 33h5v-8q-29 -18 -34 -37l-8 4q-6 0 -25 -25h-8l-13 8l-4 -20h-8q0 6 -12 25v4h-5l-4 -21v-12l9 -12q0 -6 -13 -13q-8 17 -8 25v12h-17v-12l-12 -12l-8 4q0 -7 -9 -17v-16h9v-4q-6 0 -21 -16 h-8q8 16 8 24h-8q0 -17 -25 -37q-4 8 -4 13h-5q-8 -2 -8 -8q4 0 4 -5q-17 -8 -25 -8q-8 4 -12 4q0 -4 -4 -4q0 8 -9 8h-8q0 -16 -12 -16l-21 8q0 -8 -8 -8q0 6 -13 12q0 -6 -16 -16h-9l-12 8q-8 -4 -12 -4l4 8v4l-29 -16q-38 13 -38 29h-4q0 -12 -16 -21q-26 11 -104 25 q-8 21 -8 32h-4q0 -8 -5 -8l5 -8v-8q0 -8 -9 -8l-16 12l-21 -4q-11 24 -17 24v-12h-4q-16 7 -16 25h-5l-8 -4l8 -17q-4 0 -4 -4q-25 5 -25 12l9 13l-9 4h-8v-17h-8q-6 0 -13 13q0 4 5 4l-5 8v4q9 10 9 16v4h-4q0 -8 -13 -28q-4 0 -25 16l-8 -12q8 -1 8 -8v-4h-21l-8 4l4 8 q0 8 -8 8h-4v-4q4 -8 4 -12h-12q0 11 -13 16l-8 -4q-8 0 -8 8v8q18 0 29 21h-13v-13h-4q-14 0 -29 13q0 -8 -4 -8l4 -9v-8h-17q-11 0 -12 21h-4q0 -21 -4 -21q-17 0 -17 21q-3 0 -21 -21q0 4 -4 4l4 8v13h-8q0 -13 -25 -13v-8q17 0 17 -8l-9 -4h-4q-8 0 -8 16h-17v-12h-8 q-8 0 -8 8l12 25q-10 0 -12 16h-4v-8q8 -1 8 -8q-12 -18 -12 -33h-9q0 18 -16 25q-3 -21 -13 -21h-4v8l8 13v8q-16 12 -16 24q-6 0 -13 -16l21 -4v-8q-12 0 -12 -8l-17 4l-8 -4q-7 4 -17 4q0 -4 -4 -4q0 36 -16 36q0 -6 -9 -16q6 0 13 -12q-4 0 -13 -13q-16 5 -16 17l-13 -8 h-4q0 12 -17 28q-8 -4 -12 -4q-8 4 -12 4zM-16 20q6 0 13 12v4q0 8 -8 8l-5 -8v-16zM43 28q8 0 8 8h-8v-8zM105 20h4q0 9 4 16h-4l-4 -8v-8zM192 36l8 -4v12q-8 -1 -8 -8zM192 216q6 0 16 16v4h-8q0 -6 -8 -16v-4zM204 16h9q0 8 -9 8v-8zM204 175h4v8h-4v-8zM225 200 q8 0 8 8v4q-8 -1 -8 -8v-4zM229 28h4l4 16q-8 0 -8 -12v-4zM229 151q17 6 17 12v4h-4q-6 0 -13 -12v-4zM233 269h4q9 0 9 8l-9 4q0 -4 -4 -12zM246 224h4q6 0 12 12v5q-6 0 -16 -17zM254 339h4q0 6 8 16h-4q-8 0 -8 -12v-4zM283 20q7 4 17 4v12h-9q-8 -1 -8 -8v-8zM287 143 q8 0 8 8h-8v-8zM287 196h4q0 4 4 12h-8v-12zM287 314q8 0 8 8v8q-8 -1 -8 -8v-8zM291 40h4v9h-4v-9zM295 335q9 0 9 8h-9v-8zM312 343q8 0 8 8v4q-8 -1 -8 -8v-4zM316 224q8 0 8 8v4q-8 -1 -8 -8v-4zM341 -13v-4h8v4h-8zM345 482h4q0 4 4 12v8h-4q0 -9 -4 -16v-4zM374 518h4 v9h-4v-9zM378 24q5 -8 5 -12q8 0 8 8l-8 4h-5zM387 61h4v8h-4v-8zM391 -41l8 4l4 -8l-8 -5zM403 -1h4v9h-4v-9zM407 32q9 0 9 8h-9v-8zM412 367h4v8h-4v-8zM436 625h9v12q-9 -1 -9 -8v-4zM465 486h9q0 4 4 12v4h-4q0 -6 -9 -16zM470 -21h8v8q-8 -1 -8 -8zM494 -1h5v9h-5v-9z M494 -17v-8q5 -8 5 -12h8q-8 10 -8 20h-5zM511 -54v-4l17 -4l-5 8v21h-8zM528 57h4v8h-4v-8zM553 678h4v8h-4v-8zM553 784h4v8h-4v-8zM557 625h8v8q-8 -1 -8 -8zM582 16h8v4h-8v-4zM582 -82q5 0 12 12l-8 4zM611 -66l4 -20h4q0 8 4 8q-4 8 -4 12h-8zM611 678h4q0 16 12 16v4 h-8l-8 -12v-8zM635 -74q5 -7 5 -16h4l4 20q-8 -4 -13 -4zM644 -37v-8q8 -14 8 -25h4q0 4 4 12q-11 0 -12 21h-4zM644 890h8v8q-8 -1 -8 -8zM664 792q9 0 9 8h-9v-8zM669 -66v-4l4 -8q-4 0 -4 -4l8 -4h4l-4 8q4 8 4 12h-12zM673 -54v-4l8 4h12l13 -8h4l-4 21h-8 q-25 -3 -25 -13zM698 8q1 -9 8 -9v9h-8zM698 -78v-12q8 0 8 8v4h-8zM731 841h4v8h-4v-8zM731 903h4v8h-4v-8zM731 1021h4v8h-4v-8zM735 -78v-4q1 -8 8 -8h4v8q-4 0 -12 4zM735 858h4q8 0 8 8h-4q-8 -2 -8 -8zM760 1405q8 0 8 8h-8v-8zM789 915h4v8h-4v-8zM797 -50v-4 q1 -8 8 -8v12h-8zM797 -82v-8h4v8h-4zM830 1401h9v8h-9v-8zM843 1037q1 -8 8 -8q8 0 8 8h-16zM851 -58v-8q10 8 17 8v8h-9q-8 -1 -8 -8zM880 -74v-4q8 0 8 8v4q-8 -1 -8 -8zM880 1054h4l4 16q-8 0 -8 -12v-4zM880 1119h4v8h-4v-8zM905 -50q8 -16 8 -24h9q0 3 4 24h-21z M909 1082h4l13 25q-9 -2 -17 -21v-4zM917 1389h5v8h-5v-8zM938 -29q4 -8 4 -12q-4 -8 -4 -13h25l-4 21v12h-13q-8 -1 -8 -8zM938 1115q6 0 13 12h-5q-8 -1 -8 -8v-4zM946 1417h13v4h-13v-4zM967 1144q8 0 8 8h-8v-8zM967 1197h4q0 4 4 12h-8v-12zM967 1430h4q0 12 25 12 q0 -4 4 -4l9 16h-17q-16 -12 -25 -12v-12zM971 1401h9v4h-9v-4zM992 -45h12v-9q0 -8 -8 -8q0 9 -4 17zM992 1172q6 0 12 12q-8 -4 -12 -4v-8zM1029 1417h4q0 14 5 21h-5l-4 -8v-13zM1033 1209q2 -8 9 -8v8h-9zM1033 1311h5q0 4 4 12h-4l-5 -8v-4zM1062 1348h5v8h-5v-8z M1067 1426h4v8h-4v-8zM1079 1274q4 -8 4 -12q6 0 13 12h-17zM1083 1434h4v8h-4v-8zM1087 1319h5v8h-5v-8zM1112 -1v5h9v-5h-9zM1112 1458q4 -7 4 -20h5q0 8 4 8l-4 8l12 21h-8q0 -17 -13 -17zM1116 1409h9q8 0 8 8v9q-7 0 -17 -17zM1133 16q8 10 8 16h9v-4q0 -6 -13 -12h-4z M1145 1430h5l4 16v8h-4q0 -14 -5 -20v-4zM1154 1381q8 0 8 8h-8v-8zM1158 40v9h8q0 -9 -8 -9zM1174 1348h9v12h-4q0 -4 -5 -12zM1174 1458q13 0 13 17v4h-4q0 -7 -9 -17v-4zM1203 1372q7 0 17 17v4h-4q-10 0 -13 -21zM1203 1434h5q0 4 4 12h-9v-12zM1232 1413h5q8 0 8 8h-4 q-9 -1 -9 -8zM1237 1450h16l-4 8l4 21q-6 -1 -16 -21v-8zM1237 1515h4v17h-4v-17zM1266 1507h8v8q-8 -1 -8 -8zM1299 1507h4q8 0 8 8v5q-8 -5 -12 -5v-8zM1299 1536q6 0 16 -8v12q0 6 -12 12q0 -9 -4 -16z" />
<glyph unicode="[" horiz-adv-x="849" d="M8 99h8q0 -15 4 -33h-8q0 14 -4 33zM12 -60q5 65 24 65v5q0 9 -8 9v-9h-8v5l-4 46q6 0 24 14q0 -10 20 -14v-18q0 -52 12 -52h4q0 12 8 24q-8 0 -8 42q2 0 12 18q-4 7 -4 28q-8 -1 -8 -9l4 -23l-8 -5q-8 0 -8 9v10l4 32l8 -4h4q0 17 8 28q0 9 -16 9v19q36 51 36 116 q4 0 12 42l-16 5v19q7 14 20 84h8v-19q8 0 12 28l-12 9l16 66l-4 9q8 15 8 28l-8 -5h-4v19h8v-9h4q0 17 8 28v4h-4l-12 -9q0 13 -24 42v5q3 0 12 14l-4 9q8 35 8 37l-4 28q8 0 8 14l-4 19q8 17 8 37q0 4 -4 28q0 14 12 14l-4 33v23q1 9 8 9q0 -4 4 -4v4l-4 10l8 28 q-8 0 -8 9q1 144 56 411q0 11 12 88l-36 117v5q0 30 56 84q46 51 96 51l24 -5v-4l-4 -10l8 -4h8q0 13 16 23h8l-4 -9l28 -24q0 19 8 19l20 -14l4 19h4q8 -2 8 -10q16 10 28 10q0 -7 32 -33l8 5h4q16 -10 16 -24h20v5q-4 9 -4 14h8q0 -9 20 -19q0 14 8 14q0 -6 12 -14l4 10 l20 -5h8l8 5q4 -9 4 -14h12l12 9q0 -5 20 -33h-12l-8 5q0 -8 -20 -33q8 -11 8 -18l8 4l-4 10v14q10 0 20 9v-5q0 -4 -4 -4q8 -22 8 -42q6 0 16 23v5l-12 18l8 5h8v-14h8l8 5q0 -13 8 -38h-4l4 -9q-33 -51 -56 -51h-20q-13 0 -20 4l-76 -9q-8 5 -12 5l-108 -24 q-101 -237 -112 -364q-11 -43 -28 -205q0 -5 4 -5l-8 -51l4 -19q-3 -46 -12 -46l4 -10v-42q0 -32 -8 -32q4 -9 4 -14l-4 -9l4 -10q-5 -23 -12 -23v5l-8 -5h-4v23l-4 10q-6 0 -24 -24q0 5 -4 5l-4 -9v-42q6 0 16 -10l4 10q-7 4 -16 4l4 33h4q20 -12 20 -19v-4q0 -5 -4 -5 q0 -5 4 -5l-4 -32v-10l4 -9q-8 0 -8 -14h-8l4 47h-8q0 -14 -8 -14q0 4 -4 4l-4 -46q8 -2 8 -10l-8 -14q4 0 4 -4q-28 -12 -28 -19v-5l8 5h4q28 -24 28 -28q-13 -14 -20 -14q-8 5 -12 5q-7 -33 -12 -33l4 -9q0 -10 -8 -10h-8v10h-4q0 -14 -12 -14v-10l8 5q0 -4 12 -14l8 5 l12 -10q11 42 16 42l8 -18q-3 -28 -20 -28v-10q10 0 20 -9q-5 -28 -12 -28h-8v14h-12v-23q1 -10 8 -10q1 10 8 10v-14q-10 0 -12 -19q4 -8 4 -19h-8v-32q0 -14 -12 -38q4 -8 4 -18l-8 -5h-4v5q0 19 8 46l-8 24q15 8 20 28q0 13 -24 23q0 3 -4 28q28 5 28 33q4 0 8 14h-4 q-30 -42 -40 -42l4 -24v-14l-4 -32h8l-4 -33v-5q12 0 12 -9q-16 -25 -16 -56h4l8 5l4 -10v-4l-8 -14l4 -33q-4 0 -4 -5q8 -1 8 -9v-5q-12 -20 -12 -32q12 0 16 -61h-4q8 -15 8 -23q-8 -2 -8 -10v-4q4 0 12 -5l-4 -23q12 -10 12 -89h4q0 20 12 28l-12 23v5q1 9 8 9 q16 -19 16 -37l-4 -19l16 -14h4v10l-8 14v18q0 7 12 14h8v-4l-4 -10q8 0 8 -18q8 4 12 4v10l-8 14v4h12l20 -4q1 9 8 9h4l12 -9l4 9q181 -19 208 -37q58 0 80 -42v-5h4q1 23 12 23q4 -9 4 -14l28 5q0 -10 32 -19l20 5l16 -9q7 4 16 4q4 0 4 -4l8 4h16q4 0 4 -4q93 18 104 28 l4 -10l-16 -18q0 4 -4 4q-5 -19 -20 -28q-4 8 -4 19h-4q0 -37 -24 -37q-26 -24 -40 -24q0 -9 -8 -9h-8v9h-4q0 -28 -36 -28q-25 -8 -32 -14h-24v-9l4 -9q30 9 56 9q0 -15 -100 -28h-240q-34 0 -184 79q-16 0 -20 24h-4v-14h-12q-52 49 -52 56v4q11 0 20 28v5q-14 -5 -16 -5 q-13 10 -20 10l4 32h-4q-8 -4 -12 -4q-32 34 -32 51h-4q0 -14 -8 -14v-5l8 -14h-8q-19 11 -36 38l4 23h-8zM24 159v10q8 -5 12 -5v-9q-8 4 -12 4zM24 197v4q0 24 8 24l-4 9v5h8q0 -14 8 -33h-4l-8 5v-14h-8zM32 80v5q1 9 8 9v-5l8 5h4v-19h-8v10l-8 -5h-4zM36 -79v-4 q1 -10 8 -10q0 8 8 19l-8 5q0 -10 -8 -10zM36 103v5q4 28 12 28l4 -9q-8 -12 -8 -24h-8zM40 24h4v9h-4v-9zM40 267v4q1 10 8 10v-5q0 -9 -8 -9zM44 145v10h8v-10h-8zM44 290v9q11 42 16 42h4q0 -5 4 -14h-4l4 -9q0 -7 -24 -28zM48 178v19q0 6 12 14h4q-5 -33 -16 -33z M52 257v5q10 0 20 9v-4l-8 -14q4 0 4 -5l-8 -5zM60 -121h8v-4h-8v4zM68 393q27 77 36 149l8 5q12 -18 12 -33v-5q-24 0 -24 -23q0 -12 -4 -37q4 -19 4 -38q-9 0 -28 -18h-4zM76 285v19h8v-9q0 -10 -8 -10zM76 360q1 9 8 9q11 -2 16 -23l-8 -5h-4q0 7 -12 19zM80 164h8v5h-8 v-5zM84 225v32h8l-4 -32h-4zM88 271v5l4 23h8l-4 -28h-8zM96 103q4 -9 4 -14l8 5v-9l-4 -10l8 -4v9q0 10 -4 19q8 15 8 23h-4zM100 131h16v24h8v-33h8q0 5 4 14q0 5 -16 61h-8l4 -10q-16 -19 -16 -37l8 5h4v-14q-12 0 -12 -10zM104 52q4 -9 4 -14h4v14h-8zM104 449v18 q12 0 12 10h8v-28q0 -10 -8 -10h-4q-8 0 -8 10zM112 547v9l4 19l-4 9q6 19 12 19h4q8 -2 8 -10q-12 -36 -24 -46zM116 -191h8q8 -1 8 -9h-8q-8 0 -8 9zM120 257q2 -18 12 -18v-5q0 -5 -4 -5l4 -9l-4 -9l4 -10q-4 -8 -4 -18h4q6 0 12 18l-4 10q4 9 4 14t-4 14q0 9 8 32 q-8 0 -8 28h-8q0 -14 -4 -14l4 -9zM124 52h4q6 0 12 14v23l-8 -4q0 4 -4 4l-4 -9v-28zM124 369h4l8 33v5q-9 0 -12 -33v-5zM128 -4h4q0 9 4 9q-4 9 -4 14h-4v-23zM128 -65v-4h4q0 7 8 18v5q-10 0 -12 -19zM128 523v10h4v-10h-4zM132 309h8q2 18 12 18h4l-4 -23v-5h8l8 52 q-4 25 -4 51l8 33q-17 0 -20 -56l4 -19q-5 0 -24 -28l4 -9q-4 -9 -4 -14zM136 635q6 0 12 19h-8zM148 29l8 -5l4 19v4h-4q0 -7 -8 -18zM148 -209q8 0 8 -14q8 0 8 9q0 7 -12 14zM148 281h8q8 0 8 9v5h-4v-10l-12 10v-14zM152 10q4 -18 4 -37l12 9h4v-14h4q0 23 4 23 q-4 56 -12 56v-51h-4q-8 0 -8 23h-4v-9zM152 61q8 0 8 10q0 9 -8 9v-19zM152 -88v-9h4v9h-4zM152 94h8q8 32 8 56l-4 23q8 0 8 10v4h-8q0 -11 -12 -28q0 -4 4 -4l-4 -24l4 -18q-4 -9 -4 -19zM152 197q8 4 12 4v5h-12v-9zM152 640q8 -15 8 -23q-4 -10 -4 -14h8q7 37 12 37 l-4 9l4 47q-18 -23 -20 -23l4 -10v-9zM156 -41v-5h8v5h-8zM156 229q1 -9 8 -9q12 3 12 37q-5 0 -20 -28zM156 533h12q0 21 8 32v10h-8q0 -16 -12 -38v-4zM164 -74v-9q6 0 16 -10q0 19 12 19v14l-8 -5h-4v10h-4q0 -19 -12 -19zM164 747q16 -22 16 -28h4l4 23v5q0 9 -8 9h-8 q-8 -1 -8 -9zM176 47h4v14h-4v-14zM180 -219v-9q8 0 24 -19v10l-12 23q-8 -5 -12 -5zM180 458q16 0 24 23q-4 0 -4 5l-8 -5h-4v5q0 8 12 42h-4q-16 -8 -16 -33v-37zM184 -200l8 -5v14q-8 -1 -8 -9zM184 411q1 -9 8 -9v9h-8zM184 425h8l-4 10v9h8v14q-12 -5 -12 -28v-5z M184 635h4q0 5 4 14h-4l-4 -9v-5zM184 761h4l4 19q-8 0 -8 -14v-5zM188 -97v-10q6 0 16 -9v9q-6 0 -16 10zM188 -121v-23l4 -23h4v14q-4 9 -4 14h4l-4 9l4 9h-8zM188 374l4 -23h8q0 5 4 14l-12 9h-4zM188 822h8q0 4 8 37v19h-8q0 -12 -8 -24v-32zM192 584q4 -8 4 -19h4l8 33 q-16 -7 -16 -14zM192 906q4 0 12 -5l4 23q-10 -9 -16 -9v-9zM208 612q1 -9 8 -9l8 14v4h-4q0 -9 -12 -9zM208 929h4v9h-4v-9zM212 -205l16 -9l4 9q-12 16 -12 28h-4q0 -21 -4 -28zM212 1050h4q0 16 4 24v4h-4l-4 -18v-10zM216 -219v-28q4 -9 4 -14h8q-8 17 -8 42h-4z M216 649h8q0 10 -8 10v-10zM216 673q8 0 8 9v4q-8 -1 -8 -9v-4zM220 733h4q6 0 12 14v5l-4 9q-8 -5 -12 -5v-23zM236 789q12 0 12 -9h8v9h-8v23q0 11 4 19q-4 8 -4 19q4 0 4 4h-4q-8 0 -8 -14l4 -23q-8 -1 -8 -9v-19zM240 -214l12 -23l-8 -14v-5h4q0 7 8 19v14q0 6 -12 14 q0 -5 -4 -5zM240 901q4 -8 4 -23h8l-4 23q8 0 8 9v5zM240 1209h4l4 23h-8v-23zM244 756h4v14h-4v-14zM244 1088h4v9h-4v-9zM248 668q8 0 8 9v19h-4l-4 -23v-5zM256 421v18q1 10 8 10h4v-19q0 -9 -8 -9h-4zM256 495q0 8 20 14l4 -9q0 -7 -16 -19zM256 617h4v9h-4v-9zM260 458 v9q1 10 8 10q8 -2 8 -10l-12 -9h-4zM264 612h4v9h-4v-9zM264 766q12 0 12 -14q-4 -9 -4 -14l8 4q8 -4 12 -4v14q-12 19 -12 51q8 0 8 9v5q-8 0 -24 -37v-14zM268 -265l8 -5q8 0 8 9q-8 12 -8 19l4 23h-8v-23zM268 677h12v23h-8zM268 1106h8q0 24 8 24v9q-10 0 -16 -33z M272 -158v-9h4v9h-4zM272 -177q3 -37 12 -37l4 9q-8 0 -8 28h-8zM272 1382q6 0 12 18v5h-4q0 -7 -8 -19v-4zM276 533v14h4q8 -2 8 -10v-4h-12zM276 836q1 -10 8 -10h8q-10 24 -16 24v-14zM276 873h8v9q-8 -1 -8 -9zM280 561v14q0 9 8 46q8 -1 8 -9v-14q-8 -33 -8 -37h-8z M284 668l8 -5l4 23v14q-9 0 -12 -32zM292 -177q8 -11 8 -18q6 0 16 23zM296 784h4v28h-4v-28zM296 836q8 0 8 9h-8v-9zM296 1008h4v33h-4v-33zM300 -153v-10h4v10h-4zM300 -219v-14h8q-4 9 -4 14h-4zM300 -247v-14h4v14h-4zM300 854h4l4 24l-4 18h-4v-42zM300 906h8v9 q-8 -1 -8 -9zM328 -167q0 -33 20 -33q-8 17 -8 42zM328 -279v-10h4v10h-4zM332 -242v-9h4v9h-4zM332 1377h4v9h-4v-9zM336 -139q4 -9 4 -14h4q8 0 8 9l-8 5h-8zM336 1162h8v14h-8v-14zM348 1652h4v10h-4v-10zM360 -163l4 -23q8 0 8 9v5q0 9 -8 9h-4zM360 -191v-9h4v9h-4z M360 -214v-9h4v9h-4zM360 -251v-10h4v10h-4zM360 -265v-10h4v10h-4zM372 -289v-9h4v9h-4zM388 -158v-9h4v9h-4zM388 -191v-9h8q0 9 -8 9zM388 -247v-9h8q0 9 -8 9zM392 -261v-4h8v4h-8zM416 -219q1 -9 8 -9v9h-8zM416 -261v-9q4 -9 4 -14h4v5q-4 8 -4 18h-4zM432 1596h8v5 h-8v-5zM448 -219v-9h4v9h-4zM448 -233v-14h4v14h-4zM452 -195v-5h8v5h-8zM532 -205v-9h4v9h-4zM556 1666h8v-9q-8 0 -8 9zM580 1606h12v14q-6 0 -12 -14zM604 1610h8l8 5q4 -9 4 -14q8 0 8 9q0 8 -16 19zM612 1587h8v9q-8 -1 -8 -9zM640 1610h4v10h-4v-10zM652 1592h4 q8 0 8 9h-12v-9zM676 1540h4v10h-4v-10zM708 1615v9q1 10 8 10l8 -5q-4 -9 -4 -14h-12zM724 1554q1 -9 8 -9l4 9v10h-4q-8 -2 -8 -10zM728 1573h8v5h-8v-5zM732 -233v-18h4q0 10 4 18h-8zM732 1624l8 5q8 -1 8 -9v-5h-8q-8 0 -8 9zM744 -214v-14q8 0 8 9zM764 -247v-9h4v9 h-4zM772 1610v10h4v-10h-4zM788 -237v-10h4v10h-4zM788 -251v-10h8q0 10 -8 10z" />
<glyph unicode="\" horiz-adv-x="569" />
<glyph unicode="]" horiz-adv-x="660" d="M-177 1576v9q0 9 12 9v4l-4 9l8 5q0 -18 8 -18q0 23 20 36q0 -11 4 -18l20 4l12 -9h4q21 0 24 14v4q-4 0 -4 -4l-40 4h-12v5q4 8 4 13q7 0 24 -9l4 9v9q-20 0 -20 9l4 9q-16 0 -16 13q1 9 8 9q12 -4 12 -9l20 5h8q10 0 20 -32l8 5q-8 14 -8 22h4q7 0 20 -9l20 5 q4 -9 4 -14v-13q12 0 12 -5q4 0 4 5l20 -5h4v9l-4 9q4 0 4 5q11 -2 20 -18l16 9q6 -18 12 -18h4l-4 9q1 9 8 9q6 0 24 -23q0 7 16 18q7 -22 24 -22q1 9 8 9q7 -5 16 -5q1 9 8 9q18 -17 20 -17q0 6 12 13v-5l8 5h16q8 -2 8 -9l8 4h8q6 0 12 -13v-4l-4 -9q16 -5 16 -18h4v13 l-12 18l8 13q28 -4 28 -13q-10 -9 -16 -9l4 -22l-4 -9l-8 4l-20 -4q0 6 -24 27v4h-4q0 -13 -4 -13l8 -23l-8 -4h-4q0 13 -16 13l-4 -9v-40h8v-4h-12v-5q0 -8 36 -13l4 9q-4 0 -4 4l8 5q13 -18 36 -18v9h4q16 -18 28 -18l-4 9v9h4l12 -9q8 4 12 4q0 -9 16 -9v-13q0 -9 -8 -9 h-12l-12 9v-4l4 -23l-12 -9q-6 0 -12 14q0 9 12 9q-4 8 -4 13l-20 -18h-4q-10 0 -12 18l-8 -4q8 -28 8 -36q-4 0 -4 -5q-80 8 -80 23q8 4 12 4v5q0 9 -8 9h-4l-12 -9l4 -9v-5h-4q-20 8 -20 23h-8l4 -9v-14h-4l-16 23q-12 -12 -12 -18q-14 0 -32 18v-9h-4l-12 9l-12 -9 q-13 0 -28 13v-9l-16 5l-16 -5q-20 3 -20 22q-16 -8 -28 -8l-20 4v9q12 0 12 9q-6 19 -16 36v8q1 9 8 9q0 -4 4 -4v4q-4 9 -4 14q4 0 4 4h-8q0 -9 -12 -9l4 -9l-8 -4q4 -5 4 -36h4v9h4q8 -1 8 -9q-14 -27 -20 -27q-52 26 -52 67l12 9h8v-31q1 -9 8 -9q0 10 4 18q-4 8 -4 18 q8 4 12 4v5q-28 0 -36 9q-3 0 -12 -14l4 -9v-9q0 -8 -8 -8q0 11 -20 22q0 -9 -8 -9h-12zM-169 1630v8h8q0 -8 -8 -8zM-157 1661q6 18 20 27l16 -32l-20 -18q-8 2 -16 23zM-113 -58h4v-9h-4v9zM-97 -67l16 18q0 -5 4 -5q1 9 8 9h16q1 -17 16 -17q0 6 16 13q0 -5 4 -13 q16 4 16 22h4q3 -22 12 -22h4l-8 22h8v-14h12l12 9v-9h16l-4 9l8 5h24q8 0 8 -14l8 5h28q0 -9 4 -9q6 0 36 9q35 -5 44 -5l28 5v-5l-4 -8h8l12 8h4l12 -17h8l4 22h4q10 -9 16 -9q8 4 12 4l4 -8l-8 -14h16l20 5v4l-8 13q1 9 8 9l8 -13l-4 -9h12l4 22h8v-4l-4 -22q4 0 4 -5 q24 9 24 14l-4 22h4l16 -14h4q3 0 12 14l-4 9v4q0 9 24 14q1 -9 8 -9q1 9 8 9l-4 9v4q8 0 8 13h8v-17h4q0 10 12 26l-28 41q4 7 4 22h8v-5l-4 -22l8 -4q0 22 12 22q-16 15 -16 27h-4v-9h-8v4q0 5 4 5l-8 22l4 22q-4 33 -8 41q4 24 4 40v18l-8 13v18l12 18v4l-8 -4l-4 9h8 q-8 10 -8 17l4 23q-8 0 -8 9q6 0 12 13q-6 11 -12 36q10 9 16 9v22q-8 0 -20 18l-4 -9q10 -9 16 -9q0 -8 -12 -40h-8l-12 85q4 8 4 13q-4 8 -4 18h4q-6 27 -12 27l4 22l-4 18l4 9l-8 53l8 5l-8 27l4 22l-4 9q4 9 4 13v14q12 0 12 9v18h-12v35l-4 23h4q0 4 -4 4l4 18l-4 22 q12 0 12 9v5l-8 13v58h8q-8 9 -12 54l8 4q-4 9 -8 49q8 0 8 14q-8 47 -8 62q0 10 4 18l-4 27v13q0 9 12 9v4q-16 0 -16 36q12 18 20 18v9l-12 -9h-4v5q1 8 8 8l-4 23l4 9q-4 7 -4 18q8 0 8 8l-8 5q0 9 4 9l-4 45v71h12q-31 48 -40 49q-8 -24 -8 -27l8 5v-9h-16q-8 0 -8 9 l12 18v4q-16 0 -16 18q13 9 24 9v-9h-8q1 -9 8 -9l32 49q1 9 8 9q10 0 16 -36v-35q12 0 12 -18q-8 -2 -8 -9v-5q16 7 16 14q-4 31 -12 31l4 9q-4 9 -4 13q8 5 12 5q0 19 -8 35q4 14 8 14l-4 9v18h4q48 -38 48 -63q12 0 12 -9q0 -4 -4 -4q4 -3 8 -76q0 -77 -28 -214 q8 -2 8 -9v-9l-8 -14v-18l4 -26l-8 -32l4 -26q0 -9 -16 -45q16 -7 16 -13v-9q0 -23 -8 -23l4 -44v-67q0 -13 -20 -40v-9h4q0 18 8 18q8 -2 8 -9q-4 -31 -4 -50v-4q-36 -6 -36 -18v-9q32 -3 32 -31q-4 -13 -8 -13l4 -9v-32q0 -10 -4 -17q4 -8 4 -18v-36q0 -6 -12 -13h-8 l-12 9v-9q4 -9 4 -14q-4 0 -4 -4q6 0 16 -9h4l4 18h8v-32l-4 -26q8 -15 8 -27q-4 -24 -4 -27q12 0 20 -85q-4 -31 -12 -31v13h-8v-17l16 -14q0 5 4 5l12 -63l-12 -27l4 -9q-4 -30 -8 -40l12 -22v-5h-8v-31q0 -9 -12 -9q0 -9 12 -9v-18l4 -26l-8 -18q12 -21 12 -54l12 9h4v-9 q-16 -18 -16 -27q-4 0 -4 5q-12 -5 -12 -9v-13q-4 0 -8 -14q6 0 12 -13v-14h-12v9q-32 -21 -32 -31l4 -18q0 -13 -32 -35v-5q12 0 12 -9t-32 -13q0 -32 -28 -32q0 -4 -4 -4q-8 4 -12 4l-8 -4l-20 13h-8q0 -13 -8 -13q-4 0 -4 4l-20 -4h-12l-12 9q-28 -3 -28 -9l-20 4h-16 q-36 0 -68 9l-8 -4q-99 19 -112 27v9h-12l4 -9v-5h-4q-6 0 -12 14q4 0 4 4h-12v-13h-24q-9 0 -36 18q-8 -5 -12 -5l-8 14q0 7 28 22v13q10 9 16 9v5q-4 0 -12 4l-24 -4v-5q12 0 12 -9v-4q0 -9 -8 -9v4l4 9q-16 0 -24 18zM-81 -58v-9h4v9h-4zM-77 1643q0 -7 12 -13v13h-12z M-73 -54v-8h4v8h-4zM-69 1607l20 -4v9q0 9 -8 9q-6 0 -12 -14zM-45 1612l4 -9q6 4 24 4q0 9 -8 9zM-41 -120q4 0 12 -5l4 9q0 9 -8 9zM-41 1567q4 -8 4 -18h16l8 5l8 -14q-8 -11 -8 -18v-4h4q0 15 24 18v4q-20 0 -20 23l-8 -5q-18 9 -20 18q4 0 4 4q-8 0 -8 18h-4v-18 q4 -8 4 -13h-4zM-41 1638q8 -10 8 -17q8 0 8 9v4q0 9 -8 9h-8v-5zM-37 -94h8v9q-8 -1 -8 -9zM-21 -40h4v-9h-4v9zM-21 -85q0 -13 16 -13l8 4q20 -9 28 -9l-8 23q-8 -5 -12 -5l-16 5q-7 -5 -16 -5zM-13 1571h8q0 4 4 36l-8 5l-4 -9h4l-4 -9l4 -9q-4 -9 -4 -14zM11 -125l4 -9 q7 5 16 5q0 6 -16 13zM11 1598q4 -17 12 -31q-4 -9 -4 -13v-5h4q0 14 8 14l24 -23v23q-8 0 -8 8l-8 -4q-5 0 -20 22l4 9l-8 5q0 -5 -4 -5zM15 1527l8 -5l4 9l-8 5zM15 1630h20v4h-20v-4zM39 -116v-4l20 -5l4 9h-24zM43 -89v-9h12v13q-8 -4 -12 -4zM43 1522h8q8 5 12 5v9h-4 q-16 -7 -16 -14zM43 1580l8 -4q8 15 8 27h-8q0 -11 -8 -23zM43 1630h8v4h-8v-4zM47 -62v-5h8v5h-8zM47 1607h8v5h-8v-5zM51 -129v-9h4v9h-4zM63 -49v-5h8v5h-8zM63 -98q4 0 12 -5l4 9v5h-8q-8 -2 -8 -9zM67 1558q1 -9 8 -9q4 0 4 5l20 -5h8q8 0 8 9q-26 0 -36 40h-4 q-8 -1 -8 -9v-4q16 0 16 -22q-7 -5 -16 -5zM71 -116v-13h8q0 4 4 13h-12zM79 -49v-5h8v5h-8zM79 1531h8v9q-8 -1 -8 -9zM79 1630l4 -23h8v5q-4 8 -4 13q4 0 4 5h-12zM95 -89v-5q1 -9 8 -9l4 9l-8 5h-4zM99 1518h20v4q0 7 -12 14h-4zM99 1580q4 0 12 -4h4v4q-8 0 -8 14 q-8 -2 -8 -9v-5zM99 1612h4v18h-4v-18zM103 -120v-5h16v5h-16zM103 1603l20 -5q-4 14 -8 14q-8 -5 -12 -5v-4zM119 1576q4 0 4 4q24 -7 24 -13q0 -18 -20 -18l8 -13q-4 -9 -4 -14l16 -17h4v8l-12 18q4 14 24 14q1 -9 8 -9h4v9q-28 22 -28 35h8l12 -9v9h4q24 -12 24 -17 l-12 -18l8 -5h16v5l-8 13q4 8 4 18q-12 13 -28 18q0 4 -12 27h-4v-5l12 -22v-5l-20 -4q0 4 -4 4q0 -4 -4 -4l-4 9q-7 -5 -20 -5v-13zM135 1598q5 0 16 27h-4q-8 0 -12 -27zM155 1522h4q8 0 8 9h-12v-9zM179 1531q1 -9 8 -9h12v9h-20zM187 1594h12q6 0 12 13q-12 0 -12 9h-8z M191 -98v-9h8v9h-8zM191 1513q1 -8 8 -8h12v8h-20zM207 -129v-9h4v9h-4zM215 1616q8 -20 16 -22v4q-8 21 -16 23v-5zM219 -120v-5q4 -9 4 -13h20l20 4v5q0 9 -8 9h-4l-12 -9zM219 1487q6 -18 12 -18v9q0 6 -12 13v-4zM219 1563q1 8 8 8q16 -6 16 -13l-8 -4h-8q-8 0 -8 9z M223 -58v-4h8v4h-8zM243 1473q20 12 20 18v5h-16zM251 1567h4l-4 9v4q24 0 24 -31h-4q-20 12 -20 18zM251 1616h8v9q-8 -1 -8 -9zM267 1536v9h4v-9h-4zM275 -116v-4h8v4h-8zM283 -129v-5h8v5h-8zM283 1558v13h4q8 -1 8 -8h-4l4 -9v-5h-4q-8 0 -8 9zM287 -62v-9h8q0 9 -8 9z M291 1540v5h32q4 0 4 4q8 -4 12 -4v-9h-20q-4 0 -4 -5l-8 5h-4l-8 -5zM299 -129v-5h8l4 9v9h-4q0 -13 -8 -13zM307 1558v5h8v-5h-8zM311 -152v-9q1 -9 8 -9h4v18h-12zM311 1598v14q11 22 16 22q4 0 4 -4l8 4l24 -4v-9l-20 -5h-4l-8 5l-4 -9v-14q12 0 12 -9l-8 -4 q-10 13 -20 13zM323 -125v-9q7 5 16 5v9q-7 -5 -16 -5zM323 1554v4h8v-4h-8zM347 -112v-4q9 0 16 -4l4 8h-20zM355 -152h12v9h-4q-8 -1 -8 -9zM371 1563v4q1 9 8 9q0 -9 16 -9l-4 -9q-7 5 -20 5zM371 1621v4q0 8 24 13l24 -4v-18h-4l-20 14q-8 -5 -12 -5v-9q12 0 12 -9v-18 h-8q0 11 -16 32zM387 -161h12q0 9 -8 9zM391 -107v-9h4v9h-4zM395 -129l8 -5h4q8 0 8 9t-8 9h-8q0 -5 -4 -13zM399 1567q0 4 4 4l-4 9v5q11 27 16 27q4 -10 8 -49q-8 -2 -8 -9q-16 6 -16 13zM419 1531l8 -13l-4 -22q6 0 12 17q-8 15 -8 23h-8v-5zM431 1205h4v9h-4v-9z M431 1616q1 9 8 9v-9h-8zM443 679h4v22h-4v-22zM443 755h4v8h-4v-8zM443 808h4v9h-4v-9zM443 1116h4v14h-4v-14zM443 1152q16 -27 16 -49q-4 -9 -4 -14q9 0 12 23q-12 26 -12 44l12 9v-9h4v5q-12 35 -12 44l4 23v4h-4q0 -18 -8 -18l4 -31v-18q0 -6 -12 -13zM443 1255 q1 -9 8 -9v9h-8zM443 1272h8v9h-8v-9zM443 1317q16 -21 16 -27h4v14q-10 0 -12 17zM443 1335l8 -5h4q0 14 8 14v18l-12 18q0 6 16 31v9h-4q-20 -13 -20 -40q6 0 16 -18v-9h-8v9h-4q0 -20 -4 -27zM447 339v9h8v-9h-8zM447 362v9h8v-9h-8zM447 558h8v5q0 8 -8 8v-13zM447 585 h4v13h-4v-13zM447 871q7 0 20 -14v5l-12 18v4l4 9h-4q-8 -2 -8 -9v-13zM447 946q4 -8 4 -13q8 0 8 13l-4 23h-4q0 -23 -4 -23zM447 1000h8l4 18q-8 0 -8 13h-4v-31zM447 1067h8v4h-8v-4zM447 1219h4v9h-4v-9zM451 -27v-18h8v9q0 9 -8 9zM451 509q6 -18 12 -18h4q-8 11 -8 22 zM451 518h8l-4 9l4 9h-8v-18zM455 817h4v13h-4v-13zM459 469q8 0 8 9h-8v-9zM459 652q1 -9 8 -9h4l4 22v9q0 9 -8 9q-8 -1 -8 -9h4l-4 -9v-13zM459 710q4 0 12 -5q8 17 8 36l-8 5h-4l-8 -5l4 -22zM459 1036h8v13h-8v-13zM463 -94q0 7 12 14v-9q0 -9 -8 -9h-4v4zM463 540h8v5 q0 9 -8 9v-14zM463 844h4v9h-4v-9zM467 1455l4 -22h4q8 0 8 9v4q-6 0 -16 14v-5zM467 1509h4v9h-4v-9zM471 -62h8v-9q-8 0 -8 9zM471 1496h4v9h-4v-9zM475 -103h4v-9h-4v9zM475 188q4 -9 4 -14h4v14h-8zM475 527h4v13h-4v-13zM475 1304q8 0 8 9h-8v-9zM475 1357h4v14h-4v-14 zM475 1549q1 -9 8 -9h4v5q-8 11 -8 18h-4v-14zM479 125h4v9h-4v-9zM479 911q4 -9 4 -14h4v5q-4 8 -4 18h-4v-9zM479 924q8 0 8 9v13q-8 -1 -8 -8v-14zM479 1496h8l4 22q-4 9 -4 13h-4v-4q4 -8 4 -18v-4h-8v-9zM483 442h4q8 0 8 9l-4 22h-4q0 -13 -4 -31zM483 826h4v18h-4 v-18zM483 1112h4v13h-4v-13zM487 -58h8q0 -11 12 -22q-8 0 -8 -14h-12v18q0 5 4 5l-4 9v4zM487 152q1 -9 8 -9v4q0 9 -8 9v-4zM487 183l8 -4l4 9l-8 4zM487 321q5 -22 12 -22v5q-2 35 -12 35v-4q4 -9 4 -14h-4zM491 196h4l8 5q-4 9 -4 13q-8 -1 -8 -9v-9zM491 259q8 0 8 9v9 h-8v-18zM495 1339h8q0 9 -8 9v-9zM519 -49h8v-5q0 -8 -8 -8v13zM519 89v14h8v-14h-8z" />
<glyph unicode="^" />
<glyph unicode="a" horiz-adv-x="968" d="M17 140q0 181 250 552q110 157 254 268q111 85 155 112q70 0 70 44q27 40 75 40q0 8 20 8q0 -5 40 -16l5 -8l-5 -20q0 -3 5 -24l-15 -68l5 -8v-20l-10 -28l5 -16q-10 -82 -60 -312q-11 -67 -25 -104l5 -8q-19 -56 -30 -68v-8h10v-12q-15 -14 -15 -40l5 -8l-40 -144h-15 v-16q6 0 15 -4q-16 -59 -25 -80q5 -8 5 -12q-15 -61 -30 -96q5 -22 5 -32h-10v12h-5q-10 -1 -10 -8q0 -12 15 -12q0 -14 -30 -76l5 -20q0 -18 -20 -32q4 -24 15 -24v-8h-15q-19 0 -25 184v20q0 22 5 56l-5 8q12 153 25 180q0 4 -5 12q50 300 105 548v4h-5q-35 -99 -55 -120 q0 -11 -100 -212q-55 -93 -60 -132q-11 0 -20 -8l5 -8v-4q-49 -58 -49 -72q-23 -29 -45 -80q-9 0 -65 -84q-77 -90 -130 -124q-31 -12 -65 -16q-85 29 -85 76q-30 38 -30 68zM192 192q28 0 125 156l45 60q7 0 15 40h5q0 -4 5 -4q20 42 79 136q43 88 55 92h5l10 -4v4l-5 28 q45 71 45 84q20 0 20 4q0 3 -5 24q22 50 45 72q0 24 10 24q0 -4 5 -4l10 12q-10 10 -10 16q-159 -138 -214 -236q-140 -196 -225 -428q-20 -72 -20 -76zM531 564h5q10 0 10 8v4h-10q0 -4 -5 -12zM646 60h15v12h-15v-12zM681 932h5q0 4 5 12h-10v-12zM701 288h5v12h-5v-12z " />
<glyph unicode="b" horiz-adv-x="804" d="M8 60l26 -4l10 12l-10 29q32 0 67 171q22 55 30 55q-5 8 -5 12q16 47 62 367h5q0 4 -5 4q46 272 93 426q84 276 169 367h6q32 -8 36 -21v-17q0 -106 -124 -567h10q16 46 150 146q9 -4 20 -4l5 8l-5 9l16 8h10v-4l-5 -9q10 -4 15 -4q10 4 16 4l-5 9l10 4h10l-5 -21 q24 0 51 -29h6q10 0 10 8q0 22 -52 34v12h11q77 -26 77 -125q0 -24 5 -67q-14 -141 -31 -167l5 -8q-78 -238 -195 -396q-23 -58 -268 -263q-9 0 -98 -54q-8 0 -20 -9q0 4 -5 4l5 9v4q-12 0 -21 4q-41 -63 -41 -75h-5q-15 4 -15 25v50q-17 9 -21 63zM95 93h6q0 7 10 17l-5 21 q-11 -2 -11 -9v-29zM116 131q5 -8 5 -13h5q76 69 108 109l211 216q0 15 108 138q0 9 67 134q36 99 36 167q0 118 -67 137l-10 -4l-10 4q-77 -15 -144 -121q0 -11 -124 -254q0 -35 -31 -92q6 -8 6 -13q-8 0 -16 -12l5 -17q-25 -51 -36 -112q-20 -13 -31 -13v-12l16 -21 q-5 -14 -31 -34l5 -8v-8l-15 -17l5 -21q0 -11 -16 -29l5 -21q-4 0 -15 -12h-15q-6 -13 -11 -13l5 -8v-9zM137 10q30 9 30 25h-5q-7 0 -25 -21v-4zM142 218h5v9h-5v-9zM430 944h5v8h-5v-8zM687 990q2 -8 10 -8v8q0 8 -10 8v-8z" />
<glyph unicode="c" horiz-adv-x="820" d="M0 280h5l-5 10q0 5 5 5q0 5 -5 5q10 122 18 122l-4 10q6 35 32 71l-5 10v16l5 10l9 -5q9 0 9 10v5l-9 15q3 14 41 81l14 72l-18 -16v5q7 28 18 41q15 -10 27 -10q0 5 5 15q-5 9 -5 20v6h23q11 50 18 50h5l14 -10v10l-5 11q9 20 9 30h10l9 -5q0 41 45 71l14 15h14 q0 23 23 31q9 -5 14 -5q11 32 22 35l10 -5q0 24 82 61q0 31 23 31l46 15q18 -8 18 -15q2 0 18 5q78 0 78 -20q33 -31 69 -82q32 -64 50 -137v-31q0 -40 -32 -66v-5h-23l-23 -5q-18 15 -18 26l-18 -5q-34 0 -46 76q-33 61 -69 61h-55q-44 -21 -59 -21q0 21 -14 21h-5 q0 -6 -4 -15l9 -21l-9 -5h-5l-13 10q0 -10 -14 -10l9 -15v-15h-14l-32 -5v-6q19 0 19 -10q-10 -20 -23 -20l-19 5q-18 -8 -18 -15v-5q23 -2 23 -10q-7 -21 -14 -21h-4l-14 10h-14q0 -5 -4 -15q19 -10 22 -10v-10q0 -4 -59 -81q9 -2 9 -11l-18 -15q-8 5 -19 5v-5l19 -25 q-28 -82 -60 -82v-10l14 -20l-5 -10l-22 5q-10 -2 -10 -10v-5q0 -16 23 -16q0 -21 -23 -51v-5q2 -10 10 -10q-7 -51 -14 -51l4 -25v-36q10 -74 10 -81v-15q7 0 68 -76q88 -51 160 -51q82 10 92 20l23 -5q0 7 14 15h4q5 0 5 -5l23 15h9v-10h4q21 34 51 41q0 20 36 36v-11 q-31 -21 -50 -56l-9 6q-19 -36 -28 -36q0 5 -4 5q0 -7 -14 -15h-5v5l5 10h-5l-18 -10l5 -10q0 -9 -23 -16l-23 11q-10 -26 -50 -26q-9 5 -14 5l-5 -10l-9 5h-4q-10 -1 -10 -10q-52 5 -59 10q-15 -10 -23 -10v5l-9 -5h-18l-19 15q-38 -20 -46 -20l5 10v5l-23 10q-9 -5 -14 -5 l-50 61q-18 10 -27 36l-51 46q-10 0 -18 117zM9 254h5v10h-5v-10zM23 417h4v10h-4v-10zM41 574v5l5 26h9q0 -27 -14 -31zM55 452l18 21q-4 9 -4 15q-14 -5 -14 -31v-5zM59 635v5q11 36 33 61v-5q0 -26 -28 -61h-5zM73 503h9v5h-9v-5zM82 366q5 -17 19 -20q0 5 4 15l-9 5h-14 zM87 295q1 -10 9 -10h5v20q-9 -5 -14 -5v-5zM92 407q9 0 9 10v10q-9 -2 -9 -10v-10zM128 666h5v10h-5v-10zM133 600h4v10h-4v-10zM146 569h10v15h-5q0 -5 -5 -15zM151 640h9v16h-4q0 -6 -5 -16zM151 717q1 -11 9 -11l5 11v20h-5q-9 -2 -9 -10v-10zM160 559h5q0 5 4 15v5h-4 q0 -5 -5 -15v-5zM188 737h4q7 0 14 15v15h-5q-6 0 -13 -15v-15zM197 671q9 0 9 10v5q-9 -1 -9 -10v-5zM211 788q4 -10 4 -16h5l9 6l-5 10v5l9 15h-4q-5 0 -18 -20zM220 706q18 8 18 16l-9 5h-9v-21zM247 823h18v10q0 11 -9 11h-9v-21zM320 889h14v16h-14v-16zM352 925 q2 -10 10 -10l4 10q0 10 -9 10h-5v-10zM384 961q5 -10 5 -16q7 0 14 16l-9 5zM398 20h5v10h-5v-10zM412 940q1 -10 9 -10h9q0 5 5 15l-9 5h-5q-9 -1 -9 -10z" />
<glyph unicode="d" horiz-adv-x="898" d="M0 72q0 99 80 254q0 5 84 148q22 58 132 185q138 124 160 152l8 -5q37 29 84 49q0 4 56 34q7 -5 16 -5l28 20v15h12l8 -6l64 109q11 31 36 74q36 148 44 148l-4 10q41 147 76 195q0 22 4 29q-4 10 -4 14q40 45 40 84q36 -12 36 -74q4 0 4 -4q0 -16 -36 -123v-14h-4l-8 4 v-4l4 -19q-48 -153 -48 -177q-64 -287 -76 -305l8 -5q6 19 12 19v-9q-18 -28 -24 -88q-5 0 -56 -186l4 -35q-14 -9 -20 -29q4 -10 4 -14q-52 -142 -72 -392q6 0 12 -14v-35q-7 -40 -16 -53q6 0 12 -15q0 -10 -8 -10t-12 39h-4l-8 -4q0 -6 4 -6l-4 -29h-8q0 15 -8 15l-12 -11 h-8q-30 35 -36 35l4 25v4q-16 19 -16 45l8 4q0 -4 4 -4q0 4 4 4q-6 20 -12 20q0 -5 -4 -5q-8 20 -8 54l20 -5q-6 20 -12 20l-8 -6q0 23 -4 64q6 39 12 39l-8 20q8 14 16 127q-8 10 -20 49l42 76q-42 -20 -98 -129q-6 0 -28 -59q-85 -135 -144 -201q-52 -69 -128 -113 q0 -12 -60 -64q-30 0 -48 21l-12 -10h-4q-13 2 -48 63h-4zM143 150q110 112 144 137q43 45 94 98q75 81 151 212l152 215l-111 -50l-150 -95q-144 -148 -222 -314q-42 -67 -58 -203zM516 494h8q8 0 8 9v8h-4q-6 0 -12 -17zM540 204h4v9h-4v-9zM540 226h8v9q-8 -1 -8 -9z" />
<glyph unicode="e" horiz-adv-x="730" d="M-114 -63q0 7 16 16q5 -11 5 -16h26q0 16 42 58q-5 10 -5 16q-14 0 -32 -11q0 5 -5 5l11 22q-9 0 -32 10q0 -21 -10 -21l-11 5q0 4 21 43q18 0 42 -16h5q23 28 68 47q0 13 53 53v21q-32 15 -32 48q-13 42 -21 42l6 11v15h-11v32q0 13 -10 48q20 26 47 132q12 0 52 100v5 h-5v-10q-11 0 -11 10q12 2 47 74q17 13 27 48q26 18 26 42h-5q-30 -37 -37 -37v11q0 21 47 47q0 11 31 53q0 32 48 32l-6 10v11q31 0 42 42q22 0 74 69q16 0 47 16l10 -6q10 6 16 6q1 -11 10 -11l37 27l10 -6q14 0 21 32q89 -9 89 -26q0 -12 -5 -22q11 -17 11 -31v-16 l-16 -32q10 0 21 -31q-21 -8 -21 -48q10 0 10 -16q0 -3 -15 -53q5 -10 5 -16q-5 0 -5 -5l-11 5q-8 0 -16 -21q11 -1 11 -10q-13 -74 -26 -74q0 5 -6 5q-13 -23 -26 -90q6 -10 6 -16q-19 -1 -42 -37l5 -10v-16q0 -11 -11 -11q0 11 -10 11q-25 -90 -31 -90q-20 0 -37 -63 q-59 -90 -79 -90q-6 0 -73 -106q45 -46 178 -68q28 5 47 5h32v-5q-6 -10 -6 -16h6q0 -18 -89 -37q0 -11 -16 -21l-11 5l-20 -11q-6 0 -6 6l-26 -6h-5q-12 0 -21 6q-9 -6 -21 -6h-5q-11 0 -11 11l-21 -5q-28 0 -52 26l-31 -5q-6 16 -32 16h-5q-23 -13 -31 -43 q-85 -68 -100 -68l-10 5q-112 -58 -121 -58v5q0 13 21 16l-5 11v16h-21v5zM-56 -58h5q6 0 42 16v16q-47 -24 -47 -32zM-15 0h6q10 0 10 27q-10 -6 -16 -6v-21zM64 449q10 0 10 11h-10v-11zM90 280q7 -32 16 -32v6l-5 26h-11zM101 338h5q7 0 16 16v5h-11q-10 -1 -10 -10v-11z M101 418h15v26h-10zM106 206q1 -10 10 -10v16q0 10 -10 10v-16zM127 328l5 -27h5v6q-5 10 -5 15q5 0 5 6h-10zM127 460q1 -11 10 -11h5v27h-15v-16zM137 227q2 -10 11 -10h5v5q-11 13 -11 21h-5v-16zM174 270q2 -11 10 -11q11 0 11 11l-21 15v-15zM179 53h16v11q-6 0 -16 5 v-16zM190 344q15 -21 15 -59h11q43 47 104 148l110 175q10 0 27 63q19 42 36 53v26h-5l-26 -5q-11 12 -11 37h-21v-32q0 -6 -68 -26q-26 -23 -52 -74q-42 -42 -84 -180l-36 -116v-10zM200 761h11q0 6 5 16h-5q-11 -2 -11 -11v-5zM221 79h10v6h-10v-6zM226 116q0 -17 115 -79 h48q74 0 115 32l-11 5q-13 0 -36 -16h-32l-16 11q-28 -5 -41 -5q-90 25 -142 58v-6zM242 734q2 -10 10 -10q11 0 11 10q0 11 -11 11q-10 -2 -10 -11zM252 64q0 -8 16 -16q11 0 11 10q-17 11 -27 11v-5zM258 132h15q-5 11 -5 16h-10v-16zM273 840h16q0 11 -10 11zM352 904 q31 12 31 21l-10 5q-13 -11 -21 -11v-15zM394 941h10q0 21 11 21v5h-11q-10 -17 -10 -26zM399 856h5q11 0 11 11v10q-10 -5 -16 -5v-16zM425 983l5 -11q24 10 27 21l-11 6h-5q-8 0 -16 -16zM504 1051v11h15v-11h-15zM530 64v5q0 10 16 10v6l-6 10l84 32l11 -16v-5 q-24 0 -105 -42zM650 111v5q8 22 16 22h5v-11q0 -8 -16 -16h-5zM687 127q2 11 10 11h6v-11h-16zM724 143v10h10v-10h-10z" />
<glyph unicode="f" horiz-adv-x="668" d="M0 95q18 47 40 74h13l9 10q-9 0 -9 7l-9 -3q-9 0 -9 7q0 14 23 38v7l-9 11v11q13 14 13 28q-4 6 -4 10l9 4l17 -11l14 18v3q-9 9 -9 14q-9 0 -9 -14h-18q0 22 13 42l-4 18q5 0 22 28l-4 7v11h4l18 -11q0 6 13 18v10l-9 -3q0 10 -9 10q0 -14 -13 -14q-9 0 -9 7 q14 15 14 28h8v-7h5q13 3 13 28q-4 0 -13 4q0 -7 -9 -7l-4 7l26 39q-4 19 -4 31l4 18h-13q-16 0 -40 -4q-20 6 -36 25q0 3 5 3q-5 11 -9 11l4 25v7q0 3 -8 28h4l22 -11q21 28 76 28q0 4 4 4l9 -4l18 11l-5 7l31 74v10h14v-7h4q9 2 18 18q-7 0 -13 10l-9 -3h-5v21l58 35 q-5 7 -5 11q5 0 5 3l-13 7h-9v-7h-5q-9 0 -9 7q11 24 31 35l-4 14q12 53 31 53q0 -4 4 -4l5 8v7h-5l-8 -4l-5 7v4q24 17 27 49q7 3 22 3v14h-9v4q13 63 40 63v11q0 7 -9 7q0 -7 -9 -7v10l27 32l-5 7q14 35 58 95q0 13 13 24l-4 7q0 6 18 11l-5 7v3q17 0 27 39q6 0 35 28 q74 32 94 67q24 4 40 4h8q67 -28 67 -99l31 -109q-16 -63 -98 -137h-17q-30 0 -45 120h-4q-16 -7 -102 -106l-31 -42q-25 -60 -53 -60q0 -2 4 -21q-22 -49 -40 -49l4 -18q-35 -11 -35 -17q6 0 13 -11q-3 -33 -44 -66l9 -11q-22 -27 -22 -56h-5l-9 3l-9 -10l14 -18v-3 q-18 -16 -18 -18q0 -8 4 -14q-8 -25 -13 -25q5 -14 22 -14q258 23 258 39h8v-4q0 -3 -4 -3l4 -7q-22 -55 -119 -95q-20 -10 -49 -18q-28 -19 -155 -45q0 -5 -18 -11q0 14 -9 14h-13v-3q9 -9 9 -14h4l9 3q0 -9 13 -21v-10q-13 -49 -31 -57l13 -7l-13 -45q5 -6 5 -14 q-5 0 -5 -4q9 -1 9 -7q-4 -46 -18 -84q5 -7 5 -11q0 -42 -31 -42v-11h4q9 4 13 4l5 -7v-4q0 -16 -22 -38q13 0 13 -7q0 -53 -31 -53q0 -9 13 -25v-7q0 -8 -9 -31q9 -12 9 -18l-9 -28q5 -7 5 -10l-18 -11h-4l-14 7l-17 -14q-12 7 -23 7q9 32 9 39h-4l-14 -7h-8l4 24 q-9 0 -31 32zM40 127h9v7h-9v-7zM67 155q1 -7 8 -7v10h-8v-3zM80 176h9q0 10 9 35h-5q-13 0 -13 -35zM80 334q9 0 18 21l-14 7l-4 -25v-3zM89 271q9 -9 9 -18q13 2 13 28v11h-5q0 -14 -17 -14v-7zM98 327q8 -9 8 -14h9v14q0 7 -9 7h-8v-7zM102 228q1 -7 9 -7h13l-4 18 q-18 -5 -18 -11zM106 362q18 5 18 11v3l-9 -3l-9 3v-14zM120 271q9 0 9 7v10h-5zM124 492h9v7h-9v-7zM129 387h9l8 3l-4 21q-6 0 -13 -10v-14zM129 453q9 -10 9 -24h8q0 6 9 28h-17zM129 548q5 -17 13 -17l9 3q9 -11 9 -21v-3q-9 0 -9 10h-5q0 -10 -8 -24q4 -6 4 -18 q14 0 44 49l-17 7q-9 -3 -14 -3v3l5 21v4h-5q0 -11 -9 -11h-8l-9 4v-4zM146 474q5 -6 5 -10q9 0 9 7v3h-14zM160 373h4v7h-4v-7zM173 706q9 0 9 7v4h-9v-11zM191 696h4q36 0 36 17q-9 12 -9 18q-6 0 -13 -21q-18 -5 -18 -11v-3zM191 745q0 -5 18 -14q8 12 8 21q-7 0 -17 7 q-9 -1 -9 -7v-7zM213 854v7h4q9 -1 9 -7v-7h-4q-9 0 -9 7zM222 773q1 -17 9 -17q11 0 17 21q-8 0 -8 10q-11 -7 -18 -7v-7zM222 815q9 -8 9 -14h4q7 0 18 14v4q0 7 -9 7l-9 -4q0 7 -9 7l-4 -7v-7zM248 836q5 -6 5 -10h4q9 0 14 21h-9zM253 931h9v14q-9 -1 -9 -7v-7zM262 879 h4v7h9v-4l-4 -7v-3h4q0 8 13 21v10h-4q-15 -10 -22 -10v-14zM293 956l18 -4l8 11v7q0 7 -8 7h-5q-13 -4 -13 -21zM293 1019q0 -5 18 -14l4 18l-9 3q-8 -3 -13 -3v-4zM311 910h4v7h-4v-7zM324 980q6 0 13 11v7h-4q-9 -1 -9 -7v-11zM333 1037l9 -4v11q-9 -1 -9 -7zM359 1061 q2 -7 9 -7h5v18q-7 0 -14 -11zM466 1332h9v7h-9v-7z" />
<glyph unicode="g" horiz-adv-x="824" d="M-228 -419q6 23 13 23l13 -45l13 9q1 -9 8 -9v4l-4 41h4l13 -9q9 4 13 4v5q0 2 -17 22v27q-13 0 -13 9v9h13v18h-9v18h30q0 3 5 58h8q9 -72 13 -81l-4 -9q25 -106 69 -161q0 -19 34 -67q0 -15 30 -41q0 -31 78 -62h4q50 0 86 116q52 53 52 112q38 50 38 99q14 0 30 94 q26 40 26 94q17 17 22 32l-5 22q0 12 31 72v4q0 5 -5 14q73 218 112 381q16 0 47 117q18 45 26 53q-13 0 -13 9q26 44 26 50q0 4 -4 4q0 18 26 90v18q-56 -69 -78 -126q-8 0 -47 -67q-9 0 -17 -36q-8 0 -22 -13l4 -9v-14q-23 -28 -55 -85q-15 -9 -35 -54q0 -28 -100 -206 q-52 -71 -153 -109q-51 83 -64 164q11 5 11 31q0 16 -4 39q-7 0 -8 90v27q0 106 94 287q8 2 74 108q31 0 68 89l-17 -13v9q3 12 43 49q0 14 35 41q0 20 189 175h30q10 0 17 4q78 -21 78 -36l-9 -18q12 0 17 -45q-21 -36 -56 -36h-8q-5 0 -5 5l-8 -5h-9q-21 0 -21 9 q-35 -16 -73 -26l-104 -59h-4l-9 5q-81 -72 -81 -112q-35 -62 -69 -144v-4h8v9h9v-5q-112 -215 -112 -323v-36q0 -4 -4 -4q9 -93 34 -94q60 32 99 166q29 29 30 44h9q8 -4 13 -4q0 45 39 72q77 112 94 121q35 37 35 58q18 0 25 36q63 67 108 152q11 0 21 41l9 4l-4 9 q12 9 43 68q8 0 21 31q13 0 48 13h12q5 0 22 -31q-22 -12 -22 -36l5 -22q-22 0 -65 -278l-21 -54l4 -9q-30 -111 -95 -278l-47 -139l-43 -121q-8 0 -13 -45q-28 -45 -38 -112q-19 -20 -52 -148q-12 -9 -52 -135q-25 -35 -47 -98q4 0 4 -5q-14 -3 -43 -67q-10 0 -17 -45 q-7 0 -17 -49q-27 -42 -95 -117v-5q5 0 5 -4h-9v13h-4v-13h-9q0 22 -21 22l-18 -4q-4 9 -4 13h-4l-13 -9q-2 10 -60 41q0 5 -56 49h-5q32 -50 52 -54v-9h-9q-96 66 -150 189q0 50 -9 71q0 5 5 14zM-224 -369h9l4 -18l-8 -5l-5 9v14zM-185 -544v-9h4v9h-4zM-181 -271 q0 14 26 27v-13q0 -9 -8 -9q0 4 -5 4q-4 -9 -4 -13h-9v4zM-163 -522v-9h4v9h-4zM-159 -329v-27h4q0 9 4 9q-4 8 -4 18h-4zM-155 -540q4 -18 26 -18h9q-7 18 -13 18h-22zM-155 -585v-9q10 0 13 -27l17 -13l5 9q0 6 -26 40h-9zM-146 -639v-9h4v9h-4zM-142 -365q9 -15 9 -22h4 q0 10 4 18q-4 8 -4 13h-9q0 -9 -4 -9zM-142 -482v-9q0 -6 13 -13h9q-9 15 -9 22h-13zM-125 -670v-9h5v9h-5zM-116 -634v-5q0 -6 13 -13h8v9q-6 0 -17 9h-4zM-112 -580l9 -5h8v14h-8q-9 -2 -9 -9zM-86 -670v-4q8 -17 26 -23v5q-8 16 -26 22zM-52 -639v-13h5q8 0 8 9l-8 4h-5z M-47 -706v-4q6 0 17 -14v14q-5 0 -13 4h-4zM-17 -665q4 0 13 -5v9q0 9 -9 9q0 -5 -4 -13zM13 -643v-5h8v5h-8zM176 622q9 0 9 9v4q-9 -1 -9 -9v-4zM189 774q0 7 43 54v-9q-32 -45 -39 -45h-4zM507 698h9q9 0 9 9v18h-5q-6 0 -13 -14v-13zM542 734h4q9 0 9 9v9h-9 q0 -10 -4 -18zM602 859h9l4 23v4q-9 0 -13 -27z" />
<glyph unicode="h" horiz-adv-x="713" d="M11 127q4 8 4 12l-4 28q28 9 28 44q33 40 44 92l12 28l-4 8q3 24 8 24l-4 8q3 29 16 52q-4 8 -4 12l4 16q-4 16 -4 28q10 8 16 8v20q-12 16 -12 44q4 12 8 12l-4 20v8l4 8q-8 0 -8 8v36q0 4 4 4q-4 12 -8 12q5 36 8 44q0 4 -4 4q0 187 24 356q0 4 -4 4q24 217 72 340 l28 52l8 12l-4 8q7 25 36 40h4q0 -29 44 -88q0 -4 4 -12q-5 -31 -16 -44v-8q6 0 16 -8q0 -13 -32 -80v-16q6 0 12 -12q-26 -25 -48 -168q0 -18 -48 -232q0 -4 4 -4l-4 -20q0 -4 4 -12q-11 -52 -16 -52v-4q0 -4 4 -4l-4 -20q0 -4 4 -12q-4 -28 -8 -28q0 -4 4 -4 q-8 -32 -8 -52l4 -16q-8 -16 -8 -44v-8h-8q0 20 -12 20l-12 -16v-8l28 -4q-4 -28 -12 -28l4 -8v-4q-20 0 -24 -40v-24q0 -6 12 -12l-4 -20l4 -20l-4 -8l4 -24q-8 -1 -8 -8v-12l8 -12q-4 0 -4 -4l8 -4q108 233 176 348q12 6 76 100q8 0 24 64q9 0 56 56l8 -4l32 28 q8 -4 12 -4q0 6 16 16q6 0 12 -16l8 4h8q20 -11 20 -32q-8 0 -12 -44l4 -8q-10 -40 -32 -40l4 -8q-11 -15 -16 -52h-4l4 -20q-7 -16 -24 -124q-4 0 -4 -12v-12l4 -8q-8 -1 -8 -8q0 -9 4 -16q-16 -31 -16 -52l4 -8q-15 -68 -20 -68l4 -20l-4 -20l8 -4q-8 -13 -8 -24 q8 -4 12 -4q0 -8 -8 -8l-8 4l-4 -8q5 -32 20 -32v-8q-20 0 -20 -40l8 -4q12 18 12 36h12v-8q0 -8 -8 -8q0 -8 4 -8l-8 -96q4 -22 4 -44q0 -10 -4 -60l4 -8q-4 -7 -4 -16h-4l-12 8h-4v-28q0 -28 -8 -28q0 -8 28 -32l-4 -8l4 -24q-10 -8 -16 -8v-12l8 -28h-20q-80 31 -80 88 q-8 0 -12 28q4 8 4 12q-8 0 -8 8v24l8 12v20q-12 0 -12 8v4l8 28q-8 26 -8 32q0 36 12 52q0 3 -4 24q0 6 12 44q0 4 -4 12q0 49 24 72l-4 8v4q0 9 4 16q-4 7 -4 16q0 8 16 48l-4 24l8 4l-4 20v4q4 27 12 28q0 4 -4 12q1 54 16 84l-4 8q4 49 12 76v8q0 8 -8 8l-72 -112 q-22 -18 -36 -72q-6 -2 -64 -148q0 -21 -32 -96l4 -8q-30 -81 -64 -132v-4q0 -12 4 -12l-4 -20v-48q-8 -56 -32 -56l-28 4l-8 -4q-112 24 -112 84q0 4 4 4q-4 28 -8 36zM75 255q1 -8 8 -8l4 8h-12zM87 267h4q6 0 12 16l-8 4h-4q0 -13 -4 -20zM103 351q1 -8 8 -8q0 6 12 12 q-4 8 -4 12h-4q-6 0 -12 -12v-4zM115 311l8 -4h4q-4 8 -4 12q-8 -1 -8 -8zM119 375h4q13 12 20 12v16q0 8 -8 8v-20h-4l-8 4zM119 435h4q9 0 12 20l-12 8l-4 -8v-20zM131 327l8 -4h4l4 28l-8 4zM131 475h8v8q-8 -1 -8 -8zM135 643h4v16h-4v-16zM139 883q1 -8 8 -8h4v4 q-4 8 -4 12h-8v-8zM147 539l8 4q-4 8 -4 12h-4v-16zM155 611q8 0 8 8q-4 8 -4 12h-4v-20zM159 447v28q1 8 8 8l4 -8q-4 -28 -12 -28zM163 707l8 -4q1 8 8 8q-4 7 -4 16h-8zM163 755q8 0 8 8l-8 4v-12zM475 223h8v12h-8v-12zM491 71q4 -7 4 -16h4q0 4 4 12q-4 7 -4 16h-4 q0 -4 -4 -12zM519 383v8h8v-8h-8zM527 711h4v8h-4v-8zM539 795h8v4h-8v-4zM555 875q8 0 8 8v4h-8v-12zM579 839h4v12h-4v-12zM579 887l8 -4h4v8q-8 0 -8 12h-4v-16zM587 907h4v8h-4v-8z" />
<glyph unicode="i" horiz-adv-x="525" d="M0 99v33q12 281 22 281q0 4 -3 4q10 119 43 231q18 77 32 116q59 180 68 190l16 -4h9q17 0 44 4l6 -4l6 4q69 -16 69 -103h-3l3 -9q0 -49 -41 -128l-46 -210q-18 -90 -53 -157q0 -5 -13 -29l3 -8l-19 -46q4 -8 4 -12q-22 -17 -22 -21v-8h6v-4q0 -16 -16 -37v-4h7v-9 l-13 -16v-17l16 -4q26 0 162 128q52 38 106 66h6q-20 -47 -59 -70q-4 0 -34 -45q-10 0 -25 -29q-14 0 -22 -46q-5 0 -44 -49q-18 -4 -25 -17l3 -8v-8h-9v8h-3l-6 -4l3 -8q-3 -33 -10 -33h-6v4l6 12q-3 7 -3 17q-18 -3 -18 -13q6 -16 6 -25q-10 -8 -16 -8v4q3 7 3 17h-9 q-6 -1 -6 -8q3 -8 3 -17q-22 0 -41 25q0 -6 -12 -17q-58 38 -75 91zM159 611h3v8h-3v-8zM231 1160q32 155 59 261v20l-6 13v12q31 20 44 33q3 0 3 -4l6 4q81 -22 81 -70q0 -49 -19 -62q-20 -5 -68 -91q-4 0 -60 -74q-25 0 -25 -29l-12 -17q0 4 -3 4zM268 1218h7v13 q-7 -1 -7 -9v-4zM284 169v9q0 6 12 12v-4q0 -6 -12 -17z" />
<glyph unicode="j" horiz-adv-x="615" d="M-344 -458q0 78 44 116q7 -4 16 -4l12 16l8 -4h16l16 20h16q65 -276 128 -348l20 -16q23 33 44 160l112 508l76 336v4q0 4 -4 12q27 248 40 248q20 99 64 232q8 16 12 16h24q9 0 16 -4q7 4 16 4q45 0 96 -60q20 -50 20 -64q-46 -118 -64 -248q-60 -235 -84 -284 q-16 -59 -36 -84q0 -50 -36 -76q4 -8 4 -12q0 -23 -32 -92q-9 -44 -28 -44v-32q-40 -109 -40 -116q-11 -16 -20 -16l4 -28q-2 -26 -28 -56v-28q-28 -63 -28 -92q-28 -41 -28 -84h-8l4 -36l-24 -40v-16q8 -11 5 -19q-3 -20 -24 -24l-12 -30q-35 -51 -59 -67q-17 -4 -32 -4 q-84 0 -146 104q-55 85 -68 168q-3 0 -12 72h4q-4 8 -4 12zM236 1022q92 105 92 176q8 85 8 96l-4 24l8 4l-4 20l4 28q-4 8 -4 12l8 -4q0 44 92 44q39 0 48 -112q0 -120 -80 -204q-13 -15 -36 -28q-18 -34 -52 -56v-4h-8v20q0 8 -8 8l-16 -24q0 -12 12 -12q0 -6 -12 -12 q0 15 -16 20q0 -12 -20 -24h-8v12l4 8q-8 0 -8 8zM312 1066q8 0 8 8h-8v-8zM316 1038h8q9 0 16 32l-8 4q-10 0 -16 -36zM352 1082q8 0 8 8v4h-8v-12z" />
<glyph unicode="k" horiz-adv-x="771" d="M0 113v5q0 10 5 18q-5 8 -5 18v9q1 9 9 9q0 -18 9 -18h10v14q-19 0 -19 9q0 11 9 41q-4 25 -4 36q6 0 18 23v45q1 23 10 23q-5 8 -5 13t5 14l-5 23l14 45q-9 0 -9 9v9q9 18 13 18l-4 9q9 15 9 27q-14 0 -14 10l9 4q0 -4 5 -4v18l-5 9q14 0 14 36l-4 9q7 25 18 36l-4 9v5 q0 9 13 9v14q-10 0 -18 4q13 45 23 55v9l-9 13q0 7 23 68q0 9 -9 9q14 105 32 105q0 3 5 27q-10 0 -10 9q19 127 37 127l-4 27q9 38 37 73v4h-5l-5 -18h-9q0 10 -4 18q20 33 32 100q0 24 9 41h-9v4q20 30 37 78l-5 9q0 18 29 61q20 10 41 10q17 0 35 -7q17 -3 11 -28 q-9 -19 -9 -27v-5h4v14h5q23 -12 23 -18v-14q-14 0 -37 -27v-9q14 0 14 -9q-20 -59 -28 -59h-5v-23l10 5h4q0 -34 -23 -50v-14q14 0 14 -9q-14 -31 -14 -36l9 -32q-9 0 -18 -32q9 -1 9 -9l-23 -68q-7 0 -14 -13v-10l19 -4v-5q0 -8 -14 -40q0 -5 4 -14q0 -32 -27 -86l4 -23 q-14 -32 -14 -45q10 -2 10 -9q-12 -9 -19 -9l5 -9v-28q0 -9 -14 -9l5 -31q-9 0 -14 -41q-7 0 -14 -14v-9q9 0 9 -9h9q40 80 56 86q7 0 18 9l-4 9v9q34 52 78 87q0 14 65 68q0 8 65 63q0 12 60 59q0 22 46 32v9h9v-5q0 -20 -9 -41h14l-5 -9v-4h9l5 23h14q4 -33 4 -37l-13 -9 h-5l-9 5q0 -9 -14 -9q0 -7 9 -41q-7 0 -46 -32l-19 -4v9q-9 -2 -9 -9q9 -2 9 -10v-9h-9l-14 9q-27 -45 -41 -45q-13 -27 -19 -27h-23q0 -14 -4 -14l4 -9v-9h-4l-24 5l-4 -9v-28l4 -22q-45 -43 -50 -64q-24 0 -37 -68q-13 0 -33 -59l-9 5q-7 0 -14 -18q0 -27 83 -73 q34 -10 107 -86q26 0 46 -45q59 -61 74 -100q23 0 32 -64l-9 5v-5l9 -31h5l14 9h4q0 -11 -4 -19l18 -31l9 4h5v-18q0 -4 -5 -4l5 -10v-9l-19 14h-4v-5q0 -25 23 -31v22q9 0 14 -27l-5 -27h-9q0 14 -46 59h-5v-9h-9q0 10 -14 36l-9 -4q-7 0 -19 22l-9 -4h-5q-10 1 -23 41h-14 v-9h-4q-6 0 -19 36h-4q0 -9 -10 -9h-4q-9 0 -9 9q4 9 4 13q-7 19 -14 19h-13v-19h-5q-7 0 -14 14v9q0 5 5 5q-7 18 -14 18q-9 0 -9 -23h-5q-90 59 -97 59q0 12 -83 64l-19 -14q0 4 -4 4q0 -7 -10 -18v-4h10v-23l-14 -23q4 -32 4 -36q-4 -41 -18 -41q-5 9 -5 14h-4 q0 -9 -23 -27l4 -9v-18q0 -8 -14 -50q5 0 5 -5q-17 0 -23 -23q5 -8 5 -13q-11 -4 -37 -32l-19 14l-9 -5q-13 32 -19 32q-4 -24 -4 -27h-14q-9 54 -9 63q13 23 13 32l-9 -5h-9zM23 95l9 -4h5l5 18l-10 4h-4zM51 77q7 -18 14 -18h9v23l-9 -5h-14zM65 118h9q0 7 9 18l-9 5 q-9 -2 -9 -9v-14zM65 177q9 0 9 9l-9 4v-13zM88 404q1 -9 9 -9l5 9v4q0 9 -10 9l-4 -9v-4zM92 150q9 4 14 4v18h-4q-10 -1 -10 -9v-13zM116 181h4q9 0 9 9v14h-4q-9 -1 -9 -9v-14zM120 431h9q0 9 -9 9v-9zM120 812q9 0 9 9l-9 4v-13zM148 209q5 0 14 -5q0 26 4 32l-9 4h-5z M152 966l10 5q-5 8 -5 13h-5v-18zM157 585h9q0 14 10 14q-5 8 -5 18q-11 0 -14 -32zM157 776q9 0 9 9l-9 4v-13zM176 562l9 -4l4 9v9h-9q0 -5 -4 -14zM176 630q0 -6 18 -13l5 9v9q-11 0 -19 4zM176 680l18 -4l9 13v5q0 7 -18 18h-5l-4 -23v-9zM180 930h14q0 9 5 9 q-5 9 -5 13h-9q0 -15 -5 -22zM185 748q9 0 9 14v4h-5zM226 835h5v13h-5v-13zM254 998q2 -9 9 -9v22q-9 -1 -9 -9v-4zM254 1193l5 -23h4v23h-9zM263 1057h10v4h-10v-4zM277 599h5q9 0 9 9v13h-5q0 -8 -9 -22zM282 1143h9v18q-9 -1 -9 -9v-9zM286 1211q2 -9 10 -9l4 9v14 q-6 0 -14 -14zM286 1315q10 0 10 9v9q-10 -1 -10 -9v-9zM291 1084q9 0 9 9h-9v-9zM319 1401h9v14q-9 -1 -9 -9v-5zM356 712q1 -9 9 -9l5 9v18h-5q-9 -1 -9 -9v-9zM379 803h9q9 0 9 9v4h-4q-7 0 -14 -13zM383 757l5 -31q7 0 19 18v4q-10 11 -10 18h-4q-10 -1 -10 -9zM416 830 q6 0 14 14v4h-14v-18zM430 753v4q0 14 64 68v5h10v-5l-70 -72h-4zM448 871h5q9 0 9 9v18q-7 0 -14 -14v-13zM513 190q0 -7 18 -18v18h-18zM550 204h9v5q0 9 -9 9v-14zM582 172h5q9 5 14 5v13q0 7 -14 14h-5v-32zM587 122q1 -9 9 -9h5v14q0 9 -10 9h-4v-14zM587 934h9 q9 0 9 9v14h-9q0 -7 -9 -18v-5zM619 77l9 -4h10v9q0 23 -14 27zM688 5v9h5v-9h-5z" />
<glyph unicode="l" horiz-adv-x="463" d="M29 287q6 27 20 43l-5 44q0 3 5 26q-10 32 -10 39q1 19 21 39q0 19 -11 35q16 40 16 47v13l-5 26q0 5 20 27v43q0 40 25 69l-10 27q5 8 5 13l-5 8q14 48 21 48l-6 22l16 56q-5 9 -5 13l5 9q-5 8 -5 13q0 11 20 39q-5 8 -5 13q5 8 5 13q-10 0 -10 9q15 31 15 35l-5 26l5 8 q-5 8 -5 18v8q0 7 15 13q0 4 -5 26q0 18 15 87l-5 22q14 22 21 74h5l-5 9q0 26 20 39l-5 26q10 100 46 100q36 4 41 4q54 0 81 -65v-5q0 -18 -46 -178l-30 -199l5 -18q-10 -35 -10 -56l10 -5l-16 -30q0 -5 6 -13q-6 -23 -6 -26l6 -31h-6l6 -8q-11 -60 -21 -87q5 -24 5 -35 q0 -38 -15 -56q5 -39 5 -48q-10 0 -15 -26q5 0 5 -4q-12 0 -26 -40q11 -17 11 -26q-21 0 -21 -91q-10 0 -25 -56q-5 0 -5 -5q0 -9 5 -17q-31 -70 -36 -126h-5l5 -9l-10 -82l15 -148h-10q-10 55 -25 74v39l-11 13l-10 -4h-5v30h10v-4l-5 -9l10 -4q0 4 6 34l-11 5q0 -9 -10 -9 h-5v18h-5q0 -7 -10 -18v-35h-5l-10 5v-18h20q5 -7 5 -17q0 -5 -5 -13q5 -8 5 -17q-5 0 -5 -5q13 0 20 -39l-5 -9l10 -43h-10q-46 85 -46 126h5l-20 91l5 26l-5 22q10 0 10 9v13l-10 -5q0 5 -5 5zM70 252q0 -6 15 -13v22h-5q-10 -2 -10 -9zM70 304q1 -9 10 -9v22h-10v-13z M116 39l10 4h5v-4l-5 -22h-5q0 15 -5 22zM136 704h5v13h-5v-13z" />
<glyph unicode="m" horiz-adv-x="1111" d="M34 79q32 45 32 65q0 8 -9 30q6 10 18 112l-9 4q0 -4 -5 -4v9q14 11 14 25q9 0 9 9v9l-14 21q0 14 18 35v4l-4 22h-9v-13h-9q22 61 22 64l-4 9l-9 -4h-5l14 43v4h-9v13q0 11 13 52l-9 13q5 29 5 47v5l-9 -5q0 5 -5 5q9 14 18 69q0 9 -4 17q13 97 13 112l-4 9q13 36 13 69 q-4 8 -4 12q18 8 22 26l-4 18q0 35 22 82q12 0 59 47l18 -4q3 0 27 4q32 -10 32 -17q-7 -56 -18 -56l4 -18q0 -31 -27 -94q0 -17 -41 -164q-9 -69 -18 -95l5 -9q-14 -107 -23 -151h9q0 34 18 48l-4 8v5q0 21 31 94q9 64 37 117q9 0 18 34h4q0 -4 5 -4q13 102 252 280l68 9 q18 -50 27 -138q5 0 9 -13q-9 -16 -9 -34q0 -7 14 -13q-9 -37 -9 -65l9 -4q-8 -26 -14 -26l9 -22l-9 -52q5 -8 5 -12q-10 -74 -19 -74q5 -8 5 -13l-9 -56l4 -17q-18 -24 -18 -108q11 0 27 56h5q0 -30 9 -30q0 5 5 13q-3 17 -14 17q18 35 18 48q0 3 -4 34q7 30 31 43l41 104 q0 25 36 86q0 22 9 22q8 -5 18 -5v5q0 3 -5 34l82 108h4l9 -4q6 36 45 60q0 16 9 26l9 -4h5q6 0 13 21q3 0 59 4q9 -26 9 -77l-5 -9q5 -7 5 -17v-9q0 -30 -9 -47q4 -8 4 -13q0 -4 -4 -35l4 -21q-19 -160 -36 -160v-4l5 -22h-5l-9 5q0 -13 -13 -13v-5l9 -12l9 4h4 q0 -12 -13 -39l-9 4h-5l-4 -17l18 -13q-12 -52 -23 -52q-9 0 -13 -38q4 -9 4 -13q-17 -56 -22 -56l4 -22v-4q0 -5 -13 -61l4 -21q-13 -5 -13 -26l4 -22q-4 0 -4 -4q4 0 4 -4q-10 0 -13 -30l4 -9q-4 -8 -4 -13q4 -23 4 -26q-4 -17 -18 -17v-9l9 -13v-4h-13v-9h4l14 9h4v-4 l-9 -13q5 -9 5 -13q-9 -5 -14 -5v-21l-4 -9h18l-5 -17v-13q-9 0 -9 -30l14 9q0 -5 4 -5q-4 -4 -9 -56l9 -4q0 -9 -4 -9q4 -76 13 -103l-4 -30l9 -26q-5 -8 -5 -18q5 0 5 -4l-9 -4l4 -9v-8q-9 0 -18 38q-17 0 -36 121q5 17 5 30q-8 14 -14 39q9 0 14 26q-7 0 -14 13q0 4 9 34 v9l-13 17q11 0 18 43v5q0 6 -14 13q0 12 14 38q-5 24 -5 35q0 8 9 22q-9 28 -9 38v9l9 13l-4 30q0 8 13 39q-9 16 -9 34q23 48 23 61q-9 0 -9 8v9q13 0 22 173q9 0 9 8v4l-9 13l14 18q-5 38 -5 47q23 40 23 48q-7 0 -14 12q0 14 5 31q-5 69 -18 69l-32 -18q-35 -27 -41 -56 h-13q-5 -7 -5 -17l5 -9q-12 -47 -27 -60q0 4 -5 4q-6 -17 -13 -17l4 -8v-5q-12 -64 -31 -64q-5 -51 -14 -69v-13q-18 0 -18 -22q5 -13 9 -13q-15 -73 -22 -73q-34 -118 -45 -147l-28 -99l5 -17q-54 -72 -54 -87v-4l4 -17l-13 -9v9h-5v-4l5 -9q0 -20 -59 -60h-4q-14 4 -14 25 l5 9q-32 0 -32 35q-4 0 -9 86l9 17q-4 23 -4 39l9 30v13l-9 13q13 14 31 43l-4 22v4q1 24 13 47l-4 22v4q28 169 40 186l-4 21q0 21 4 43q0 9 -4 9l4 43v69q0 19 -9 35q5 21 9 21q-15 74 -27 74h-4q-65 -42 -95 -91q-24 -20 -72 -108q-20 -31 -32 -108q-17 -26 -36 -125 l-22 -64l4 -22q-14 -29 -14 -47v-9q-10 0 -18 -22l5 -8l-14 -52q5 -8 5 -17l-14 -9l5 -8q-15 -69 -27 -104l4 -9q-31 -80 -40 -125h-9q-63 22 -63 61q-9 0 -23 17zM39 135v4q3 26 9 26l-5 9v4h9v-8q0 -32 -13 -35zM39 200v4q4 8 4 13h9v-4q-4 -9 -4 -13h-9zM61 342v4 q1 9 9 9v-13h-9zM115 303h5l4 17v13h-4l-5 -25v-5zM124 342h5q22 89 22 147q-13 -5 -13 -26q4 -9 4 -13l-9 -4l5 -9q-5 -43 -14 -52v-43zM147 506h9v39h-5l-4 -30v-9zM602 398h9v4h-9v-4zM620 437q2 -9 10 -9v13h-10v-4zM661 575h5v17h-5v-17zM855 -145v-5q5 -7 5 -17h4v9 q-4 8 -4 13h-5zM860 937h9v9q-9 -2 -9 -9zM869 221h4v9h-4v-9zM891 -244q12 -3 27 -31v-4h-4q-5 0 -23 30v5zM914 -244h9v-5q0 -8 -9 -8v13zM918 420v4h9v-4h-9zM972 752h5v8h-5v-8z" />
<glyph unicode="n" horiz-adv-x="804" d="M17 361l4 20v40q0 11 8 24q0 3 -4 24q0 12 8 32q0 4 -4 4q40 276 64 276l-4 20q40 92 40 120q5 0 20 20l-8 20h8q0 -9 24 -20v-8h-8v-4q1 -8 8 -8q0 6 12 12q20 -14 32 -40q0 -25 -12 -60q0 -4 4 -12q-4 -22 -4 -36q0 -12 4 -28q-4 -15 -4 -32v-16q0 -9 4 -16 q-4 -7 -4 -16t4 -44q-4 -8 -4 -12q4 -7 4 -16h8q39 106 72 144q5 36 20 36q0 17 60 92q9 20 12 20l-4 8v8q0 28 32 28q44 69 44 88h12v12q0 11 8 24q16 -4 16 -16l12 8l-4 20l4 8q-4 8 -4 12l16 12l16 -20q0 4 4 4l-4 8v4q18 0 32 12h8l12 -8q1 8 8 8l8 -12q-4 0 -4 -4h20 q0 12 8 12q12 -10 16 -56q-15 -27 -28 -108h-4l4 -28v-16l-8 -12l4 -28q0 -7 -8 -32l4 -24v-4q0 -28 -8 -28l4 -8v-12h-12v-12h8v-28q-20 -24 -32 -24v-4q8 -20 24 -20v-16q0 -8 -8 -8l-8 4q-8 -13 -8 -24l12 -8q-12 -32 -12 -36q4 -28 4 -32q0 -7 -8 -24q8 -20 8 -32h-4 q0 -4 4 -4q-3 -28 -8 -28l4 -8q0 -8 -8 -8l-8 4l-4 -8v-12l20 4q-8 -28 -8 -32v-68h-12v-16q1 -8 8 -8q0 4 4 4q0 -4 4 -12q0 -14 -20 -28v-20l16 12h4v-4l-4 -16q12 -32 12 -40l-4 -8q14 -76 40 -76l-8 -20q27 -34 36 -64l-8 -20q5 -20 12 -20q1 8 8 8h4q8 -1 8 -8v-4 q0 -4 -4 -4q6 -16 12 -16l8 4q0 -6 16 -24l-4 -8q0 -11 20 -20q1 8 8 8q0 -12 16 -12q24 0 24 16h8q0 -4 4 -12l-8 -16h8v-12l-24 -20q6 0 12 -12v-4q-6 0 -16 -12q-8 0 -8 8q8 0 8 12l-4 20l-20 -4l8 -12q-4 -8 -4 -12q-15 12 -28 12l4 -8l-12 -8h-8l4 20v4q0 6 -12 12h-4 l-4 -16h-12v16q12 0 12 4q-9 24 -16 24h-12v-4l8 -16l-8 -4q-5 0 -20 20q0 8 12 8v16q0 8 -8 8q-10 0 -12 -16h-8v28q0 8 -8 8l-8 -4q-16 19 -16 40q4 0 4 4q-16 0 -16 16q8 13 8 24q0 6 -16 12q0 -4 -4 -4q0 4 -4 4l4 8q-12 22 -12 44q6 0 12 12v8q-6 0 -24 12h-4v12 q0 17 -4 32l4 16l-12 160l4 20q-4 16 -4 32v24q-16 0 -16 12v4q12 0 12 8v32q-12 0 -12 8q9 24 12 24q-12 23 -12 40q7 0 16 28q0 4 -4 12q4 96 12 180q-4 7 -4 16q3 34 16 52q-16 0 -16 76q4 8 4 12q-8 0 -8 12h-4q-8 -1 -8 -8q0 -11 8 -24q0 -17 -56 -96 q-70 -118 -84 -176q-14 0 -52 -156l4 -8q-8 -15 -20 -84v-4q1 -8 8 -8q-20 -33 -20 -44l4 -16l-8 -4l4 -28v-4q-16 -14 -16 -28l8 -12q-12 -28 -16 -28l4 -8v-12h-4q-8 0 -8 12h-4l-44 -124q-28 -19 -28 -52l-36 -40v8l4 8q-11 0 -12 20h-8l-12 -8l4 -8q-4 -8 -4 -12h-12 q-22 19 -36 60q-8 0 -8 12q0 57 -12 124q0 4 4 4l-8 52l4 8q-9 88 -12 88zM81 49h12v16h-4q-8 -1 -8 -8v-8zM145 145h4v8h-4v-8zM253 437h8v8q-8 -1 -8 -8zM325 565v8q8 -1 8 -8h-8zM361 829q8 0 8 8v8q-8 -1 -8 -8v-8zM401 913h16v12q0 8 -8 8q-8 -1 -8 -8v-12zM513 177 q1 -8 8 -8v8h-8zM513 229h8l4 16q-4 8 -4 12q-8 -1 -8 -8v-20zM537 101l4 -20q8 0 8 8q-5 20 -12 20v-8zM537 213q1 -8 8 -8q0 9 4 16h-12v-8zM537 493q1 -8 8 -8l4 8v8h-4q-8 -1 -8 -8zM549 165h4v8h-4v-8zM561 145q8 -25 8 -28h4v8l-4 20h-8zM573 5q20 -10 20 -16v-4h4v12 q-15 28 -20 28h-4v-20zM573 53h8v16h-8v-16zM573 793h4v8h-4v-8zM601 37h12v12q0 8 -8 8h-4v-20zM605 -11v-8h4v8h-4zM621 -35q7 -31 40 -52v4q-8 0 -24 32q8 0 8 8v8q0 6 -12 12h-4q0 -12 -8 -12zM661 -63v-8h8q0 8 -8 8zM677 -103v-4q4 -12 24 -12h4v4q-4 12 -24 12h-4z M681 -79v-8h8q0 8 -8 8zM713 -139h4v-8h-4v8z" />
<glyph unicode="o" horiz-adv-x="824" d="M0 221l5 32v9q0 19 -5 37q5 18 5 37v28q25 33 25 50v14q0 11 -5 19l26 55l-5 41q23 0 30 69q5 0 5 5l-5 23q24 0 45 97q22 23 36 60q12 41 76 110q24 19 61 74q12 0 45 50q84 54 91 65q0 12 41 23q15 23 35 23l46 -60q0 -113 -66 -152q-41 -57 -41 -78q17 0 26 -5 q0 5 5 14l-5 28q16 0 45 23q21 0 86 69q10 0 31 18h15q71 -20 71 -55v-9q0 -5 -5 -5q0 -11 40 -41q0 -43 -76 -125q0 5 -5 5q0 -25 -10 -41q5 -26 5 -37l-10 -28q10 -15 10 -28q0 -9 -35 -64v-14q1 -9 10 -9q0 7 15 14q0 -5 5 -5q0 -12 -30 -55v-9h-6q-10 0 -10 14h-10 q-15 -36 -15 -51q10 -2 10 -9q-5 -65 -20 -65l-10 5l-10 -14v-9q15 0 15 -9v-14l-56 -83q-25 0 -45 -69q-9 -22 -112 -102q0 -10 -50 -46h-15q-5 0 -5 5q-14 -3 -26 -23l-25 5h-10l-10 -5l5 -9v-5q-38 -9 -46 -9q-10 12 -10 23l-10 -5q-61 24 -76 37q-6 0 -56 69q5 8 5 19 q-1 8 -25 37q10 15 10 27q0 7 -20 14zM56 101h5v10h-5v-10zM86 87h5v14h-5v-14zM126 214q3 -35 45 -56l54 -3q130 72 183 181q66 91 135 317q13 35 13 61q0 23 -10 39q-8 23 -22 28l-16 5q-19 -10 -39 -25l-38 -28q-12 -51 -41 -51q0 -10 -10 -10l-11 5q-9 -5 -15 -5v5 l15 23q-5 9 -5 14q-33 25 -47 25q-10 0 -9 -14q-8 2 -21 -4l-22 -11l-20 -17l-56 -135l-46 -150q-19 -70 -19 -143q0 -25 2 -51zM332 743l53 -29l5 9v32h-5q-20 17 -32 17q-16 0 -21 -29zM405 792q35 18 35 41l-10 5h-5zM688 737v9q10 -1 10 -9h-10z" />
<glyph unicode="p" horiz-adv-x="1010" d="M-110 -625q17 65 40 88l-5 26q24 47 51 198q25 44 70 302q25 35 25 84l86 359q15 31 45 172q29 114 56 167v5q5 0 5 -5q20 8 20 15l-10 21q9 22 30 47q89 -47 91 -57q7 -21 15 -21q143 171 186 198q62 83 121 109q0 37 15 37q27 -5 30 -5q17 10 26 10q40 -22 40 -89 q20 0 35 -83q25 -73 25 -104v-37q0 -131 -105 -297q-99 -157 -217 -291q-96 -117 -227 -151h-5q-5 0 -5 5q-29 -26 -106 -42q0 5 -5 5q-5 -15 -10 -15l5 -11v-21q-20 -26 -20 -31q5 -28 5 -47q-22 -1 -60 -172q-35 -94 -61 -260l5 -21q-5 -28 -5 -47q16 -29 16 -41 q0 -13 -26 -99l5 -21q-52 -17 -75 -58h-10l-20 16q-16 -5 -16 -31h-10v21q0 30 -20 52v47q-10 12 -10 20l-15 -10h-5l5 26v5zM293 224l8 -2q45 11 82 17q39 24 78 66q30 36 53 72q87 107 140 194q78 136 78 190q0 56 -16 78q-14 7 -22 12l-21 -7q0 -6 -22 -12l-13 -14 l-15 -7q13 -26 -4 -24q-7 -11 -17 -23q-33 -5 -33 -40v-8q-23 -4 -30 -49h-1q-12 0 -96 -116q-35 -52 -66 -124q-67 -132 -73 -172z" />
<glyph unicode="q" horiz-adv-x="1000" d="M13 353q61 270 253 472q126 165 277 221q51 29 223 63q71 0 108 -102l12 5q12 -1 12 -11v-6l-30 -45l6 -12q-12 -1 -12 -11v-45q28 -36 30 -46q-6 -11 -6 -17l6 -23q-2 -17 -30 -40q12 -1 12 -11q-40 -29 -48 -62q-12 0 -12 -40l6 -12q-34 -66 -54 -91l6 -11v-11 q0 -33 -49 -97q0 -31 -24 -51q6 -11 6 -17q-22 -44 -30 -85h-6l-18 11l-18 -23l12 -6l12 6l6 -11v-12q-29 -27 -36 -62q6 -10 6 -23q-24 -8 -24 -17q12 -2 12 -11q-6 -27 -36 -52l6 -28q-8 0 -30 -91q-10 0 -30 -102l-24 -12q0 6 -6 6v-23q12 -1 12 -11v-6q-30 -93 -42 -113 q12 0 12 -18q-28 -50 -49 -176l6 -11q-10 -21 -18 -57l6 -34q-12 -55 -12 -63v-45l-18 -23l6 -11q-36 -8 -36 -23q-36 7 -36 17l-12 -6h-18q-9 0 -18 17v6q0 6 6 6q-6 11 -6 17t6 6l-6 28v11l108 307q79 234 79 273q12 0 42 125q16 6 48 165q7 5 42 91v23h-12v6l48 91v22 l-12 17q36 26 36 63l-12 23l18 34l-6 40l6 28q-15 0 -48 -57l-60 -68q-14 -40 -24 -40h-18q0 17 -12 17l-18 -28q6 0 6 -6l12 6h6v-6q-9 -40 -24 -40q0 6 -6 6l6 11l-6 12q-24 -6 -24 -29l24 -11q-9 -23 -31 -34h-6v6q0 5 6 5q-6 17 -12 17q-24 -8 -24 -17v-23h12l12 6v-17 q-10 0 -42 -57v6q-19 0 -30 -46h-6q0 12 -12 12l-24 -40q-42 -37 -42 -51h-6q-6 0 -6 6l-84 -63q-12 0 -12 11h12v12h-18l6 -12h-6q-50 18 -121 86q-36 49 -36 142zM133 250l12 6q-6 11 -6 17h-6v-23zM139 290q12 0 12 12v5q-12 -1 -12 -11v-6zM157 228l31 -6l114 63 q0 9 54 45q175 206 175 222q4 34 30 34q0 -6 6 -6l-6 -11v-17q9 0 18 23l-6 22q28 57 90 142v6l-12 17v12q0 8 18 17q2 -12 12 -12h12q0 17 12 17l-6 12v17q16 28 24 28q0 -6 6 -6l-6 -11q6 -10 6 -23l25 17q-7 7 -7 35l31 -6q36 34 36 57q0 20 -18 57q-115 -32 -217 -103 q-172 -149 -217 -199l6 -11q-54 -27 -54 -34q18 0 18 -12q0 -8 -18 -17q-6 0 -6 6q-30 -7 -30 -17v-6q18 0 18 -11v-6h-6q-12 6 -18 6q0 -7 -30 -29l24 -11q-25 -69 -72 -102v-17h12v-6q0 -11 -36 -17q0 6 -6 6l-7 -29h13l18 12v-12q-31 -90 -31 -136zM200 575q2 -12 12 -12 h6v23q-12 -6 -18 -6v-5zM212 489q12 0 12 12v5q-12 -1 -12 -11v-6zM284 671h12v6h-12v-6zM326 711h12v6h-12v-6zM338 290h6q12 0 12 12v5h-6q-12 -1 -12 -11v-6zM380 324q9 0 18 17v12q-13 0 -18 -29zM416 -352h12q12 0 12 11v6q0 11 -12 11h-6zM489 -131v-11h6v11h-6z M501 -91v-11h6v11h-6zM597 216h6v12h-6v-12zM597 603q6 0 18 -6l6 12v11q0 11 -12 11l-12 -17v-11zM621 216h6v12h-6v-12zM633 654q2 -11 12 -11q12 0 12 11l-6 29h-12zM663 529q12 0 12 11v6h-12v-17zM675 609h12q0 11 -12 11v-11z" />
<glyph unicode="r" horiz-adv-x="656" d="M0 161q31 49 45 128q29 38 29 70q0 7 -10 129q5 10 5 16q-15 0 -15 59v10q0 6 5 6q-14 17 -14 177v26q0 12 -5 22q5 9 5 21v97q14 80 14 102l-5 37q0 20 30 43q45 -36 119 -80l15 -33v-26q-35 -91 -35 -102q5 -38 5 -43q-10 -40 -10 -75v-11q98 186 119 209 q153 213 278 252q69 -7 69 -32q0 -27 -35 -75v-6h-15q-36 0 -94 -123q-7 0 -89 -96q0 -18 -39 -54q0 -20 -40 -96q-69 -204 -99 -359q-15 -47 -20 -204q-37 -150 -94 -150q-60 44 -60 86q-59 20 -59 75z" />
<glyph unicode="s" horiz-adv-x="668" d="M0 71q0 4 3 10q-3 18 -3 31v13q0 46 87 169q86 95 161 132q17 13 46 20v-3q35 5 61 23v-6q-66 -49 -77 -65q-42 -38 -91 -135v-13q94 68 181 179q30 47 30 78q0 34 -164 97q-97 45 -97 71q-7 0 -7 7q0 40 21 78l-4 7l4 17q-7 22 -7 30q10 67 164 230q81 57 130 57h4 q54 0 70 -44q0 -4 17 -13q13 34 13 54q3 0 3 10h14v-7l-7 -10l10 -13l-7 -17q7 -11 7 -21q0 -7 -3 -13q0 -3 3 -3q-8 -55 -50 -183q-6 -108 -30 -122h-7q-17 9 -17 27q0 20 7 82l-7 13q0 3 4 3q-5 71 -20 71q-91 -21 -178 -115q-5 0 -50 -43q18 -15 208 -119q76 -58 76 -88 q17 -8 17 -27v-10q0 -39 -27 -118q0 -13 -23 -61q-4 -1 -40 -54q-97 -91 -151 -115q0 -10 -6 -10l-7 3q-72 -59 -94 -60q0 -5 -16 -17l-7 3q-17 -24 -20 -24q-4 0 -4 4l-40 -31q-8 -10 -43 -30h-10q-20 16 -20 57q-7 0 -7 14zM271 933l7 -4l6 10v4q-13 -5 -13 -10z" />
<glyph unicode="t" horiz-adv-x="570" d="M0 833q0 21 24 26q1 8 19 15q7 -4 16 -4h4v4l-8 11h4l12 -8q103 30 133 30q43 85 58 149q10 5 28 81q9 2 23 80q24 72 32 84v8q0 85 51 124q86 -14 86 -40l4 -15q-16 -1 -67 -139l-51 -58l4 -8v-11q0 -10 -16 -10l4 -8l-35 -69q0 -19 -23 -51q4 -8 4 -11q-18 -7 -20 -15 v-7q16 -2 16 -11l-24 -41q8 -1 8 -7q-8 -12 -8 -18q10 -7 16 -7q27 0 86 -4q129 41 129 62h8v-4q-71 -84 -102 -91l4 -7v-11q0 -8 -8 -8q0 15 -8 15h-3v-4l3 -7q-43 -69 -97 -69q-71 -16 -71 -33v-19l8 4h4v-11q0 -16 -16 -29l4 -7v-15q-10 -16 -20 -44q-3 0 -3 -4v-29 q-16 -53 -24 -62q4 -6 4 -15q-11 0 -20 -54v-8h-7q0 11 -8 11l-8 -11q0 -4 4 -11q-12 -41 -24 -102q-4 0 -4 -4v-11q-11 -99 -11 -109l4 -8l-4 -14q0 -84 35 -84q35 -4 35 -8l47 11v-3l75 33h3q4 0 4 -4l47 33q6 0 98 84v-4l-31 -62q0 -21 -31 -55q0 -5 -8 -14l-8 3h-8 q-3 -18 -12 -18v11h-7q-8 0 -8 -11l4 -7q0 -28 -71 -66q-8 0 -31 -22q-4 0 -4 4q-18 -11 -24 -11q-4 0 -11 3q-30 -3 -40 -7l-23 4h-12v3l12 19v7h-27l-16 -11q-6 0 -16 15v3l8 -3h12v7h-16l-8 -4q-18 43 -23 44q-4 0 -4 4v3q0 4 4 4q-11 23 -20 91l8 15q-6 0 -16 15 q4 11 8 11l-4 7v4l4 18q-8 0 -8 7v8q0 25 8 40q-8 0 -8 11l8 25l-4 15q23 169 36 186q-8 0 -8 8q15 15 27 91q9 0 24 70q10 5 27 51q0 22 -63 25q-4 7 -4 11h-23l-12 8l-8 -4q-16 0 -31 25zM39 833h8v4h-8v-4zM102 219h4v8h-4v-8zM153 409v15h8v-15h-8zM172 22q4 0 12 -4 l4 8v7h-4q-6 0 -12 -11zM259 55q7 3 11 3v8q-7 -4 -11 -4v-7zM290 62q1 -7 8 -7q8 0 8 7v4q0 7 -8 7h-8v-11zM309 88q2 -8 8 -8h4q6 0 12 15l-8 4q-16 -6 -16 -11zM317 812h16v7l-4 7q-8 -3 -12 -3v-11z" />
<glyph unicode="u" horiz-adv-x="1005" d="M16 147q0 76 95 361q76 196 171 413q54 158 94 188h6q0 -8 53 -64l6 -21q-77 -157 -137 -304q-13 -68 -36 -99q-15 -64 -18 -97q-40 -51 -79 -117l-32 -115q-3 -23 -3 -41q0 -54 25 -54q28 0 88 69q71 92 107 188q23 60 71 123q57 81 57 127q0 4 -1 9q16 26 25 49l15 36 q14 28 90 141q56 85 94 112l24 -22q0 59 18 59h11v-11q0 -5 -6 -5q6 -10 6 -16h18v10l-6 27q9 0 18 16q112 0 112 -58q12 -76 12 -107v-111q0 -12 -6 -22l6 -10q-6 -57 -12 -69q6 -10 6 -22q0 -8 -12 -42l6 -21q-12 -40 -12 -48q6 -28 6 -32q-12 -40 -12 -48q0 -5 6 -5 q-17 -118 -35 -181l6 -21l-30 -191v-6l6 -10q0 -6 -6 -6q12 -139 30 -175h-6l6 -11v-5h-12v-11q2 -10 12 -10v10h6q8 0 17 -16q-11 -1 -11 -10q11 -2 11 -11l-11 -16l11 -16v-21l-11 -16q-54 20 -54 37l-11 -5q-48 57 -48 69l12 -5h12v16q0 7 -18 16q0 -16 -12 -16h-5 q0 15 -36 90q0 16 -29 181q0 4 6 32q-12 19 -12 42v5q0 11 17 11v16q-17 0 -17 11v31q2 11 12 11q-12 19 -12 48l12 37q0 4 -6 32l11 48l-5 21q5 39 11 48q0 5 -6 5q18 105 18 144v5q18 19 18 37q-12 0 -12 16q18 50 18 53q-12 0 -12 16q0 14 12 53q-12 22 -12 32h-6 q0 -6 -47 -79v-16q-32 0 -59 -96v-16h-6l-12 5q-20 -85 -59 -138h-6l-12 5q0 -12 -18 -42l6 -11q-4 -43 -47 -95q0 -31 -29 -43q0 -21 -54 -106q-46 -100 -141 -186q-69 -96 -113 -96q-106 0 -106 133zM560 668h5v11h-5v-11zM725 -7v-5q8 0 18 16h-6q-12 -2 -12 -11z M796 -129q6 -11 6 -16q-6 0 -6 -6l18 -10q11 0 11 10v16l-11 16q-18 -5 -18 -10zM843 -172q2 -10 12 -10q8 0 18 16l-12 5h-6q-12 -2 -12 -11z" />
<glyph unicode="v" horiz-adv-x="705" d="M0 977q0 61 46 81l27 -4q32 25 37 25q26 0 46 -30q55 0 55 -42v-43q0 -4 -5 -4l5 -9v-25q0 -37 9 -56q-5 -23 -5 -38q0 -14 5 -21q-27 -410 -50 -410v-9q0 -4 4 -12q-4 -28 -14 -43q5 -23 5 -34l-5 -17q45 63 161 371q70 158 142 264q0 24 188 282h9l-23 -68l5 -9 l-19 -47q0 -4 5 -13q0 -18 -41 -110q-129 -339 -129 -350l-105 -333q-21 -35 -41 -90q-60 -102 -64 -128q-25 0 -33 -51l-22 -4v4l-10 -4q-36 5 -36 17q4 0 4 4q-23 0 -64 47q-23 54 -23 73q5 13 9 13l-4 8q0 21 9 21l-5 9v17q2 9 10 9l-5 21q0 4 5 4q-10 49 -10 60h5l-5 8 v5q0 40 -4 81l4 30q-9 30 -9 47q0 4 5 12q-8 31 -19 214q-4 0 -4 21q0 3 4 26q-9 32 -9 34q5 12 9 12l-13 26l4 26q-9 0 -9 8q0 4 5 4q-14 29 -14 39l5 8q-28 63 -28 73z" />
<glyph unicode="w" horiz-adv-x="1033" d="M4 207q28 31 36 93q4 0 4 5q0 10 -4 17q18 43 36 186q6 2 18 79h4l-4 9v5q0 8 13 8q0 4 -4 27q0 20 13 40v40q7 44 18 44l-4 17q18 112 36 137q-5 9 -5 14l5 8l-5 9q23 32 32 124q-5 9 -5 13l5 9l-5 9q7 18 14 18q0 -7 31 -40v-22q0 -5 -4 -5q4 -6 4 -26h5q3 0 22 22h5 v-4q-23 -37 -23 -67h9v-13q-12 -35 -27 -35v-5l9 -13q-20 -64 -36 -80v-13q8 0 32 31v-4l-32 -80q9 -24 9 -26q-18 -9 -18 -27q7 0 14 -13v-18q0 -9 -9 -9l-5 9l9 5q-7 17 -13 17l-18 -13q0 4 -5 4v-4q14 -17 14 -40v-13l-14 -18l5 -22l9 5h13l-4 -27h-5q-9 0 -9 18h-4 q-13 -63 -32 -80l9 -4q18 17 18 35h5l13 -9q-45 -55 -45 -101l5 -9q-15 -53 -27 -53v-13l9 4h9v-4q-27 -50 -27 -102q-5 0 -5 -9h5q77 68 166 256q11 9 117 239l76 141q-4 38 -4 62q7 0 18 18l-5 44q14 21 50 40q0 13 27 26h4l9 -4l-4 -9v-13h4q9 0 14 49l9 4q2 -22 27 -22 l-5 9v4q0 10 49 18l5 -9l9 4h4q27 -16 27 -39q-4 0 -4 -5q4 0 4 -4q-6 0 -13 -13v-5q18 0 18 -9q-3 -13 -23 -35q0 -22 14 -22q-1 -20 -18 -40l4 -31h-13v9h-9q-14 -4 -14 -27l14 -8h4l14 8h4v-26q-13 0 -13 -13h-27q0 -10 -5 -18q5 0 5 -4q-23 -27 -31 -27q0 -6 13 -13h4 q11 0 18 35h9l9 -4q-9 -28 -22 -49l4 -22q0 -22 -27 -57l5 -27q0 -11 -49 -146q4 -7 4 -17h-9v13q-6 0 -13 -13v-18h9q0 13 9 13l4 -9l-4 -22q9 0 9 13l9 -4h4v4h-9v5q27 33 27 53v13q22 0 22 44q3 26 36 71q0 20 54 124q0 50 45 79q0 22 18 22v23q0 28 45 83l18 40l45 80 l27 57q57 112 153 230v-4q-36 -93 -77 -164l5 -9v-13q-36 -70 -36 -80v-13q-23 0 -23 -17l5 -9q0 -27 -14 -27l5 -31v-4q0 -21 -31 -66l4 -18q-18 -71 -40 -71l4 -44q-7 -35 -13 -35l4 -9v-5h-4l-14 9q-9 -14 -9 -22q5 -31 5 -35q-9 -18 -9 -31q6 -18 13 -18 q-15 -46 -45 -75q0 -6 14 -13q-11 -75 -32 -75l9 -18q-3 -34 -49 -84l9 -13q0 -14 -36 -89q0 -23 -14 -26l5 -9v-4q-42 -48 -77 -133q-21 -34 -26 -35q-26 -58 -54 -58q-23 -27 -23 -39l-9 -5h-4q-9 0 -9 13l-9 -4l4 -9q-9 -14 -9 -22h-9q-2 0 -22 18q-9 -5 -14 -5 q-31 35 -31 53h4l14 -9l4 18l-9 5l-13 -9q0 4 -5 4l9 18q-9 18 -9 26h-9l-18 -13h-4v13q10 22 13 22q-13 36 -13 40l31 58q0 13 -18 13v22l32 53l-9 13q0 5 4 5l-4 9l18 26l-5 9v9q0 9 18 70l9 -4h5q0 9 4 9q-4 8 -4 17h-5v-8h-9q0 10 -4 17q22 38 22 45l-4 22q8 44 13 44 l-4 9q4 28 13 48q-4 8 -4 18q9 0 13 49q11 0 27 119q5 0 5 13h-9q0 -18 -23 -26q-4 -18 -18 -18q9 -11 9 -18q-7 -37 -36 -66v-40q-22 -40 -31 -75l4 -9q-9 -22 -9 -35q5 -8 5 -18l-23 5q0 -18 -9 -18q9 -15 9 -27q0 -10 -13 -39q4 -8 4 -18l-9 -4q0 8 -9 8h-4q0 -13 -9 -13 q0 -3 4 -26q-9 -40 -9 -58v-9h-4l-14 9l-9 -17q18 -5 18 -27q-9 0 -18 -18l5 -22v-9h-5l-22 5l-9 -18h9q0 -47 -76 -119q0 -5 -5 -13q5 0 5 -5l-9 -4q-5 8 -5 13q-6 0 -27 -27q5 -7 5 -17h-5l-9 4l-22 -40l-5 31q-51 -66 -76 -66h-5q-22 13 -22 27q4 13 4 35q-22 0 -22 13 l4 9q-9 16 -9 40l5 22q-8 0 -27 57zM40 115h13v4q0 9 -9 9l-4 -9v-4zM76 84l9 -5h4l5 18h-5q-6 0 -13 -13zM80 31l9 -5v13q-9 -1 -9 -8zM103 57q1 -9 9 -9l9 14q-5 8 -5 13q-6 0 -13 -13v-5zM121 287v4q4 8 4 18h9v-9q0 -6 -13 -13zM125 13v4h9v-4h-9zM130 79l9 -4h9v35l4 9 l-9 4q-13 -31 -13 -44zM134 362v13h14v-4q0 -9 -9 -9h-5zM139 428v9q1 9 9 9h4v-9q0 -9 -9 -9h-4zM166 176q6 0 13 18h-4q-9 -1 -9 -9v-9zM170 720q18 6 18 40v4q-6 0 -18 -22v-22zM193 150l9 -5v23h-5q0 -10 -4 -18zM202 954h4l5 18h-9v-18zM233 176q7 0 14 14v4h-9z M233 994h5v9h-5v-9zM269 212l9 -5v14q-9 -2 -9 -9zM327 406q0 -6 14 -13v4q0 9 -9 9h-5zM359 503q4 -8 4 -13h9v9q0 9 -9 9q0 -5 -4 -5zM390 587q5 -8 5 -13q9 0 9 9v13h-5q-9 -1 -9 -9zM399 150q2 -9 9 -9l5 9l-9 4h-5v-4zM422 680l13 -9l9 14v4q0 9 -9 9q-6 0 -13 -18z M431 738q9 0 9 8v5h-9v-13zM453 389h9v17h-9v-17zM458 755h13v22h-4q-9 -1 -9 -8v-14zM503 1016q9 0 9 9v4h-9v-13zM525 888h5v9h-5v-9zM530 1016h9v4h-9v-4zM530 1038q0 -6 13 -13v4q-4 8 -4 18h-9v-9zM579 574h5v13h-5v-13zM597 698q14 4 14 26q-14 -4 -14 -26zM615 738 q1 -9 9 -9h9q0 10 4 17l-22 5v-13zM624 852h9q0 5 4 14h-4q-9 -2 -9 -9v-5zM624 910h9q0 15 4 22h-4q-9 -1 -9 -9v-13zM646 857h9v13q-9 -1 -9 -9v-4zM660 941h4q7 0 18 18v8h-9q0 -13 -13 -13v-13zM817 680q2 -9 9 -9q9 0 9 9v5q0 8 -9 8q-9 -1 -9 -8v-5zM849 817h4 q9 0 9 9q-4 9 -4 13q-9 -1 -9 -9v-13zM849 879h13q-4 9 -4 13h-5q0 -4 -4 -13zM880 906l9 -5l5 40q-14 -3 -14 -35zM912 1007q0 -6 13 -13q0 13 4 13q-4 7 -4 27q-13 -5 -13 -27zM912 1065q9 0 9 13v4h-5z" />
<glyph unicode="x" horiz-adv-x="845" d="M-3 56v4q0 46 68 228q53 158 164 324q-158 311 -160 392q-6 52 -52 92v8q0 6 12 12h32q0 10 60 48h8q8 0 60 -24q31 0 44 -52v-8q0 -9 -4 -16q20 -33 20 -44q0 -4 -4 -4q19 -52 48 -100q31 -113 56 -136q111 164 408 480h4q0 -8 8 -8q0 -8 -8 -8l-8 4q-8 -16 -12 -16 q8 -13 8 -24h4q74 84 84 84v-4q-76 -115 -76 -132l-32 -44q-8 -1 -8 -8v-20q-20 -3 -20 -20l4 -20h-4l-8 4q0 -40 -48 -100q0 -16 -20 -28l4 -8q-38 -54 -164 -292l-20 -32q56 -151 100 -292q17 -32 48 -132q5 0 32 -56q10 -27 48 -84v-4h-4q-47 60 -56 60v-8q16 -26 32 -64 l-12 8v-4q9 -24 16 -24h12l4 -20h-8q-70 65 -164 212q-83 143 -148 228l-184 -312q-44 -76 -112 -100h-4q-48 8 -48 60zM589 80q6 -16 12 -16v4q-4 8 -4 12h-8zM593 1040h4v8h-4v-8zM609 44q6 -16 12 -16v4q-6 16 -12 16v-4zM633 1100q8 0 8 8v4q-8 -1 -8 -8v-4zM645 1052h8 v12q-8 -1 -8 -8v-4zM665 1000q8 0 8 8v4h-8v-12zM669 1088h4v8h-4v-8zM689 1120h8q0 4 4 12h-8q0 -4 -4 -12zM721 1192h12v-4l-4 -8h4q8 0 8 12q-6 16 -12 16q-8 -1 -8 -8v-8z" />
<glyph unicode="y" horiz-adv-x="865" d="M-231 -659h8q3 -49 20 -49v4q-4 8 -4 13h8q8 -22 8 -25h4v4q-12 38 -12 69v49h4l8 -4q13 32 20 32l8 -4v41h-4q0 -16 -8 -16l-4 8q28 31 28 73q28 48 28 65h4l8 -4q6 40 16 40h4q0 -9 -24 -69v-57l-8 -12v-4q16 -1 16 -28h4l8 4l-4 8l4 20q-4 16 -4 33h8l4 -17h4v17 q0 12 -4 12l4 20v45h-8v8l20 4q0 -10 8 -20v-4h-4l-8 4q0 -8 -4 -8q7 -12 12 -49h4q8 70 8 113h4q11 -20 16 -20q7 0 12 -28l-12 -20l12 -17v-28l-4 -20q11 0 28 -94q9 0 24 -24l12 -8q0 21 36 40q0 7 48 61q0 21 32 21v4h-8q0 11 88 142q0 14 19 21q4 11 14 23l82 189 q66 134 201 708q42 162 44 183l-32 -91q-47 -67 -76 -211l-35 -79q-17 -40 -46 -103q-14 -33 -30 -66q-23 -15 -49 -42q-37 -39 -115 -101q-43 -27 -74 -67q-21 -25 -26 -25l-28 4q-28 -4 -48 -4q-28 47 -28 56q9 39 14 65l-6 15q-1 21 13 22l70 347l132 502q5 0 16 25 q-4 22 -4 36q43 44 76 49q18 -7 28 -24q0 -79 -52 -309q-12 -26 -109 -552l-4 -32q72 47 172 275q93 156 115 297q112 186 126 235q8 0 10 10l-2 9l2 3l5 3h-3h4q5 0 28 44l32 21q0 8 44 12q0 4 4 4h8q6 0 16 -16l-4 -8l4 -9l-4 -28q12 -38 12 -40q-8 -2 -8 -9v-52 q0 -15 -4 -37q4 -7 4 -16q-6 0 -12 -16q8 -2 8 -8q-52 -219 -96 -313l-195 -617q-30 -69 -105 -236q-31 -35 -54 -66l-16 -18l-11 -12l-12 -5l-7 -16l-8 -4l-7 -9q-8 4 -13 6q-7 -37 -16 -37l-8 4q-12 -42 -44 -69q-21 -21 -48 -65q-9 0 -16 -40q-22 -3 -60 -49 q-10 -8 -20 -8l4 -8q0 -8 -24 -17l4 -8q-24 -44 -56 -44q-16 -29 -20 -29h-20l-28 4q0 -5 -24 -16q0 4 -4 4v-16h-4q-36 0 -36 37q-9 0 -28 60q0 15 4 37q-4 8 -4 12zM-220 -730v-4q4 -8 4 -12h8q-4 7 -4 16h-8zM-200 -588l4 21h8v-5l-4 -20h-8v4zM-196 -645v-4l4 -20h4 l4 16zM-192 -766v-8h4v8h-4zM-172 -632l8 -4v20h-4q0 -9 -4 -16zM-148 -535l4 -28v-17h8l-4 8v17l20 16v8l-12 -8q-7 4 -16 4zM-148 -600l8 -20l-4 -8q0 -5 4 -12l-4 -17v-8h4q0 20 8 20q-4 8 -4 13q0 3 4 32q-4 8 -4 12h-8q0 -4 -4 -12zM-124 -572q4 -24 12 -24q0 4 4 12 q-4 16 -4 29q-10 0 -12 -17zM-120 -628q6 -17 12 -17h4v17q0 6 -12 12q0 -4 -4 -12zM-116 -685l8 -4h4v4q0 8 -8 8zM-92 -535l4 -20h8v28h-4q-8 -1 -8 -8zM-92 -600q4 -8 4 -12q6 0 12 12v4q-4 0 -12 4zM-64 -620v-4q0 -6 12 -12q0 3 4 24q-10 -8 -16 -8zM-60 -543v-16 q0 -22 16 -29h12q0 7 -16 45h-12zM-52 -450q4 -8 4 -12h8l-4 20q-8 -1 -8 -8zM-52 -499v-4q0 -29 12 -32l4 8v12q-8 10 -8 16h-8zM-48 -320h8q8 -1 8 -8v-4h-4q-8 4 -12 4v8zM-48 -385v-20q1 -8 8 -8v20q0 8 -8 8zM268 -393v-5h8v5h-8z" />
<glyph unicode="z" horiz-adv-x="1009" d="M0 66q16 50 16 54v5l-12 16q0 48 94 92q192 234 276 394q106 175 280 399l-45 -10q-36 -3 -77 -3q-54 0 -116 5q-115 2 -281 25l-24 33q210 36 403 39l130 1q102 14 185 14l8 -4q8 4 12 4q61 -29 61 -66q0 -47 -53 -71q0 -7 -77 -83l-171 -191q-89 -90 -247 -291 q-21 -7 -57 -58q-8 0 -29 -29q-17 0 -77 -71v-4q250 122 488 137q0 7 211 17v-9q-45 -3 -45 -16q4 0 4 -4q-12 0 -12 -30q-6 0 -12 17q4 0 4 4h-12q0 -6 -8 -16q8 -2 8 -9q-45 -23 -45 -29v-12l-12 8q-10 -13 -45 -33l-8 4q-76 -37 -130 -54q-7 -13 -362 -187 q-88 -54 -125 -54h-17q-73 13 -73 42q4 8 4 12q-6 0 -12 12zM142 237h8l49 66h-12q-16 -29 -20 -29q-13 0 -25 -37zM203 316h4q7 0 16 16h-8q-6 0 -12 -16zM821 391h8q8 0 8 8h-16v-8z" />
<glyph unicode="~" d="M79 883v16l24 32h-8l-8 -4q0 4 -4 4q6 17 20 24l-4 8v4q184 198 184 224q62 53 92 60q0 4 4 4v-4l24 12q7 -4 16 -4l8 4q136 -21 136 -76q8 0 8 -40h4q8 0 108 100q142 95 232 116l4 -8q-32 -11 -32 -20l4 -8q-4 -8 -4 -12h4l28 8v-12q-7 0 -24 -12v-4l20 4h4q6 0 20 -28 v-4q-38 0 -100 -100q-4 0 -4 -16q8 -1 8 -8q-27 -75 -72 -120q-27 -52 -144 -136q-15 0 -80 -36q-11 0 -84 -40h-24q0 4 -4 4q0 -6 -12 -12q-44 26 -56 60q-32 20 -32 68q-8 0 -8 20h-8q-97 -116 -128 -116h-16l-24 4q-7 -4 -16 -4q0 28 -48 28v8l28 24h-12q-15 -12 -24 -12 zM863 1303h4q8 0 8 8v4q-8 -4 -12 -4v-8z" />
<glyph unicode="&#xa1;" horiz-adv-x="672" d="M184 609l4 12q-4 4 -4 14v20l4 5h-4q4 36 4 37l-4 14q4 0 4 3q29 -5 29 -20l8 3h12q6 0 21 -28q16 -65 41 -65q19 -59 58 -85q-10 -20 -17 -20q0 -3 4 -3q0 -15 -49 -28q-7 0 -8 5l4 6h-4q-18 0 -33 -6q-17 12 -37 12q-33 68 -33 124zM217 -23q4 15 4 28v34l4 6h-4 q4 72 25 139l-4 6q4 15 4 25v3h8l-4 14v3q4 0 12 3q6 -17 12 -17q-2 -14 -12 -14q12 -17 12 -34q0 -6 -12 -6v-6l8 -8l13 5q0 -16 4 -19q8 0 8 5v6q0 6 -4 11q4 12 12 20v20h8l5 -17l-5 -6h5l-5 -14q0 -8 9 -17l-4 -25q0 -5 8 -15l-4 -5h4l-4 -14l4 -20q-4 0 -4 -3l16 -48 l-4 -6q17 -67 25 -85q0 -2 -4 -17q0 -5 16 -34l-4 -6q16 -46 16 -51q25 -52 37 -93q12 0 83 -244q-4 0 -4 -3q11 0 16 -77l-4 -5h4q-4 -39 -29 -85q-36 -41 -123 -60q-8 3 -12 3l-62 213l-37 192l4 6q-10 0 -25 111l4 5q-6 0 -12 51q4 0 4 3q-4 0 -4 3v88l-4 14q4 0 4 9v2 q0 15 -4 26zM233 709v11h4q0 -3 5 -9v-2h-9zM237 99h9v11h-9v-11zM250 85q0 -5 8 -6h4v3q0 6 -8 6h-4v-3zM262 241v28h8q0 -6 4 -11q-5 -17 -12 -17zM266 119h4v5h-4v-5zM266 300v6h8v-6h-8zM270 144h4v6h-4v-6zM274 0v-3h9v3h-9zM287 73q4 -5 4 -8h4v11zM287 105h4v8h-4v-8 zM303 207l4 14h9v-9q0 -4 -9 -5h-4z" />
<glyph unicode="&#xa2;" horiz-adv-x="1139" />
<glyph unicode="&#xaa;" horiz-adv-x="648" />
<glyph unicode="&#xad;" horiz-adv-x="894" d="M57 633v4q0 21 15 28q1 16 9 16h5q0 -12 21 -12h6l15 4v-4l5 4h30l29 4v-4l6 4h15q3 0 3 -4l6 4h56q2 0 2 -4q6 4 9 4q16 -4 18 -4q3 0 3 4q48 -5 79 -12q3 0 3 4q127 -12 147 -16l6 4l41 -8l6 4q6 -4 9 -4v-16l-3 -8h6q3 24 9 24h14l15 -4v-4l-3 -20q7 0 12 -4l3 8v4 l-6 12l6 4l12 -4h17q-3 -21 -3 -24v-4h3q6 28 12 28q3 -7 3 -20l15 4v4h-12q3 12 18 12q5 -1 5 -8l-3 -8h3l9 8l9 -8q0 12 6 12l15 -4v-12h-3q-6 4 -9 4l-15 -16q3 0 3 -4q-6 -4 -9 -4q-5 4 -9 4v-28h-8v4l3 20q-6 0 -6 8q3 0 3 4q-3 0 -9 4q-6 -24 -15 -24h-9v-16h-3 q-5 0 -5 8q2 8 2 12l-5 4h-6l-9 -8h-6l-6 4q-8 -28 -12 -28l-3 8v20q-3 0 -8 4q0 -8 -6 -8h-15q0 -24 -6 -24q-4 23 -9 32q3 0 3 4h-3q-4 0 -11 -20l5 -4q-4 -16 -8 -16q-3 8 -3 12h-6l-9 -8l-18 4q0 -8 -6 -8q-5 0 -5 8l-21 -4h-3l-6 4q0 -12 -6 -12h-3q0 10 -6 20l3 8h-3 l-5 -4l3 -8q0 -14 -33 -20q0 8 -6 8q-5 -4 -11 -4v4q-11 -8 -24 -8l-6 20q3 8 3 12l-6 4l-3 -8v-4q0 -4 3 -4q0 -24 -35 -24l-15 4q-2 0 -38 -4v4q-4 -4 -38 -8l-6 4l-6 -4q-6 0 -6 4l-20 -4h-42q-10 0 -26 4q-12 -8 -21 -8l-6 4q-25 -8 -29 -8q-31 0 -47 92zM110 613h3v12 h-3v-12zM116 649h3v8h-3v-8zM151 573h3v8h-3v-8zM222 649q1 -8 6 -8v8h-6zM260 581h15q0 8 -6 8h-9v-8zM301 613q5 4 12 4v8h-6q-6 -1 -6 -8v-4zM304 577h3q7 8 12 8v4q-7 0 -12 4l-3 -8v-8zM345 577l21 -4l3 8v4l-3 8l-15 -4l-6 4v-16zM363 645h6q6 0 6 8l-6 4q-6 -1 -6 -8 v-4zM427 577h3q6 0 6 8h-3q-6 -1 -6 -8zM454 593q6 0 6 8h-6v-8zM475 629l5 -4h3v4q0 8 -6 8zM489 581h3v8h-3v-8zM513 581h6v8h-6v-8zM554 581q6 0 6 8h-6v-8zM613 629h6v4h-6v-4zM660 625q6 0 6 -12h6q-9 13 -9 20h-3v-8zM751 589h9v-8h-3q-6 0 -6 8zM760 597v8q6 -1 6 -8 h-6zM783 625v8q6 -1 6 -8l12 8l3 -8v-8l-15 4q0 -4 -3 -4zM792 597h12q0 -8 -6 -8t-6 8zM813 589v8q6 0 11 4l3 -8l-6 -4h-8z" />
<glyph unicode="&#xaf;" horiz-adv-x="670" />
<glyph unicode="&#xb1;" />
<glyph unicode="&#xb2;" />
<glyph unicode="&#xb3;" />
<glyph unicode="&#xb5;" horiz-adv-x="1180" />
<glyph unicode="&#xb7;" horiz-adv-x="508" d="M135 632l6 7l-6 21v13q11 9 11 14l-5 24h5l-5 7l16 20v21q21 0 33 34l-5 7q0 12 44 48q33 11 33 17l56 3q5 -5 5 -20h6l27 3v-7q-16 0 -16 -7v-3q30 -41 44 -82q0 -43 -83 -96q-19 0 -39 -24q-18 0 -44 -48q6 0 6 -3q-15 0 -23 -27v-14h-11v41q-11 0 -16 -41 q-15 0 -17 -17h-11q0 4 6 34q-11 18 -17 75z" />
<glyph unicode="&#xb9;" />
<glyph unicode="&#xba;" horiz-adv-x="718" />
<glyph unicode="&#xbc;" horiz-adv-x="1708" />
<glyph unicode="&#xbd;" horiz-adv-x="1964" />
<glyph unicode="&#xbe;" horiz-adv-x="1708" />
<glyph unicode="&#xbf;" horiz-adv-x="748" />
<glyph unicode="&#xc0;" horiz-adv-x="1540" />
<glyph unicode="&#xc1;" horiz-adv-x="1540" />
<glyph unicode="&#xc2;" horiz-adv-x="1540" />
<glyph unicode="&#xc3;" horiz-adv-x="1540" />
<glyph unicode="&#xc4;" horiz-adv-x="1540" />
<glyph unicode="&#xc5;" horiz-adv-x="1540" />
<glyph unicode="&#xc6;" horiz-adv-x="2118" />
<glyph unicode="&#xc7;" horiz-adv-x="1399" />
<glyph unicode="&#xc8;" horiz-adv-x="1151" />
<glyph unicode="&#xc9;" horiz-adv-x="1151" />
<glyph unicode="&#xca;" horiz-adv-x="1151" />
<glyph unicode="&#xcb;" horiz-adv-x="1151" />
<glyph unicode="&#xcc;" horiz-adv-x="657" />
<glyph unicode="&#xcd;" horiz-adv-x="657" />
<glyph unicode="&#xce;" horiz-adv-x="657" />
<glyph unicode="&#xcf;" horiz-adv-x="657" />
<glyph unicode="&#xd0;" horiz-adv-x="1518" />
<glyph unicode="&#xd1;" horiz-adv-x="1554" />
<glyph unicode="&#xd2;" horiz-adv-x="1614" />
<glyph unicode="&#xd3;" horiz-adv-x="1614" />
<glyph unicode="&#xd4;" horiz-adv-x="1614" />
<glyph unicode="&#xd5;" horiz-adv-x="1614" />
<glyph unicode="&#xd6;" horiz-adv-x="1614" />
<glyph unicode="&#xd8;" horiz-adv-x="1614" />
<glyph unicode="&#xd9;" horiz-adv-x="1501" />
<glyph unicode="&#xda;" horiz-adv-x="1501" />
<glyph unicode="&#xdb;" horiz-adv-x="1501" />
<glyph unicode="&#xdc;" horiz-adv-x="1501" />
<glyph unicode="&#xdd;" horiz-adv-x="1233" />
<glyph unicode="&#xde;" horiz-adv-x="1120" />
<glyph unicode="&#xdf;" horiz-adv-x="1251" />
<glyph unicode="&#xe0;" horiz-adv-x="922" />
<glyph unicode="&#xe1;" horiz-adv-x="922" />
<glyph unicode="&#xe2;" horiz-adv-x="922" />
<glyph unicode="&#xe3;" horiz-adv-x="922" />
<glyph unicode="&#xe4;" horiz-adv-x="922" />
<glyph unicode="&#xe5;" horiz-adv-x="922" />
<glyph unicode="&#xe6;" horiz-adv-x="1454" />
<glyph unicode="&#xe7;" horiz-adv-x="905" />
<glyph unicode="&#xe8;" horiz-adv-x="909" />
<glyph unicode="&#xe9;" horiz-adv-x="909" />
<glyph unicode="&#xea;" horiz-adv-x="909" />
<glyph unicode="&#xeb;" horiz-adv-x="909" />
<glyph unicode="&#xec;" horiz-adv-x="514" />
<glyph unicode="&#xed;" horiz-adv-x="514" />
<glyph unicode="&#xee;" horiz-adv-x="514" />
<glyph unicode="&#xef;" horiz-adv-x="514" />
<glyph unicode="&#xf0;" horiz-adv-x="1139" />
<glyph unicode="&#xf1;" horiz-adv-x="1108" />
<glyph unicode="&#xf2;" horiz-adv-x="1010" />
<glyph unicode="&#xf3;" horiz-adv-x="1010" />
<glyph unicode="&#xf4;" horiz-adv-x="1010" />
<glyph unicode="&#xf5;" horiz-adv-x="1010" />
<glyph unicode="&#xf6;" horiz-adv-x="1010" />
<glyph unicode="&#xf8;" horiz-adv-x="1010" />
<glyph unicode="&#xf9;" horiz-adv-x="1059" />
<glyph unicode="&#xfa;" horiz-adv-x="1059" />
<glyph unicode="&#xfb;" horiz-adv-x="1059" />
<glyph unicode="&#xfc;" horiz-adv-x="1059" />
<glyph unicode="&#xfd;" horiz-adv-x="868" />
<glyph unicode="&#xfe;" horiz-adv-x="1010" />
<glyph unicode="&#xff;" horiz-adv-x="868" />
<glyph unicode="&#x2000;" horiz-adv-x="849" />
<glyph unicode="&#x2001;" horiz-adv-x="1699" />
<glyph unicode="&#x2002;" horiz-adv-x="849" />
<glyph unicode="&#x2003;" horiz-adv-x="1699" />
<glyph unicode="&#x2004;" horiz-adv-x="566" />
<glyph unicode="&#x2005;" horiz-adv-x="424" />
<glyph unicode="&#x2006;" horiz-adv-x="283" />
<glyph unicode="&#x2007;" horiz-adv-x="283" />
<glyph unicode="&#x2008;" horiz-adv-x="212" />
<glyph unicode="&#x2009;" horiz-adv-x="339" />
<glyph unicode="&#x200a;" horiz-adv-x="94" />
<glyph unicode="&#x2010;" horiz-adv-x="894" d="M57 633v4q0 21 15 28q1 16 9 16h5q0 -12 21 -12h6l15 4v-4l5 4h30l29 4v-4l6 4h15q3 0 3 -4l6 4h56q2 0 2 -4q6 4 9 4q16 -4 18 -4q3 0 3 4q48 -5 79 -12q3 0 3 4q127 -12 147 -16l6 4l41 -8l6 4q6 -4 9 -4v-16l-3 -8h6q3 24 9 24h14l15 -4v-4l-3 -20q7 0 12 -4l3 8v4 l-6 12l6 4l12 -4h17q-3 -21 -3 -24v-4h3q6 28 12 28q3 -7 3 -20l15 4v4h-12q3 12 18 12q5 -1 5 -8l-3 -8h3l9 8l9 -8q0 12 6 12l15 -4v-12h-3q-6 4 -9 4l-15 -16q3 0 3 -4q-6 -4 -9 -4q-5 4 -9 4v-28h-8v4l3 20q-6 0 -6 8q3 0 3 4q-3 0 -9 4q-6 -24 -15 -24h-9v-16h-3 q-5 0 -5 8q2 8 2 12l-5 4h-6l-9 -8h-6l-6 4q-8 -28 -12 -28l-3 8v20q-3 0 -8 4q0 -8 -6 -8h-15q0 -24 -6 -24q-4 23 -9 32q3 0 3 4h-3q-4 0 -11 -20l5 -4q-4 -16 -8 -16q-3 8 -3 12h-6l-9 -8l-18 4q0 -8 -6 -8q-5 0 -5 8l-21 -4h-3l-6 4q0 -12 -6 -12h-3q0 10 -6 20l3 8h-3 l-5 -4l3 -8q0 -14 -33 -20q0 8 -6 8q-5 -4 -11 -4v4q-11 -8 -24 -8l-6 20q3 8 3 12l-6 4l-3 -8v-4q0 -4 3 -4q0 -24 -35 -24l-15 4q-2 0 -38 -4v4q-4 -4 -38 -8l-6 4l-6 -4q-6 0 -6 4l-20 -4h-42q-10 0 -26 4q-12 -8 -21 -8l-6 4q-25 -8 -29 -8q-31 0 -47 92zM110 613h3v12 h-3v-12zM116 649h3v8h-3v-8zM151 573h3v8h-3v-8zM222 649q1 -8 6 -8v8h-6zM260 581h15q0 8 -6 8h-9v-8zM301 613q5 4 12 4v8h-6q-6 -1 -6 -8v-4zM304 577h3q7 8 12 8v4q-7 0 -12 4l-3 -8v-8zM345 577l21 -4l3 8v4l-3 8l-15 -4l-6 4v-16zM363 645h6q6 0 6 8l-6 4q-6 -1 -6 -8 v-4zM427 577h3q6 0 6 8h-3q-6 -1 -6 -8zM454 593q6 0 6 8h-6v-8zM475 629l5 -4h3v4q0 8 -6 8zM489 581h3v8h-3v-8zM513 581h6v8h-6v-8zM554 581q6 0 6 8h-6v-8zM613 629h6v4h-6v-4zM660 625q6 0 6 -12h6q-9 13 -9 20h-3v-8zM751 589h9v-8h-3q-6 0 -6 8zM760 597v8q6 -1 6 -8 h-6zM783 625v8q6 -1 6 -8l12 8l3 -8v-8l-15 4q0 -4 -3 -4zM792 597h12q0 -8 -6 -8t-6 8zM813 589v8q6 0 11 4l3 -8l-6 -4h-8z" />
<glyph unicode="&#x2011;" horiz-adv-x="894" d="M57 633v4q0 21 15 28q1 16 9 16h5q0 -12 21 -12h6l15 4v-4l5 4h30l29 4v-4l6 4h15q3 0 3 -4l6 4h56q2 0 2 -4q6 4 9 4q16 -4 18 -4q3 0 3 4q48 -5 79 -12q3 0 3 4q127 -12 147 -16l6 4l41 -8l6 4q6 -4 9 -4v-16l-3 -8h6q3 24 9 24h14l15 -4v-4l-3 -20q7 0 12 -4l3 8v4 l-6 12l6 4l12 -4h17q-3 -21 -3 -24v-4h3q6 28 12 28q3 -7 3 -20l15 4v4h-12q3 12 18 12q5 -1 5 -8l-3 -8h3l9 8l9 -8q0 12 6 12l15 -4v-12h-3q-6 4 -9 4l-15 -16q3 0 3 -4q-6 -4 -9 -4q-5 4 -9 4v-28h-8v4l3 20q-6 0 -6 8q3 0 3 4q-3 0 -9 4q-6 -24 -15 -24h-9v-16h-3 q-5 0 -5 8q2 8 2 12l-5 4h-6l-9 -8h-6l-6 4q-8 -28 -12 -28l-3 8v20q-3 0 -8 4q0 -8 -6 -8h-15q0 -24 -6 -24q-4 23 -9 32q3 0 3 4h-3q-4 0 -11 -20l5 -4q-4 -16 -8 -16q-3 8 -3 12h-6l-9 -8l-18 4q0 -8 -6 -8q-5 0 -5 8l-21 -4h-3l-6 4q0 -12 -6 -12h-3q0 10 -6 20l3 8h-3 l-5 -4l3 -8q0 -14 -33 -20q0 8 -6 8q-5 -4 -11 -4v4q-11 -8 -24 -8l-6 20q3 8 3 12l-6 4l-3 -8v-4q0 -4 3 -4q0 -24 -35 -24l-15 4q-2 0 -38 -4v4q-4 -4 -38 -8l-6 4l-6 -4q-6 0 -6 4l-20 -4h-42q-10 0 -26 4q-12 -8 -21 -8l-6 4q-25 -8 -29 -8q-31 0 -47 92zM110 613h3v12 h-3v-12zM116 649h3v8h-3v-8zM151 573h3v8h-3v-8zM222 649q1 -8 6 -8v8h-6zM260 581h15q0 8 -6 8h-9v-8zM301 613q5 4 12 4v8h-6q-6 -1 -6 -8v-4zM304 577h3q7 8 12 8v4q-7 0 -12 4l-3 -8v-8zM345 577l21 -4l3 8v4l-3 8l-15 -4l-6 4v-16zM363 645h6q6 0 6 8l-6 4q-6 -1 -6 -8 v-4zM427 577h3q6 0 6 8h-3q-6 -1 -6 -8zM454 593q6 0 6 8h-6v-8zM475 629l5 -4h3v4q0 8 -6 8zM489 581h3v8h-3v-8zM513 581h6v8h-6v-8zM554 581q6 0 6 8h-6v-8zM613 629h6v4h-6v-4zM660 625q6 0 6 -12h6q-9 13 -9 20h-3v-8zM751 589h9v-8h-3q-6 0 -6 8zM760 597v8q6 -1 6 -8 h-6zM783 625v8q6 -1 6 -8l12 8l3 -8v-8l-15 4q0 -4 -3 -4zM792 597h12q0 -8 -6 -8t-6 8zM813 589v8q6 0 11 4l3 -8l-6 -4h-8z" />
<glyph unicode="&#x2012;" horiz-adv-x="894" d="M57 633v4q0 21 15 28q1 16 9 16h5q0 -12 21 -12h6l15 4v-4l5 4h30l29 4v-4l6 4h15q3 0 3 -4l6 4h56q2 0 2 -4q6 4 9 4q16 -4 18 -4q3 0 3 4q48 -5 79 -12q3 0 3 4q127 -12 147 -16l6 4l41 -8l6 4q6 -4 9 -4v-16l-3 -8h6q3 24 9 24h14l15 -4v-4l-3 -20q7 0 12 -4l3 8v4 l-6 12l6 4l12 -4h17q-3 -21 -3 -24v-4h3q6 28 12 28q3 -7 3 -20l15 4v4h-12q3 12 18 12q5 -1 5 -8l-3 -8h3l9 8l9 -8q0 12 6 12l15 -4v-12h-3q-6 4 -9 4l-15 -16q3 0 3 -4q-6 -4 -9 -4q-5 4 -9 4v-28h-8v4l3 20q-6 0 -6 8q3 0 3 4q-3 0 -9 4q-6 -24 -15 -24h-9v-16h-3 q-5 0 -5 8q2 8 2 12l-5 4h-6l-9 -8h-6l-6 4q-8 -28 -12 -28l-3 8v20q-3 0 -8 4q0 -8 -6 -8h-15q0 -24 -6 -24q-4 23 -9 32q3 0 3 4h-3q-4 0 -11 -20l5 -4q-4 -16 -8 -16q-3 8 -3 12h-6l-9 -8l-18 4q0 -8 -6 -8q-5 0 -5 8l-21 -4h-3l-6 4q0 -12 -6 -12h-3q0 10 -6 20l3 8h-3 l-5 -4l3 -8q0 -14 -33 -20q0 8 -6 8q-5 -4 -11 -4v4q-11 -8 -24 -8l-6 20q3 8 3 12l-6 4l-3 -8v-4q0 -4 3 -4q0 -24 -35 -24l-15 4q-2 0 -38 -4v4q-4 -4 -38 -8l-6 4l-6 -4q-6 0 -6 4l-20 -4h-42q-10 0 -26 4q-12 -8 -21 -8l-6 4q-25 -8 -29 -8q-31 0 -47 92zM110 613h3v12 h-3v-12zM116 649h3v8h-3v-8zM151 573h3v8h-3v-8zM222 649q1 -8 6 -8v8h-6zM260 581h15q0 8 -6 8h-9v-8zM301 613q5 4 12 4v8h-6q-6 -1 -6 -8v-4zM304 577h3q7 8 12 8v4q-7 0 -12 4l-3 -8v-8zM345 577l21 -4l3 8v4l-3 8l-15 -4l-6 4v-16zM363 645h6q6 0 6 8l-6 4q-6 -1 -6 -8 v-4zM427 577h3q6 0 6 8h-3q-6 -1 -6 -8zM454 593q6 0 6 8h-6v-8zM475 629l5 -4h3v4q0 8 -6 8zM489 581h3v8h-3v-8zM513 581h6v8h-6v-8zM554 581q6 0 6 8h-6v-8zM613 629h6v4h-6v-4zM660 625q6 0 6 -12h6q-9 13 -9 20h-3v-8zM751 589h9v-8h-3q-6 0 -6 8zM760 597v8q6 -1 6 -8 h-6zM783 625v8q6 -1 6 -8l12 8l3 -8v-8l-15 4q0 -4 -3 -4zM792 597h12q0 -8 -6 -8t-6 8zM813 589v8q6 0 11 4l3 -8l-6 -4h-8z" />
<glyph unicode="&#x2013;" horiz-adv-x="1148" d="M57 633v4q0 21 20 28q1 16 12 16h7q0 -12 27 -12h8l20 4v-4l7 4h40l39 4v-4l8 4h19q4 0 4 -4l8 4h75q3 0 3 -4q8 4 12 4q21 -4 23 -4q4 0 4 4q64 -5 106 -12q4 0 4 4q168 -12 195 -16l8 4l55 -8l7 4q8 -4 12 -4v-16l-4 -8h8q4 24 12 24h19l20 -4v-4l-4 -20q9 0 16 -4l4 8 v4l-8 12l8 4l16 -4h22q-3 -21 -3 -24v-4h3q8 28 16 28q4 -7 4 -20l20 4v4h-16q4 12 24 12q7 -1 7 -8l-4 -8h4l12 8l12 -8q0 12 8 12l20 -4v-12h-4q-8 4 -12 4l-20 -16q4 0 4 -4q-8 -4 -12 -4q-7 4 -12 4v-28h-11v4l4 20q-8 0 -8 8q4 0 4 4q-4 0 -12 4q-8 -24 -20 -24h-11 v-16h-4q-7 0 -7 8q3 8 3 12l-7 4h-8l-12 -8h-8l-8 4q-11 -28 -16 -28l-4 8v20q-4 0 -11 4q0 -8 -8 -8h-20q0 -24 -8 -24q-5 23 -11 32q4 0 4 4h-4q-6 0 -15 -20l7 -4q-6 -16 -11 -16q-4 8 -4 12h-8l-12 -8l-24 4q0 -8 -8 -8q-7 0 -7 8l-28 -4h-4l-8 4q0 -12 -7 -12h-4 q0 10 -8 20l4 8h-4l-7 -4l4 -8q0 -14 -44 -20q0 8 -8 8q-7 -4 -15 -4v4q-14 -8 -32 -8l-8 20q4 8 4 12l-7 4l-4 -8v-4q0 -4 4 -4q0 -24 -47 -24l-20 4q-3 0 -51 -4v4q-5 -4 -50 -8l-8 4l-8 -4q-8 0 -8 4l-27 -4h-55q-14 0 -35 4q-16 -8 -28 -8l-8 4q-33 -8 -38 -8 q-42 0 -63 92zM127 613h4v12h-4v-12zM135 649h4v8h-4v-8zM182 573h4v8h-4v-8zM276 649q2 -8 8 -8v8h-8zM327 581h20q0 8 -8 8h-12v-8zM381 613q7 4 16 4v8h-8q-8 -1 -8 -8v-4zM385 577h4q10 8 16 8v4q-9 0 -16 4l-4 -8v-8zM440 577l28 -4l4 8v4l-4 8l-20 -4l-8 4v-16z M464 645h8q8 0 8 8l-8 4q-8 -1 -8 -8v-4zM549 577h4q8 0 8 8h-4q-8 -1 -8 -8zM585 593q8 0 8 8h-8v-8zM613 629l7 -4h4v4q0 8 -8 8zM632 581h3v8h-3v-8zM663 581h8v8h-8v-8zM718 581q8 0 8 8h-8v-8zM796 629h8v4h-8v-4zM859 625q8 0 8 -12h8q-12 13 -12 20h-4v-8zM980 589 h12v-8h-4q-8 0 -8 8zM992 597v8q8 -1 8 -8h-8zM1022 625v8q8 -1 8 -8l16 8l4 -8v-8l-20 4q0 -4 -4 -4zM1034 597h16q0 -8 -8 -8t-8 8zM1062 589v8q8 0 15 4l4 -8l-8 -4h-11z" />
<glyph unicode="&#x2014;" horiz-adv-x="2172" d="M57 633v4q0 21 40 28q3 16 24 16h13q0 -12 56 -12h16l40 4v-4l13 4h80l77 4v-4l16 4h40q8 0 8 -4l16 4h149q5 0 5 -4q16 4 24 4q43 -4 48 -4q8 0 8 4q128 -5 210 -12q8 0 8 4q338 -12 391 -16l16 4l109 -8l16 4q16 -4 24 -4v-16l-8 -8h16q8 24 24 24h37l40 -4v-4l-8 -20 q19 0 32 -4l8 8v4l-16 12l16 4l32 -4h45q-8 -21 -8 -24v-4h8q16 28 32 28q8 -7 8 -20l40 4v4h-32q8 12 48 12q13 -1 13 -8l-8 -8h8l24 8l24 -8q0 12 16 12l40 -4v-12h-8q-16 4 -24 4l-40 -16q8 0 8 -4q-16 -4 -24 -4q-13 4 -24 4v-28h-21v4l8 20q-16 0 -16 8q8 0 8 4 q-8 0 -24 4q-16 -24 -40 -24h-24v-16h-8q-13 0 -13 8q5 8 5 12l-13 4h-16l-24 -8h-16l-16 4q-21 -28 -32 -28l-8 8v20q-8 0 -21 4q0 -8 -16 -8h-40q0 -24 -16 -24q-11 23 -24 32q8 0 8 4h-8q-11 0 -29 -20l13 -4q-11 -16 -21 -16q-8 8 -8 12h-16l-24 -8l-48 4q0 -8 -16 -8 q-13 0 -13 8l-56 -4h-8l-16 4q0 -12 -16 -12h-8q0 10 -16 20l8 8h-8l-13 -4l8 -8q0 -14 -88 -20q0 8 -16 8q-13 -4 -29 -4v4q-29 -8 -64 -8l-16 20q8 8 8 12l-16 4l-8 -8v-4q0 -4 8 -4q0 -24 -93 -24l-40 4q-5 0 -101 -4v4q-11 -4 -101 -8l-16 4l-16 -4q-16 0 -16 4l-53 -4 h-112q-26 0 -69 4q-32 -8 -56 -8l-16 4q-66 -8 -77 -8q-82 0 -125 92zM198 613h8v12h-8v-12zM214 649h8v8h-8v-8zM307 573h8v8h-8v-8zM496 649q3 -8 16 -8v8h-16zM597 581h40q0 8 -16 8h-24v-8zM706 613q13 4 32 4v8h-16q-16 -1 -16 -8v-4zM714 577h8q19 8 32 8v4 q-19 0 -32 4l-8 -8v-8zM823 577l56 -4l8 8v4l-8 8l-40 -4l-16 4v-16zM871 645h16q16 0 16 8l-16 4q-16 -1 -16 -8v-4zM1041 577h8q16 0 16 8h-8q-16 -1 -16 -8zM1113 593q16 0 16 8h-16v-8zM1169 629l13 -4h8v4q0 8 -16 8zM1206 581h8v8h-8v-8zM1270 581h16v8h-16v-8z M1379 581q16 0 16 8h-16v-8zM1536 629h16v4h-16v-4zM1661 625q16 0 16 -12h16q-24 13 -24 20h-8v-8zM1903 589h24v-8h-8q-16 0 -16 8zM1927 597v8q16 -1 16 -8h-16zM1988 625v8q16 -1 16 -8l32 8l8 -8v-8l-40 4q0 -4 -8 -4zM2012 597h32q0 -8 -16 -8t-16 8zM2068 589v8 q16 0 29 4l8 -8l-16 -4h-21z" />
<glyph unicode="&#x201c;" horiz-adv-x="746" d="M91 1177q27 131 50 142q83 97 83 221v37q0 6 17 14l11 -5q6 8 6 23h11q53 0 72 -248q-16 -19 -22 -97q-6 0 -6 -4l6 -28q-17 -64 -45 -87q17 0 17 -5q-11 -41 -11 -60v-4l5 -23l-11 -5l-16 9q-39 -14 -39 -23l-11 -4h-6l-11 4q-2 -9 -11 -9q-50 0 -72 60q-11 1 -11 9v9 q0 17 5 42q-11 18 -11 32zM370 1181q27 131 50 142q83 97 83 221v37q0 6 17 14l11 -5q6 8 6 23h11q53 0 72 -248q-16 -19 -22 -97q-6 0 -6 -4l6 -28q-17 -64 -45 -87q17 0 17 -5q-11 -41 -11 -60v-4l5 -23l-11 -5l-16 9q-39 -14 -39 -23l-11 -4h-6l-11 4q-2 -9 -11 -9 q-50 0 -72 60q-11 1 -11 9v9q0 17 5 42q-11 18 -11 32z" />
<glyph unicode="&#x201d;" horiz-adv-x="779" d="M124 1269q16 19 22 97q6 0 6 4l-6 28q17 64 45 87q-17 0 -17 5q11 41 11 60v4l-5 23l11 5l16 -9q39 14 39 23l11 4h6l11 -4q2 9 11 9q50 0 72 -60q11 -1 11 -9v-9q0 -17 -5 -42q11 -18 11 -32q-27 -131 -50 -142q-83 -97 -83 -221v-37q0 -6 -17 -14l-11 5q-6 -8 -6 -23 h-11q-53 0 -72 248zM403 1273q16 19 22 97q6 0 6 4l-6 28q17 64 45 87q-17 0 -17 5q11 41 11 60v4l-5 23l11 5l16 -9q39 14 39 23l11 4h6l11 -4q2 9 11 9q50 0 72 -60q11 -1 11 -9v-9q0 -17 -5 -42q11 -18 11 -32q-27 -131 -50 -142q-83 -97 -83 -221v-37q0 -6 -17 -14 l-11 5q-6 -8 -6 -23h-11q-53 0 -72 248z" />
<glyph unicode="&#x2022;" horiz-adv-x="1024" d="M286 561q58 85 58 102q106 96 141 141q66 20 121 20v-7q25 13 71 13q68 0 77 -102l-32 -122q0 -10 -77 -83v-7q6 -34 6 -38q0 -37 -90 -45q0 -9 -51 -13q-224 61 -224 141z" />
<glyph unicode="&#x2026;" horiz-adv-x="1603" d="M127 -16q11 9 11 14l-5 24h5l-5 7l16 20v21q21 0 33 34l-5 7q0 12 44 48q33 11 33 17l56 3q5 -5 5 -20h6l27 3v-7q-16 0 -16 -7v-3q30 -41 44 -82q0 -43 -83 -96q-19 0 -39 -24q-18 0 -44 -48q6 0 6 -3q-15 0 -23 -27v-14h-11v41q-11 0 -16 -41q-15 0 -17 -17h-11 q0 4 6 34q-11 18 -17 75l6 7l-6 21v13zM680 -19q11 9 11 14l-5 24h5l-5 7l16 20v21q21 0 33 34l-5 7q0 12 44 48q33 11 33 17l56 3q5 -5 5 -20h6l27 3v-7q-16 0 -16 -7v-3q30 -41 44 -82q0 -43 -83 -96q-19 0 -39 -24q-18 0 -44 -48q6 0 6 -3q-15 0 -23 -27v-14h-11v41 q-11 0 -16 -41q-15 0 -17 -17h-11q0 4 6 34q-11 18 -17 75l6 7l-6 21v13zM1210 -8q11 9 11 14l-5 24h5l-5 7l16 20v21q21 0 33 34l-5 7q0 12 44 48q33 11 33 17l56 3q5 -5 5 -20h6l27 3v-7q-16 0 -16 -7v-3q30 -41 44 -82q0 -43 -83 -96q-19 0 -39 -24q-18 0 -44 -48 q6 0 6 -3q-15 0 -23 -27v-14h-11v41q-11 0 -16 -41q-15 0 -17 -17h-11q0 4 6 34q-11 18 -17 75l6 7l-6 21v13z" />
<glyph unicode="&#x202f;" horiz-adv-x="339" />
<glyph unicode="&#x205f;" horiz-adv-x="424" />
<glyph unicode="&#x2122;" horiz-adv-x="1497" />
<glyph unicode="&#x25fc;" horiz-adv-x="1290" d="M0 0v1290h1290v-1290h-1290z" />
</font>
</defs>
</svg>
