<?xml version="1.0" standalone="no"?>
<!DOCTYPE svg PUBLIC "-//W3C//DTD SVG 1.1//EN" "http://www.w3.org/Graphics/SVG/1.1/DTD/svg11.dtd" >
<svg xmlns="http://www.w3.org/2000/svg" xmlns:xlink="http://www.w3.org/1999/xlink" version="1.1">
<metadata></metadata>
<defs>
<font id="cavortingregular" horiz-adv-x="823" >
<font-face units-per-em="2048" ascent="1565" descent="-483" />
<missing-glyph horiz-adv-x="509" />
<glyph horiz-adv-x="0" />
<glyph horiz-adv-x="682" />
<glyph horiz-adv-x="0" />
<glyph unicode="&#x9;" horiz-adv-x="600" />
<glyph unicode=" "  horiz-adv-x="509" />
<glyph unicode="&#x09;" horiz-adv-x="509" />
<glyph unicode="&#xa0;" horiz-adv-x="509" />
<glyph unicode="!" horiz-adv-x="387" d="M14 59q-6 -35 5 -53t53 -41q42 -20 109 -7.5t85 46.5q8 16 8 74q-14 55 -22 63q-23 29 -80 40.5t-92 -7.5q-30 -12 -48 -42.5t-18 -72.5zM44 375q2 -23 14 -32q5 -4 8 -7q56 -56 114 -29q23 8 29.5 10t22 13.5t19.5 22.5t13.5 39t12.5 60t9.5 89.5t10.5 124t10 165.5 q25 401 25 586q-15 84 -68 117q-35 9 -76 10.5t-69 -10.5q-18 0 -47 -29q-9 -9 -12 -13t-9 -16.5t-3.5 -25.5t3.5 -41q0 -6 0.5 -59.5t1 -109.5t-1 -158.5t-4.5 -211.5q-8 -454 -3 -495z" />
<glyph unicode="&#x22;" horiz-adv-x="641" d="M50 1254.5q0 -8.5 7 -17.5q7 -15 46 -15t59 15q33 25 69 84.5t48 108.5q12 61 18.5 147t-0.5 113q-12 33 -57 52.5t-78 10.5q-9 -3 -23 -6t-20 -5t-14 -5t-13 -7t-10 -10q-12 -9 -14 -38.5t-2 -163.5q0 -47 -2 -99.5t-4.5 -88.5t-2.5 -42q-7 -25 -7 -33.5zM352 1250.5 q0 -8.5 8 -17.5q8 -15 46.5 -15t58.5 15q33 25 69 84t48 108q12 60 18.5 147t-0.5 114q-12 33 -57 52.5t-78 10.5q-9 -3 -23 -6t-20 -5t-14 -5t-13 -7t-10 -10q-12 -9 -14 -39t-2 -164q0 -47 -2.5 -99.5t-4.5 -88t-2 -41.5q-8 -25 -8 -33.5z" />
<glyph unicode="#" horiz-adv-x="860" d="M17 969q1 -9 12 -17q12 -9 43.5 -7.5t60.5 7.5q10 4 13 -3.5t8 -45.5v-55q-11 -11 -50 -23q-64 -22 -41 -55q9 -30 70 -20l35 6q4 0 14 -49q4 -47 20.5 -61.5t63.5 -14.5q30 0 42 2t22 12q14 10 15.5 19.5t-3.5 56.5q-6 35 -6 70q11 5 50 8.5t40 -0.5q0 -11 23 -92 q4 -50 9.5 -68t16.5 -29q27 -22 70.5 -25.5t70.5 17.5q21 14 23 39.5t-10 65.5q-13 43 -13 77q-5 22 3.5 25.5t66.5 3.5q86 0 98 12q26 11 22.5 35t-30.5 35q-4 0 -39 4t-59 4q-59 5 -69 9t-15 26q-12 40 -12 70q-5 27 3.5 33t65.5 10q44 3 71.5 10.5t37 18.5t2.5 26 q-4 21 -30.5 27.5t-80.5 1.5q-15 0 -33 -2.5t-30.5 -4.5t-14.5 -2q-5 0 -14 21q-12 96 -35 119q-10 10 -36 14.5t-48 -0.5q-15 -5 -24.5 -31t-9.5 -67q-7 -34 -7 -70q4 -8 -1 -11t-33 -10q-14 -4 -23 -6q-55 -9 -55 0q0 2 -2.5 10t-6 21t-6.5 25q-9 44 -20 55q-10 5 -38 4.5 t-38 -10.5q-14 -14 -14 -78q-10 -58 -17.5 -66t-66.5 -30q-65 -23 -61 -47zM307 963q-2 21 0 24q5 5 37 13t47 8q5 0 10 -7.5t5 -21.5q11 -68 5 -78q-4 -8 -33 -11q-4 -1 -7 -1h-49q-3 3 -8 28t-7 46z" />
<glyph unicode="$" horiz-adv-x="950" d="M4 954q0 -58 12 -75q46 -154 211 -226q77 -36 84 -43q11 0 13 -23t2 -138q0 -41 -2 -83t-4 -64l-1 -21q-14 0 -34 14q-41 22 -104.5 17t-78.5 -31q-10 -11 -10 -39t10 -39q37 -37 217 -90q7 0 7 -23q1 -6 2 -29.5t4 -32.5t11 -24t26 -21t45 -6q26 -1 44 9.5t25.5 30 t10 35t2.5 32.5q0 10 5 12t21 2q20 0 61.5 7.5t59.5 13.5q3 3 23.5 11.5t31.5 16.5q63 22 115.5 78t67.5 119q65 255 -267 358q-52 15 -60 25.5t-3 58.5q0 11 4 90.5t4 127.5q6 136 12 142q2 2 9 -1q8 -8 20 -49q10 -25 11.5 -44t-3.5 -55q-8 -47 -8 -63q11 -22 56 -29t77 8 q21 4 41 22.5t31 41.5q12 12 12 55q5 13 6.5 23.5t1 16.5t-3 23t-4.5 29q-11 39 -20.5 56.5t-34.5 42.5q-55 68 -154 90q-32 11 -37.5 14t-5.5 14q0 21 -20 50q-10 33 -43 43q-32 15 -69.5 15t-63.5 -15q-21 -15 -27.5 -35.5t-1.5 -57.5q0 -26 -6 -33t-43 -22 q-71 -33 -136 -81.5t-96 -94.5q-21 -26 -38 -74.5t-17 -81.5zM253 946q-2 46 9 72q1 1 16 23t27 34q19 22 23 18q6 -7 6 -130v-156q-3 -3 -16 9t-27 30.5t-21 32.5q-15 21 -17 67zM528 271q-3 8 2 67q0 16 3.5 66t3.5 73q1 8 3 19.5t3 18.5t2 13.5t2.5 9.5t3.5 3q15 0 29 -6 q41 -27 50.5 -80t-14.5 -105t-71 -76q-15 -10 -17 -3z" />
<glyph unicode="%" horiz-adv-x="931" d="M25 1274q-11 -29 2.5 -76t40.5 -68q39 -28 67 -35.5t98 -7.5q77 0 93 6q11 3 30 15q54 32 86.5 94.5t22.5 116.5q-17 49 -83 78.5t-155 29.5q-50 0 -64 -4.5t-52 -31.5q-48 -38 -58 -66q-6 -10 -15 -28.5t-13 -22.5zM90 68q0 -28 21 -44t59 -16q54 -6 87 17t50 77 q15 43 15 52q3 3 8.5 18.5t15.5 44t19 51.5q42 103 57 174q14 29 37 95q12 26 42.5 103t37.5 91l14 31q6 20 14 49q29 48 29 66q0 3 3.5 11t9.5 19.5t9 20.5q134 307 158 377q36 108 15 129q-16 16 -47.5 17.5t-47.5 -9.5q-26 -10 -70.5 -74.5t-80.5 -136.5l-15 -35 q-3 -3 -9 -15t-15 -30.5t-19 -34.5q-41 -89 -86 -211q-14 -22 -29 -53.5t-16 -32.5q-4 -6 -7 -14.5t-6.5 -21.5t-6.5 -21q-14 -24 -14 -37q-4 -4 -23 -37q0 -6 -4 -16.5t-10 -24.5t-9 -22q-20 -38 -67 -163.5t-47 -133.5q0 -15 -8 -29q-1 -2 -21 -59q-14 -49 -22 -64 q-31 -81 -21 -108zM191 1240.5q2 30.5 14 55.5q10 17 15 20t22 3l34 -14q11 -5 7 -33t-21 -55q-18 -22 -28.5 -26.5t-28.5 5.5q-16 14 -14 44.5zM453 244q-22 -88 38.5 -142.5t184.5 -54.5q65 0 108 14q45 23 69 47.5t34 61.5q11 28 11 39t-11 49q-6 27 -18.5 46t-41.5 48 q-26 26 -40 34t-39 15q-32 11 -41 11t-31 -11q-36 0 -137 -49q-21 -10 -48 -44.5t-38 -63.5zM618 207q0 43 37 80q6 10 8.5 13.5t6 3.5t6 -3.5t8.5 -13.5q15 -9 35 -43q11 -21 10.5 -30t-16.5 -30q-10 -21 -15.5 -24.5t-27.5 -3.5q-28 0 -40 11.5t-12 39.5z" />
<glyph unicode="&#x26;" horiz-adv-x="985" d="M14 428q-11 -64 23 -160q11 -24 54.5 -60.5t82.5 -53.5q32 -19 129 -45q57 -11 80 -11t80 11q94 17 137 36q16 3 32 7.5t24.5 7t11.5 2.5q0 -4 8 -13.5t24.5 -28.5t28.5 -34q46 -57 68 -70.5t61 -7.5q1 0 10 3t13 4.5t13 5.5t14 8t12 10.5t10.5 13.5t6.5 16.5t3 20.5 q0 6 -11.5 21t-28.5 33t-33 33.5t-31 29.5l-15 14q-16 16 -18 27t4.5 21t28.5 36q92 103 92 238q5 31 -7 74t-24 55l-16 14q0 12 -31.5 43t-58.5 41q-49 32 -117.5 37t-157.5 -14q-9 -5 -13 -0.5t-17 30.5q-6 11 -9 17q-29 62 -29.5 76t23.5 53q13 21 68 129 q34 69 39.5 88.5t5.5 70.5q0 49 -3.5 66t-19.5 33q-56 87 -227 100q-66 0 -101 -16q-75 -24 -99 -71t-7 -142q15 -111 61 -228q6 -14 12 -31t8 -28l3 -10q0 -21 -37 -84q-86 -149 -106 -205q0 -22 -17 -39q-13 -13 -37 -174zM227 412q0 39 13 102.5t24 81.5q3 3 47 90 q4 12 8 15.5t9 0t12 -15.5q4 -6 6 -14t2 -12v-5q-9 0 -31 -45.5t-36 -83.5q-6 -46 -1 -66.5t23 -31.5q34 -16 90 -10t62 24q8 23 31 -9l22 -36q10 -13 20 -29t17 -26.5t10 -13.5q23 -23 23 -29q0 -11 -132 -61q-40 -10 -54.5 -10t-43.5 10q-75 24 -101 60t-20 114zM333 1245 q-5 70 1 80q16 15 37 -6q16 -16 16 -31q7 -28 -15 -94q-15 -38 -24 -35q-10 16 -15 86zM581 641q0 12 7 16.5t26 14.5q23 11 30 10t24 -18q47 -47 47 -121q0 -36 -7.5 -71.5t-17.5 -35.5q-14 15 -22 29q-2 3 -21 43t-33 63q-19 33 -26 45.5t-7 24.5z" />
<glyph unicode="'" horiz-adv-x="327" d="M30 1244.5q0 -8.5 7 -17.5q7 -15 45.5 -15t58.5 15q33 25 69 84t48 108q12 61 18.5 147t-0.5 113q-12 33 -57 53t-78 11q-9 -3 -23 -6t-20 -5t-14 -5t-13 -7t-10 -10q-12 -9 -14 -39t-2 -164q0 -47 -2 -99.5t-4 -88t-2 -41.5q-7 -25 -7 -33.5z" />
<glyph unicode="(" horiz-adv-x="477" d="M39 817q-5 -56 0.5 -185t15.5 -175q20 -133 64 -267q8 -11 28 -55t23 -47q4 -14 41 -67.5t53 -69.5q50 -42 129 -31q33 11 39.5 39.5t-16.5 71.5q-11 38 -23 65q-3 3 -11 18.5t-11 18.5q-3 10 -30 86t-34 98q-13 41 -43 240q-4 63 -1.5 235.5t7.5 213.5q2 10 6.5 31.5 t8 41t6.5 35.5q3 28 8.5 55.5t17 73t17.5 72.5q32 129 32 168t-32 49q-23 11 -32.5 10t-37.5 -16q-28 -8 -51 -60q-6 -13 -14 -26.5t-12.5 -21t-4.5 -9.5q0 -15 -6 -29q-3 -3 -6.5 -12t-7.5 -21.5t-6 -17.5q0 -8 -5.5 -24.5t-5.5 -18.5q-4 -4 -20 -57q-3 -10 -10.5 -40 t-10.5 -40q-49 -198 -65 -332z" />
<glyph unicode=")" horiz-adv-x="485" d="M55 -40.5q-6 28.5 17 71.5q14 46 22 65q3 3 11.5 18.5t11.5 18.5q3 10 29.5 86.5t33.5 97.5q13 41 43 240q4 63 1.5 235.5t-7.5 213.5q-15 79 -20 108q-3 28 -8.5 55.5t-17 73t-17.5 72.5q-32 129 -32 168t32 49q23 11 32 10t37 -16q28 -8 51 -60q6 -13 14 -26.5 t12.5 -21t4.5 -9.5q0 -15 6 -29q3 -3 6.5 -12t8 -21.5t6.5 -17.5q0 -8 5 -24.5t5 -18.5q4 -4 20 -57q3 -10 10.5 -40t10.5 -40q51 -205 66 -332q5 -56 -1 -185t-16 -175q-21 -138 -63 -267q-8 -11 -28.5 -55t-23.5 -47q-4 -14 -41 -67.5t-53 -69.5q-50 -42 -129 -31 q-33 11 -39 39.5z" />
<glyph unicode="*" horiz-adv-x="737" d="M45 1051q18 -38 92 -29q32 0 43.5 4t32.5 25q6 9 13.5 15.5t11.5 8.5l4 2q4 0 14 -49q4 -63 32 -91t87 -28q36 0 54.5 10t29.5 33q11 10 11 18t-11 23q-15 35 -15 70q-5 31 -1 36t30 1q223 -66 223 6q0 22 -12.5 33.5t-42.5 15.5q-11 4 -46 17t-66.5 25.5t-49.5 21.5 q-21 10 -21.5 13t15.5 13q6 3 13 8t10 9l4 4q12 0 20 8q23 14 43 20q35 24 35 29q14 6 20 6q23 10 15 35q0 16 -4 20.5t-25 8.5q-60 12 -139 -29q-26 -10 -31 -3t-10 60q-5 63 -17 82t-53 23q-18 5 -49 -8q-15 -15 -30 -48t-19 -63q0 -9 -2 -19.5t-4 -17.5l-2 -6 q-12 0 -41 29q-78 56 -119 28q-20 -9 -20 -28q0 -22 36 -64t89 -84q15 -11 15 -13t-15 -13q-3 0 -6.5 -2.5t-6.5 -4.5l-2 -2q0 -9 -26 -20q-91 -64 -107 -105q-7 -17 0 -34z" />
<glyph unicode="+" horiz-adv-x="755" d="M37 639q0 -60 174 -35q35 8 78 8q8 -40 8 -110q6 -92 15.5 -123t35.5 -43q38 -21 94 -9t62 44q2 8 3 19.5t0 32.5t-2.5 40t-4 56.5t-4.5 68.5q-6 38 5 45.5t81 13.5q79 6 105 16.5t26 36.5q0 32 -26.5 40.5t-104.5 2.5q-66 0 -84.5 1.5t-18.5 7.5q0 43 -10 114t-16 84 q-7 13 -19.5 24t-23.5 11q-26 12 -34 12t-28 -12q-47 -21 -59 -129v-96q-6 -32 -14.5 -38.5t-47.5 -12.5q-104 -12 -147 -28t-43 -42z" />
<glyph unicode="," horiz-adv-x="366" d="M34 150.5q-17 -75.5 11 -107.5q12 -21 41.5 -37t56.5 -16q16 6 16 -13q0 -8 -12 -57q-3 -12 -14 -33t-20 -35t-28 -42t-22 -33q99 -58 205 86q28 40 42 102t7 115q0 100 -67 149q-26 19 -77.5 20.5t-82.5 -11.5q-39 -12 -56 -87.5z" />
<glyph unicode="-" horiz-adv-x="641" d="M55 694q-29 -30 2 -61q10 -6 38 -7t135 -1h87q171 0 207.5 2t48.5 14q11 11 15 15.5t8 14.5t4 23q0 42 -61 56q-38 12 -132 14t-153 -6q-151 -15 -199 -64z" />
<glyph unicode="." horiz-adv-x="356" d="M68 90q-6 -36 4.5 -53.5t52.5 -40.5q42 -20 109 -7.5t85 46.5q9 18 9 74q-14 54 -23 63q-23 29 -80 40.5t-92 -7.5q-30 -12 -47.5 -42.5t-17.5 -72.5z" />
<glyph unicode="/" horiz-adv-x="813" d="M-39 -12q0 -4 4.5 -8t13 -11t13.5 -12q10 -10 24 -12t52 -2q59 0 85 19t48 87q65 168 110 311q6 17 23.5 61.5t21.5 57.5q13 41 23 51q0 15 22 64q16 61 25 70q5 5 12.5 23.5t10.5 23.5q0 8 4 22t4 17q14 14 24 45q4 13 15.5 39.5t15.5 39.5q55 107 55 117q15 37 70 162 q74 180 92 279q6 34 -7.5 47.5t-47.5 7.5h-47q-11 -6 -40.5 -38t-29.5 -38q-6 -8 -14 -16q-18 -18 -85.5 -145.5t-125.5 -252.5q-15 -26 -33 -69t-20 -47l-9 -39q-14 -23 -22 -54q-6 -11 -18 -39t-30 -70.5t-30 -68.5q-13 -30 -27.5 -66.5t-24 -59.5t-12.5 -29 q-14 -25 -14 -47q0 -11 -16 -39q-6 -11 -16 -39t-26.5 -76.5t-27.5 -79.5q-14 -44 -14 -55q-11 -11 -24 -66t-7 -65z" />
<glyph unicode="0" horiz-adv-x="1146" d="M28 573.5q0 -124.5 5 -161.5q27 -109 61 -178t90 -125q126 -138 346 -138q147 5 253.5 62t187.5 176q129 192 129 498q0 100 -8 158t-35 153q-15 55 -45 136t-41 85q-11 17 -17 23q-25 55 -82.5 111.5t-111.5 84.5q-4 2 -21 9.5t-20 8.5t-16.5 6t-19.5 5.5t-20 2.5 t-28.5 2.5t-34.5 0.5q-84 0 -127 -16q-161 -24 -305 -314q-49 -91 -78.5 -184t-56.5 -238q-5 -43 -5 -167.5zM281 588q0 124 29 283.5t71 246.5q3 8 12.5 31t12.5 31q26 62 62.5 108t63.5 51q30 11 78 0q3 -2 24 -14.5t35 -21.5t31.5 -24.5t26.5 -29.5q68 -126 119 -334 q4 -31 4 -191.5t-4 -197.5q-73 -313 -238 -387q-26 -12 -67.5 -12t-67.5 12q-27 12 -77 55.5t-50 55.5q-2 18 -8 18q-26 31 -43.5 129t-13.5 191z" />
<glyph unicode="1" horiz-adv-x="479" d="M19 1320q-10 -29 18.5 -50t81.5 -21q32 0 36.5 -27.5t-3.5 -191.5q0 -57 -5.5 -264.5t-5.5 -314.5q-8 -227 -7 -289.5t18 -93.5q25 -50 84.5 -55t101.5 44q34 43 61 331.5t27 653.5q0 261 -4 308.5t-28 71.5l-1 1q-24 17 -40 20t-68 3q-47 0 -67.5 -3.5t-43.5 -19.5 q-40 -28 -98 -53q-47 -21 -57 -50z" />
<glyph unicode="2" horiz-adv-x="882" d="M18 76q7 -40 81.5 -54t146.5 11q32 17 60 17t132 -17q129 -25 190.5 -25t110.5 25q72 32 87 111.5t-42 136.5q-4 4 -7.5 7t-8.5 5t-8 3.5t-10 2.5t-11 1.5t-14 0.5h-15.5h-20.5h-23q-60 0 -76 -4.5t-33 -28.5q-10 -10 -10 -53q0 -32 -3 -36.5t-20 3.5q-9 0 -51.5 6.5 t-66.5 6.5q-24 4 -45.5 6.5t-31.5 2.5l-10 1q-15 0 36 85q3 5 7 11q19 38 42 76t67 108t86 140q101 152 145 268.5t37 226.5q0 90 -18.5 144.5t-67.5 103.5t-100.5 67.5t-134.5 18.5q-72 0 -98.5 -3t-63.5 -19q-184 -82 -184 -193q-8 -51 41.5 -83t119.5 -15q70 16 56 76 q0 41 63 75q16 9 26.5 11t22.5 -5t20.5 -16t27.5 -33q19 -44 21 -115.5t-21 -132.5q-67 -202 -269 -485q-4 -4 -6.5 -12t-3.5 -14v-5q-23 -32 -33 -55q-55 -94 -91 -203.5t-28 -150.5z" />
<glyph unicode="3" horiz-adv-x="950" d="M20 1253q7 -75 53.5 -117.5t121.5 -50.5q39 0 72.5 19.5t25.5 36.5q0 34 -23 57q-17 34 -15.5 48t26.5 40q15 15 21.5 20.5t20.5 10t35 4.5q75 0 122 -54t40 -137q0 -43 -21.5 -80t-76.5 -87q-96 -80 -152 -80q-31 0 -57 -30t-18 -48q7 -32 44 -43.5t107 -11.5 q83 -8 131.5 -31.5t97.5 -81.5q77 -122 64 -223q0 -119 -65 -198.5t-162 -72.5q-43 0 -77.5 9.5t-41.5 25.5q-33 33 10 98q25 26 25 46.5t-25 46.5l-7 7t-7 5t-6.5 3.5t-8.5 2.5t-8.5 1.5t-11 0.5h-13h-17h-19.5q-51 0 -64.5 -4t-44.5 -29q-63 -64 -67 -143.5t47 -136.5 q53 -44 123.5 -66t179.5 -22q113 -7 170.5 2t122.5 43q128 67 196 190q16 33 22.5 60t7.5 44.5t1 73.5q0 22 -1 41t-3.5 37t-4 28.5t-5.5 31.5t-6 30q-62 147 -240 258q-30 9 -17 27q11 15 50 41q54 39 81 100.5t27 124.5q7 115 -57 204.5t-180 131.5q-64 17 -172.5 17 t-165.5 -17q-83 -34 -134 -89.5t-51 -113.5z" />
<glyph unicode="4" horiz-adv-x="866" d="M12 801q0 -21 23.5 -43.5t54.5 -28.5q39 -12 154 -22.5t153 -4.5q29 5 35 -3q8 -20 8 -113q-8 -307 -8 -451q6 -66 12 -81t33 -36q23 -20 50 -23.5t51 8t42.5 39.5t24.5 67q25 124 51 432q0 48 2 97t4 74l3 25q0 7 7.5 13t18.5 6q11 -6 38.5 8t33.5 27q20 28 -3 57 t-69 35q-10 0 -12 12q-6 23 -6 203q0 149 -2.5 185t-14.5 56q-38 64 -123 64q-30 0 -60.5 -11t-43.5 -24q-16 -16 -16 -262q0 -260 -13 -260q0 -7 -94 -19q-19 0 -39 2.5t-31 4.5l-10 2q0 3 5.5 23.5t15 55.5t16.5 66q25 153 25 242q3 83 0.5 96.5t-17.5 56.5q-27 48 -52 68 t-62 20q-37 8 -70 -8q-49 -38 -37 -117q6 -28 -9.5 -147.5t-41.5 -239.5q-27 -122 -27 -151z" />
<glyph unicode="5" horiz-adv-x="1036" d="M14 272q0 -49 3.5 -65t23.5 -43q56 -82 189.5 -118.5t275.5 -8.5q83 21 136 44t108 64q89 55 148 133.5t79 167.5q6 47 0.5 106t-19.5 93q-61 122 -236 190t-362 48q-18 -3 -42.5 -8t-39.5 -8t-18 -3q-11 -5 -14 8q-3 17 4 156q0 173 18 191q56 10 119 18 q86 15 128.5 18.5t162.5 -0.5q129 0 155 2t46 15q60 34 56 75.5t-67 69.5q-56 27 -145 37h-119q-53 0 -98 -8q-62 0 -130.5 -17t-189.5 -57q-62 -20 -74 -29t-26 -43q-33 -74 -52.5 -195t-19.5 -251q-6 -84 6.5 -117t49.5 -55q79 -39 217 18q10 3 27.5 8l24.5 7t20 5t23 4 t25 2t33 1q52 0 75.5 -4t62.5 -23q59 -27 95 -64t42 -73q6 -27 -5 -74.5t-32 -89.5q-13 -39 -70.5 -94.5t-101.5 -77.5q-43 -25 -96.5 -34.5t-77.5 -2.5q-34 13 -53 45.5t-19 73.5q0 46 -18 64q-13 13 -31 15.5t-70 2.5q-59 0 -73 -3.5t-27 -22.5q-19 -13 -23 -28t-4 -65z " />
<glyph unicode="6" horiz-adv-x="1030" d="M14 614q6 -156 36.5 -264t96.5 -200q35 -41 87.5 -81t91.5 -53q45 -7 127 -10t133 2q89 21 177.5 80.5t133.5 132.5q96 166 72 295q-20 140 -137 217.5t-310 77.5q-160 0 -239 -27q-21 -14 -23 -9t4 44q6 91 41 196t76 161q26 40 71.5 81t79.5 54q74 13 125 -64 q21 -42 38.5 -56.5t49.5 -14.5q79 0 91 53q6 20 6 31.5t-6 31.5q-13 38 -54.5 75t-89.5 58q-46 13 -114.5 19t-108.5 0q-148 -34 -252 -145t-158 -293q-55 -208 -45 -392zM264 535q0 13 45 43q54 46 102 61.5t121 9.5q59 0 77.5 -3.5t37.5 -22.5q54 -39 66.5 -117.5 t-21.5 -151.5q-34 -81 -102 -140.5t-121 -53.5q-27 0 -115 88q-26 39 -58 142.5t-32 144.5z" />
<glyph unicode="7" horiz-adv-x="958" d="M27 1241.5q7 -23.5 51 -51.5q43 -28 103 -21.5t95 41.5q28 28 50.5 33.5t128.5 13.5q34 4 69.5 6.5t54.5 2.5h19q-11 -56 -29 -113q-70 -226 -116 -480.5t-54 -453.5v-23q0 -112 9 -128q22 -43 108 -48t129 37q15 15 22.5 46t14.5 124q13 237 64.5 507.5t123.5 494.5 q7 32 17.5 69t16 57.5t5.5 24.5q0 21 -25 39.5t-61 26.5q-30 17 -159 0q-238 -22 -352.5 -34.5t-180 -27.5t-76 -25.5t-14.5 -35.5q-21 -58 -14 -81.5z" />
<glyph unicode="8" horiz-adv-x="1019" d="M25 408q0 -31 16 -113q23 -152 140.5 -244.5t271.5 -81.5q111 6 199.5 57.5t195.5 168.5q2 4 17 29t26.5 46t24.5 47.5t18 42.5q42 79 36.5 168.5t-59.5 173.5q-23 49 -78.5 105.5t-103.5 81.5q-48 40 -31 43q12 0 48.5 33.5t46.5 56.5q47 80 37.5 173t-68.5 161 q-22 24 -74 52t-70 28q-6 0 -38 18q-31 31 -57 38t-85 1q-96 0 -119 -6q-77 -41 -126 -90q-83 -71 -105 -197q-6 -43 -6 -60.5t6 -60.5q23 -108 105 -157q23 -19 24 -25t-16 -25q-18 -11 -113 -155q-25 -59 -44 -149t-19 -160zM264 434q0 67 19 153.5t43 129.5q4 6 6 14.5 t2 13.5v5q0 4 2 8.5t4 7.5l2 2q5 0 7.5 0.5t4.5 3.5t2 10q6 18 29.5 42t34.5 24t88 -47q106 -60 156.5 -131.5t50.5 -163.5q0 -20 -4 -45.5t-4 -26.5q-5 -5 -33 -55q-17 -54 -39 -76q-42 -61 -109.5 -120.5t-97.5 -59.5q-10 -6 -35.5 12t-36.5 37q-8 5 -18.5 18.5 t-11.5 14.5q-24 25 -43 94t-19 135zM326 1104q-20 68 16 172q27 55 53 75q11 9 11 -3t96 -41q36 -11 57 -45.5t21 -83.5q0 -51 -25.5 -95.5t-71.5 -68.5q-43 -19 -86 0q-30 18 -45 38t-26 52z" />
<glyph unicode="9" horiz-adv-x="1030" d="M18 940q20 -140 137 -217.5t310 -77.5q161 0 240 27q20 14 22 9t-4 -44q-6 -91 -41 -195.5t-76 -160.5q-27 -40 -72.5 -81.5t-78.5 -54.5q-74 -13 -125 64q-21 42 -38.5 57t-49.5 15q-78 0 -90 -54q-6 -20 -6 -31.5t6 -31.5q13 -38 54 -75t89 -58q46 -13 114.5 -19 t108.5 0q148 34 252 145.5t158 293.5q55 208 45 391q-6 157 -36.5 265t-96.5 200q-35 41 -87 80.5t-91 52.5q-45 7 -127.5 10t-133.5 -2q-89 -21 -177.5 -80.5t-133.5 -132.5q-96 -166 -72 -295zM273.5 951.5q-12.5 77.5 21.5 150.5q34 81 102 140.5t121 53.5q27 0 115 -88 q26 -39 58 -142t32 -144q0 -13 -45 -43q-55 -46 -102.5 -62t-120.5 -10q-58 0 -77 4t-38 23q-54 40 -66.5 117.5z" />
<glyph unicode=":" horiz-adv-x="354" d="M55 659q-6 -35 5 -53t53 -41q42 -20 109 -7.5t85 46.5q8 16 8 74q-14 55 -22 63q-23 29 -80 40.5t-92 -7.5q-30 -12 -48 -42.5t-18 -72.5zM59 233q-6 -35 5 -53t53 -41q42 -20 109 -7.5t85 46.5q8 16 8 74q-14 55 -22 63q-23 29 -80 40.5t-92 -7.5q-30 -12 -48 -42.5 t-18 -72.5z" />
<glyph unicode=";" horiz-adv-x="366" d="M34 150.5q-17 -75.5 11 -107.5q12 -21 41.5 -37t56.5 -16q16 6 16 -13q0 -8 -12 -57q-3 -12 -14 -33t-20 -35t-28 -42t-22 -33q99 -58 205 86q28 40 42 102t7 115q0 100 -67 149q-26 19 -77.5 20.5t-82.5 -11.5q-39 -12 -56 -87.5zM43 659q-6 -36 4.5 -53.5t52.5 -40.5 q42 -20 109.5 -7.5t85.5 46.5q8 16 8 74q-14 55 -22 63q-23 29 -80 40.5t-92 -7.5q-30 -12 -48 -42.5t-18 -72.5z" />
<glyph unicode="&#x3c;" horiz-adv-x="526" d="M25 763.5q4 -34.5 45 -122.5q83 -148 133 -215q21 -35 62.5 -75.5t64.5 -51.5q58 -26 107 -9t38 58q-13 42 -76 113q-25 30 -96.5 163.5t-71.5 149.5q0 4 6.5 23t20 52.5t29.5 65.5q78 156 112 238q22 78 12.5 104.5t-61.5 26.5q-21 0 -30 -5.5t-33 -29.5 q-41 -41 -41 -47q-2 -2 -35 -49q-88 -138 -168 -315q-22 -40 -18 -74.5z" />
<glyph unicode="=" horiz-adv-x="731" d="M41 526q0 -28 31 -43q14 -6 286 -6q259 0 287 12q37 5 44.5 33.5t-23.5 50.5q-23 16 -43 19.5t-105 3.5h-223q-152 -9 -223 -37q-31 -5 -31 -33zM55 772q-10 -21 5.5 -39.5t43.5 -23.5h258q183 4 217 6.5t56 13.5q16 11 20 19.5t0 23.5q0 17 -26 35q-15 10 -41 12t-135 2 h-217q-162 -22 -181 -49z" />
<glyph unicode="&#x3e;" horiz-adv-x="528" d="M31 379q13 43 75 113q25 30 96.5 163.5t71.5 149.5q0 4 -6 23t-19.5 52.5t-29.5 65.5q-84 168 -113 238q-22 78 -12 104.5t62 26.5q21 0 30 -5.5t33 -29.5q41 -41 41 -47q2 -2 35 -49q86 -135 168 -316q22 -40 18 -74t-45 -122q-83 -148 -133 -215q-21 -35 -62.5 -75.5 t-64.5 -51.5q-58 -26 -107 -9t-38 58z" />
<glyph unicode="?" horiz-adv-x="931" d="M31 1141q11 -88 145 -88q89 0 121 32q18 18 19.5 30t-5.5 42q-6 61 21 92t92 37q72 12 122.5 -16t69.5 -88q25 -74 -2 -149.5t-116 -164.5q-94 -100 -135.5 -156.5t-73.5 -125.5q-12 -41 -12 -96t12 -80q24 -46 76 -65t108 -7q36 12 45.5 33t9.5 88q6 81 41 138.5 t138 166.5q107 107 144.5 189.5t31.5 187.5q-6 104 -72.5 176.5t-185.5 103.5q-45 18 -122 24.5t-134 0.5q-145 -29 -217 -72q-62 -38 -97.5 -103.5t-23.5 -129.5zM289 104q0 -25 12 -42.5t43 -36.5q18 -18 34.5 -21.5t61.5 -3.5q40 0 57 2.5t40 13.5q47 31 54 79t-30 89 q-8 4 -27.5 16.5t-27.5 16.5q-23 7 -64.5 5t-64.5 -13q-7 0 -13.5 -2t-9.5 -4l-2 -2q0 -6 -5 -11.5t-11 -5.5q-19 -6 -33 -30.5t-14 -49.5z" />
<glyph unicode="@" horiz-adv-x="903" d="M37 715q0 -65 12 -90q22 -93 91 -165.5t169 -109.5q89 -27 204.5 -3.5t178.5 81.5q37 37 33 67.5t-45 45.5q-38 8 -64 0q-26 -4 -44.5 -15t-18.5 -22q-2 0 -41 -27q-113 -60 -211 49q-9 6 -19 20t-21 32.5t-15 23.5q-15 36 -18 55t-3 72q0 60 3 81.5t18 51.5 q45 100 133 166q128 75 258 -47q48 -41 66 -98.5t-3 -98.5q-11 -16 -15 -15q-4 4 -13 22q-5 5 -10 22t-5 27q-8 26 -26 34q-24 10 -49 35q-31 31 -79.5 36t-96.5 -21q-30 -10 -58 -39t-33 -51q0 -10 -4.5 -19.5t-9.5 -9.5q0 -2 -1.5 -12.5t-3 -26.5t-1.5 -31 q0 -38 2.5 -51.5t17.5 -38.5q47 -57 125 -57q79 0 133 63q16 16 24.5 20.5t18.5 0.5q13 -5 66.5 -3.5t73.5 11.5q65 27 90.5 89t5 137t-81.5 136q-86 86 -203 107q-106 13 -153 6q-103 -15 -193 -83t-143 -169q-16 -38 -28.5 -95t-12.5 -93zM437 738.5q2 42.5 12 66.5 q9 30 28 49q16 16 20.5 17t20.5 -9q7 -15 0 -37q-16 -39 -34 -71.5t-29.5 -47.5t-14.5 -12q-5 2 -3 44.5z" />
<glyph unicode="A" horiz-adv-x="1202" d="M40 80q0 -32 46 -55q18 -18 34 -21.5t62 -3.5q59 0 100.5 18t79.5 56q30 30 45.5 60t34.5 93q31 108 35 116q13 31 42 37q16 3 118 3q156 0 156 -8q0 -23 41 -131q43 -128 70.5 -168.5t82.5 -59.5q37 -12 49 -12t49 12q30 7 64 41q12 18 11 29.5t-19 60.5 q-8 13 -17.5 36.5t-13.5 27.5q-3 16 -19.5 71t-28.5 98.5t-9 43.5l32 16q26 13 39 39q12 19 12 28t-12 21q-12 24 -38.5 42t-57.5 24q-1 0 -4 1q-26 4 -35 16q-13 18 -53 151v1l-1 1v1v1l-1 2l-21 70q-14 72 -32 90q0 16 -15 63q-23 72 -24 74q-17 34 -17 41q0 4 -16.5 53 t-38 111t-27.5 80q-39 76 -90 88q-25 12 -37 12t-43 -12q-2 -2 -11.5 -9.5t-17.5 -15t-12 -14.5q-13 -13 -41.5 -91t-39.5 -137q-17 -34 -17 -49q-7 -7 -17 -35.5t-16 -62.5q-20 -71 -61 -222.5t-68 -240.5q-1 -5 -18.5 -64.5t-22.5 -88.5q-35 -115 -53.5 -164t-36 -70.5 t-47.5 -34.5q-54 -21 -54 -59zM541 553q0 32 16 65q12 84 66 277q6 19 7 19t7 -19q0 -8 16 -74q2 -10 19 -59.5t22 -77.5q32 -95 32 -108q0 -9 -19 -14q-4 -1 -5 -1q-58 -7 -105 -10t-56 2z" />
<glyph unicode="B" horiz-adv-x="1056" d="M4 1227q0 -371 14 -656q11 -428 20 -485q6 -44 24 -53q4 -1 12 -4q34 -23 73 -23t84 23q20 10 61.5 12t151.5 2q100 0 148.5 9t109.5 34q118 34 242 158q54 86 54 221t-54 221q-32 53 -87.5 99t-98.5 57q-11 10 -7.5 19.5t35.5 51.5q38 50 52 112q9 37 9 73q0 25 -4 49 q-10 60 -38 114.5t-77.5 94.5t-111.5 57q-86 22 -174 22t-153 -22q-54 -22 -66.5 -22t-34.5 22q-32 32 -71.5 32t-71.5 -32q-31 -21 -36 -47t-5 -139zM240.5 1295q5.5 8 48.5 18q38 6 73 6t67 -3t44 -3q63 -31 85 -121q8 -35 8 -68q0 -51 -21 -96q-36 -60 -75.5 -87.5 t-109.5 -27.5q-52 -8 -63 -5q-20 8 -27 67q-4 30 -10 125q0 32 -7 88t-7 67q-11 32 -5.5 40zM289 672q0 74 12 86t82 12h6q42 0 95 -9t75 -20q53 -10 87 -51.5t56 -118.5q9 -45 9 -87q1 -58 -17 -110q-30 -90 -106 -145q-36 -24 -67 -33.5t-91 -9.5q-26 -3 -46 -3 q-43 0 -54 15q-16 22 -26 164q-1 7 -1 11q0 65 -7 171.5t-7 127.5z" />
<glyph unicode="C" horiz-adv-x="1175" d="M16 705.5q0 -144.5 23 -238.5q39 -128 112.5 -234t157.5 -151q94 -46 209 -60q44 -5 85 -5q68 0 132 14q91 23 148.5 56.5t122.5 98.5q94 103 112 181q4 16 4 30q0 55 -55 80q-38 14 -75 14q-24 0 -48 -6q-60 -16 -106 -69q-71 -94 -106.5 -130t-80.5 -59 q-46 -23 -67.5 -23t-67.5 23q-111 79 -186 291q-21 107 -21 219q-3 42 -4 72t0.5 55.5t2.5 37t5.5 38.5t5.5 37q47 142 126.5 231.5t164.5 89.5q29 0 87.5 -30.5t99.5 -63.5q31 -31 67 -37q8 -1 15 -1q28 0 53 18q21 14 21 34q0 29 -42 70q-63 86 -189 121q-67 19 -134 19 q-61 0 -123 -15q-147 -38 -263.5 -167t-162.5 -302q-23 -94 -23 -238.5z" />
<glyph unicode="D" horiz-adv-x="1140" d="M12 121q-4 -25 15.5 -40t113.5 -67q47 -14 70 -14q33 2 116 6t146 7.5t78 6.5q128 26 285 130q15 10 55.5 50.5t50.5 55.5q53 67 75.5 115.5t37.5 124.5q25 96 29 168q1 19 1 40q0 55 -8 119q-14 108 -42.5 185.5t-78.5 154.5q-13 20 -45.5 55t-59.5 61t-30 26 q-12 0 -20 8q-12 12 -92 49q-31 0 -72 20q-57 14 -150 15q-16 0 -34 -1q-117 -3 -142 -28q-4 -5 -18.5 -3.5t-18.5 11.5q-8 15 -14 29q-26 32 -64 37q-7 1 -13 1q-30 0 -56 -18q-6 -3 -13.5 -10t-16 -17.5t-13.5 -15.5q-10 -25 -12 -49t-2 -112q-2 -29 -2 -83q0 -100 8 -288 q14 -315 14 -467q0 -165 -2.5 -193t-17.5 -28q-25 0 -41.5 -12.5t-16.5 -28.5zM308 1162q0 8 0.5 16.5t0.5 12.5t4 9.5t6 7t10.5 6t12.5 6t17.5 7t21.5 8.5q51 21 97 21q26 0 50 -7q38 -5 80.5 -23.5t67.5 -43.5q19 -19 26 -27t18.5 -28t22.5 -50q20 -41 35 -141 q10 -57 14 -183q1 -33 1 -60q0 -78 -7 -111q-8 -42 -15.5 -70t-10 -36.5t-2.5 -14.5q-2 -2 -10.5 -23.5t-22 -54t-25.5 -55.5q-7 -10 -20.5 -32.5t-22.5 -34t-33 -31.5t-59 -40q-30 -17 -82 -28.5t-88 -11.5q-19 -4 -23 3q-5 11 -5 123q0 188 -18.5 463.5t-39.5 401.5 q-1 13 -1 21z" />
<glyph unicode="E" horiz-adv-x="921" d="M18 332q0 -105 1.5 -158t10 -86t18 -42t32.5 -23q24 -18 50 -18q20 0 42 11q20 10 50 10q17 0 36 -3q81 0 187.5 6.5t160.5 17.5q155 39 162 39q7 7 39 23q53 11 53 69q0 24 -23.5 51t-52.5 33q-24 6 -68 6h-14q-54 -1 -81 -12q-53 -17 -153.5 -32t-164.5 -15 q-35 0 -39 6t2 41q0 8 3 66t3 88q2 22 6 60q10 101 20 118.5t62 19.5q18 1 29 2q71 0 146 13t94 26q51 32 51 70q0 5 -1 11q-8 45 -73 75q-26 10 -72 10q-62 0 -161 -18l-70 -9q-2 9 -2 45q0 24 1 61q2 91 7.5 197.5t9.5 106.5q70 8 156 16q126 12 169 23t71 39q19 19 19 43 q0 11 -5 25q-15 40 -61 57q-28 12 -96 11.5t-175 -11.5q-71 -6 -92 -6h-5q-16 1 -28 12q-30 25 -76 33q-15 3 -31 3q-31 0 -63 -11q-9 0 -25 -11.5t-20 -13.5q-12 -12 -14 -50t-2 -259q0 -288 -14 -410q0 -27 -4.5 -155t-4.5 -201z" />
<glyph unicode="F" horiz-adv-x="800" d="M41 522q-2 -135 -2 -227q1 -131 5 -175q8 -74 58 -97q27 -17 44 -17.5t44 10.5q58 36 68 82q37 130 51 441q6 50 16.5 58.5t67.5 14.5q79 6 154 19.5t106 25.5q45 28 49 64v8q0 32 -34 62q-34 23 -79 28q-14 2 -32 2q-40 0 -98 -8q-79 -14 -111 -14q-23 -6 -25.5 -2 t3.5 32q0 2 3 80t3 135q6 133 16 156q9 22 41 24q8 1 25 1q262 0 313 51q14 14 19 19.5t8.5 14t3.5 19.5q0 25 -4.5 34.5t-26.5 25.5q-39 33 -113 37q-9 0 -19 1q-75 0 -224 -24q-38 -6 -50 -4.5t-18 12.5q-37 37 -104 37q-41 4 -55.5 1t-34.5 -15q-23 -8 -46 -31 q0 -1 -0.5 -17t-1.5 -43t-2 -61.5t-1.5 -82t-0.5 -95.5q0 -270 -16 -582z" />
<glyph unicode="G" horiz-adv-x="1236" d="M10 727.5q0 -108.5 13 -174.5q18 -69 42.5 -146.5t36.5 -89.5q13 -13 27 -45q7 -23 158 -174q99 -50 227 -80q34 -4 68 -4q184 0 370 119q65 39 118.5 103t74.5 124q35 69 35 220q0 47 -3 61t-16 27q-34 34 -105 48q-29 6 -59 6q-40 0 -79 -11q-14 0 -62 -11.5t-72 -15.5 q-84 -13 -112 -25q-26 -6 -53 -26.5t-27 -34.5q0 -39 52 -64.5t140 -31.5q72 -9 72 -19q0 -21 -31.5 -86t-56.5 -90q-32 -32 -91 -64t-85 -32h-9q-55 0 -118 62q-69 68 -109 167q-40 86 -50.5 139t-10.5 166q-2 41 -2 76q0 75 9 126q12 76 46 159q32 66 80 119t94 73 q37 21 81 21q25 0 52 -7q75 -18 140 -83q38 -29 54 -33q13 -4 34 -4q39 0 61.5 16t16.5 37q0 8 -23 44.5t-47 60.5q-26 31 -96.5 60.5t-130.5 35.5q-76 10 -123 10q-73 -6 -155 -42.5t-134 -88.5q-29 -24 -76 -83t-47 -66q-19 -17 -27 -35q-22 -34 -47.5 -112t-31.5 -134 q-13 -59 -13 -167.5z" />
<glyph unicode="H" horiz-adv-x="1001" d="M10 179q4 -94 33 -122q27 -34 59 -39q8 -1 16 -1q25 0 52 12q29 14 39.5 27t17.5 50q33 145 49 388q7 99 16 116q10 19 45 21h25q24 -3 56 -3q84 0 227 21q10 6 13 -4q6 -20 6 -276q0 -199 3 -244.5t17 -67.5q28 -47 73 -47q19 0 42 8q12 0 31 11t28 20q14 22 28 94.5 t21 165.5q13 90 25 391t12 474q0 164 -9 199q-9 37 -45 55q-5 3 -13 6q-25 14 -72 14h-10q-54 -2 -82 -23q-22 -13 -25.5 -49.5t-3.5 -240.5q-8 -216 -17 -248q-7 -26 -28 -32q-4 -1 -14 -3q-69 -14 -157 -26.5t-124 -12.5q-52 0 -54 8q0 4 5 13q0 4 2.5 41.5t5 95.5 t2.5 114q3 80 3 137q0 73 -5 106q-9 59 -47 97q-13 13 -28.5 16t-67.5 3q-47 0 -65.5 -3t-31.5 -16q-21 -13 -24.5 -40t-3.5 -172v-21q0 -153 -21 -600q-5 -204 -5 -316q-1 -63 1 -97z" />
<glyph unicode="I" horiz-adv-x="387" d="M65 103q3 -38 19 -54l2 -2q38 -38 77 -38q19 0 38 9q23 8 37 17.5t27.5 36.5t20.5 60.5t15 104t13.5 151t13.5 216.5q12 190 20 420t8 293q-15 85 -67 117q-35 8 -77 10q-5 0 -9 1q-36 0 -60 -11q-18 0 -47 -29q-12 -12 -15.5 -18t-7.5 -27t3 -51q0 -412 -8 -666 q-5 -291 -5 -427q0 -91 2 -113z" />
<glyph unicode="J" horiz-adv-x="552" d="M16 162v-9q0 -30 14 -59q17 -34 53 -62.5t83 -41.5q40 -13 80 -13q85 0 170 56q19 14 31 25t23 30.5t16.5 35t9.5 51t4 66.5t-1.5 94t-4.5 120t-9 157q-20 498 -20 598v207q-19 11 -35 19q-34 21 -78 21q-36 0 -78 -13q-17 -10 -25 -16t-18 -17.5t-18 -28.5 q-12 -32 -14 -59t-2 -139q0 -41 1 -80.5t5.5 -111.5t8.5 -127t14 -200t18 -259q5 -117 5 -179v-19q-1 -63 -13 -63q-17 0 -27 35q0 11 -11 30t-24 32q-21 21 -46 21q-37 0 -83 -40q-26 -26 -29 -61z" />
<glyph unicode="K" horiz-adv-x="991" d="M34 286v-30q0 -82 9 -130q11 -56 26 -74.5t48 -26.5q17 -8 36 -8q15 -1 33 5q38 12 54 44q24 37 59 321v2q8 104 15 108q4 3 13 -12q4 -7 13 -26q16 -49 59 -92q16 -50 31 -50q11 -21 21 -41q11 -11 29 -34t22 -27q24 -32 69 -62.5t82 -37.5q47 -12 92 -12q21 1 42 3 q65 8 112 41.5t47 77.5q-8 41 -64 69q-37 19 -72 18q-18 0 -36 -5q-23 -7 -29.5 -6t-21.5 16q0 10 -31 41q-39 55 -97 154t-103 188q-37 58 -37 80q0 21 47 82q50 82 69 101q5 5 10.5 15t10.5 15q37 46 114.5 169.5t77.5 144.5q7 24 0.5 33.5t-30.5 17.5q-30 23 -69 23 q-29 0 -62 -13q-30 -14 -46.5 -33t-64.5 -90l-12.5 -12.5t-11.5 -11t-9 -9t-7.5 -9t-5.5 -7t-4 -6t-1 -4.5q-31 -31 -41 -62q-58 -78 -69 -86q-14 -8 -18 17q-3 22 -3 121q0 90 -3 135.5t-15 79.5t-33 46.5t-60 20.5h-72q-50 -12 -79 -41q0 -1 -3 -40t-5.5 -101.5 t-2.5 -120.5q0 -222 -20 -586q-1 -179 -3 -283z" />
<glyph unicode="L" horiz-adv-x="849" d="M16 151q5 -58 26 -75q4 -4 13 -10q47 -32 199 -36h38q132 0 266 22q152 24 200 63q37 25 37 65.5t-37 65.5q-30 20 -48.5 28t-73 13.5t-157.5 5.5q-110 -8 -159 -8q-24 0 -33 2q-26 6 -25 32q0 10 6 39q12 84 22.5 348t9.5 453q0 164 -4 201t-28 61q-23 23 -42 28t-72 5 q-83 0 -99 -16q-10 -10 -14.5 -92.5t-12.5 -398.5q-3 -123 -5 -195q0 -13 -1 -38q-8 -326 -8 -468q0 -70 2 -95z" />
<glyph unicode="M" horiz-adv-x="1280" d="M4 356q0 -189 3 -224.5t20 -61.5q44 -23 67 -23q52 0 79 25.5t36 79.5q33 146 57 561q0 51 3 107.5t6.5 93t3.5 38.5q9 32 14 32q8 0 42 -52q0 -1 1 -2q12 -18 46.5 -58t45.5 -57q34 -34 56.5 -45.5t56.5 -11.5q10 -5 27 -5t35 2.5t20 2.5q70 36 194 194q27 42 34 42 q10 0 11 -97v-72v-434q9 -177 14 -211t31 -76q27 -44 60.5 -63.5t101.5 -28.5q16 -3 32 -3q26 1 54 9q44 14 62 41q11 17 1.5 44.5t-34.5 35.5q-35 35 -35 70q-9 18 -16 153t-7 304q-9 372 -19.5 533t-27.5 187q-17 34 -45 46q-15 6 -39 6q-18 0 -41 -4q-6 -2 -20.5 -5.5 t-19 -5t-14.5 -5t-14.5 -7.5t-11 -10t-12.5 -15q-13 -13 -32.5 -37.5t-24.5 -29.5q0 -24 -23 -47q0 -12 -45 -80q-61 -92 -104 -148q-48 -69 -60 -78q-17 -11 -39 14q-7 7 -26 30q-43 66 -113.5 183.5t-70.5 125.5q0 12 -45 57q-43 43 -99 59q-27 8 -53 8q-28 0 -55 -9 q-43 -17 -50.5 -76t-7.5 -361q-10 -173 -10 -641z" />
<glyph unicode="N" horiz-adv-x="1024" d="M10 250q4 -146 17 -176q19 -40 57 -54q16 -6 33 -6q23 0 47 11q30 12 45 39.5t27 89.5l16 71q0 2 6.5 79t14.5 184t12 171q0 27 4 73t4 56q6 37 9 38q2 1 5 -6q3 -5 10 -23q167 -372 273 -564q81 -151 103 -181t57 -36q25 -12 36.5 -12t36.5 12q36 12 52 43t28 111l17 80 q0 3 6 83.5t15.5 215t16.5 239.5q0 42 4.5 170.5t4.5 182.5q0 151 -1.5 180t-13.5 53q-19 31 -35 41.5t-63 22.5q-25 6 -37 6t-43 -6q-47 -15 -63 -31q-18 -12 -21 -25t4 -49q0 -85 -5.5 -389t-10.5 -356q0 -2 -1 -7q-5 -32 -8 -33t-8 8q-4 6 -17 31q-3 6 -5 9l-113 240 q2 4 1 7.5t-7.5 18t-9.5 23.5q-4 12 -20.5 43.5t-20.5 44.5q-4 11 -10 23t-11 18l-4 6q2 17 -6 33q-18 41 -37.5 90t-19.5 55q-12 0 -25 55q-8 13 -17 33.5t-13 24.5q0 3 -4.5 11.5t-11 20.5t-9.5 23q-19 32 -33 46t-32 20q-37 19 -84 19t-84 -19l-33 -17q0 -1 -1 -21.5 t-2 -54.5t-2 -76.5t-2 -99t-1 -110.5q0 -341 -15 -506q-3 -86 -3 -171q-1 -64 1 -126z" />
<glyph unicode="O" horiz-adv-x="1214" d="M70 719q-13 -88 -13 -160q0 -87 19 -149q44 -192 196 -298q131 -91 300 -91q27 0 55 2q187 9 331.5 132.5t196.5 323.5q26 79 26 219t-26 228q-52 158 -145 284t-207 197q-53 26 -119 33q-19 2 -35 2q-39 0 -57 -12q-39 -21 -25 -48q0 -17 -5.5 -21t-41.5 -13 q-105 -17 -201 -98t-149 -195q-71 -142 -100 -336zM334 422q-16 56 -16 141t16 199q18 128 39.5 198t64.5 130q74 129 189 129q16 5 30.5 8t21.5 3l7 1q3 0 6.5 -1.5t8 -5t8 -7t10.5 -11t12 -12.5q7 -13 35 -52t37 -52q111 -186 111 -394q0 -20 -1 -41q-12 -231 -145 -374 q-96 -97 -170 -101q-4 0 -7 1q-70 0 -153 75q-8 8 -14.5 15.5t-13.5 16.5t-12 15.5t-11.5 18t-10 17.5t-10.5 20t-10 19t-11 22t-11 22z" />
<glyph unicode="P" horiz-adv-x="933" d="M8 283q0 -167 10 -197q0 -8 1.5 -15t5 -14t6 -11t8.5 -12t8 -11q15 -15 27.5 -19t44.5 -4q48 0 72 24.5t39 85t30 195.5q5 43 13 179.5t8 168.5q0 15 100 15q140 0 234.5 28t162.5 92q12 12 30 33.5t19 22.5q0 13 15 28q6 23 20 43q2 12 6.5 35t6.5 43.5t2 48.5 t-3.5 68.5t-3.5 46.5q-11 35 -34 78t-43 63q-14 25 -56.5 55.5t-58.5 30.5l-14 7q-10 14 -71 24t-120 10q-15 1 -29 1q-68 0 -135 -27q-21 -5 -28 -4.5t-21 10.5q-46 40 -102 40q-30 0 -62 -11q-37 -15 -43 -21q-18 -18 -21 -103q-1 -18 -5 -274q0 -304 -15 -461 q-5 -114 -5 -262q1 -15 1 -30zM295 803v147q14 182 14 250q-3 44 -3 68q0 19 2 26q4 15 30 19q20 6 92 6h16.5h14h10.5t10 -0.5t8 -1.5t8.5 -2.5t8 -3t10.5 -4.5q38 -33 54 -83t16 -139q0 -67 -9 -109.5t-34 -88.5q-26 -42 -56.5 -57.5t-105.5 -26.5q-16 0 -40 -1.5 t-35 -1.5t-11 3z" />
<glyph unicode="Q" horiz-adv-x="1228" d="M4 542q2 -78 10 -114q2 -10 6 -24.5t6.5 -24t2.5 -14.5t4 -13t8 -8q6 -6 6 -12q-4 -8 14 -47t37 -70q98 -98 131 -125q123 -90 306 -90q50 0 76.5 3t72.5 17q37 10 85.5 30.5t76.5 39.5l18 8q17 0 33 -26q32 -28 61.5 -36.5t81.5 -8.5q54 0 81 11t42 40q15 20 -3 46.5 t-48 31.5q-29 9 -59 39q-30 35 -36.5 45.5t-2.5 19.5q10 10 36 55t35 68q25 63 35 125t10 154q1 21 1 42q0 119 -25 214q-29 112 -105 231q-32 43 -32 59q-5 0 -14 8.5t-13 22.5q-21 25 -75 75.5t-87 74.5q-56 33 -71 38q-27 14 -73 20q-26 3 -44 3q-15 0 -25 -2 q-53 -19 -53 -51q0 -9 4.5 -18t9.5 -9v-12q0 -6 -47 -15q-38 -4 -62.5 -12t-78.5 -33q-54 -27 -94 -60.5t-76 -88.5q-109 -145 -150 -401q0 -46 -12 -86q-4 -32 -4 -86v-34zM262 494q-3 32 -3 66q0 125 34 284q3 20 8 42t13 49.5t12 45.5q29 64 71 135q83 102 176 111 q39 0 45 6q19 6 29 2t29 -27q54 -59 102 -142.5t68 -156.5q26 -101 26 -209q0 -66 -8.5 -127.5t-17.5 -66.5q-6 14 -6 20q-19 19 -27 45q-14 14 -33 52q-6 6 -22.5 23.5t-22.5 23.5q-3 3 -6 5.5t-5 4t-5.5 3t-5.5 2.5t-6.5 1.5t-6.5 1t-7.5 0.5h-8h-10h-10.5q-67 0 -84 -39 q-3 -10 -3 -24q0 -31 15 -80q26 -62 63.5 -131.5t46.5 -69.5q0 -3 3.5 -6t3.5 -6q2 -15 14 -21q10 -20 6.5 -31.5t-27.5 -31.5q-54 -49 -108 -72q-38 -17 -69 -17q-12 0 -23 3q-55 20 -107.5 69t-81.5 107q-25 50 -33.5 76t-17.5 80z" />
<glyph unicode="R" horiz-adv-x="1062" d="M8 235q0 -75 10 -122q11 -56 18 -69.5t32 -23.5q20 -9 43 -9q13 0 29 3q40 9 63 35q16 23 34.5 107.5t28.5 191.5q0 69 15 156q0 18 4 62.5t4 58.5l1 39l5 -25q24 -63 77.5 -173t78.5 -140q0 -2 43 -64q101 -157 178 -184l35 -15q0 -8 57 -20q23 -3 45 -3q55 0 101 20 q66 28 87 81q9 17 7.5 24.5t-13.5 24.5q-15 36 -64 52q-25 8 -49 8q-23 0 -44 -8q-21 -4 -32 3.5t-38 45.5l-37 49q-3 3 -4.5 6.5t-1.5 5.5v2q0 3 -9 12.5t-12 16.5t-14 21.5t-14 21.5q0 4 -5 9t-10 5q-8 9 -8 15q0 2 -3.5 10t-8.5 19.5t-8 19.5q-6 9 -26.5 43t-31.5 49 q-24 60 -34 70q-14 6 2 18q10 7 26 10q109 18 213 107q58 58 78.5 114t20.5 148q0 161 -85.5 258t-248.5 119q-43 7 -84 7q-82 0 -156 -28q-28 -20 -37 0q-35 35 -98 35q-51 0 -78 -8q-39 -16 -43 -27q-9 -6 -12 -10.5t-6 -31t-3.5 -67.5t-0.5 -132q0 -306 -7 -447 q-10 -421 -10 -496zM301 909q0 12 2 62v250q4 72 7 86.5t14 19.5q7 0 21.5 3t21.5 3q26 11 65.5 11t61.5 -11q100 -46 100 -227q0 -61 -9.5 -99.5t-33.5 -84.5q-27 -55 -66.5 -77t-117.5 -22q-45 -4 -55 4q-11 10 -11 64v18z" />
<glyph unicode="S" horiz-adv-x="1093" d="M0 1012q0 -151 113 -256q60 -60 131 -95.5t192 -66.5q128 -35 166.5 -48t69.5 -34q37 -33 49 -55.5t12 -71.5q0 -82 -53 -135q-24 -31 -70 -48q-35 -13 -71 -13q-10 0 -21 1q-36 0 -106 17t-109 37q-21 12 -63 12h-18q-56 -3 -81 -18q-35 -20 -40 -55q-1 -5 -1 -10 q0 -29 27 -50q15 -10 68 -37.5t79 -38.5q116 -35 254 -36h8q133 0 224 30q48 14 104 50.5t90 70.5q46 63 68 135q10 31 10 91t-10 91q-15 36 -42.5 75.5t-51.5 59.5q-14 4 -23.5 13t-9.5 14q-2 1 -24.5 11t-44.5 20t-49.5 21t-43.5 16q-12 3 -33 9t-50 15.5t-46 14.5 q-141 35 -200.5 70.5t-94.5 105.5q-22 42 -22 91q1 5 1 11q2 56 27 86q46 56 107.5 102t116.5 66q31 10 42 10t31 -10q24 -10 46.5 -36t33.5 -52q10 -25 10 -81t-10 -81q-5 -14 -4.5 -21.5t10.5 -17.5q21 -41 95 -41q36 0 57 8.5t45 32.5q39 39 59 107q4 22 4 44t-4 44 q-10 50 -27 82t-53 73q-85 74 -176 95q-23 10 -94 14q-29 1 -51 1q-32 0 -49 -3q-91 -20 -107 -27q-35 -9 -107.5 -47t-94.5 -53q0 -5 -10.5 -14t-24.5 -13q-94 -73 -133 -161q-13 -34 -16.5 -45t-7 -30.5t-3.5 -45.5z" />
<glyph unicode="T" horiz-adv-x="954" d="M12 1274q16 -22 74 -47q16 -5 89.5 -13t107.5 -8h1q24 0 29 -10q9 -16 9 -141v-24v-27q0 -63 -3.5 -183.5t-3.5 -152.5q-11 -146 -11 -369t11 -238q10 -29 35.5 -45t52.5 -16q5 -1 9 -1q26 1 54 19q34 22 38 43q30 114 44 294.5t30 609.5q14 219 14 221q-5 31 -1.5 37 t34.5 16q111 18 209 47q3 3 17 13.5t17 13.5q16 12 21.5 20t5.5 27q0 24 -10.5 37.5t-36.5 29.5q-40 21 -88 21h-68q-13 0 -53 -12q-65 -22 -242 -47q-68 -15 -161 -15q-14 0 -55 1q-27 1 -47 1h-17q-23 0 -29 -4q-84 -21 -84 -67q0 -14 8 -31z" />
<glyph unicode="U" horiz-adv-x="1017" d="M18 674q8 -219 30.5 -316t86.5 -161q93 -108 254 -138q55 -12 106 -12q135 -1 246 85q152 118 203 366q15 65 18 131.5t3 298.5q0 87 -0.5 144t-3 110.5t-5 84.5t-9 59.5t-13.5 42.5t-19.5 26.5t-25.5 18t-33 11.5q-25 4 -48 5q-64 0 -118 -33q-2 -3 -6 -8 q-16 -19 -18 -63v-31q0 -69 4 -255q1 -47 2 -73q4 -87 4 -161t-2 -136.5t-2 -83.5q-29 -224 -127 -322q-32 -32 -43 -39t-25 0q-58 20 -98 60q-46 52 -63 226q-8 80 -8 174q0 111 11 243q0 58 5.5 171t5.5 142q0 102 -10.5 135.5t-47.5 48.5q-30 17 -78 21q-12 1 -23 1 q-33 0 -56 -11q-37 -15 -47 -40q-6 -14 -5 -37q0 -17 3 -40q0 -82 -9 -117q-42 -197 -42 -417q0 -55 3 -111z" />
<glyph unicode="V" horiz-adv-x="1177" d="M27 1307q2 -4 8 -20t13 -33t13 -29q3 -12 13.5 -45.5t27 -84t27.5 -85.5q20 -59 52.5 -161.5t47.5 -143.5q0 -6 3.5 -18t12.5 -35t13 -36q6 -38 27 -88q0 -20 73 -235q39 -135 74 -203q12 -22 33 -47t35 -29q15 -10 44 -10t44 10q19 10 40.5 35t26.5 41q0 8 4.5 16.5 t4.5 10.5q29 42 120 405q9 30 17 55t11 34t5 17t2 15q11 16 27 88q6 15 20 76q8 16 17 43.5t10 30.5q0 7 3 23.5t3 23.5q33 68 47 149q15 50 15 53q1 2 9.5 27t16.5 41q19 92 62 102q25 4 43.5 18t23.5 30q11 26 0 49t-41 33q-25 14 -69 18q-21 2 -37 3q-19 0 -35 -3 q-24 -4 -62 -23t-61 -36q-61 -52 -100 -218q-12 -40 -21 -61q-16 -61 -26 -94q-9 -43 -27 -94q0 -8 -4 -27t-4 -21q-2 -10 -12 -43t-21 -79q-6 -15 -11.5 -34t-9.5 -37t-6 -24q-14 -63 -14 -82q-18 -34 -21 -34t-6 8q0 35 -14 55q-33 112 -61 203q-11 77 -33 108 q-14 63 -14 68q0 10 -13 53q-2 6 -13.5 36t-14.5 46q-36 122 -54 148q0 8 -14 41q-24 69 -74 108q-28 24 -83 24q-5 -1 -11 -1q-63 -2 -94 -29q-22 -16 -22 -46q0 -24 14 -56z" />
<glyph unicode="W" horiz-adv-x="1269" d="M22 1257q0 -4 -1 -9q0 -36 4 -93q5 -43 10.5 -128t12.5 -224.5t11 -200.5q23 -402 31 -458q9 -61 31 -83q17 -33 53 -46q20 -7 39 -7q14 0 27 4q52 35 168 230q38 58 86.5 126t70.5 101q19 18 29 14t52 -46l3 -3q47 -88 131 -217q30 -54 67.5 -103t53.5 -65 q27 -27 67 -29q4 0 8 -1q34 0 58 18q23 8 34.5 21t22 51t15 113.5t10 200.5t12.5 320q0 14 0.5 21.5t1 20t0.5 22.5q0 67 1 137.5t3 124.5t3.5 97.5t2.5 69.5t1 28q0 12 8.5 21.5t15.5 13l25 12.5q30 30 30 59q0 13 -6 25q-28 35 -106 43q-18 2 -35 2q-54 0 -88 -21 q-29 -16 -46.5 -30.5t-33 -46t-22.5 -65t-13.5 -105t-9.5 -147t-6 -208.5q0 -324 -7 -338q-2 -4 -5 2q-22 46 -109 133q-47 47 -67 59.5t-54 12.5q-13 2 -26 2q-56 0 -98 -32q-52 -39 -152 -175q-8 -17 -10 -4q-2 12 -2 101q0 110 -23 409q0 169 -8 231.5t-29 92.5 q-31 74 -119 74q-17 0 -36 -3q-29 -4 -42.5 -9t-26 -16.5t-15.5 -37t-3 -62.5z" />
<glyph unicode="X" horiz-adv-x="960" d="M6 94q-2 -9 -2 -17q0 -34 31 -65q19 -19 44 -19q23 -1 52 15q60 32 96 105q0 5 4.5 12.5t8.5 7.5h6q0 13 14 41q20 33 92 170l66 137q13 0 69 -131q38 -84 61 -132t46.5 -92t37.5 -63.5t32.5 -34.5t34 -18.5t38.5 -3.5h21.5t12.5 2t11.5 5.5t8.5 11.5q18 18 18 51 q0 27 -12 65q-13 59 -13 68q-3 3 -6.5 11.5t-9 24t-10.5 25.5q-10 35 -27 68q-11 36 -6 41q0 3 -2 6.5t-4 5.5l-2 2q-10 10 -19 39q-3 6 -10 24.5t-10 24.5t-10.5 23.5t-10.5 23.5t-9 23.5t-9 23.5t-10.5 24t-10.5 24q-7 23 -26 62t-21 46l-12 29q0 8 39 88q16 25 74 143 q7 12 19 33.5t20.5 35.5t13.5 19q2 3 17.5 40t27.5 61q48 91 80 123q45 42 50 52q4 11 -9 29q-10 22 -26 32t-54 14q-20 5 -40 5q-41 0 -83 -21q-64 -31 -108 -97q-31 -52 -60 -111q-69 -150 -82 -150q-2 0 -4 3q-10 0 -22 39q-65 149 -99.5 211t-66.5 96q-33 33 -45 33 l-15 8q-6 12 -92 12q-26 -5 -48.5 -19.5t-31.5 -33.5q-3 -19 -2.5 -22.5t11.5 -32.5q17 -28 157 -320q112 -248 113 -250q0 -14 -47 -131q-65 -119 -131 -282q-3 -3 -8.5 -13.5t-12.5 -25.5t-12 -23q-3 -12 -8 -24.5t-9 -18.5l-4 -6q0 -21 -6 -27q-6 -12 -6 -34l-8 -13 q-12 -12 -12 -32q-7 -25 -23 -56z" />
<glyph unicode="Y" horiz-adv-x="798" d="M60 1084q11 -181 75 -267q22 -38 43 -54.5t64 -35.5q44 -23 76.5 -31t97.5 -14q46 -6 53.5 -34.5t7.5 -192.5q0 -235 -7 -265q-4 -16 -11 -17q-2 0 -4 1q-9 16 -17 39q-10 69 -59 82q-28 6 -60 -4t-55 -33q-4 -4 -7.5 -8t-6 -7t-4.5 -8t-3 -6.5t-2.5 -8t-2 -9t-2.5 -11.5 t-3 -12q0 -60 62 -112q50 -50 129 -62q21 -3 43 -3q51 0 103 17q72 24 112 70q13 22 37 76q9 37 12 69t7.5 168t11.5 453q0 429 14 469q2 13 2 25q0 49 -39 74q-18 11 -63 14q-12 1 -22 1q-31 0 -52 -7q-35 -9 -55 -30t-32 -73t-16 -128t-4 -210q0 -47 -1.5 -92.5 t-3.5 -67.5l-1 -22q-18 0 -42.5 11t-41.5 28q-80 72 -80 279q0 47 4 100q8 75 8 109q0 13 -1 20q-4 27 -37 37q-29 11 -65 11q-21 0 -44 -4q-64 -10 -74 -38q-46 -86 -46 -226q0 -29 2 -60z" />
<glyph unicode="Z" horiz-adv-x="915" d="M0 61q27 -44 71 -49q6 -1 13 -1q38 0 76 26q34 17 123 17q48 0 112 -5q63 0 164.5 -6t118.5 -6q23 -3 43 -3q37 0 65 10q44 16 64 54q3 11 3 22q-1 50 -75 80q-90 36 -297 36q-44 5 -90 8t-70 4h-24q50 110 111 233q23 51 95.5 209.5t100.5 220.5q132 263 160 310 q51 122 54 150v6q0 29 -27 50q-1 2 -3 3q-17 17 -37 20.5t-73 3.5q-99 0 -111 -12q-5 -1 -33 -6.5t-42 -8.5t-46.5 -8t-58.5 -7.5t-63.5 -4.5t-75.5 -2q-142 -9 -189 -25t-47 -61q-7 -29 -1.5 -40.5t26.5 -21.5q29 -21 127 -33q57 -7 113 -7q40 0 81 4q27 3 46 3 q40 0 44 -12q1 -2 0 -7q0 -27 -40 -132q-25 -45 -62 -125t-49 -98q-5 -15 -39.5 -85.5t-48.5 -111.5q-66 -124 -125.5 -273.5t-83.5 -232.5v-86z" />
<glyph unicode="[" horiz-adv-x="606" d="M33 260q0 -159 3 -203.5t15 -64.5q41 -80 275 -80q116 0 158 17t30 63q-8 28 -45.5 40.5t-122.5 12.5h-108q10 16 34 356q7 101 37 764q0 160 12.5 186.5t86.5 18.5q87 0 118 10.5t31 42.5q7 20 1 28.5t-34 16.5q-30 13 -83.5 18t-121.5 -1q-78 -7 -157 -27.5t-103 -34.5 q-7 -7 -10 -164q0 -48 -1 -79t-2 -93t-3 -124q-10 -250 -10 -703z" />
<glyph unicode="\" horiz-adv-x="811" d="M-43 1432q-6 34 7.5 47.5t47.5 7.5h47q11 -6 40.5 -38t29.5 -38q6 -8 14 -16q18 -18 85.5 -145.5t125.5 -252.5q15 -26 33.5 -69t20.5 -47l8 -39q14 -23 22 -54q6 -11 18 -39t30 -70.5t30 -68.5q13 -30 27.5 -66.5t24 -59.5t12.5 -29q14 -25 14 -47q0 -11 16 -39 q6 -11 16 -39t26.5 -76.5t27.5 -79.5q14 -44 14 -55q11 -11 24 -66t7 -65q0 -4 -4.5 -8t-13 -11t-13.5 -12q-10 -10 -24 -12t-52 -2q-59 0 -85 19t-48 87q-65 168 -110 311q-6 17 -23.5 61.5t-21.5 57.5q-13 41 -23 51q0 15 -22 64q-16 61 -25 70q-4 4 -11.5 23t-10.5 24 q0 8 -4.5 22t-4.5 17q-14 14 -24 45q-4 13 -15.5 39.5t-15.5 39.5q-55 107 -55 117q-15 37 -70 162q-74 180 -92 279z" />
<glyph unicode="]" horiz-adv-x="610" d="M21 1455q2 -30 49 -50q10 -4 21.5 -5.5t20.5 -1.5t30 0.5t34 0.5q66 6 74 4q24 -5 29 -42q4 -26 4 -196q0 -247 19 -576.5t34 -445.5q2 -8 4 -20q9 -39 0.5 -46t-68.5 -11q-21 -2 -34 -3q-78 0 -100.5 -3t-43.5 -15q-15 -9 -18 -15t2 -28q0 -33 40 -48t138 -15 q203 0 266 63q19 19 24 35.5t13 79.5v444q-18 351 -18 615q0 180 -3 221.5t-16 54.5q-20 20 -54 30.5t-116 22.5q-86 12 -175.5 12t-117.5 -12q-40 -20 -38 -50z" />
<glyph unicode="^" horiz-adv-x="765" d="M29 1110q8 -25 65 -35l31 4q0 4 5.5 8.5t10.5 4.5t10 1.5t7 2.5l2 2l18 18q26 13 60 47q85 78 94 78h6q0 -3 31 -18q36 -24 41 -29q12 -12 18 -12h3h1q0 -6 25 -19q5 0 8.5 -3.5t3.5 -8.5q6 -6 12 -6h17q0 -3 4.5 -7t15 -9t17.5 -8.5t22 -9.5t18 -7q78 -10 125 31 q5 5 10 12t7 11l2 5q0 39 -103 94l-28 19q-12 12 -19 12q-16 7 -28 19q-6 4 -54 28q-6 3 -24.5 12.5t-24.5 12.5q-36 22 -75.5 28.5t-71.5 -6.5q-26 -9 -39 -18t-62 -53q-20 -20 -50.5 -49.5t-33.5 -32.5q-8 -5 -15 -11.5t-10 -9.5l-3 -4q0 -3 -1.5 -5.5t-5 -7t-5.5 -9.5 q-14 -14 -25.5 -36.5t-11.5 -35.5z" />
<glyph unicode="_" horiz-adv-x="880" d="M35 8q15 -6 56 -7t198 -1h127q249 0 301.5 2t70.5 14q21 13 29 24t8 30q0 43 -86 57q-57 12 -193 14t-222 -6q-217 -15 -289 -64q-46 -31 0 -63z" />
<glyph unicode="a" horiz-adv-x="724" d="M4 242q1 -44 14 -72q29 -68 113.5 -109t194.5 -41q46 -5 49 -8q2 -2 6 -14q22 -60 115 -84q27 -7 52 -7q18 0 35 4q39 9 64 36q19 22 19 45q0 5 -0.5 7.5t-1.5 4.5t-2.5 3.5t-4.5 5t-6 7.5q-14 12 -16 25q-1 4 -1 14q0 20 3 64q3 52 8.5 133.5t8 123.5t6 105t3.5 77.5 t-1 41.5q-11 87 -29 125q-10 25 -42 58t-59 49q-57 32 -130 31q-36 0 -76 -7q-35 -5 -100.5 -22.5t-82.5 -28.5q-39 -25 -28 -47q15 -20 68 -20q19 0 44 3q29 5 62 5q17 0 35 -1q54 -4 63 -14q15 -12 31 -92q1 -7 1 -23q0 -28 -4 -78q-7 -80 -12 -85h-32q-34 9 -91.5 9 t-86.5 -9q-57 -12 -108.5 -52t-70.5 -86q-10 -30 -10 -69v-8zM218 296q14 48 56 69q4 3 7.5 4.5t9 2.5t9 2t11 1h11h14.5h16q46 -2 47 -4q0 -23 -10 -105q-2 -22 -5 -57q-5 -65 -9 -75.5t-23 -6.5q-6 1 -10 2q-51 4 -73.5 18t-41.5 52q-14 30 -14 61q0 18 5 36z" />
<glyph unicode="b" horiz-adv-x="792" d="M8 332q0 -195 1.5 -229.5t13.5 -51.5q35 -50 78 -57q7 -1 14 -1q36 0 73 30q26 18 37 59q4 23 19.5 27t95.5 4q25 -1 48 -1q56 0 96 7q56 10 114 39q52 24 74 43t45 63q14 27 16.5 38t-0.5 54q0 23 -2.5 39t-6 25.5t-13.5 32.5q-23 35 -65.5 64.5t-86.5 41.5 q-37 13 -121 16q-18 1 -34 0q-59 0 -95 -8q-24 -5 -26 -1q0 2 4 24q5 46 13 304q5 168 4 264q0 51 -1 81q0 90 -3.5 110t-20.5 44q-23 40 -73 55q-24 7 -49 7q-28 0 -59 -9q-38 -13 -46 -23q-19 -21 -22 -122q-1 -47 -1 -183q0 -221 -15 -391q0 -30 -3 -172.5t-3 -222.5z M256 256q4 25 10 109t6 104q6 18 64 20h9q52 0 85 -20q51 -26 67 -76q6 -20 6 -39q0 -29 -14 -57q-24 -46 -79 -61q-29 -11 -93 -11q-51 0 -58.5 4t-2.5 27z" />
<glyph unicode="c" horiz-adv-x="700" d="M14 360q12 -80 56 -145t110 -100q55 -27 126 -33q20 -2 39 -2q51 0 99 12q82 28 103 47l14 17q5 0 27 19.5t33 35.5q23 31 23 56q0 14 -7 26q-5 14 -9 19.5t-16 9.5q-11 9 -20 10.5t-37 1.5q-27 0 -35 -1.5t-28 -10.5q-36 -24 -64 -52q-30 -33 -49 -44t-43 -11h-6 q-28 1 -58 35q-34 38 -53 100q-8 24 -8 84q-2 19 -2 35q-1 22 3 37q6 27 24 63q21 41 42 62t54 33q21 7 43 0q18 -4 40.5 -15.5t28.5 -17.5q5 -10 18.5 -15.5t29.5 -1.5q42 0 51 23q7 7 0 27q-36 58 -125 84q-48 8 -86 8q-27 0 -49 -4q-46 -7 -90 -29q-77 -44 -115 -96 q-3 -3 -7.5 -10.5t-7.5 -10.5q-10 -12 -16 -28q-13 -34 -16 -37q-9 -25 -15 -83q-4 -35 -4 -63q0 -19 2 -35z" />
<glyph unicode="d" horiz-adv-x="784" d="M0 358q0 -171 248 -227q46 -6 90 -6q24 0 47 2q28 0 64 2l36 2q21 8 21 -10q0 -25 6 -41q12 -36 41 -57q24 -18 52 -18q5 0 11 1q56 0 64 14q-2 7 4 7q5 0 15.5 12.5t17.5 30.5q5 16 6 252v58q0 197 -6 331q-10 123 -10 411q0 206 -2.5 244.5t-14.5 46.5q-39 39 -114 39 q-16 0 -33 -2q-60 -12 -86 -57.5t-31 -143.5q0 -178 23 -532q3 -36 4 -71.5t1 -53.5l-1 -17q-11 -1 -21 5q-3 0 -21.5 1.5t-46.5 3t-53 1.5q-84 0 -114 -6t-80 -31q-117 -63 -117 -191zM242 432q24 55 80 64q20 4 63.5 4t63.5 -4q8 -5 11 -48q2 -19 3 -32q14 -156 22 -178 q-5 -7 -57.5 -6t-89.5 6q-68 15 -96 74q-14 30 -14 60t14 60z" />
<glyph unicode="e" horiz-adv-x="757" d="M2 618q-1 -17 -1 -33q0 -73 22 -136q37 -112 124.5 -173t212.5 -61q88 0 162 35q96 38 146 106q29 40 30 71q0 23 -16 42q-25 25 -82 25q-33 0 -40 -1t-25 -10q-33 -20 -72 -59q-62 -62 -96 -62q-28 0 -54 21q-41 35 -71 109q-2 7 -6 19t-5 16t-2.5 12.5t-2 15.5t-1 18.5 t-0.5 28.5q0 58 5.5 79.5t25.5 61.5q19 45 53 75q31 27 60 26h6q30 0 58 -24.5t28 -53.5v-5q0 -23 -23 -55q-26 -36 -63 -61q-21 -14 -58.5 -34t-48.5 -23t-23 -16t-12 -23t10.5 -21t24.5 -14q11 -2 24 -2q31 0 75 10q62 14 106 43q24 16 31 23q2 2 13.5 8t17.5 10 q59 44 84 96q18 39 18 75q0 13 -2 26q-6 25 -30.5 57.5t-53.5 54.5q-76 54 -179 54q-28 0 -59 -4q-61 -6 -124.5 -39.5t-98.5 -77.5q-44 -52 -64.5 -106t-23.5 -124z" />
<glyph unicode="f" horiz-adv-x="671" d="M12 879q-4 -14 16.5 -29.5t53.5 -26.5q13 0 25 -1.5t18 -3.5l6 -1q10 -10 24 -288q10 -205 10 -312q0 -39 -1 -65q-4 -51 -4 -74q0 -9 1 -13q2 -15 17 -30q37 -31 94 -31q15 0 31 2q83 15 107 74q19 48 19 174q0 27 -1 57q-26 498 -29 506q21 6 56 12q153 29 153 84 q0 21 -41 50q-21 4 -45 4q-41 0 -88 -13l-41 -6q-5 11 -7 150q-1 54 -1 90q0 58 2 72q3 14 8 19.5t10.5 0t8.5 -19.5q11 -31 25 -55.5t24 -28.5q20 -10 42 -10q26 0 53 14q51 27 56 73q2 11 2 22q0 54 -43 89q-67 77 -177 77q-34 0 -72 -7q-25 0 -57 -13.5t-48 -29.5 q-27 -18 -67 -76q-23 -41 -23 -170q0 -41 2 -92q4 -63 4 -89q0 -11 -1 -16q-2 -16 -17 -20q-8 0 -24.5 -4t-18.5 -4q-15 0 -38.5 -15.5t-23.5 -25.5z" />
<glyph unicode="g" horiz-adv-x="790" d="M8 612q20 -74 80 -114q78 -66 215 -66q85 0 109 14q9 0 19 2t14 2t4 -4q5 0 28 -497q3 -48 3 -81q0 -82 -15 -82h-2q-10 3 -23 42q-26 81 -82 81q-19 0 -41 -9q-39 -22 -51 -37.5t-12 -42.5q-6 -39 1 -63.5t34 -51.5q74 -76 189 -76q1 0 2 1q117 0 198 81q17 21 24.5 38 t18.5 56q11 33 11 130v9q-1 104 -17 459q-18 254 -18 376q0 49 3 77q0 137 -8 145q-10 22 -58 39q-35 13 -61 13q-10 0 -18 -2q-3 0 -10.5 -3.5t-18.5 -9t-20 -8.5q-54 -21 -66 -94q-2 -10 -4 -25q-6 -36 -14 -41.5t-53 -5.5h-23q-132 0 -194 -28l-43 -15q-7 0 -78 -71 q-27 -44 -27 -97q0 -20 4 -41zM240 690q42 74 143 74q32 0 37.5 -2.5t11.5 -20.5q0 -2 4 -45.5t4 -77.5q0 -70 -4.5 -82t-32.5 -18q-8 0 -22.5 -2t-26.5 -2t-22 4q-61 6 -90 60q-15 27 -15 56q0 28 13 56z" />
<glyph unicode="h" horiz-adv-x="798" d="M16 422q-3 -92 -3 -156q0 -73 4 -108q8 -67 40 -99q27 -27 61 -27q1 0 2 -1q34 0 65 28q32 28 42 72q9 22 21.5 119t24 209.5t14.5 132.5q0 30 6 38t45 32q62 40 90 40q23 7 28 2t13 -42q13 -39 21 -176t8 -236q-4 -18 -4 -40t2 -40.5t2 -19.5q10 -38 60 -56 q29 -10 59 -10q23 0 45 6q52 13 67 51q16 24 16 92t-16 179q-24 168 -51.5 246t-79.5 114q-29 22 -46.5 26.5t-64.5 4.5q-10 0 -18 -0.5t-16.5 -1.5t-14 -1.5t-14 -3t-12 -3.5t-13 -4.5t-12 -4.5t-14.5 -6t-15 -6q-18 -9 -36 -19t-26 -16l-9 -6q0 61 11 131v312q3 57 2 98 q0 64 -6 92q-10 48 -56 70q-25 14 -70 14h-15q-56 -2 -85 -25q-23 -15 -28.5 -64t-12.5 -327q0 -116 -5.5 -335.5t-5.5 -274.5z" />
<glyph unicode="i" horiz-adv-x="364" d="M8 76.5q-1 -8.5 8 -27.5q17 -44 87 -44q12 0 26 1q30 0 45 3t37 16q35 19 55 48.5t33 84.5q9 53 9 169.5t-9 225.5q-13 89 -21.5 118t-27.5 52q-18 13 -28 16.5t-29 3.5q-38 0 -52 -14q-40 -19 -49 -106q-5 -34 -12 -94.5t-13 -123t-8 -77.5q0 -150 -36 -215 q-14 -28 -15 -36.5zM72 899q-5 -28 3.5 -41.5t41.5 -32.5q20 -9 48 -9q17 0 37 4q52 10 66 36q6 12 6 57q-10 42 -18 50q-19 23 -62 31q-16 3 -30 4q-23 0 -41 -9q-51 -20 -51 -90z" />
<glyph unicode="j" horiz-adv-x="423" d="M-260 -233q-1 -10 -1 -19q0 -94 109 -154q47 -26 110 -26q20 0 42 3q91 11 147 58q68 47 81 143q4 31 4 77q0 100 -19 272q-10 149 -10 354q0 56 -2 101.5t-4 67.5l-2 22q-14 14 -60 28t-59 8h-45q-33 -13 -50.5 -29t-31.5 -44q-20 -55 -20 -139.5t20 -350.5 q26 -254 26 -354q-7 -45 -20 -42q-11 4 -16 32q-11 60 -82 73q-46 0 -78.5 -23t-38.5 -58zM-51 885q0 -48 26 -74q13 -13 31 -15.5t70 -2.5q46 0 61.5 2.5t28.5 15.5q16 24 19 33.5t-1 40.5q0 86 -63 100q-34 13 -57.5 13t-51.5 -13q-34 -14 -48.5 -36.5t-14.5 -63.5z" />
<glyph unicode="k" horiz-adv-x="837" d="M10 142q4 -59 11.5 -78t29.5 -37q27 -27 60 -27q50 0 79 39q25 25 33.5 56.5t32.5 195.5q5 37 9 38q2 1 8 -12q2 -3 3 -6q3 -3 9.5 -13t9.5 -13q13 -13 20 -27q15 -25 70.5 -77.5t75.5 -61.5q78 -33 139 -33q89 0 152 53q28 28 28 56q0 7 -2 14q-9 35 -59 55 q-23 8 -54 10t-38 -4q-9 -4 -19.5 2t-40.5 31q-63 71 -106 139q-25 41 -33 41q-10 10 -36.5 62.5t-22.5 56.5q2 0 28.5 12t71 32t78.5 34q5 5 13.5 8.5t13.5 4.5l6 1q5 0 32 27q21 21 23 36t-17 36q-16 9 -26.5 11.5t-44.5 2.5q-13 1 -26 1q-25 0 -47 -5q-34 -8 -87 -29 q-32 -16 -49 -24t-30 -13.5t-15 -5t-4 1.5q0 113 6 252q4 148 4 229q-1 24 -1 42q-2 79 -15 106q-20 44 -79 64q-30 10 -57 11q-27 0 -51 -10q-17 -5 -39 -17.5t-26 -20.5q0 -1 -0.5 -20t-1.5 -51.5t-2 -73.5t-1.5 -95t-0.5 -105q0 -108 -3.5 -267t-3.5 -169q-8 -71 -8 -297 q-3 -58 -3 -102q1 -39 3 -67z" />
<glyph unicode="l" horiz-adv-x="366" d="M12 102q3 -41 18 -56l3 -3q31 -31 85 -34h12q45 0 73 20q76 76 98 972q7 204 7 285v42q-4 52 -36 83q-18 18 -26.5 25t-26.5 12.5t-45 5.5q-84 0 -98 -14q-6 0 -17 -7t-19 -15l-7 -7q0 -2 -1.5 -41t-3.5 -104.5t-4.5 -147t-4 -189t-1.5 -210.5q-8 -368 -8 -520 q0 -75 2 -97z" />
<glyph unicode="m" horiz-adv-x="1099" d="M15.5 187q0.5 -5 2.5 -11q0 -23 14.5 -35t49.5 -22q31 -11 61 -11q23 0 45 6q52 14 80 54q28 48 29 183q0 115 -21 292q-6 29 -2.5 37t31.5 27q32 32 43 32q6 6 10 -10q6 -20 21 -113q4 -12 10 -47t10 -47q7 -54 35 -75q22 -16 60 -16q11 0 24 1q53 0 82.5 16.5 t52.5 59.5q16 24 39 72q17 30 19 30q4 0 9 -65q1 -4 1 -8q6 -176 17 -262.5t30.5 -123t58.5 -57.5q45 -20 93 -21h4q46 -1 84 21q40 22 39 58q0 16 -12.5 36.5t-26.5 26.5q-13 0 -29 236q-9 112 -27 205.5t-37 134.5q-8 23 -35 41.5t-53 25.5q-28 9 -56 9q-33 0 -67 -12 q-62 -22 -118 -79q-20 -26 -23 -26q-3 2 -8 14q-9 55 -25.5 81t-50.5 42q-26 9 -53 9q-63 0 -133 -50q-19 -19 -21 -19t-8 19q0 25 -16 41q-15 23 -53 33q-19 5 -36 5q-18 0 -34 -5q-50 -11 -68 -48q-9 -18 -10.5 -64t-1.5 -257q0 -221 -1.5 -260t-10.5 -58 q-2 -5 -6.5 -13.5t-6.5 -12t-3.5 -9.5t-1 -11z" />
<glyph unicode="n" d="M31 248q-15 -23 -15 -42q0 -37 52 -61q26 -13 68 -15q9 -1 17 0q31 0 58 7q27 9 52 34.5t28 47.5q20 65 20 166q0 28 -2 59q-18 210 -22 236q-4 21 -0.5 27t28.5 18q32 20 84.5 46.5t65.5 29.5h5h5t3.5 -0.5t3.5 -1.5t2.5 -3t2.5 -5q41 -87 41 -410q0 -153 5 -170 q3 -12 18 -21q35 -30 94 -30h14q69 4 99 43q9 12 10.5 30.5t1.5 102.5q0 41 -2 74.5t-5.5 69t-4.5 55.5q-22 129 -40.5 188.5t-49.5 99.5q-40 47 -102 65q-30 9 -59 9q-30 0 -58 -10q-107 -44 -146 -68q-19 -12 -22.5 -8.5t-6.5 37.5q0 79 -41 96q-18 9 -54.5 12t-59.5 0 q-18 -3 -33 -15.5t-18 -25.5q-19 -31 -22 -73.5t-3 -270.5q0 -224 -1.5 -264t-10.5 -59z" />
<glyph unicode="o" horiz-adv-x="813" d="M88 567q-2 -20 -2 -38q0 -44 10 -77q14 -47 58 -92q74 -90 200 -112q36 -6 71 -6q88 0 169 39q116 55 168 167q35 76 35 159q1 39 -7 81q-24 128 -120 230q-75 61 -101 69q-31 20 -73 26q-13 2 -26 2q-25 0 -42 -9q-13 0 -25 -6.5t-12 -12.5q0 -24 -35 -24 q-41 -6 -74.5 -24.5t-76.5 -55.5q-105 -108 -117 -316zM299 621q26 139 78 194q43 45 69 47h2q25 0 54 -39q56 -63 71 -155q5 -33 5 -62q0 -54 -17 -98q-21 -41 -59 -79t-68 -44q-20 -6 -52 10.5t-52 42.5q-24 32 -30 71q-3 20 -4 50q0 27 3 62z" />
<glyph unicode="p" horiz-adv-x="800" d="M58 792q2 -200 10 -329q0 -38 3 -199t3 -248q0 -44 0.5 -90.5t1.5 -81.5t2 -63t1.5 -44.5t0.5 -17.5q0 -5 8.5 -13t17.5 -13q19 -14 33 -16.5t66 -2.5q44 0 58 2t34 11q6 6 19.5 23.5t19.5 23.5q9 26 11.5 51t2.5 119q0 223 -6 321q-3 99 -3 141q0 25 1 30q3 11 17 8 q1 -1 3 -1q11 -1 26 -1q30 0 80 5q73 8 99 17q82 31 129.5 68.5t61.5 89.5q10 32 9 57.5t-15 67.5q-4 25 -13 39.5t-34 39.5q-43 32 -67 45t-71 27q-44 9 -108.5 9t-108.5 -9q-20 -6 -47 -6q-6 18 -6 45q-11 109 -33 158q-15 34 -56 51q-23 9 -42 9q-18 0 -33 -7 q-20 0 -47 -27q-3 -3 -5.5 -6l-5 -6t-3.5 -5t-2.5 -5.5t-2 -5t-1.5 -6t-1.5 -7t-1.5 -8.5t-2 -10q-4 -22 -4 -130q0 -44 1 -100zM315.5 769q3.5 5 28.5 9q16 2 33 2q15 0 31 -2q34 -3 55 -12q12 -6 45 -39q14 -14 17 -26t3 -48q0 -37 -3 -50.5t-17 -27.5 q-20 -29 -44.5 -41.5t-68.5 -17.5q-10 0 -25 -1.5t-23 -1.5t-11 3q-1 0 -2 1t-1.5 3t-1 5t-1 7.5t-1 9.5t-1 12.5l-1 15t-1.5 18t-2 20.5q0 30 -3.5 75.5t-3.5 55.5q-5 25 -1.5 30z" />
<glyph unicode="q" horiz-adv-x="815" d="M18 565q1 -6 2 -11t3.5 -9.5t3.5 -8t5 -8.5t5 -7t6.5 -7.5l7 -7l8.5 -8.5l9 -9q9 -13 21 -25t22.5 -20.5t11.5 -9.5q40 -21 135 -38q72 -12 118 -12q14 0 25 1q3 1 9 2q13 4 16 -6q3 -7 3 -45q0 -64 -8 -216q-1 -10 -2 -32q-2 -42 -3 -65q-5 -107 -5 -149q0 -4 1 -8 q0 -38 10 -73q44 -166 193 -166h16q41 0 74.5 10t44.5 25q14 11 10.5 35.5t-19.5 40.5l-20 20q-5 0 -14 9.5t-13 19.5q-8 19 -8 285q0 249 14 377q5 93 5 282q0 19 -1 39q0 218 -10 242q0 13 -28 41q-14 14 -26 17t-38 3q-41 0 -55 -6q-30 -15 -42.5 -46.5t-27.5 -127.5 q-11 -53 -17 -61t-32 -3q-23 3 -66 3q-31 0 -71 -2q-98 -3 -127 -13q-33 -16 -68 -44.5t-49 -53.5q-32 -45 -32 -112q0 -20 3 -42zM246 641q3 51 30 78q20 20 67 27q27 4 54 4q20 0 39 -2q11 -3 14.5 -8.5t3.5 -20t-3 -55.5q0 -28 -4.5 -73.5t-4.5 -51.5q-4 -37 -11 -42.5 t-44 -0.5q-86 0 -119 57q-23 33 -23 76q0 6 1 12z" />
<glyph unicode="r" horiz-adv-x="696" d="M31 207q-11 -21 -11 -40q0 -25 18 -45q34 -36 107 -36q107 0 154 70q22 46 22 162q0 69 -8 163q-2 30 -6 74.5t-6 70t-2 31.5q-5 22 -2 27.5t25 15.5q46 20 55 29q22 5 27.5 1t9.5 -30q9 -68 63 -77q31 -10 60 -10q13 0 25 2q42 6 69 28q15 15 15 45.5t-15 67.5 q-33 70 -66.5 95.5t-95.5 25.5q-40 0 -71.5 -14t-84.5 -50q-22 -15 -24 -13t-2 34q0 77 -51 106q-29 14 -91 14q-44 -9 -63 -28q-16 -19 -21 -28t-10 -51.5t-5.5 -99.5t-0.5 -194q0 -238 -1.5 -281t-12.5 -65z" />
<glyph unicode="s" horiz-adv-x="692" d="M14 756q0 -176 273 -246q100 -21 123 -57q12 -12 12 -21.5t-12 -28.5q-13 -31 -34 -42q-14 -7 -37 -7q-13 0 -28 2q-36 0 -98 17q-36 12 -49.5 14t-36.5 -4q-34 -12 -46.5 -24.5t-12.5 -32.5q-6 -23 5.5 -39t47.5 -35q59 -28 109 -36q28 -4 64 -4q29 0 62 3q91 0 113 6 q16 5 39 17q129 74 129 192q1 7 1 14q0 67 -54 110q-59 47 -199 83q-78 25 -96 33t-39 30q-24 32 -25 60q0 23 17 43q20 25 58 53.5t56 28.5q23 -1 37 -29q10 -20 10 -45q0 -11 -2 -23q0 -30 2.5 -39.5t14.5 -21.5q23 -15 53 -15q15 0 33 4q52 12 74 48q12 19 12 65.5 t-12 69.5q-11 28 -44 56.5t-63 41.5q-41 13 -99 15q-11 0 -20 1q-44 0 -78 -9q-102 -24 -190 -105q-40 -38 -58 -71q-13 -25 -14 -52q0 -10 2 -20z" />
<glyph unicode="t" horiz-adv-x="643" d="M0 907q0 -11 17.5 -28t37.5 -21q7 0 24.5 -3t24.5 -3v-301q-2 -66 -2 -128v-41q1 -82 4.5 -141.5t6.5 -66.5q3 0 5 -3.5t4.5 -12t4.5 -13.5q5 -16 36 -46t60 -44q66 -32 135 -32q19 1 39 3q89 12 148 70q32 38 35 87v9q0 43 -27 72q-17 12 -26 17t-23.5 8.5t-34.5 3.5 q-23 3 -30 0.5t-19 -14.5q-11 -11 -20 -28.5t-9 -27.5q-13 -43 -20 -43h-2q-21 0 -21 127q0 36 2 76q15 73 15 211q12 180 12 209q4 35 8.5 42.5t20.5 12.5q125 28 147 43q36 22 27.5 48.5t-56.5 41.5q-20 4 -41 3.5t-43 -3.5q-47 -8 -49 -6q2 55 8 125q1 43 1 79 q0 90 -8 140q-12 70 -50 96q-28 15 -72 20q-15 2 -28 2q-28 0 -54 -7q-21 -9 -41 -29q-11 -15 -12.5 -31.5t-1.5 -101.5q3 -28 3 -68t-1.5 -86.5t-1.5 -62.5q-5 -74 -11.5 -87.5t-43.5 -17.5q-78 -10 -78 -49z" />
<glyph unicode="u" d="M20 760q-4 -38 -4 -83q0 -65 8 -146q13 -136 35 -214q34 -125 140 -161q25 -8 61 -8h13q45 2 69 14q46 19 123 55l49 23q2 -16 6 -39q0 -26 12 -62q17 -33 93 -33q8 -1 16 -1q70 0 90 51q18 38 18 211q0 45 -1 100q-7 147 -7 238q3 49 17 106q12 22 12 44t-12 34 q-21 21 -43 27t-62 6q-61 0 -78 -13q-60 -18 -77 -75q-8 -16 -9.5 -40t-1.5 -122q0 -76 11 -211q2 -15 5 -38.5t5 -39.5t2 -23q0 -24 -3.5 -29t-25.5 -14q-5 -2 -22.5 -11t-26.5 -11q-31 -20 -70 -35.5t-53 -15.5h-8.5t-6.5 1t-4 1t-3.5 2t-3 3t-3 5t-4.5 6q-12 31 -16 171 q-1 43 -2 90q0 109 6 243q4 50 2.5 61.5t-12.5 22.5q-34 34 -97 34q-10 0 -20 -1q-72 0 -94 -39q-12 -12 -16 -27t-7 -57z" />
<glyph unicode="v" horiz-adv-x="860" d="M10 737q-4 -18 0.5 -27.5t20.5 -25.5q35 -32 65.5 -99t93.5 -255q62 -170 76 -203q61 -128 138 -128q11 0 22 3q20 4 41.5 19t26.5 26q4 17 18 35q32 48 94 199q49 149 109 256q8 12 14.5 25t8.5 20l3 8q19 26 33 53q24 39 28 56t-7 30q-27 41 -103 41q-65 0 -92 -41 q-20 -20 -60.5 -100t-60.5 -140q-22 -65 -26 -65q-3 0 -7 27q-26 94 -64 181t-71 120q-59 59 -153 59q-66 0 -80 -6q-20 0 -47 -27q-21 -16 -21 -41z" />
<glyph unicode="w" horiz-adv-x="1097" d="M15 818.5q10 -29.5 36 -38.5q17 -6 35 -252q16 -171 29 -226q4 -19 10 -38q9 -43 17.5 -63t25.5 -37q25 -21 50.5 -27t74.5 -6q36 0 49.5 2.5t34.5 13.5q27 5 61 39q23 23 49 56.5t29 44.5q0 14 19 -11q57 -72 77 -86q47 -26 162 -32q36 -4 65 -4q32 0 57 5q47 10 81 44 q32 32 37 69q3 23 3 111q0 53 -1 129v37q0 198 2 235.5t14 63.5q10 40 10 45q0 13 -17 32.5t-38 28.5q-25 8 -57 8h-11q-39 -2 -65 -14q-57 -19 -74 -61q-11 -32 -16 -84q-2 -28 -2 -61q0 -109 18 -281q9 -67 9 -105t-9 -47t-16 -7.5t-19 13.5q-61 45 -61 207v18v15.5v11.5 v9t-0.5 7t-1 6t-1 4.5t-2 4.5t-2.5 3.5l-3 4.5q-21 26 -44.5 35.5t-62.5 9.5q-64 0 -95.5 -26.5t-72.5 -118.5q-45 -88 -45 -96q-3 -23 -9 2q-6 29 -9 106q-6 274 -43 330q-26 34 -60 47.5t-92 13.5q-50 0 -75.5 -8.5t-47.5 -30.5q-13 -22 -3 -51.5z" />
<glyph unicode="x" horiz-adv-x="841" d="M12 741q12 -15 29.5 -22t64.5 -14q16 -5 22 -13.5t26 -54.5q9 -17 29 -59t28 -56q27 -53 47 -106q3 -7 7 -18q10 -24 4 -34t-57 -55q-4 -5 -7.5 -8t-7.5 -6q-35 -29 -93 -71q-52 -38 -60 -38h-1q-8 0 -16.5 -12t-8.5 -24q5 -30 53 -40q12 -2 24 -3q32 0 55 20 q3 3 6.5 4.5t5.5 1.5h2q4 0 80 56.5t84 64.5q4 4 10.5 -4t19.5 -33q11 -26 39.5 -67.5t44.5 -57.5q36 -30 96 -48q42 -12 80 -13q15 0 29 2q105 25 105 84q0 15 -9.5 27t-37.5 36q-32 26 -121 199q-31 59 -31 75.5t31 51.5q53 63 127 172q52 88 61 110q13 23 10.5 38 t-24.5 26q-27 16 -57 16q-13 0 -27 -4q-44 -10 -58 -45q-31 -58 -80.5 -136.5t-56.5 -78.5q-10 23 -16 43q-66 114 -78 131q-54 54 -115 78q-30 8 -84 10q-14 1 -27 1q-35 0 -57 -5q-54 -12 -82 -49q-16 -21 -16 -42q0 -15 8 -30z" />
<glyph unicode="y" horiz-adv-x="772" d="M16 786q0 -11 5.5 -20.5t11.5 -9.5q6 -6 6 -127v-64q0 -142 5.5 -178.5t33.5 -64.5q29 -39 55.5 -56t73.5 -28q36 -10 80 -10t96 10q46 11 54 3t14 -71q0 -92 14 -160q0 -18 4 -76t4 -86q2 -37 2 -64q0 -70 -14 -85q-9 -9 -19 19q-3 7 -6 18q-11 42 -28.5 59t-55.5 17 q-69 -12 -100 -54q-16 -25 -16 -52q0 -24 12 -49q25 -55 88 -89q42 -22 96 -27q16 -2 32 -2q36 0 70 8q49 11 91 38.5t61 66.5q28 38 32 129v52q0 109 -9 351q-23 337 -23 541v36v32.5v27.5v24.5v20t-0.5 16.5t-1.5 12t-2 9t-2 4q-10 23 -58 37q-27 7 -48 7q-18 0 -31 -5 q-3 0 -13 -4t-18 -4q-24 -6 -45 -26.5t-31 -49.5q-6 -23 -6 -191.5t6 -219.5q5 -29 0.5 -34t-39.5 -11q-41 -10 -64 -10t-28 10q0 1 -1.5 26t-3 64.5t-1.5 76.5q-3 35 -7.5 82t-6.5 71t-2 30q-11 18 -32.5 37.5t-43.5 29.5q-14 8 -84 8q-107 0 -107 -45z" />
<glyph unicode="z" horiz-adv-x="874" d="M51 133q44 -40 126 -40t142 40q25 19 39 21q2 0 5 1q17 0 69 -8q62 -14 122 -14.5t118 14.5q45 9 87.5 33.5t57.5 50.5q9 15 9 21.5t-9 26.5q-10 17 -19 24.5t-34 15.5q-22 6 -44 6q-54 0 -114 -32q-10 -3 -25.5 -6.5t-26 -6t-15.5 -6.5q-17 0 -53 6.5t-42 12.5 q7 24 27 59q71 135 100 219q29 49 47 109q5 10 12.5 24.5t10 18.5l7.5 12t6.5 9.5t7 5.5t10 5.5t12.5 4.5q50 20 53 20q14 6 30.5 25.5t16.5 28.5q0 39 -41 66.5t-101 31.5q-11 1 -22 1q-49 0 -102 -15q-67 -27 -74 -31q-5 -4 -11.5 -9t-9.5 -7t-7.5 -4.5t-8 -3t-8.5 0 t-12 2.5q-9 0 -28.5 5.5t-49 14.5t-45.5 13q-68 20 -93 23t-54 -4q-40 -15 -47.5 -41t22.5 -52q26 -26 109.5 -56t124.5 -30q11 0 6 -15q-7 -18 -33 -65q-4 -13 -12 -31.5t-9 -21.5t1 -8q-31 -63 -66 -137q-114 -215 -133 -215q-17 -13 -29 -25q-25 -19 -25 -41t25 -47z" />
<glyph unicode="{" horiz-adv-x="579" d="M6 713.5q9 -24.5 57 -37.5q24 -6 30 -12.5t20 -38.5q13 -38 13 -154t-13 -268q-6 -111 2.5 -154.5t40.5 -75.5q42 -34 73 -46.5t90 -12.5q73 0 86 5q8 4 15 11q25 19 25 42t-25 36q-23 23 -49 23h-5q-35 0 -41 31t-6 214q0 217 -13 298t-52 126q-19 19 -20 27t12 33 q32 46 39.5 96.5t1.5 198.5q-6 147 0.5 214.5t31.5 98.5q14 19 32 20t93 -12q30 -6 52 5t22 30q9 25 -29.5 48t-95 30.5t-114.5 -2.5q-40 -13 -64.5 -27t-58.5 -41q-30 -36 -43.5 -70.5t-19 -95t-5.5 -182.5q-5 -128 -9 -170t-14.5 -67.5t-41.5 -57.5q-26 -38 -17 -62.5z " />
<glyph unicode="|" horiz-adv-x="311" d="M12 1624q0 -2 1 -62.5t2 -157.5t2 -210t2 -242.5t1 -232.5q-11 -487 -7 -698.5t26 -233.5q20 -20 54.5 -24t66.5 4.5t55 23.5q27 27 34 480t-7 902t-37 467q-18 23 -51 27q-75 10 -99 -14q-6 0 -17 -7.5t-18 -14.5z" />
<glyph unicode="}" horiz-adv-x="579" d="M6 1411q-9 25 30 48t95.5 30.5t114.5 -2.5q40 -13 64.5 -27t58.5 -41q43 -52 55 -112.5t12 -235.5q4 -126 9 -169.5t15.5 -68.5t41.5 -57q26 -38 16.5 -62.5t-57.5 -37.5q-24 -6 -29.5 -12t-19.5 -39q-14 -38 -14 -154t14 -268q6 -111 -2.5 -154.5t-40.5 -75.5 q-42 -34 -73.5 -46.5t-90.5 -12.5q-73 0 -86 5q-8 4 -15 11q-25 19 -25 42t25 36q23 23 50 23h5q35 0 40.5 30.5t5.5 214.5q0 217 13 298t52 126q19 19 20.5 27t-11.5 33q-32 46 -39.5 96.5t-1.5 198.5q6 146 -1 214t-32 99q-14 19 -32 20t-93 -12q-30 -6 -52 5t-22 30z" />
<glyph unicode="~" horiz-adv-x="759" d="M20 1192q10 -27 45.5 -33t57.5 15q18 13 31 32q2 2 8 6.5t10 8t4 6.5v6q13 0 17 4q0 3 3.5 5t9 4.5t7.5 4.5q13 3 20 -2t35 -39q9 -7 22.5 -20t23 -21t14.5 -12q85 -42 166.5 -41t143 46.5t69.5 117.5q5 35 -4.5 53.5t-38.5 30.5q-23 11 -37.5 13t-34.5 -1 q-38 -9 -54.5 -19.5t-23.5 -31.5q-15 -42 -25.5 -60.5t-23.5 -17.5q-8 -3 -19 7t-36 42l-11 7q-3 0 -6 2t-5 4l-1 2q0 10 -27 22q-5 4 -9.5 6.5t-13 4.5t-14 2.5t-20.5 2.5t-24 3q-75 9 -124.5 -13.5t-101.5 -91.5q-33 -39 -33 -55z" />
<glyph unicode="&#xa1;" horiz-adv-x="401" d="M41 37q7 -41 26 -72.5t42 -44.5q34 -9 76.5 -10t68.5 10q16 0 45 29q12 12 15.5 18t7.5 27t-3 51q0 317 7 539q0 20 1 57q7 404 2 443q-3 19 -15 28l-7 6q-57 57 -117 29q-23 -8 -29.5 -10t-22 -13.5t-19.5 -22.5t-13.5 -39t-12.5 -60t-9.5 -89.5t-10.5 -124t-10 -165.5 q-22 -353 -22 -586zM96 1376q13 -51 25 -63q23 -29 80 -40.5t92 7.5q30 12 47.5 42.5t17.5 72.5q6 35 -5 53t-54 41q-42 20 -108.5 6.5t-84.5 -47.5q-10 -20 -10 -72z" />
<glyph unicode="&#xa2;" horiz-adv-x="704" d="M23 565q-26 -142 69 -207q47 -47 174 -57q38 -5 46 -9t12 -22q5 -37 26 -53t68 -16q31 0 55 12q24 24 33 82q0 37 6 37q25 0 31 6q25 7 45 16.5t24 10.5q22 9 32 28t5 39q-9 23 -59.5 35.5t-83.5 3.5q-8 -4 -11 5q-3 14 -8 108v125q0 5 25 -7q18 -12 49 -12q13 0 35 10 t22 15q0 11 -21 40.5t-42 41.5q-21 21 -49 30q-14 5 -17.5 14.5t-7.5 61.5q-5 47 -9 61t-17 27q-9 9 -17 11t-32 2q-39 0 -46 -7q-18 -9 -26.5 -29t-22.5 -83q-7 -41 -12 -44q-2 -1 -6 -1q-29 0 -84 -25.5t-86 -56.5q-49 -44 -70 -84t-30 -109zM229 489q-9 47 7.5 107 t44.5 88l4 4q7 8 9 1q1 -7 2 -51l3 -87q0 -112 -6 -119q-2 -3 -12 0q-22 4 -32.5 16t-19.5 41z" />
<glyph unicode="&#xa3;" d="M20 707q4 -13 32.5 -28t47.5 -15q12 0 6 -13q0 -20 -12 -82q-20 -316 -49 -407q-13 -48 -7.5 -65.5t38.5 -41.5q28 -19 76.5 -14.5t80.5 27.5l25 12q27 0 70 -25q107 -47 192.5 -51t169.5 33q53 23 72.5 63t-8.5 68q-37 32 -97.5 29.5t-97.5 -35.5q-15 -13 -36.5 -8.5 t-88.5 32.5q-13 0 -39 13q-25 0 -37 12q-6 0 -19.5 3t-19.5 3q-17 -4 -20.5 0.5t2.5 13.5q7 35 18 132.5t15 187.5q12 86 12 94q12 12 43 12q38 0 158 19q37 9 48.5 33t-11.5 43q-10 10 -51 11t-113 -11q-11 0 -28.5 -1.5t-25.5 -1.5t-8 3q1 25 19 213q0 18 3 69.5t3 73.5 q12 86 12 100q18 95 25 95q4 0 12 -28t8 -42q0 -41 31 -62q28 -19 76 0t67 56q12 25 7.5 65.5t-19.5 65.5q-51 51 -82 63q-40 19 -86 19h-76q-26 -4 -64.5 -25.5t-53.5 -36.5q-48 -39 -58 -112q-2 -5 -8.5 -28t-9.5 -30q0 -23 -25 -213q0 -56 -12 -118v-76q0 -26 -7 -31.5 t-32 -5.5q-37 0 -59.5 -19t-8.5 -38z" />
<glyph unicode="&#xa8;" horiz-adv-x="692" d="M29 1151q0 -35 12 -53q14 -20 29 -29t49 -18q39 -14 87.5 -5t78.5 39t31.5 72t-25.5 72q-41 49 -107 41q-41 0 -78 -19q-48 -26 -62.5 -45t-14.5 -55zM388 1195.5q-18 -38.5 3 -73.5t72 -49q79 -26 139.5 15t38.5 104q-9 22 -24.5 37.5t-28.5 15.5q-7 0 -31 12 q-41 26 -100 0q-51 -23 -69 -61.5z" />
<glyph unicode="&#xad;" horiz-adv-x="641" d="M55 694q-29 -30 2 -61q10 -6 38 -7t135 -1h87q171 0 207.5 2t48.5 14q11 11 15 15.5t8 14.5t4 23q0 42 -61 56q-38 12 -132 14t-153 -6q-151 -15 -199 -64z" />
<glyph unicode="&#xb0;" horiz-adv-x="475" d="M25 1053q0 -30 13.5 -50.5t45.5 -39.5q22 -19 62.5 -32t62.5 -9q22 0 64 9.5t55 18.5l12 13q11 0 35 24q49 49 50.5 106.5t-40 99.5t-111.5 48q-41 10 -71 0q-29 0 -51 -12.5t-50 -40.5q-45 -45 -61 -72.5t-16 -62.5zM196 1057.5q-2 10.5 1 23.5q5 21 15.5 40.5 t18.5 19.5q7 -7 13 -19q18 -44 -13 -75q-5 -2 -9.5 -5.5t-7 -5.5t-5.5 -2t-7 6.5t-6 17z" />
<glyph unicode="&#xb4;" horiz-adv-x="659" d="M18 1122q-6 -15 13 -28q13 -18 40.5 -23t53.5 4q98 19 173 46.5t200 90.5q70 35 89 52t19 43q0 21 -11.5 33.5t-47.5 31.5q-15 5 -45 7.5t-45 -1.5q-5 0 -29 -12q-22 -5 -45 -15.5t-27 -19.5q-3 0 -7 -1.5t-12 -5t-15 -5.5q-95 -52 -97 -53q0 -8 -47 -31q-40 -27 -65 -35 l-29 -24q-13 -7 -25 -13q-35 -26 -41 -41z" />
<glyph unicode="&#xb8;" horiz-adv-x="518" d="M31 -336q-9 -30 15.5 -52.5t84.5 -41.5q84 -19 184 6q120 28 148 119q9 22 9 31.5t-9 31.5q-14 40 -58 76t-102 55q-33 8 -24 25q12 29 12 72q-9 19 -38.5 24t-55.5 -8q-23 -12 -43 -41q-7 -7 -15 -16.5t-12.5 -14t-7.5 -4.5q-13 -19 -13 -50t13 -40q49 -35 88 -35 q22 0 38.5 -16.5t16.5 -42.5q0 -25 -12 -37q-9 -9 -15.5 -9t-15.5 9q-5 5 -47 19q-49 9 -88 -8t-53 -52z" />
<glyph unicode="&#xba;" horiz-adv-x="452" d="M41 1235q0 -30 13.5 -50.5t45.5 -39.5q22 -19 62.5 -32t62.5 -9q22 0 64 10t55 19l12 12q11 0 35 24q49 49 51 106.5t-39.5 99.5t-111.5 48q-42 10 -72 0q-29 0 -50 -12t-50 -41q-45 -45 -61.5 -73t-16.5 -62zM212 1240.5q-2 10.5 1 23.5q5 20 16 39.5t19 19.5 q6 -6 12 -18q19 -45 -12 -76q-5 -2 -10 -5.5t-7.5 -5t-5.5 -1.5t-7 6.5t-6 17z" />
<glyph unicode="&#xbf;" horiz-adv-x="909" d="M18 319q6 -104 72.5 -176.5t185.5 -103.5q45 -18 122 -24.5t134 -0.5q147 29 218 72q62 38 97 103.5t23 129.5q-11 89 -145 89q-88 0 -121 -33q-18 -18 -19.5 -30t5.5 -42q6 -61 -21 -92t-92 -37q-71 -12 -122 16.5t-70 88.5q-25 74 2 149t116 164q94 100 135.5 156.5 t73.5 125.5q12 41 12 96.5t-12 80.5q-24 46 -76 64.5t-108 6.5q-36 -12 -45.5 -33t-9.5 -88q-6 -81 -41 -139t-137 -166q-107 -107 -145 -189.5t-32 -187.5zM310.5 1365q-7.5 -48 29.5 -89q8 -4 27.5 -16.5t27.5 -16.5q23 -7 64.5 -5t64.5 13q7 0 13.5 2.5t8.5 4.5l3 2 q0 6 5 11t11 5q19 6 33 30.5t14 49.5t-12.5 43t-42.5 37q-17 17 -33.5 20.5t-62.5 3.5q-40 0 -56.5 -2.5t-39.5 -13.5q-47 -31 -54.5 -79z" />
<glyph unicode="&#xc0;" horiz-adv-x="1202" d="M40.5 85q-3.5 -35 45.5 -60q18 -18 34 -21.5t62 -3.5q59 0 100.5 18t79.5 56q30 30 45.5 60t34.5 93q31 108 35 116q13 31 42 37q16 3 118 3q156 0 156 -8q0 -23 41 -131q43 -128 70.5 -168.5t82.5 -59.5q37 -12 49 -12t49 12q30 7 64 41q12 18 11 29.5t-19 60.5 q-8 13 -17.5 36.5t-13.5 27.5q-3 16 -19.5 71t-28.5 98.5t-9 43.5l32 16q26 13 39 39q12 19 12 28t-12 21q-12 24 -38.5 42t-57.5 24q-1 0 -4 1q-26 4 -35 16q-13 18 -53 151v1l-1 1v1v1l-1 2l-21 70q-14 72 -32 90q0 16 -15 63q-23 72 -24 74q-17 34 -17 41q0 4 -16.5 53 t-38 111t-27.5 80q-39 76 -90 88q-25 12 -37 12t-43 -12q-2 -2 -11.5 -9.5t-17.5 -15t-12 -14.5q-13 -13 -41.5 -91t-39.5 -137q-17 -34 -17 -49q-7 -7 -17 -35.5t-16 -62.5q-20 -71 -61 -222.5t-68 -240.5q-1 -5 -18.5 -64.5t-22.5 -88.5q-35 -115 -53.5 -164t-36 -70.5 t-47.5 -34.5q-50 -19 -53.5 -54zM315 1749q13 -19 69.5 -54t115.5 -61q6 -3 20.5 -8t20.5 -8q7 -2 34 -11.5t56 -19.5q3 -3 19.5 -8.5t21.5 -7.5q15 0 65 -12q29 -7 84 -7q47 0 60 13q21 19 16.5 34.5t-35.5 34.5q-3 0 -16 6.5t-35 18t-39 18.5q-132 73 -135 76q-6 6 -19 6 q-5 0 -26 19.5t-21 23.5q-3 0 -6 2t-6 2q-11 7 -29 13q-36 26 -82 34.5t-86 -4.5q-88 -42 -47 -100zM541 553q0 32 16 65q12 84 66 277q6 19 7 19t7 -19q0 -8 16 -74q2 -10 19 -59.5t22 -77.5q33 -98 32 -109q-2 -9 -19 -13q-4 -1 -5 -1q-58 -7 -105 -10t-56 2z" />
<glyph unicode="&#xc1;" horiz-adv-x="1202" d="M40.5 85q-3.5 -35 45.5 -60q18 -18 34 -21.5t62 -3.5q59 0 100.5 18t79.5 56q30 30 45.5 60t34.5 93q31 108 35 116q13 31 42 37q16 3 118 3q156 0 156 -8q0 -23 41 -131q43 -128 70.5 -168.5t82.5 -59.5q37 -12 49 -12t49 12q30 7 64 41q12 18 11 29.5t-19 60.5 q-8 13 -17.5 36.5t-13.5 27.5q-3 16 -19.5 71t-28.5 98.5t-9 43.5l32 16q26 13 39 39q12 19 12 28t-12 21q-12 24 -38.5 42t-57.5 24q-1 0 -4 1q-26 4 -35 16q-13 18 -53 151v1l-1 1v1v1l-1 2l-21 70q-14 72 -32 90q0 16 -15 63q-23 72 -24 74q-17 34 -17 41q0 4 -16.5 53 t-38 111t-27.5 80q-39 76 -90 88q-25 12 -37 12t-43 -12q-2 -2 -11.5 -9.5t-17.5 -15t-12 -14.5q-13 -13 -41.5 -91t-39.5 -137q-17 -34 -17 -49q-7 -7 -17 -35.5t-16 -62.5q-20 -71 -61 -222.5t-68 -240.5q-1 -5 -18.5 -64.5t-22.5 -88.5q-35 -115 -53.5 -164t-36 -70.5 t-47.5 -34.5q-50 -19 -53.5 -54zM309 1605.5q-6 -15.5 13 -28.5q13 -18 40.5 -23t53.5 5q98 19 172.5 46.5t199.5 90.5q71 36 90 52t19 42q0 21 -11.5 33.5t-47.5 31.5q-15 5 -45 8t-45 -1q-3 0 -29 -13q-23 -5 -45.5 -15t-26.5 -19q-3 0 -7.5 -2t-12.5 -5.5t-15 -5.5 q-22 -12 -44.5 -24.5t-34.5 -19t-17 -9.5q0 -8 -47 -31q-39 -26 -66 -35l-28 -24q-13 -6 -25 -12q-35 -26 -41 -41.5zM541 553q0 32 16 65q12 84 66 277q6 19 7 19t7 -19q0 -8 16 -74q2 -10 19 -59.5t22 -77.5q33 -98 32 -109q-2 -9 -19 -13q-4 -1 -5 -1q-58 -7 -105 -10 t-56 2z" />
<glyph unicode="&#xc2;" horiz-adv-x="1202" d="M40.5 85q-3.5 -35 45.5 -60q18 -18 34 -21.5t62 -3.5q59 0 100.5 18t79.5 56q30 30 45.5 60t34.5 93q31 108 35 116q13 31 42 37q16 3 118 3q156 0 156 -8q0 -23 41 -131q43 -128 70.5 -168.5t82.5 -59.5q37 -12 49 -12t49 12q30 7 64 41q12 18 11 29.5t-19 60.5 q-8 13 -17.5 36.5t-13.5 27.5q-3 16 -19.5 71t-28.5 98.5t-9 43.5l32 16q26 13 39 39q12 19 12 28t-12 21q-12 24 -38.5 42t-57.5 24q-1 0 -4 1q-26 4 -35 16q-13 18 -53 151v1l-1 1v1v1l-1 2l-21 70q-14 72 -32 90q0 16 -15 63q-23 72 -24 74q-17 34 -17 41q0 4 -16.5 53 t-38 111t-27.5 80q-39 76 -90 88q-25 12 -37 12t-43 -12q-2 -2 -11.5 -9.5t-17.5 -15t-12 -14.5q-13 -13 -41.5 -91t-39.5 -137q-17 -34 -17 -49q-7 -7 -17 -35.5t-16 -62.5q-20 -71 -61 -222.5t-68 -240.5q-1 -5 -18.5 -64.5t-22.5 -88.5q-35 -115 -53.5 -164t-36 -70.5 t-47.5 -34.5q-50 -19 -53.5 -54zM258 1587q8 -25 66 -35l30 4q0 4 6 8.5t11 4.5t9.5 1.5t6.5 3.5l2 1q3 3 9.5 9t9.5 9q24 12 59 47q85 78 94 78h6q0 -3 4.5 -5.5t14 -7t12.5 -5.5q36 -24 41 -29q12 -12 18 -12h3h2q0 -7 24 -19q4 0 8 -4t4 -8q7 -6 13 -6h16q0 -3 5 -7.5 t15 -9t17.5 -8t21.5 -9t19 -7.5q78 -10 125 31q5 5 9.5 12t6.5 12l2 4q0 41 -102 95l-29 18q-12 12 -18 12q-17 7 -29 19q-9 6 -53 28q-6 3 -24.5 12.5t-24.5 12.5q-36 22 -76 29t-72 -6q-25 -9 -36.5 -17t-63.5 -55q-20 -20 -50.5 -49.5t-33.5 -32.5q-8 -5 -15 -11.5 t-11 -10.5l-3 -3q0 -3 -1.5 -5.5t-5 -7t-5.5 -9.5q-14 -14 -25.5 -36.5t-11.5 -35.5zM541 553q0 32 16 65q12 84 66 277q6 19 7 19t7 -19q0 -8 16 -74q2 -10 19 -59.5t22 -77.5q33 -98 32 -109q-2 -9 -19 -13q-4 -1 -5 -1q-58 -7 -105 -10t-56 2z" />
<glyph unicode="&#xc3;" horiz-adv-x="1202" d="M40.5 85q-3.5 -35 45.5 -60q18 -18 34 -21.5t62 -3.5q59 0 100.5 18t79.5 56q30 30 45.5 60t34.5 93q31 108 35 116q13 31 42 37q16 3 118 3q156 0 156 -8q0 -23 41 -131q43 -128 70.5 -168.5t82.5 -59.5q37 -12 49 -12t49 12q30 7 64 41q12 18 11 29.5t-19 60.5 q-8 13 -17.5 36.5t-13.5 27.5q-3 16 -19.5 71t-28.5 98.5t-9 43.5l32 16q26 13 39 39q12 19 12 28t-12 21q-12 24 -38.5 42t-57.5 24q-1 0 -4 1q-26 4 -35 16q-13 18 -53 151v1l-1 1v1v1l-1 2l-21 70q-14 72 -32 90q0 16 -15 63q-23 72 -24 74q-17 34 -17 41q0 4 -16.5 53 t-38 111t-27.5 80q-39 76 -90 88q-25 12 -37 12t-43 -12q-2 -2 -11.5 -9.5t-17.5 -15t-12 -14.5q-13 -13 -41.5 -91t-39.5 -137q-17 -34 -17 -49q-7 -7 -17 -35.5t-16 -62.5q-20 -71 -61 -222.5t-68 -240.5q-1 -5 -18.5 -64.5t-22.5 -88.5q-35 -115 -53.5 -164t-36 -70.5 t-47.5 -34.5q-50 -19 -53.5 -54zM266 1579q13 -26 49 -27t54 21q21 21 28 35q19 19 19 24v6q9 0 16 7q0 3 3.5 5.5t8.5 5.5t7 5q14 5 21 0.5t38 -35.5q9 -6 24 -18t25.5 -19t15.5 -10q65 -28 129.5 -25t116.5 26t84.5 67t32.5 98q0 36 -11 52.5t-42 25.5q-25 8 -38.5 8.5 t-33.5 -4.5q-37 -14 -52.5 -26.5t-19.5 -33.5q-18 -81 -41 -81q-9 -4 -20 4t-39 36l-12 7l-13 6q0 9 -28 18q-4 3 -7.5 4.5t-9 2.5t-9 2t-11.5 1h-12.5h-16.5h-18q-76 0 -122.5 -27.5t-90.5 -101.5q-25 -40 -25 -59zM541 553q0 32 16 65q12 84 66 277q6 19 7 19t7 -19 q0 -8 16 -74q2 -10 19 -59.5t22 -77.5q33 -98 32 -109q-2 -9 -19 -13q-4 -1 -5 -1q-58 -7 -105 -10t-56 2z" />
<glyph unicode="&#xc4;" horiz-adv-x="1202" d="M40.5 85q-3.5 -35 45.5 -60q18 -18 34 -21.5t62 -3.5q59 0 100.5 18t79.5 56q30 30 45.5 60t34.5 93q31 108 35 116q13 31 42 37q16 3 118 3q156 0 156 -8q0 -23 41 -131q43 -128 70.5 -168.5t82.5 -59.5q37 -12 49 -12t49 12q30 7 64 41q12 18 11 29.5t-19 60.5 q-8 13 -17.5 36.5t-13.5 27.5q-3 16 -19.5 71t-28.5 98.5t-9 43.5l32 16q26 13 39 39q12 19 12 28t-12 21q-12 24 -38.5 42t-57.5 24q-1 0 -4 1q-26 4 -35 16q-13 18 -53 151v1l-1 1v1v1l-1 2l-21 70q-14 72 -32 90q0 16 -15 63q-23 72 -24 74q-17 34 -17 41q0 4 -16.5 53 t-38 111t-27.5 80q-39 76 -90 88q-25 12 -37 12t-43 -12q-2 -2 -11.5 -9.5t-17.5 -15t-12 -14.5q-13 -13 -41.5 -91t-39.5 -137q-17 -34 -17 -49q-7 -7 -17 -35.5t-16 -62.5q-20 -71 -61 -222.5t-68 -240.5q-1 -5 -18.5 -64.5t-22.5 -88.5q-35 -115 -53.5 -164t-36 -70.5 t-47.5 -34.5q-50 -19 -53.5 -54zM295 1661q0 -35 12 -53q14 -20 29 -29t49 -18q39 -14 87.5 -5t78.5 39t31.5 72t-25.5 72q-41 49 -106 41q-41 0 -78 -19q-49 -26 -63.5 -45t-14.5 -55zM541 553q0 32 16 65q12 84 66 277q6 19 7 19t7 -19q0 -8 16 -74q2 -10 19 -59.5 t22 -77.5q33 -98 32 -109q-2 -9 -19 -13q-4 -1 -5 -1q-58 -7 -105 -10t-56 2zM654 1705.5q-18 -38.5 3 -73.5t72 -49q79 -26 139.5 15t38.5 104q-9 22 -24.5 37.5t-28.5 15.5q-7 0 -31 12q-41 26 -100 0q-51 -23 -69 -61.5z" />
<glyph unicode="&#xc5;" horiz-adv-x="1185" d="M40.5 85q-3.5 -35 45.5 -60q18 -18 34 -21.5t62 -3.5q59 0 100.5 18t79.5 56q30 30 45.5 60t34.5 93q31 108 35 116q13 31 42 37q16 3 118 3q156 0 156 -8q0 -23 41 -131q43 -128 70.5 -168.5t82.5 -59.5q37 -12 49 -12t49 12q30 7 64 41q12 18 11 29.5t-19 60.5 q-8 13 -17.5 36.5t-13.5 27.5q-3 16 -19.5 71t-28.5 98.5t-9 43.5l32 16q26 13 39 39q12 19 12 28t-12 21q-12 24 -38.5 42t-57.5 24q-1 0 -4 1q-26 4 -35 16q-13 18 -53 151v1l-1 1v1v1l-1 2l-21 70q-14 72 -32 90q0 16 -15 63q-23 72 -24 74q-17 34 -17 41q0 4 -16.5 53 t-38 111t-27.5 80q-39 76 -90 88q-25 12 -37 12t-43 -12q-2 -2 -11.5 -9.5t-17.5 -15t-12 -14.5q-13 -13 -41.5 -91t-39.5 -137q-17 -34 -17 -49q-7 -7 -17 -35.5t-16 -62.5q-20 -71 -61 -222.5t-68 -240.5q-1 -5 -18.5 -64.5t-22.5 -88.5q-35 -115 -53.5 -164t-36 -70.5 t-47.5 -34.5q-50 -19 -53.5 -54zM412 1655q0 -30 13.5 -50.5t45.5 -39.5q22 -19 62.5 -32t62.5 -9q22 0 64 9.5t55 18.5l12 13q11 0 35 24q49 49 51 106.5t-39.5 99.5t-111.5 48q-42 10 -72 0q-29 0 -51 -12.5t-50 -40.5q-45 -45 -61 -72.5t-16 -62.5zM541 553q0 32 16 65 q12 84 66 277q6 19 7 19t7 -19q0 -8 16 -74q2 -10 19 -59.5t22 -77.5q33 -98 32 -109q-2 -9 -19 -13q-4 -1 -5 -1q-58 -7 -105 -10t-56 2zM583 1659.5q-2 10.5 1 23.5q5 21 15.5 40.5t18.5 19.5q7 -7 13 -19q18 -44 -13 -75q-5 -2 -9.5 -5.5t-7 -5.5t-5.5 -2t-7 6.5t-6 17z " />
<glyph unicode="&#xc6;" horiz-adv-x="1239" d="M-67.5 96.5q-8.5 -35.5 36.5 -63.5q14 -19 29.5 -23t62.5 -6q59 -3 102.5 13t88.5 53q35 29 55.5 58.5t48.5 90.5q9 20 23 52q33 77 52.5 89t103.5 7q7 0 11.5 -0.5t12 -1t14.5 -0.5q113 -3 142 -11v-26q0 -106 1.5 -158.5t9.5 -85.5t17.5 -42.5t32.5 -23.5q43 -32 92 -6 q31 15 86 6q79 0 187 7t162 18q155 39 161 39q5 5 39 22q53 11 53 70q0 24 -23.5 51t-51.5 33q-27 7 -82 6t-82 -12q-53 -17 -153.5 -32t-164.5 -15q-35 0 -39 6t3 41q0 8 3 66t3 88q16 147 19 160q7 29 29 34q3 1 68 6q71 0 146 13t94 26q58 36 50.5 81t-72.5 75 q-60 25 -234 -8l-70 -9q-3 15 -1 106t8 197.5t10 106.5q69 8 155 16q126 12 169 23t71 39q29 29 14 68.5t-61 56.5q-57 23 -270 0q-58 -3 -73 -2.5t-28 4t-24 4.5q-4 1 -22 7t-26.5 6.5t-25 0t-33 -9.5t-35.5 -25q-32 32 -79.5 42.5t-77.5 -1.5l-13.5 -9t-20 -14t-13.5 -14 q-15 -13 -54.5 -89t-60.5 -134q-21 -34 -25 -49q-21 -17 -47 -96q-35 -77 -98 -224.5t-102 -232.5q-4 -12 -29.5 -67.5t-34.5 -83.5q-73 -159 -102.5 -202.5t-75.5 -60.5q-53 -15 -61.5 -50.5zM504 539q9 38 26 65q23 81 107 273q9 19 10 19t4 -19q-2 -8 6 -74l9 -55 q10 -55 10 -84q19 -100 16 -110q-2 -9 -21 -12q-4 -1 -5 -1q-40 -2 -56.5 -3t-48 -2.5t-45 -0.5t-12.5 4z" />
<glyph unicode="&#xc7;" horiz-adv-x="1175" d="M16 705.5q0 -144.5 23 -238.5q39 -128 112.5 -234t157.5 -151q92 -47 205 -59q-2 -3 -8 -9.5t-8 -9.5l-35 -35q-13 -19 -13 -50t13 -40q49 -35 88 -35q22 0 38.5 -16.5t16.5 -42.5q0 -25 -12 -37q-16 -16 -31 0q-5 5 -47 19q-49 9 -88 -8t-53 -52q-9 -30 15.5 -52.5 t84.5 -41.5q84 -19 184 6q120 28 148 119q9 22 9 31.5t-9 31.5q-14 40 -58 76t-102 55q-33 8 -24 25q12 30 12 59q50 3 100 15q91 23 148.5 56.5t122.5 98.5q95 103 112.5 181t-51.5 110q-63 24 -123.5 8t-105.5 -69q-71 -94 -106.5 -130t-80.5 -59q-46 -23 -67.5 -23 t-67.5 23q-111 79 -186 291q-21 107 -21 219q-3 42 -4 72t0.5 55.5t2.5 37t5.5 38.5t5.5 37q47 142 126.5 231.5t164.5 89.5q29 0 87.5 -30.5t99.5 -63.5q31 -31 67.5 -37t67.5 17q50 33 -21 104q-63 86 -188.5 121t-257.5 4q-147 -38 -263.5 -167t-162.5 -302 q-23 -94 -23 -238.5z" />
<glyph unicode="&#xc8;" horiz-adv-x="921" d="M18 332q0 -105 1.5 -158t10 -86t18 -42t32.5 -23q43 -32 92 -7q32 16 86 7q81 0 187.5 6.5t160.5 17.5q155 39 162 39q7 7 39 23q53 11 53 69q0 24 -23.5 51t-52.5 33q-27 7 -81.5 6t-81.5 -12q-53 -17 -153.5 -32t-164.5 -15q-35 0 -39 6t2 41q0 8 3 66t3 88q2 22 6 60 q10 101 20 118.5t62 19.5q18 1 29 2q71 0 146 13t94 26q58 36 50 81t-73 75q-60 24 -233 -8l-70 -9q-3 15 -1 106t7.5 197.5t9.5 106.5q70 8 156 16q126 12 169 23t71 39q29 29 14 68.5t-61 56.5q-57 23 -271 0q-81 -7 -97.5 -6t-27.5 12q-31 25 -76.5 33t-93.5 -8 q-9 0 -25 -11.5t-20 -13.5q-12 -12 -14 -50t-2 -259q0 -288 -14 -410q0 -27 -4.5 -155t-4.5 -201zM154 1741q14 -19 69.5 -54t114.5 -61q6 -3 20.5 -8t20.5 -8q7 -2 34 -11.5t56 -19.5q3 -3 19.5 -8.5t21.5 -7.5q11 0 65 -13q25 -6 84 -6q29 0 40.5 2t19.5 10q21 19 16.5 35 t-35.5 35q-3 0 -16 6.5t-35 18t-39 18.5q-132 73 -135 76q-6 6 -18 6q-5 0 -26 19.5t-21 23.5q-3 0 -6.5 2t-6.5 2q-10 6 -28 12q-36 27 -82 35.5t-86 -4.5q-88 -42 -47 -100z" />
<glyph unicode="&#xc9;" horiz-adv-x="921" d="M18 332q0 -105 1.5 -158t10 -86t18 -42t32.5 -23q43 -32 92 -7q32 16 86 7q81 0 187.5 6.5t160.5 17.5q155 39 162 39q7 7 39 23q53 11 53 69q0 24 -23.5 51t-52.5 33q-27 7 -81.5 6t-81.5 -12q-53 -17 -153.5 -32t-164.5 -15q-35 0 -39 6t2 41q0 8 3 66t3 88q2 22 6 60 q10 101 20 118.5t62 19.5q18 1 29 2q71 0 146 13t94 26q58 36 50 81t-73 75q-60 24 -233 -8l-70 -9q-3 15 -1 106t7.5 197.5t9.5 106.5q70 8 156 16q126 12 169 23t71 39q29 29 14 68.5t-61 56.5q-57 23 -271 0q-81 -7 -97.5 -6t-27.5 12q-31 25 -76.5 33t-93.5 -8 q-9 0 -25 -11.5t-20 -13.5q-12 -12 -14 -50t-2 -259q0 -288 -14 -410q0 -27 -4.5 -155t-4.5 -201zM147 1597q-6 -15 13 -28q13 -18 40.5 -23t53.5 4q97 19 172 46.5t201 91.5q71 35 89.5 51.5t18.5 42.5q0 21 -11.5 33.5t-47.5 31.5q-15 5 -45 7.5t-45 -1.5q-5 0 -29 -12 q-22 -5 -45 -15.5t-27 -19.5q-3 0 -7 -1.5t-12 -5t-15 -5.5q-95 -52 -97 -53q0 -8 -47 -31q-40 -27 -65 -35l-29 -24q-13 -7 -25 -13q-35 -26 -41 -41z" />
<glyph unicode="&#xca;" horiz-adv-x="921" d="M18 332q0 -105 1.5 -158t10 -86t18 -42t32.5 -23q43 -32 92 -7q32 16 86 7q81 0 187.5 6.5t160.5 17.5q155 39 162 39q7 7 39 23q53 11 53 69q0 24 -23.5 51t-52.5 33q-27 7 -81.5 6t-81.5 -12q-53 -17 -153.5 -32t-164.5 -15q-35 0 -39 6t2 41q0 8 3 66t3 88q2 22 6 60 q10 101 20 118.5t62 19.5q18 1 29 2q71 0 146 13t94 26q58 36 50 81t-73 75q-60 24 -233 -8l-70 -9q-3 15 -1 106t7.5 197.5t9.5 106.5q70 8 156 16q126 12 169 23t71 39q29 29 14 68.5t-61 56.5q-57 23 -271 0q-81 -7 -97.5 -6t-27.5 12q-31 25 -76.5 33t-93.5 -8 q-9 0 -25 -11.5t-20 -13.5q-12 -12 -14 -50t-2 -259q0 -288 -14 -410q0 -27 -4.5 -155t-4.5 -201zM96 1579q8 -25 66 -35l31 4q0 4 5.5 8.5t10.5 4.5t9.5 1.5t6.5 3.5l2 1q3 3 9.5 9t9.5 9q24 12 59 47q84 78 94 78h7q0 -3 30 -18q36 -24 41 -29q12 -12 19 -12h3h1 q0 -7 24 -19q5 0 9 -4t4 -8q6 -6 12 -6h16q0 -3 5 -7.5t15 -9t17.5 -8t21.5 -9t19 -7.5q78 -10 125 31q5 5 9.5 12t6.5 12l2 4q0 40 -102 94l-29 19q-12 12 -18 12q-17 7 -29 19q-9 6 -53 28q-6 3 -24.5 12.5t-24.5 12.5q-36 22 -76 28.5t-72 -6.5q-26 -9 -37.5 -17.5 t-62.5 -53.5q-20 -20 -50.5 -49.5t-33.5 -32.5q-8 -5 -15 -11.5t-11 -10.5l-3 -3q0 -3 -1.5 -5.5t-5 -7t-5.5 -9.5q-14 -14 -25.5 -36.5t-11.5 -35.5z" />
<glyph unicode="&#xcb;" horiz-adv-x="921" d="M18 332q0 -105 1.5 -158t10 -86t18 -42t32.5 -23q43 -32 92 -7q32 16 86 7q81 0 187.5 6.5t160.5 17.5q155 39 162 39q7 7 39 23q53 11 53 69q0 24 -23.5 51t-52.5 33q-27 7 -81.5 6t-81.5 -12q-53 -17 -153.5 -32t-164.5 -15q-35 0 -39 6t2 41q0 8 3 66t3 88q2 22 6 60 q10 101 20 118.5t62 19.5q18 1 29 2q71 0 146 13t94 26q58 36 50 81t-73 75q-60 24 -233 -8l-70 -9q-3 15 -1 106t7.5 197.5t9.5 106.5q70 8 156 16q126 12 169 23t71 39q29 29 14 68.5t-61 56.5q-57 23 -271 0q-81 -7 -97.5 -6t-27.5 12q-31 25 -76.5 33t-93.5 -8 q-9 0 -25 -11.5t-20 -13.5q-12 -12 -14 -50t-2 -259q0 -288 -14 -410q0 -27 -4.5 -155t-4.5 -201zM133 1653q0 -36 12 -54q14 -20 29 -29t49 -18q39 -14 87.5 -4.5t78.5 39.5t31.5 72t-25.5 72q-41 49 -106 41q-41 0 -78 -19q-49 -26 -63.5 -45t-14.5 -55zM492 1697.5 q-18 -38.5 3 -73.5t72 -49q79 -26 139.5 15t38.5 104q-9 22 -24.5 37.5t-28.5 15.5q-6 0 -30 12q-42 26 -101 0q-51 -23 -69 -61.5z" />
<glyph unicode="&#xcc;" horiz-adv-x="387" d="M-229 1743q13 -19 69 -54t115 -61q6 -3 20.5 -8t20.5 -8q7 -2 34 -11.5t56 -19.5q3 -3 19.5 -8.5t21.5 -7.5q12 0 66 -13q25 -6 83 -6q47 0 60 13q21 19 16.5 34.5t-35.5 34.5q-3 0 -16 6.5t-35 18t-39 18.5q-132 73 -135 76q-6 6 -18 6q-5 0 -26 19.5t-21 23.5 q-3 0 -6.5 2t-6.5 2q-10 6 -28 12q-36 27 -82 35.5t-86 -4.5q-88 -42 -47 -100zM-87 103q3 -38 19 -54l2 -2q56 -56 115 -29q23 8 37 17.5t27.5 36.5t20.5 60.5t15 104t13.5 151t13.5 216.5q12 191 20.5 422t8.5 291q-15 84 -68 117q-35 9 -76 10.5t-69 -10.5q-18 0 -47 -29 q-9 -9 -12 -13t-9 -16.5t-3.5 -25.5t3.5 -41q0 -412 -8 -666q-9 -485 -3 -540z" />
<glyph unicode="&#xcd;" horiz-adv-x="387" d="M-231.5 1599.5q-6.5 -14.5 12.5 -28.5q13 -18 40.5 -23t53.5 4q97 19 172 46.5t201 91.5q71 35 89.5 51.5t18.5 42.5q0 21 -11.5 33.5t-47.5 31.5q-15 5 -45 7.5t-45 -1.5q-5 0 -29 -12q-22 -5 -45 -15.5t-27 -19.5q-3 0 -7 -1.5t-12 -5t-15 -5.5q-95 -52 -97 -53 q0 -8 -47 -31q-40 -27 -65 -35l-29 -24q-12 -7 -24 -13q-35 -26 -41.5 -40.5zM-85.5 143.5q2.5 -74.5 24.5 -96.5q56 -56 114 -29q23 8 37 17.5t27.5 36.5t20.5 60.5t15 104t13.5 151t13.5 216.5q12 191 20.5 422t8.5 291q-15 84 -68 117q-35 9 -76 10.5t-69 -10.5 q-18 0 -47 -29q-9 -9 -12 -13t-9 -16.5t-3.5 -25.5t3.5 -41q0 -412 -8 -666q-8 -425 -5.5 -499.5z" />
<glyph unicode="&#xce;" horiz-adv-x="387" d="M-332 1581q8 -25 66 -35l30 4q0 4 6 8.5t11 4.5t9.5 1.5t6.5 3.5l2 1q3 3 9.5 9t9.5 9q24 12 59 47q85 78 94 78h6q0 -3 4.5 -5.5t14 -7t12.5 -5.5q36 -24 41 -29q12 -12 19 -12h3h1q0 -7 24 -19q5 0 9 -4t4 -8q6 -6 12 -6h16q0 -3 5 -7.5t15 -9t17.5 -8t21.5 -9t19 -7.5 q78 -10 125 31q5 5 9.5 12t6.5 12l2 4q0 41 -102 95l-29 18q-12 12 -18 12q-17 7 -29 19q-9 6 -53 28q-6 3 -24.5 12.5t-24.5 12.5q-36 22 -76 28.5t-72 -6.5q-26 -9 -37.5 -17.5t-62.5 -53.5q-20 -20 -50.5 -49.5t-33.5 -32.5q-8 -5 -15 -11.5t-11 -10.5l-3 -3 q0 -3 -1.5 -5.5t-5 -7t-5.5 -9.5q-14 -14 -25.5 -36.5t-11.5 -35.5zM-132 103q3 -38 19 -54l2 -2q56 -56 115 -29q23 8 37 17.5t27.5 36.5t20.5 60.5t15 104t13.5 151t13.5 216.5q12 191 20.5 422t8.5 291q-15 84 -68 117q-35 9 -76 10.5t-69 -10.5q-18 0 -47 -29 q-9 -9 -12 -13t-9 -16.5t-3.5 -25.5t3.5 -41q0 -412 -8 -666q-9 -485 -3 -540z" />
<glyph unicode="&#xcf;" horiz-adv-x="387" d="M-258 1655q0 -35 12 -53q14 -20 29 -29.5t49 -18.5q39 -14 87.5 -4.5t78.5 39.5t31.5 72t-25.5 72q-41 49 -106 41q-41 0 -78 -19q-49 -26 -63.5 -45t-14.5 -55zM-95 103q3 -38 19 -54l2 -2q56 -56 115 -29q23 8 37 17.5t27.5 36.5t20.5 60.5t15 104t13.5 151t13.5 216.5 q12 191 20.5 422t8.5 291q-15 84 -68 117q-35 9 -76 10.5t-69 -10.5q-18 0 -47 -29q-9 -9 -12 -13t-9 -16.5t-3.5 -25.5t3.5 -41q0 -412 -8 -666q-9 -485 -3 -540zM101 1699.5q-18 -38.5 3 -73.5t72 -49q79 -26 139.5 15t38.5 104q-9 22 -24.5 37.5t-28.5 15.5q-7 0 -31 12 q-41 26 -100 0q-51 -23 -69 -61.5z" />
<glyph unicode="&#xd1;" horiz-adv-x="1024" d="M10.5 250.5q4.5 -145.5 16.5 -176.5q19 -41 57.5 -54.5t79.5 5.5q30 12 45 39.5t27 89.5l16 71q0 2 6.5 79t14.5 184t12 171q0 27 4 73t4 56q6 37 9 38q2 1 5 -6q3 -5 10 -23q167 -372 273 -564q81 -151 103 -181t57 -36q25 -12 36.5 -12t36.5 12q36 12 52 43t28 111 l17 80q0 3 6 83.5t15.5 215t16.5 239.5q0 42 4.5 170.5t4.5 182.5q0 151 -1.5 180t-13.5 53q-19 31 -35 41.5t-63 22.5q-25 6 -37 6t-43 -6q-47 -15 -63 -31q-18 -12 -21 -25t4 -49q0 -85 -5.5 -389t-10.5 -356q0 -2 -1 -7q-5 -32 -8 -33t-8 8q-4 6 -17 31q-3 6 -5 9 l-113 240q2 4 1 7.5t-7.5 18t-9.5 23.5q-4 12 -20.5 43.5t-20.5 44.5q-4 11 -10 23t-11 18l-4 6q2 17 -6 33q-18 41 -37.5 90t-19.5 55q-12 0 -25 55q-8 13 -17 33.5t-13 24.5q0 3 -4.5 11.5t-11 20.5t-9.5 23q-19 32 -33 46t-32 20q-37 19 -84 19t-84 -19l-33 -17 q0 -1 -1 -21.5t-2 -54.5t-2 -76.5t-2 -99t-1 -110.5q0 -341 -15 -506q-6 -151 -1.5 -296.5zM152 1579q13 -26 48.5 -27t53.5 21q23 23 29 35q18 18 18 24v6q9 0 16 7q0 3 3.5 5.5t8.5 5.5t7 5q13 5 20.5 0.5t38.5 -35.5q64 -46 66 -47q65 -28 129.5 -25t116 26t84 67 t32.5 98q0 36 -11 52.5t-42 25.5q-25 8 -38.5 8.5t-33.5 -4.5q-36 -14 -51.5 -26.5t-19.5 -33.5q-18 -81 -41 -81q-9 -4 -20.5 4t-39.5 36l-12 7l-12 6q0 8 -29 18q-4 3 -7.5 4.5t-9 2.5t-9 2t-11.5 1h-12.5h-16.5h-18q-76 0 -122.5 -27.5t-90.5 -101.5q-24 -39 -24 -59z " />
<glyph unicode="&#xd2;" horiz-adv-x="1214" d="M70 719q-29 -194 6 -309q44 -193 196 -298.5t355 -88.5q187 9 331.5 132.5t196.5 323.5q26 79 26 219t-26 228q-52 158 -145 284t-207 197q-52 26 -118.5 33t-92.5 -10q-39 -21 -25 -48q0 -17 -5.5 -21t-41.5 -13q-105 -17 -201 -98t-149 -195q-71 -142 -100 -336z M332 1741q14 -19 70 -54t114 -61q6 -3 20.5 -8t20.5 -8q7 -2 34 -11.5t56 -19.5q3 -3 19.5 -8.5t21.5 -7.5q12 0 66 -13q25 -6 84 -6q29 0 40 2t19 10q22 19 17.5 35t-35.5 35q-3 0 -16 6.5t-35.5 18t-39.5 18.5q-132 73 -135 76q-6 6 -18 6q-5 0 -26 19.5t-21 23.5 q-3 0 -6.5 2t-6.5 2q-10 6 -28 12q-36 27 -82 35.5t-86 -4.5q-88 -42 -47 -100zM334 422q-32 113 0 340q18 128 39.5 198t64.5 130q74 129 189 129q16 5 30.5 8t21.5 3l7 1q3 0 6.5 -1.5t8 -5t8 -7t10.5 -11t12 -12.5q7 -13 35 -52t37 -52q122 -204 110 -435t-145 -374 q-96 -96 -169.5 -100.5t-160.5 75.5q-8 8 -14.5 15.5t-13.5 16.5t-12 15.5t-11.5 18t-10 17.5t-10.5 20t-10 19t-11 22t-11 22z" />
<glyph unicode="&#xd3;" horiz-adv-x="1214" d="M70 719q-29 -194 6 -309q44 -193 196 -298.5t355 -88.5q187 9 331.5 132.5t196.5 323.5q26 79 26 219t-26 228q-52 158 -145 284t-207 197q-52 26 -118.5 33t-92.5 -10q-39 -21 -25 -48q0 -17 -5.5 -21t-41.5 -13q-105 -17 -201 -98t-149 -195q-71 -142 -100 -336z M325.5 1597.5q-6.5 -14.5 12.5 -28.5q13 -18 40.5 -23t53.5 4q97 19 172 46.5t201 91.5q71 35 89.5 51.5t18.5 42.5q0 21 -11.5 33.5t-47.5 31.5q-15 5 -45 7.5t-45 -1.5q-5 0 -29 -12q-22 -5 -44.5 -15.5t-26.5 -19.5q-3 0 -7.5 -1.5t-12.5 -5t-15 -5.5q-95 -52 -97 -53 q0 -8 -47 -31q-40 -27 -65 -35l-29 -24q-12 -7 -24 -13q-35 -26 -41.5 -40.5zM334 422q-32 113 0 340q18 128 39.5 198t64.5 130q74 129 189 129q16 5 30.5 8t21.5 3l7 1q3 0 6.5 -1.5t8 -5t8 -7t10.5 -11t12 -12.5q7 -13 35 -52t37 -52q122 -204 110 -435t-145 -374 q-96 -96 -169.5 -100.5t-160.5 75.5q-8 8 -14.5 15.5t-13.5 16.5t-12 15.5t-11.5 18t-10 17.5t-10.5 20t-10 19t-11 22t-11 22z" />
<glyph unicode="&#xd4;" horiz-adv-x="1214" d="M70 719q-29 -194 6 -309q44 -193 196 -298.5t355 -88.5q187 9 331.5 132.5t196.5 323.5q26 79 26 219t-26 228q-52 158 -145 284t-207 197q-52 26 -118.5 33t-92.5 -10q-39 -21 -25 -48q0 -17 -5.5 -21t-41.5 -13q-105 -17 -201 -98t-149 -195q-71 -142 -100 -336z M274 1579q8 -25 66 -35l31 4q0 4 5.5 8.5t10.5 4.5t10 1.5t7 3.5l2 1l18 18q24 12 59 47q84 78 95 78h6q0 -3 30 -18q36 -24 41 -29q12 -12 19 -12h3h1q0 -7 24 -19q5 0 9 -4t4 -8q6 -6 12 -6h16q0 -3 5 -7.5t15 -9t17.5 -8t21.5 -9t19 -7.5q78 -10 125 31q5 5 10 12t7 12 l2 4q0 39 -103 94l-28 19q-12 12 -19 12q-17 7 -29 19q-9 6 -53 28q-6 3 -24.5 12.5t-24.5 12.5q-36 22 -75.5 28.5t-71.5 -6.5q-26 -9 -39 -18t-62 -53q-20 -20 -50.5 -49.5t-33.5 -32.5q-8 -5 -15 -11.5t-10 -10.5l-3 -3q0 -3 -2 -5.5t-5.5 -7t-5.5 -9.5 q-14 -14 -25.5 -36.5t-11.5 -35.5zM334 422q-32 113 0 340q18 128 39.5 198t64.5 130q74 129 189 129q16 5 30.5 8t21.5 3l7 1q3 0 6.5 -1.5t8 -5t8 -7t10.5 -11t12 -12.5q7 -13 35 -52t37 -52q122 -204 110 -435t-145 -374q-96 -96 -169.5 -100.5t-160.5 75.5 q-8 8 -14.5 15.5t-13.5 16.5t-12 15.5t-11.5 18t-10 17.5t-10.5 20t-10 19t-11 22t-11 22z" />
<glyph unicode="&#xd5;" horiz-adv-x="1214" d="M70 719q-29 -194 6 -309q44 -193 196 -298.5t355 -88.5q187 9 331.5 132.5t196.5 323.5q26 79 26 219t-26 228q-52 158 -145 284t-207 197q-52 26 -118.5 33t-92.5 -10q-39 -21 -25 -48q0 -17 -5.5 -21t-41.5 -13q-105 -17 -201 -98t-149 -195q-71 -142 -100 -336z M283 1571q13 -26 48.5 -27t53.5 21q24 24 29 34q18 18 18 25v6q11 0 17 6q0 3 3 5.5t8 6t7 5.5q13 5 20.5 0.5t38.5 -35.5q64 -46 66 -47q64 -28 129 -25t116.5 26t84 67t32.5 98q0 36 -11 52.5t-42 25.5q-25 8 -38.5 8.5t-33.5 -4.5q-36 -14 -51.5 -26.5t-19.5 -33.5 q-19 -82 -41 -82q-8 -4 -19.5 4t-40.5 37l-12 6q-3 0 -6 2t-5 4l-1 1q0 8 -29 18q-4 3 -7.5 4.5t-9 2.5t-9 2t-11.5 1h-12.5h-16.5h-18q-76 0 -122.5 -27.5t-90.5 -101.5q-24 -39 -24 -59zM334 422q-32 113 0 340q18 128 39.5 198t64.5 130q74 129 189 129q16 5 30.5 8 t21.5 3l7 1q3 0 6.5 -1.5t8 -5t8 -7t10.5 -11t12 -12.5q7 -13 35 -52t37 -52q122 -204 110 -435t-145 -374q-96 -96 -169.5 -100.5t-160.5 75.5q-8 8 -14.5 15.5t-13.5 16.5t-12 15.5t-11.5 18t-10 17.5t-10.5 20t-10 19t-11 22t-11 22z" />
<glyph unicode="&#xd6;" horiz-adv-x="1214" d="M70 719q-29 -194 6 -309q44 -193 196 -298.5t355 -88.5q187 9 331.5 132.5t196.5 323.5q26 79 26 219t-26 228q-52 158 -145 284t-207 197q-52 26 -118.5 33t-92.5 -10q-39 -21 -25 -48q0 -17 -5.5 -21t-41.5 -13q-105 -17 -201 -98t-149 -195q-71 -142 -100 -336z M311 1653q0 -35 13 -54q14 -20 28.5 -29t48.5 -18q39 -14 87.5 -4.5t78.5 39.5t31.5 72t-25.5 72q-41 49 -106 41q-41 0 -78 -19q-49 -26 -63.5 -45t-14.5 -55zM334 422q-32 113 0 340q18 128 39.5 198t64.5 130q74 129 189 129q16 5 30.5 8t21.5 3l7 1q3 0 6.5 -1.5t8 -5 t8 -7t10.5 -11t12 -12.5q7 -13 35 -52t37 -52q122 -204 110 -435t-145 -374q-96 -96 -169.5 -100.5t-160.5 75.5q-8 8 -14.5 15.5t-13.5 16.5t-12 15.5t-11.5 18t-10 17.5t-10.5 20t-10 19t-11 22t-11 22zM670 1697.5q-18 -38.5 3 -73.5t72 -49q55 -15 100 -3.5t69 46.5 t10 76q-9 22 -25 37.5t-29 15.5q-6 0 -30 12q-42 26 -101 0q-51 -23 -69 -61.5z" />
<glyph unicode="&#xd9;" horiz-adv-x="1017" d="M18 674q8 -219 30.5 -316t86.5 -161q93 -108 254 -138q200 -45 352 73.5t203 365.5q15 65 18 131.5t3 298.5q0 87 -0.5 144t-3 110.5t-5 84.5t-9 59.5t-13.5 42.5t-19.5 26.5t-25.5 18t-33 11.5q-92 16 -166 -28q-2 -3 -6 -8q-16 -19 -17.5 -63t3.5 -286q1 -47 2 -73 q4 -87 4 -161t-2 -136.5t-2 -83.5q-29 -224 -127 -322q-32 -32 -43 -39t-25 0q-58 20 -98 60q-46 52 -63 226t3 417q0 58 5.5 171t5.5 142q0 102 -10.5 135.5t-47.5 48.5q-31 16 -78.5 20.5t-78.5 -9.5q-36 -15 -46.5 -40t-2.5 -77q0 -82 -9 -117q-52 -246 -39 -528z M205 1745q13 -19 69.5 -54t114.5 -61q6 -3 20.5 -8t20.5 -8q7 -2 34 -11.5t56 -19.5q3 -3 19.5 -8.5t21.5 -7.5q12 0 66 -13q25 -6 84 -6q46 0 59 13q22 19 17.5 34.5t-35.5 34.5q-3 0 -16 6.5t-35 18t-39 18.5q-135 75 -136 76q-6 6 -18 6q-5 0 -26 19.5t-21 23.5 q-3 0 -6 2t-6 2q-11 7 -29 13q-36 26 -82 34.5t-86 -4.5q-88 -42 -47 -100z" />
<glyph unicode="&#xda;" horiz-adv-x="1017" d="M18 674q8 -219 30.5 -316t86.5 -161q93 -108 254 -138q200 -45 352 73.5t203 365.5q15 65 18 131.5t3 298.5q0 87 -0.5 144t-3 110.5t-5 84.5t-9 59.5t-13.5 42.5t-19.5 26.5t-25.5 18t-33 11.5q-92 16 -166 -28q-2 -3 -6 -8q-16 -19 -17.5 -63t3.5 -286q1 -47 2 -73 q4 -87 4 -161t-2 -136.5t-2 -83.5q-29 -224 -127 -322q-32 -32 -43 -39t-25 0q-58 20 -98 60q-46 52 -63 226t3 417q0 58 5.5 171t5.5 142q0 102 -10.5 135.5t-47.5 48.5q-31 16 -78.5 20.5t-78.5 -9.5q-36 -15 -46.5 -40t-2.5 -77q0 -82 -9 -117q-52 -246 -39 -528z M198.5 1601.5q-6.5 -14.5 12.5 -28.5q13 -18 40.5 -23t53.5 4q97 19 172 46.5t201 91.5q71 35 89.5 51.5t18.5 42.5q0 21 -11.5 33.5t-47.5 31.5q-15 5 -45 8t-45 -1q-3 0 -29 -13q-22 -5 -44.5 -15.5t-26.5 -19.5q-3 0 -7.5 -1.5t-12.5 -5t-15 -5.5q-22 -12 -44.5 -24.5 t-34.5 -19t-17 -9.5q0 -8 -48 -31q-40 -27 -65 -35l-29 -24q-12 -7 -24 -13q-35 -26 -41.5 -40.5z" />
<glyph unicode="&#xdb;" horiz-adv-x="1017" d="M18 674q8 -219 30.5 -316t86.5 -161q93 -108 254 -138q200 -45 352 73.5t203 365.5q15 65 18 131.5t3 298.5q0 87 -0.5 144t-3 110.5t-5 84.5t-9 59.5t-13.5 42.5t-19.5 26.5t-25.5 18t-33 11.5q-92 16 -166 -28q-2 -3 -6 -8q-16 -19 -17.5 -63t3.5 -286q1 -47 2 -73 q4 -87 4 -161t-2 -136.5t-2 -83.5q-29 -224 -127 -322q-32 -32 -43 -39t-25 0q-58 20 -98 60q-46 52 -63 226t3 417q0 58 5.5 171t5.5 142q0 102 -10.5 135.5t-47.5 48.5q-31 16 -78.5 20.5t-78.5 -9.5q-36 -15 -46.5 -40t-2.5 -77q0 -82 -9 -117q-52 -246 -39 -528z M147 1583q8 -25 66 -35l31 4q0 4 5.5 8.5t10.5 4.5t10 1.5t7 3.5l2 1l18 18q24 12 59 47q85 78 95 78h6q0 -3 30 -18q36 -24 41 -29q12 -12 19 -12h3h1q0 -7 24 -19q5 0 9 -4t4 -8q6 -6 12 -6h16q0 -3 5 -7.5t15 -9t17.5 -8t21.5 -9t19 -7.5q78 -10 125 31q5 5 10 12t7 12 l2 4q0 40 -103 95l-28 18q-12 12 -19 12q-17 7 -29 19q-9 6 -53 28q-6 3 -24.5 12.5t-24.5 12.5q-36 22 -75.5 28.5t-71.5 -6.5q-26 -9 -38.5 -18t-62.5 -53q-20 -20 -50.5 -49.5t-33.5 -32.5q-8 -5 -15 -11.5t-10 -10.5l-3 -3q0 -3 -2 -5.5t-5.5 -7t-5.5 -9.5 q-14 -14 -25.5 -36.5t-11.5 -35.5z" />
<glyph unicode="&#xdc;" horiz-adv-x="1017" d="M18 674q8 -219 30.5 -316t86.5 -161q93 -108 254 -138q200 -45 352 73.5t203 365.5q15 65 18 131.5t3 298.5q0 87 -0.5 144t-3 110.5t-5 84.5t-9 59.5t-13.5 42.5t-19.5 26.5t-25.5 18t-33 11.5q-92 16 -166 -28q-2 -3 -6 -8q-16 -19 -17.5 -63t3.5 -286q1 -47 2 -73 q4 -87 4 -161t-2 -136.5t-2 -83.5q-29 -224 -127 -322q-32 -32 -43 -39t-25 0q-58 20 -98 60q-46 52 -63 226t3 417q0 58 5.5 171t5.5 142q0 102 -10.5 135.5t-47.5 48.5q-31 16 -78.5 20.5t-78.5 -9.5q-36 -15 -46.5 -40t-2.5 -77q0 -82 -9 -117q-52 -246 -39 -528z M184 1657q0 -33 13 -53q15 -20 29.5 -29.5t47.5 -18.5q39 -14 87.5 -4.5t78.5 39.5t31.5 72t-25.5 72q-41 49 -106 41q-41 0 -78 -19q-49 -26 -63.5 -45t-14.5 -55zM543 1701.5q-18 -38.5 3 -73.5t72 -49q55 -15 100 -3.5t69 46.5t10 76q-9 22 -25 37.5t-29 15.5 q-6 0 -30 12q-42 26 -101 0q-51 -23 -69 -61.5z" />
<glyph unicode="&#xdd;" horiz-adv-x="798" d="M59.5 1084.5q11.5 -181.5 75.5 -267.5q22 -38 43 -54.5t64 -35.5q44 -23 76.5 -31t97.5 -14q46 -6 53.5 -34.5t7.5 -192.5q0 -235 -7 -265q-4 -16 -11 -17q-2 0 -4 1q-9 16 -17 39q-10 69 -59 82q-28 6 -60 -4t-55 -33q-4 -4 -7.5 -8t-6 -7t-4.5 -8t-3 -6.5t-2.5 -8 t-2 -9t-2.5 -11.5t-3 -12q0 -60 62 -112q50 -50 129 -62q73 -10 145.5 14t112.5 70q13 22 37 76q9 37 12 69t7.5 168t11.5 453q0 429 14 469q12 68 -37 99q-18 11 -63 14.5t-74 -6.5q-35 -9 -55 -30t-32 -73t-16 -128t-4 -210q0 -47 -1.5 -92.5t-3.5 -67.5l-1 -22 q-18 0 -42.5 11t-41.5 28q-98 88 -76 379q11 102 7 129t-37 37q-46 17 -109.5 7t-73.5 -38q-56 -104 -44.5 -285.5zM118.5 1603.5q-6.5 -15.5 12.5 -28.5q13 -18 40.5 -23t53.5 4q97 19 172 46.5t201 91.5q71 36 90 52t19 42q0 21 -12 33.5t-48 31.5q-15 5 -45 8t-45 -1 q-3 0 -29 -13q-22 -5 -44.5 -15.5t-26.5 -19.5q-3 0 -7.5 -1.5t-12.5 -5t-15 -5.5q-22 -12 -44.5 -24.5t-34.5 -19t-17 -9.5q0 -8 -47 -31q-39 -26 -66 -35l-29 -24l-24 -12q-35 -26 -41.5 -41.5z" />
<glyph unicode="&#xe0;" horiz-adv-x="724" d="M4 242.5q1 -43.5 14 -72.5q29 -68 113.5 -109t194.5 -41q46 -5 49 -8q2 -2 6 -14q22 -60 115 -84q48 -12 87 -3t64 36q19 22 19 45q0 5 -0.5 7.5t-1.5 4.5t-2.5 3.5t-4.5 5t-6 7.5q-14 12 -16 25t2 78q3 52 8.5 133.5t8 123.5t6 105t3.5 77.5t-1 41.5q-11 87 -29 125 q-10 25 -42 58t-59 49q-85 47 -206 24q-35 -5 -100.5 -22.5t-82.5 -28.5q-39 -25 -28 -47q21 -27 112 -17q43 8 96.5 4t63.5 -14q15 -12 31 -92q4 -20 -3 -100.5t-12 -85.5h-32q-34 9 -91.5 9t-86.5 -9q-57 -12 -108.5 -52t-70.5 -86q-11 -33 -10 -76.5zM49 1167 q13 -19 69 -53.5t115 -60.5q6 -3 20.5 -8.5t20.5 -8.5q6 -2 18.5 -6t31 -10t41.5 -14q3 -3 20 -9t21 -8q15 0 65 -12q25 -6 84 -6q29 0 40 2t19 10q22 19 17.5 35t-35.5 35q-3 0 -16 6.5t-35 18t-39 18.5l-135 75q-7 7 -19 7q-5 0 -26 19.5t-21 23.5q-3 0 -6 2t-6 2 q-11 6 -29 12q-36 27 -82 35.5t-86 -4.5q-89 -42 -47 -101zM218.5 296.5q13.5 48.5 55.5 68.5q4 3 7.5 4.5t9 2.5t9 2t11 1h11h14.5h16q46 -2 47 -4q0 -23 -10 -105q-2 -22 -5 -57q-5 -65 -9 -75.5t-23 -6.5q-6 1 -10 2q-51 4 -73.5 18t-41.5 52q-22 49 -8.5 97.5z" />
<glyph unicode="&#xe1;" horiz-adv-x="724" d="M4 242.5q1 -43.5 14 -72.5q29 -68 113.5 -109t194.5 -41q46 -5 49 -8q2 -2 6 -14q22 -60 115 -84q48 -12 87 -3t64 36q19 22 19 45q0 5 -0.5 7.5t-1.5 4.5t-2.5 3.5t-4.5 5t-6 7.5q-14 12 -16 25t2 78q3 52 8.5 133.5t8 123.5t6 105t3.5 77.5t-1 41.5q-11 87 -29 125 q-10 25 -42 58t-59 49q-85 47 -206 24q-35 -5 -100.5 -22.5t-82.5 -28.5q-39 -25 -28 -47q21 -27 112 -17q43 8 96.5 4t63.5 -14q15 -12 31 -92q4 -20 -3 -100.5t-12 -85.5h-32q-34 9 -91.5 9t-86.5 -9q-57 -12 -108.5 -52t-70.5 -86q-11 -33 -10 -76.5zM42.5 1023.5 q-6.5 -15.5 12.5 -28.5q13 -18 41 -23t54 5q98 19 172.5 46.5t199.5 90.5q71 36 90 52t19 42q0 21 -12 34t-48 32q-15 5 -45 7.5t-45 -1.5q-4 0 -28 -12q-22 -5 -45 -15.5t-27 -19.5q-3 0 -7.5 -1.5t-12.5 -5t-15 -5.5q-23 -12 -44.5 -24.5t-34 -20t-17.5 -9.5q0 -7 -47 -30 q-39 -26 -66 -35l-28 -25q-13 -6 -25 -12q-35 -26 -41.5 -41.5zM218.5 296.5q13.5 48.5 55.5 68.5q4 3 7.5 4.5t9 2.5t9 2t11 1h11h14.5h16q46 -2 47 -4q0 -23 -10 -105q-2 -22 -5 -57q-5 -65 -9 -75.5t-23 -6.5q-6 1 -10 2q-51 4 -73.5 18t-41.5 52q-22 49 -8.5 97.5z" />
<glyph unicode="&#xe2;" horiz-adv-x="724" d="M-20 1006q8 -25 65 -35l31 4q0 4 5.5 8t10.5 4t10 1.5t7 3.5l2 1q3 3 9 9.5t9 9.5q24 12 59 47q84 78 95 78h6q0 -4 30 -19q39 -26 41 -28q13 -13 19 -13h3h1q0 -5 25 -18q4 0 8 -3.5t4 -8.5q6 -7 12 -7h17q0 -3 4.5 -7t15 -9t17.5 -8.5t22 -9.5t18 -7q78 -10 125 31 q5 5 10 12.5t7 11.5l2 5q0 39 -103 94l-28 18q-13 13 -19 13q-16 6 -28 18q-12 8 -54 29q-6 3 -24.5 12t-24.5 12q-36 22 -75.5 29t-71.5 -6q-26 -9 -38 -17.5t-63 -54.5q-20 -20 -50.5 -49.5t-33.5 -32.5q-8 -5 -15 -11t-10 -9l-3 -4q0 -3 -2 -6t-5.5 -7.5t-5.5 -9.5 q-14 -14 -25 -36t-11 -35zM-8 242.5q1 -43.5 14 -72.5q29 -68 113 -109t194 -41q47 -5 50 -8q3 -2 6 -14q22 -61 114 -84q48 -12 87.5 -3t64.5 36q18 21 18 45v7.5t-1.5 5t-2.5 3.5t-4 4.5t-6 7.5q-14 12 -16 25t2 78q3 45 8.5 134t7.5 123.5t6 104.5t3 77t-1 42 q-11 90 -28 125q-10 25 -42 58t-59 49q-85 47 -207 24q-35 -5 -100 -22.5t-82 -28.5q-18 -12 -26 -25t-3 -22q21 -27 113 -17q43 8 96.5 4t63.5 -14q15 -12 31 -92q4 -20 -3 -100.5t-12 -85.5h-33q-34 9 -91.5 9t-86.5 -9q-57 -12 -108 -52t-70 -86q-11 -33 -10 -76.5z M206.5 296.5q13.5 48.5 55.5 68.5q4 3 7.5 4.5t9 2.5t9 2t11 1h11h14.5h16q46 -2 47 -4q0 -23 -10 -105q-2 -22 -5 -57q-5 -65 -9 -75.5t-23 -6.5q-6 1 -10 2q-51 4 -73.5 18t-41.5 52q-22 49 -8.5 97.5z" />
<glyph unicode="&#xe3;" horiz-adv-x="724" d="M-4 997q13 -26 48.5 -27t53.5 21q23 23 29 35q18 18 18 25v6q11 0 17 6q0 3 3 5.5t8 5.5t7 5q13 5 21.5 0t38.5 -35q9 -6 24 -18t25.5 -19t15.5 -10q65 -28 129.5 -25t116.5 26t84.5 67t32.5 98q0 35 -11.5 52t-42.5 26q-25 8 -38 8.5t-33 -4.5q-37 -14 -52.5 -26 t-19.5 -33q-19 -82 -41 -82q-8 -4 -19 4t-40 37l-13 6l-12 6q0 9 -29 19q-4 3 -7.5 4.5t-9 2.5t-9 2t-11.5 1h-12.5h-16.5h-18q-76 0 -122.5 -27.5t-90.5 -101.5q-24 -39 -24 -60zM0 242.5q1 -43.5 14 -72.5q29 -68 113.5 -109t194.5 -41q46 -5 49 -8q2 -2 6 -14 q22 -60 115 -84q48 -12 87 -3t64 36q19 22 19 45q0 5 -0.5 7.5t-1.5 4.5t-2.5 3.5t-4.5 5t-6 7.5q-14 12 -16 25t2 78q3 45 8.5 134t7.5 123.5t6 104.5t3 77t-1 42q-11 90 -28 125q-10 25 -42 58t-59 49q-85 47 -206 24q-35 -5 -100.5 -22.5t-82.5 -28.5q-39 -25 -28 -47 q21 -27 112 -17q43 8 96.5 4t63.5 -14q15 -12 31 -92q4 -20 -3 -100.5t-12 -85.5h-32q-34 9 -92 9t-87 -9q-57 -12 -108 -52t-70 -86q-11 -33 -10 -76.5zM214.5 296.5q13.5 48.5 55.5 68.5q4 3 7.5 4.5t9 2.5t9 2t11 1h11h14.5h16q46 -2 47 -4q0 -23 -10 -105q-2 -22 -5 -57 q-5 -65 -9 -75.5t-23 -6.5q-6 1 -10 2q-51 4 -73.5 18t-41.5 52q-22 49 -8.5 97.5z" />
<glyph unicode="&#xe4;" horiz-adv-x="724" d="M4 242.5q1 -43.5 14 -72.5q29 -68 113.5 -109t194.5 -41q46 -5 49 -8q2 -2 6 -14q22 -60 115 -84q48 -12 87 -3t64 36q19 22 19 45q0 5 -0.5 7.5t-1.5 4.5t-2.5 3.5t-4.5 5t-6 7.5q-14 12 -16 25t2 78q3 52 8.5 133.5t8 123.5t6 105t3.5 77.5t-1 41.5q-11 87 -29 125 q-10 25 -42 58t-59 49q-85 47 -206 24q-35 -5 -100.5 -22.5t-82.5 -28.5q-39 -25 -28 -47q21 -27 112 -17q43 8 96.5 4t63.5 -14q15 -12 31 -92q4 -20 -3 -100.5t-12 -85.5h-32q-34 9 -91.5 9t-86.5 -9q-57 -12 -108.5 -52t-70.5 -86q-11 -33 -10 -76.5zM29 1079 q0 -35 12 -53q14 -20 29 -29t49 -18q39 -14 87.5 -4.5t78.5 39.5t31.5 71.5t-25.5 71.5q-41 49 -107 41q-43 0 -78 -18q-48 -26 -62.5 -45.5t-14.5 -55.5zM218.5 296.5q13.5 48.5 55.5 68.5q4 3 7.5 4.5t9 2.5t9 2t11 1h11h14.5h16q46 -2 47 -4q0 -23 -10 -105 q-2 -22 -5 -57q-5 -65 -9 -75.5t-23 -6.5q-6 1 -10 2q-51 4 -73.5 18t-41.5 52q-22 49 -8.5 97.5zM388 1124.5q-18 -38.5 3 -74t72 -49.5q79 -26 139.5 15t38.5 104q-9 22 -24.5 38t-28.5 16q-7 0 -31 12q-41 26 -100 0q-51 -23 -69 -61.5z" />
<glyph unicode="&#xe5;" horiz-adv-x="720" d="M4 242.5q1 -43.5 14 -72.5q29 -68 113.5 -109t194.5 -41q46 -5 49 -8q2 -2 6 -14q22 -60 115 -84q48 -12 87 -3t64 36q19 22 19 45q0 5 -0.5 7.5t-1.5 4.5t-2.5 3.5t-4.5 5t-6 7.5q-14 12 -16 25t2 78q3 52 8.5 133.5t8 123.5t6 105t3.5 77.5t-1 41.5q-11 87 -29 125 q-10 25 -42 58t-59 49q-85 47 -206 24q-35 -5 -100.5 -22.5t-82.5 -28.5q-39 -25 -28 -47q21 -27 112 -17q43 8 96.5 4t63.5 -14q15 -12 31 -92q4 -20 -3 -100.5t-12 -85.5h-32q-34 9 -91.5 9t-86.5 -9q-57 -12 -108.5 -52t-70.5 -86q-11 -33 -10 -76.5zM218.5 296.5 q13.5 48.5 55.5 68.5q4 3 7.5 4.5t9 2.5t9 2t11 1h11h14.5h16q46 -2 47 -4q0 -23 -10 -105q-2 -22 -5 -57q-5 -65 -9 -75.5t-23 -6.5q-6 1 -10 2q-51 4 -73.5 18t-41.5 52q-22 49 -8.5 97.5zM227 1092q0 -30 14 -51t46 -40q22 -19 62.5 -32t62.5 -8q22 0 63.5 9.5t54.5 18.5 l13 12q10 0 35 25q49 49 50.5 106.5t-40 99.5t-111.5 48q-41 10 -71 0q-29 0 -51 -12.5t-50 -40.5q-45 -45 -61.5 -73t-16.5 -62zM398.5 1096.5q-2.5 10.5 0.5 23.5q5 21 16 40.5t19 19.5q6 -7 12 -19q19 -45 -12 -76q-5 -2 -9.5 -5.5t-7 -5t-5.5 -1.5t-7 6.5t-6.5 17z" />
<glyph unicode="&#xe6;" horiz-adv-x="1292" d="M4 242.5q1 -43.5 14 -72.5q29 -68 113.5 -109t194.5 -41q46 -5 49 -8q2 -2 6 -14q22 -60 115 -84q48 -12 87 -3t64 36q19 22 19 45q0 5 -0.5 7.5t-1.5 4.5t-2.5 3.5t-4.5 5t-6 7.5q-13 13 -15 24t1 69q96 -125 281 -125q87 0 161 35q96 37 146.5 105.5t13.5 113.5 q-24 24 -82 24h-15.5h-12t-8 -0.5t-7 -0.5t-6 -1.5t-7.5 -3l-9 -4.5q-32 -19 -72 -59q-62 -62 -96 -62q-28 0 -54 21q-42 36 -71 108q-2 7 -6 19.5t-5 16t-3 12.5t-2 16t-0.5 18.5t-0.5 28.5q0 58 5.5 79.5t25.5 61.5q19 45 53 74t66 26q30 0 58 -24t28 -53q3 -24 -23 -60 t-63 -61q-21 -15 -58.5 -35t-48.5 -23t-22.5 -15.5t-11.5 -22.5t10 -21t24 -14q37 -6 99 8.5t106 42.5q27 18 31 22q2 2 7 5t12 7t12 7q59 44 84 96t16 100q-6 25 -30.5 58.5t-53.5 54.5q-96 68 -238 49q-57 -6 -116.5 -35t-96.5 -69q-6 62 -24 96q-10 25 -42 58t-59 49 q-85 47 -206 24q-35 -5 -100.5 -22.5t-82.5 -28.5q-39 -25 -28 -47q21 -27 112 -17q43 8 96.5 4t63.5 -14q15 -12 31 -92q4 -20 -3 -100.5t-12 -85.5h-32q-34 9 -91.5 9t-86.5 -9q-57 -12 -108.5 -52t-70.5 -86q-11 -33 -10 -76.5zM218.5 296.5q13.5 48.5 55.5 68.5 q4 3 7.5 4.5t9 2.5t9 2t11 1h11h14.5h16q46 -2 47 -4q0 -23 -10 -105q-2 -22 -5 -57q-5 -65 -9 -75.5t-23 -6.5q-6 1 -10 2q-51 4 -73.5 18t-41.5 52q-22 49 -8.5 97.5z" />
<glyph unicode="&#xe7;" horiz-adv-x="700" d="M27 387q12 -80 56 -145.5t110 -100.5q37 -17 86 -26q-14 -10 -19 -21q-7 -7 -15 -16.5t-12.5 -14t-7.5 -4.5q-13 -19 -13 -50t13 -40q49 -35 88 -35q23 0 39.5 -17t16.5 -42q0 -24 -13 -37q-9 -9 -15 -9t-15 9q-5 5 -47 19q-49 9 -88.5 -8t-53.5 -52q-9 -30 16 -52.5 t85 -41.5q84 -19 184 6q119 27 147 119q9 22 9 31.5t-9 31.5q-14 40 -57.5 76.5t-101.5 55.5q-19 4 -24.5 9.5t-0.5 14.5q12 30 12 62q20 2 60 10q80 27 102 47l14 16q5 0 27 20t33 36q36 48 16 81q-3 10 -5.5 14.5t-6.5 8t-12 6.5q-11 9 -20.5 10.5t-37.5 1.5 q-27 0 -35 -1.5t-28 -10.5q-39 -26 -64 -51q-30 -33 -49 -44t-43 -11q-30 -4 -63.5 34.5t-53.5 100.5q-8 24 -8 84q-4 45 1.5 72t23.5 63q21 40 42 61t54 33q21 7 43 0q18 -4 41 -15.5t29 -17.5q13 -25 47 -16q42 0 51 23q7 7 0 26q-36 58 -125 84q-81 13 -135 4 q-49 -8 -90 -28q-76 -44 -115 -97q-3 -3 -7 -10t-7 -10q-11 -13 -17 -29q-13 -34 -16 -37q-9 -24 -14.5 -82t-1.5 -98z" />
<glyph unicode="&#xe8;" horiz-adv-x="757" d="M2 618q-6 -91 21 -169q37 -112 124.5 -173t212.5 -61q88 0 162 35q96 37 146.5 105.5t13.5 113.5q-25 25 -82 25q-33 0 -40 -1t-25 -10q-33 -20 -72 -59q-62 -62 -96 -62q-28 0 -54 21q-41 35 -71 109q-2 7 -6 19t-5 16t-2.5 12.5t-2 15.5t-1 18.5t-0.5 28.5 q0 58 5.5 79.5t25.5 61.5q19 45 53 74.5t66 26.5q30 0 58 -24.5t28 -53.5q3 -24 -23 -60t-63 -61q-21 -14 -58.5 -34t-48.5 -23t-23 -16t-12 -23t10.5 -21t24.5 -14q37 -6 99 8.5t106 42.5q24 16 31 23q2 2 13.5 8t17.5 10q59 44 84 96.5t16 100.5q-6 25 -30.5 57.5 t-53.5 54.5q-97 69 -238 50q-61 -6 -124.5 -39.5t-98.5 -77.5q-44 -52 -64.5 -106t-23.5 -124zM61 1268q13 -19 69.5 -54t115.5 -61q6 -3 20.5 -8t20.5 -8q7 -2 34 -11.5t56 -19.5q3 -3 19.5 -8.5t21.5 -7.5q11 0 65 -13q25 -6 84 -6q29 0 40.5 2t19.5 10q21 19 16.5 35 t-35.5 35q-3 0 -16 6.5t-35 18t-39 18.5q-132 73 -135 76q-6 6 -18 6q-5 0 -26.5 19.5t-21.5 23.5q-3 0 -6 2t-6 2q-11 6 -29 12q-36 27 -81.5 35.5t-85.5 -4.5q-89 -42 -48 -100z" />
<glyph unicode="&#xe9;" horiz-adv-x="757" d="M2 618q-6 -91 21 -169q37 -112 124.5 -173t212.5 -61q88 0 162 35q96 37 146.5 105.5t13.5 113.5q-25 25 -82 25q-33 0 -40 -1t-25 -10q-33 -20 -72 -59q-62 -62 -96 -62q-28 0 -54 21q-41 35 -71 109q-2 7 -6 19t-5 16t-2.5 12.5t-2 15.5t-1 18.5t-0.5 28.5 q0 58 5.5 79.5t25.5 61.5q19 45 53 74.5t66 26.5q30 0 58 -24.5t28 -53.5q3 -24 -23 -60t-63 -61q-21 -14 -58.5 -34t-48.5 -23t-23 -16t-12 -23t10.5 -21t24.5 -14q37 -6 99 8.5t106 42.5q24 16 31 23q2 2 13.5 8t17.5 10q59 44 84 96.5t16 100.5q-6 25 -30.5 57.5 t-53.5 54.5q-97 69 -238 50q-61 -6 -124.5 -39.5t-98.5 -77.5q-44 -52 -64.5 -106t-23.5 -124zM55 1124q-6 -15 13 -28q13 -18 40.5 -23t53.5 4q98 19 173 46.5t200 90.5q70 35 89 52t19 43q0 21 -11.5 33.5t-47.5 31.5q-15 5 -45 7.5t-45 -1.5q-5 0 -29 -12 q-22 -5 -45 -15.5t-27 -19.5q-3 0 -7.5 -1.5t-12.5 -5t-15 -5.5q-22 -12 -44.5 -24.5t-34.5 -19t-17 -9.5q0 -8 -47 -31q-40 -27 -65 -35l-29 -24q-13 -7 -25 -13q-35 -26 -41 -41z" />
<glyph unicode="&#xea;" horiz-adv-x="757" d="M2 618q-6 -91 21 -169q37 -112 124.5 -173t212.5 -61q88 0 162 35q96 37 146.5 105.5t13.5 113.5q-25 25 -82 25q-33 0 -40 -1t-25 -10q-33 -20 -72 -59q-62 -62 -96 -62q-28 0 -54 21q-41 35 -71 109q-2 7 -6 19t-5 16t-2.5 12.5t-2 15.5t-1 18.5t-0.5 28.5 q0 58 5.5 79.5t25.5 61.5q19 45 53 74.5t66 26.5q30 0 58 -24.5t28 -53.5q3 -24 -23 -60t-63 -61q-21 -14 -58.5 -34t-48.5 -23t-23 -16t-12 -23t10.5 -21t24.5 -14q37 -6 99 8.5t106 42.5q24 16 31 23q2 2 13.5 8t17.5 10q59 44 84 96.5t16 100.5q-6 25 -30.5 57.5 t-53.5 54.5q-97 69 -238 50q-61 -6 -124.5 -39.5t-98.5 -77.5q-44 -52 -64.5 -106t-23.5 -124zM4 1106q8 -25 66 -35l30 4q0 4 6 8t11 4t9.5 1.5t6.5 3.5l2 2q3 3 9.5 9t9.5 9q24 12 59 47q85 78 94 78h6q0 -3 31 -18q36 -24 41 -29q12 -12 18 -12h3h2q0 -7 24 -19 q4 0 8 -3.5t4 -8.5q7 -6 13 -6h16q0 -3 5 -7.5t15 -9t17.5 -8t21.5 -9t19 -7.5q79 -10 125 30q5 5 9.5 12.5t6.5 11.5l2 5q0 40 -102 94l-29 19q-12 12 -18 12q-17 7 -29 19q-9 6 -53 28q-6 3 -24.5 12.5t-24.5 12.5q-36 22 -76 28.5t-72 -6.5q-26 -9 -37.5 -17.5 t-62.5 -53.5q-20 -20 -50.5 -49.5t-33.5 -32.5q-8 -5 -15 -11.5t-11 -9.5l-3 -4q0 -3 -1.5 -5.5t-5 -7t-5.5 -9.5q-14 -14 -25.5 -36.5t-11.5 -35.5z" />
<glyph unicode="&#xeb;" horiz-adv-x="757" d="M2 618q-6 -91 21 -169q37 -112 124.5 -173t212.5 -61q88 0 162 35q96 37 146.5 105.5t13.5 113.5q-25 25 -82 25q-33 0 -40 -1t-25 -10q-33 -20 -72 -59q-62 -62 -96 -62q-28 0 -54 21q-41 35 -71 109q-2 7 -6 19t-5 16t-2.5 12.5t-2 15.5t-1 18.5t-0.5 28.5 q0 58 5.5 79.5t25.5 61.5q19 45 53 74.5t66 26.5q30 0 58 -24.5t28 -53.5q3 -24 -23 -60t-63 -61q-21 -14 -58.5 -34t-48.5 -23t-23 -16t-12 -23t10.5 -21t24.5 -14q37 -6 99 8.5t106 42.5q24 16 31 23q2 2 13.5 8t17.5 10q59 44 84 96.5t16 100.5q-6 25 -30.5 57.5 t-53.5 54.5q-97 69 -238 50q-61 -6 -124.5 -39.5t-98.5 -77.5q-44 -52 -64.5 -106t-23.5 -124zM41 1180q0 -36 12 -54q14 -20 29 -29t49 -18q39 -14 87.5 -4.5t78.5 39.5t31.5 71.5t-25.5 71.5q-41 49 -106 41q-43 0 -78 -18q-49 -26 -63.5 -45t-14.5 -55zM400 1224.5 q-18 -38.5 3 -73.5t72 -49q79 -26 139.5 15t38.5 104q-9 22 -24.5 37.5t-28.5 15.5q-7 0 -31 12q-41 26 -100 0q-51 -23 -69 -61.5z" />
<glyph unicode="&#xec;" horiz-adv-x="634" d="M39 1106q14 -19 70 -54t114 -61q6 -3 20.5 -8t20.5 -8q7 -2 34 -11.5t56 -19.5q3 -3 19.5 -8.5t21.5 -7.5q12 0 66 -13q25 -6 84 -6q46 0 59 13q22 19 17.5 34.5t-35.5 34.5q-3 0 -16 6.5t-35 18t-39 18.5q-135 75 -136 76q-6 6 -18 6q-5 0 -26 19.5t-21 23.5q-3 0 -6 2 t-6 2q-11 7 -29 13q-36 26 -82 34.5t-86 -4.5q-88 -42 -47 -100zM137 105q-1 -8 8 -27q20 -52 113 -43q31 0 45.5 2.5t36.5 15.5q35 19 55 48.5t33 84.5q9 53 9 170t-9 226q-13 89 -21.5 118t-27.5 52q-18 13 -28 16.5t-29 3.5q-38 0 -52 -14q-40 -19 -49 -107 q-5 -34 -12 -94.5t-13 -123t-8 -77.5q0 -150 -36 -215q-14 -28 -15 -36z" />
<glyph unicode="&#xed;" horiz-adv-x="653" d="M18 894.5q-6 -15.5 13 -28.5q13 -18 40.5 -23t53.5 5q98 19 173 46.5t200 90.5q71 35 89.5 51.5t18.5 42.5q0 21 -11.5 34t-47.5 32q-15 5 -45 7.5t-45 -1.5q-5 0 -29 -12q-22 -5 -45 -15.5t-27 -19.5q-3 0 -7 -1.5t-12 -5t-15 -5.5q-22 -12 -44.5 -25t-35 -20t-17.5 -9 q0 -7 -47 -30q-40 -27 -65 -35l-29 -25q-13 -6 -25 -12q-35 -26 -41 -41.5zM144 105q-1 -8 8 -27q20 -52 112 -43q31 0 45.5 2.5t36.5 15.5q35 19 55 48.5t33 84.5q9 53 9 170t-9 226q-13 89 -21.5 118t-27.5 52q-18 13 -28 16.5t-29 3.5q-38 0 -52 -14q-40 -19 -49 -107 q-7 -46 -19.5 -170t-12.5 -125q0 -148 -37 -215q-13 -28 -14 -36z" />
<glyph unicode="&#xee;" horiz-adv-x="751" d="M12 887q8 -25 66 -35l31 4q0 4 5.5 8t10.5 4t9.5 1.5t6.5 2.5l2 2l19 19q24 12 59 47q85 78 94 78h7q0 -4 30 -19q39 -26 41 -28q13 -13 19 -13h3h1q0 -6 24 -18q5 0 9 -4t4 -8q6 -6 12 -6h16q0 -3 5 -7.5t15 -9t17.5 -8t21.5 -9t19 -7.5q79 -10 125 30q5 5 9.5 12.5 t6.5 12.5l2 4q0 40 -102 94l-29 19q-12 12 -18 12q-17 6 -29 18q-15 10 -53 29q-6 3 -24.5 12.5t-24.5 12.5q-36 22 -76 28.5t-72 -6.5q-25 -9 -36.5 -17t-63.5 -55q-20 -20 -50.5 -49t-33.5 -32q-8 -5 -15 -11.5t-11 -10.5l-3 -3q0 -3 -1.5 -5.5t-5 -7.5t-5.5 -10 q-14 -14 -25.5 -36t-11.5 -35zM142 105q-1 -8 8 -27q20 -52 112 -43q31 0 45.5 2.5t36.5 15.5q35 19 55 48.5t33 84.5q9 53 9 170t-9 226q-13 89 -21.5 118t-27.5 52q-18 13 -28 16.5t-29 3.5q-38 0 -52 -14q-40 -19 -49 -107q-7 -46 -19.5 -170t-12.5 -125q0 -148 -37 -215 q-13 -28 -14 -36z" />
<glyph unicode="&#xef;" horiz-adv-x="686" d="M20 981q0 -33 13 -53q14 -20 29 -29t49 -18q39 -14 87 -5t78 39t32 72t-25 72q-41 49 -107 41q-41 0 -78 -19q-49 -26 -63.5 -45t-14.5 -55zM176 109q-1 -8 8 -27q20 -52 113 -43q31 0 45.5 2.5t36.5 15.5q35 19 55 48.5t33 84.5q9 52 9 169.5t-9 226.5q-13 89 -21.5 118 t-27.5 52q-18 13 -28.5 16.5t-29.5 3.5q-37 0 -51 -14q-40 -19 -49 -107q-5 -34 -12 -94.5t-13 -123t-8 -77.5q0 -148 -37 -215q-13 -28 -14 -36zM380 1025.5q-18 -38.5 3 -73.5t72 -49q79 -26 139.5 15t38.5 104q-9 22 -24.5 37.5t-28.5 15.5q-7 0 -31 12q-41 26 -100 0 q-51 -23 -69 -61.5z" />
<glyph unicode="&#xf1;" d="M31 248q-42 -66 37 -103q26 -12 67.5 -14.5t75.5 6.5q27 9 52 34.5t28 47.5q25 83 18 225q-18 210 -22 236q-4 21 -0.5 27t28.5 18q32 20 84.5 46.5t65.5 29.5h5h5t3.5 -0.5t3.5 -1.5t2.5 -3t2.5 -5q41 -87 41 -410q0 -153 5 -170q3 -12 18 -21q39 -34 108 -30t99 43 q9 12 10.5 30.5t1.5 102.5q0 41 -2 74.5t-5.5 69t-4.5 55.5q-22 129 -40.5 188.5t-49.5 99.5q-40 47 -102 65t-117 -1q-107 -44 -146 -68q-19 -12 -22.5 -8.5t-6.5 37.5q0 79 -41 96q-18 9 -54.5 12t-59.5 0q-18 -3 -33 -15.5t-18 -25.5q-19 -31 -22 -73.5t-3 -270.5 q0 -224 -1.5 -264t-10.5 -59zM57 1087q13 -26 49 -27t54 21q21 21 28 35q19 19 19 25v6q10 0 16 6q0 3 3.5 5.5t8.5 5.5t7 5q13 5 21 0.5t38 -34.5q9 -7 24.5 -18.5t26 -19t15.5 -10.5q65 -28 129.5 -25t116 26t84 67t32.5 98q0 36 -11 52.5t-42 25.5q-25 8 -38.5 8.5 t-33.5 -4.5q-37 -14 -52.5 -26t-19.5 -33q-10 -43 -18.5 -62.5t-21.5 -19.5q-8 -4 -19.5 4t-40.5 37l-12 6l-12 6q0 9 -29 19q-4 3 -7.5 4.5t-9 2.5t-9 2t-11.5 1h-12.5h-16.5h-18q-76 0 -122.5 -27.5t-90.5 -101.5q-25 -40 -25 -60z" />
<glyph unicode="&#xf2;" horiz-adv-x="813" d="M88 567q-6 -68 8.5 -115t57.5 -92q74 -90 200.5 -111.5t239.5 32.5q116 56 168 167.5t27.5 239t-119.5 230.5q-75 61 -101 69q-31 20 -73.5 26t-67.5 -7q-13 0 -25 -6.5t-12 -12.5q0 -24 -35 -24q-41 -6 -74.5 -24.5t-76.5 -55.5q-105 -108 -117 -316zM154 1315 q14 -19 69.5 -54t114.5 -61q6 -3 20.5 -8t20.5 -8q7 -2 34 -11.5t56 -19.5q3 -3 19.5 -8.5t21.5 -7.5q11 0 65 -13q25 -6 84 -6q29 0 40.5 2t19.5 10q21 19 16.5 35t-35.5 35q-3 0 -16 6.5t-35 18t-39 18.5q-132 73 -135 76q-6 6 -18 6q-5 0 -26 19.5t-21 23.5q-3 0 -6.5 2 t-6.5 2q-10 6 -28 12q-36 27 -82 35.5t-86 -4.5q-88 -42 -47 -100zM299 621q26 139 78 194q44 45 69.5 46.5t55.5 -38.5q56 -63 71 -154.5t-12 -160.5q-21 -41 -59 -79t-68 -44q-20 -6 -52 10.5t-52 42.5q-24 32 -30.5 71t-0.5 112z" />
<glyph unicode="&#xf3;" horiz-adv-x="813" d="M88 567q-6 -68 8.5 -115t57.5 -92q74 -90 200.5 -111.5t239.5 32.5q116 56 168 167.5t27.5 239t-119.5 230.5q-75 61 -101 69q-31 20 -73.5 26t-67.5 -7q-13 0 -25 -6.5t-12 -12.5q0 -24 -35 -24q-41 -6 -74.5 -24.5t-76.5 -55.5q-105 -108 -117 -316zM147 1171 q-6 -15 13 -28q13 -18 40.5 -23t53.5 4q97 19 172 46.5t201 91.5q71 35 89.5 51.5t18.5 42.5q0 21 -11.5 33.5t-47.5 31.5q-15 5 -45 7.5t-45 -1.5q-5 0 -29 -12q-22 -5 -45 -15.5t-27 -19.5q-3 0 -7 -1.5t-12 -5t-15 -5.5q-95 -52 -97 -53q0 -8 -47 -31q-40 -27 -65 -35 l-29 -24q-13 -7 -25 -13q-35 -26 -41 -41zM299 621q26 139 78 194q44 45 69.5 46.5t55.5 -38.5q56 -63 71 -154.5t-12 -160.5q-21 -41 -59 -79t-68 -44q-20 -6 -52 10.5t-52 42.5q-24 32 -30.5 71t-0.5 112z" />
<glyph unicode="&#xf4;" horiz-adv-x="813" d="M88 567q-6 -68 8.5 -115t57.5 -92q74 -90 200.5 -111.5t239.5 32.5q116 56 168 167.5t27.5 239t-119.5 230.5q-75 61 -101 69q-31 20 -73.5 26t-67.5 -7q-13 0 -25 -6.5t-12 -12.5q0 -24 -35 -24q-41 -6 -74.5 -24.5t-76.5 -55.5q-105 -108 -117 -316zM96 1153 q8 -25 66 -35l31 4q0 4 5.5 8.5t10.5 4.5t9.5 1.5t6.5 3.5l2 1q3 3 9.5 9t9.5 9q24 12 59 47q85 78 94 78h7q0 -3 30 -18q36 -24 41 -29q12 -12 19 -12h3h1q0 -7 24 -19q5 0 9 -4t4 -8q6 -6 12 -6h16q0 -3 5 -7.5t15 -9t17.5 -8t21.5 -9t19 -7.5q78 -10 125 31q5 5 9.5 12 t6.5 12l2 4q0 40 -102 94l-29 19q-12 12 -18 12q-17 7 -29 19q-9 6 -53 28q-6 3 -24.5 12.5t-24.5 12.5q-36 22 -76 28.5t-72 -6.5q-26 -9 -37.5 -17.5t-62.5 -53.5q-20 -20 -50.5 -49.5t-33.5 -32.5q-8 -5 -15 -11.5t-11 -10.5l-3 -3q0 -3 -1.5 -5.5t-5 -7t-5.5 -9.5 q-14 -14 -25.5 -36.5t-11.5 -35.5zM299 621q26 139 78 194q44 45 69.5 46.5t55.5 -38.5q56 -63 71 -154.5t-12 -160.5q-21 -41 -59 -79t-68 -44q-20 -6 -52 10.5t-52 42.5q-24 32 -30.5 71t-0.5 112z" />
<glyph unicode="&#xf5;" horiz-adv-x="813" d="M88 567q-6 -68 8.5 -115t57.5 -92q74 -90 200.5 -111.5t239.5 32.5q116 56 168 167.5t27.5 239t-119.5 230.5q-75 61 -101 69q-31 20 -73.5 26t-67.5 -7q-13 0 -25 -6.5t-12 -12.5q0 -24 -35 -24q-41 -6 -74.5 -24.5t-76.5 -55.5q-105 -108 -117 -316zM104 1145 q13 -26 49 -27t54 21q23 23 29 35q18 18 18 24v6q10 0 16 6q0 3 3.5 5.5t8.5 6t7 5.5q13 4 20.5 0t38.5 -35q64 -46 66 -47q64 -28 129 -25t116.5 26t84 67t32.5 98q0 36 -11 52.5t-42 25.5q-25 8 -38.5 8.5t-33.5 -4.5q-36 -14 -51.5 -26.5t-19.5 -33.5q-19 -82 -41 -82 q-8 -4 -19.5 4t-40.5 37l-12 6q-3 0 -6 2t-5 4l-1 1q0 8 -29 18q-4 3 -7.5 4.5t-9 2.5t-9 2t-11.5 1h-12.5h-16.5h-18q-76 0 -122.5 -27.5t-90.5 -101.5q-25 -40 -25 -59zM299 621q26 139 78 194q44 45 69.5 46.5t55.5 -38.5q56 -63 71 -154.5t-12 -160.5q-21 -41 -59 -79 t-68 -44q-20 -6 -52 10.5t-52 42.5q-24 32 -30.5 71t-0.5 112z" />
<glyph unicode="&#xf6;" horiz-adv-x="813" d="M88 567q-6 -68 8.5 -115t57.5 -92q74 -90 200.5 -111.5t239.5 32.5q116 56 168 167.5t27.5 239t-119.5 230.5q-75 61 -101 69q-31 20 -73.5 26t-67.5 -7q-13 0 -25 -6.5t-12 -12.5q0 -24 -35 -24q-41 -6 -74.5 -24.5t-76.5 -55.5q-105 -108 -117 -316zM133 1227 q0 -35 12 -53q14 -20 29 -29.5t49 -18.5q39 -14 87.5 -4.5t78.5 39.5t31.5 72t-25.5 72q-41 49 -106 41q-41 0 -78 -19q-49 -26 -63.5 -45t-14.5 -55zM299 621q26 139 78 194q44 45 69.5 46.5t55.5 -38.5q56 -63 71 -154.5t-12 -160.5q-21 -41 -59 -79t-68 -44 q-20 -6 -52 10.5t-52 42.5q-24 32 -30.5 71t-0.5 112zM492 1271.5q-18 -38.5 3 -73.5t72 -49q79 -26 139.5 15t38.5 104q-9 22 -24.5 37.5t-28.5 15.5q-6 0 -30 12q-42 26 -101 0q-51 -23 -69 -61.5z" />
<glyph unicode="&#xf7;" horiz-adv-x="886" d="M22 559q-43 -32 1 -63q16 -7 66 -8t239 -1h75q243 0 298.5 2.5t74.5 14.5q21 13 29 23.5t8 29.5q0 43 -86 57q-57 12 -193.5 14.5t-222.5 -5.5q-218 -15 -289 -64zM283 793q0 -36 12 -54q14 -20 29 -29t49 -18q39 -14 87.5 -4.5t78.5 39.5t31.5 71.5t-25.5 71.5 q-41 49 -107 41q-43 0 -78 -18q-48 -26 -62.5 -45t-14.5 -55zM300 327.5q-18 -38.5 3 -73.5t72 -49q79 -26 139.5 15t38.5 104q-9 22 -24.5 37.5t-28.5 15.5q-7 0 -31 12q-41 26 -100 0q-51 -23 -69 -61.5z" />
<glyph unicode="&#xf9;" d="M20 760q-9 -93 4 -229t35 -214q34 -125 140 -161q29 -9 74 -7.5t69 13.5q46 19 123 55l49 23q2 -16 6 -39q0 -26 12 -62q17 -33 93 -33q83 -6 106 50q23 48 17 311q-7 147 -7 238q3 49 17 106q12 22 12 44t-12 34q-21 21 -43 27t-62 6q-61 0 -78 -13q-60 -18 -77 -75 q-8 -16 -9.5 -40t-1.5 -122q0 -76 11 -211q2 -15 5 -38.5t5 -39.5t2 -23q0 -24 -3.5 -29t-25.5 -14q-5 -2 -22.5 -11t-26.5 -11q-31 -20 -70 -35.5t-53 -15.5h-8.5t-6.5 1t-4 1t-3.5 2t-3 3t-3 5t-4.5 6q-13 31 -16.5 171t4.5 333q4 50 2.5 61.5t-12.5 22.5q-39 39 -117 33 q-72 0 -94 -39q-12 -12 -16 -27t-7 -57zM106 1221q13 -19 69.5 -54t115.5 -61q6 -3 20.5 -8t20.5 -8q7 -2 34 -11.5t56 -19.5q3 -3 20 -9t21 -8q15 0 65 -12q25 -6 84 -6q21 0 29.5 0.5t16.5 3t14 8.5q21 19 16.5 35t-35.5 35q-3 0 -16 6.5t-35 18t-39 18.5q-132 73 -135 76 q-6 6 -18 6q-5 0 -26.5 19.5t-21.5 23.5q-3 0 -6 2t-6 2q-10 6 -28 12q-36 27 -82 35.5t-86 -4.5q-89 -42 -48 -100z" />
<glyph unicode="&#xfa;" d="M20 760q-9 -93 4 -229t35 -214q34 -125 140 -161q29 -9 74 -7.5t69 13.5q46 19 123 55l49 23q2 -16 6 -39q0 -26 12 -62q17 -33 93 -33q83 -6 106 50q23 48 17 311q-7 147 -7 238q3 49 17 106q12 22 12 44t-12 34q-21 21 -43 27t-62 6q-61 0 -78 -13q-60 -18 -77 -75 q-8 -16 -9.5 -40t-1.5 -122q0 -76 11 -211q2 -15 5 -38.5t5 -39.5t2 -23q0 -24 -3.5 -29t-25.5 -14q-5 -2 -22.5 -11t-26.5 -11q-31 -20 -70 -35.5t-53 -15.5h-8.5t-6.5 1t-4 1t-3.5 2t-3 3t-3 5t-4.5 6q-13 31 -16.5 171t4.5 333q4 50 2.5 61.5t-12.5 22.5q-39 39 -117 33 q-72 0 -94 -39q-12 -12 -16 -27t-7 -57zM100 1077q-6 -15 13 -28q13 -18 40.5 -23t53.5 4q98 19 173 46.5t200 90.5q70 35 89 52t19 43q0 21 -11.5 33.5t-47.5 31.5q-15 5 -45 7.5t-45 -1.5q-5 0 -29 -12q-22 -5 -45 -15.5t-27 -19.5q-3 0 -7.5 -1.5t-12.5 -5t-15 -5.5 q-22 -12 -44.5 -24.5t-34.5 -19t-17 -9.5q0 -8 -47 -31q-40 -27 -65 -35l-29 -25q-13 -6 -25 -12q-35 -26 -41 -41z" />
<glyph unicode="&#xfb;" d="M20 760q-9 -93 4 -229t35 -214q34 -125 140 -161q29 -9 74 -7.5t69 13.5q46 19 123 55l49 23q2 -16 6 -39q0 -26 12 -62q17 -33 93 -33q83 -6 106 50q23 48 17 311q-7 147 -7 238q3 49 17 106q12 22 12 44t-12 34q-21 21 -43 27t-62 6q-61 0 -78 -13q-60 -18 -77 -75 q-8 -16 -9.5 -40t-1.5 -122q0 -76 11 -211q2 -15 5 -38.5t5 -39.5t2 -23q0 -24 -3.5 -29t-25.5 -14q-5 -2 -22.5 -11t-26.5 -11q-31 -20 -70 -35.5t-53 -15.5h-8.5t-6.5 1t-4 1t-3.5 2t-3 3t-3 5t-4.5 6q-13 31 -16.5 171t4.5 333q4 50 2.5 61.5t-12.5 22.5q-39 39 -117 33 q-72 0 -94 -39q-12 -12 -16 -27t-7 -57zM49 1059q8 -25 66 -35l30 4q0 4 6 8t11 4t9.5 2t6.5 4l2 1q3 3 9.5 9t9.5 9q24 12 59 47q84 78 94 78h6q0 -4 31 -19q39 -26 41 -28q13 -13 19 -13h3h1q0 -6 24 -18q5 0 8.5 -4t3.5 -8q7 -6 13 -6h16q0 -3 5 -7.5t15 -9t17.5 -8 t21.5 -9t19 -7.5q79 -10 125 30q5 5 9.5 12.5t6.5 12.5l2 4q0 40 -102 94l-29 19q-12 12 -18 12q-17 6 -29 18q-15 10 -53 29q-6 3 -24.5 12.5t-24.5 12.5q-36 22 -76 28.5t-72 -6.5q-26 -9 -37.5 -17.5t-62.5 -53.5q-20 -20 -50.5 -49.5t-33.5 -32.5q-8 -5 -15 -11.5 t-10 -10.5l-4 -3q0 -3 -1.5 -5.5t-5 -7.5t-5.5 -10q-14 -14 -25.5 -36t-11.5 -35z" />
<glyph unicode="&#xfc;" d="M20 760q-9 -93 4 -229t35 -214q34 -125 140 -161q29 -9 74 -7.5t69 13.5q46 19 123 55l49 23q2 -16 6 -39q0 -26 12 -62q17 -33 93 -33q83 -6 106 50q23 48 17 311q-7 147 -7 238q3 49 17 106q12 22 12 44t-12 34q-21 21 -43 27t-62 6q-61 0 -78 -13q-60 -18 -77 -75 q-8 -16 -9.5 -40t-1.5 -122q0 -76 11 -211q2 -15 5 -38.5t5 -39.5t2 -23q0 -24 -3.5 -29t-25.5 -14q-5 -2 -22.5 -11t-26.5 -11q-31 -20 -70 -35.5t-53 -15.5h-8.5t-6.5 1t-4 1t-3.5 2t-3 3t-3 5t-4.5 6q-13 31 -16.5 171t4.5 333q4 50 2.5 61.5t-12.5 22.5q-39 39 -117 33 q-72 0 -94 -39q-12 -12 -16 -27t-7 -57zM86 1133q0 -36 12 -54q14 -20 29 -29t49 -18q39 -14 87.5 -4.5t78.5 39.5t31.5 71.5t-25.5 71.5q-41 49 -106 41q-43 0 -78 -18q-49 -26 -63.5 -45t-14.5 -55zM445 1177.5q-18 -38.5 3 -73.5t72 -49q79 -26 139.5 15t38.5 104 q-9 22 -24.5 37.5t-28.5 15.5q-7 0 -31 12q-41 26 -100 0q-51 -23 -69 -61.5z" />
<glyph unicode="&#xfd;" horiz-adv-x="772" d="M16 786q0 -11 5.5 -20.5t11.5 -9.5q6 -6 6 -127v-64q0 -142 5.5 -178.5t33.5 -64.5q29 -39 55.5 -56t73.5 -28q72 -19 176 0q46 11 54 3t14 -71q0 -92 14 -160q0 -18 4 -76t4 -86q8 -128 -12 -149q-9 -9 -19 19q-3 7 -6 18q-11 42 -28.5 59t-55.5 17q-69 -12 -100 -54 q-29 -46 -4 -101t88 -89q42 -22 95.5 -27t102.5 6t91 38.5t61 66.5q28 38 31.5 129t-8.5 403q-23 337 -23 541v36v32.5v27.5v24.5v20t-0.5 16.5t-1.5 12t-2 9t-2 4q-10 23 -58.5 36.5t-78.5 2.5q-3 0 -13 -4t-18 -4q-24 -6 -45 -26.5t-31 -49.5q-6 -23 -6 -191.5t6 -219.5 q5 -29 0.5 -34t-39.5 -11q-81 -19 -92 0q0 1 -1.5 26t-3 64.5t-1.5 76.5q-3 35 -7.5 82t-6.5 71t-2 30q-11 18 -32.5 37.5t-43.5 29.5q-14 8 -84 8q-107 0 -107 -45zM75.5 1105.5q-6.5 -15.5 12.5 -28.5q13 -18 40.5 -23t53.5 5q98 19 173 46.5t200 90.5q71 36 90 52t19 42 q0 21 -12 34t-48 32q-15 5 -45 7.5t-45 -1.5q-5 0 -29 -12q-22 -5 -44.5 -15.5t-26.5 -19.5q-3 0 -7.5 -1.5t-12.5 -5t-15 -5.5q-23 -12 -44.5 -24.5t-34 -20t-17.5 -9.5q0 -7 -47 -30q-39 -26 -66 -35l-29 -25l-24 -12q-35 -26 -41.5 -41.5z" />
<glyph unicode="&#xff;" horiz-adv-x="772" d="M16 786q0 -11 5.5 -20.5t11.5 -9.5q6 -6 6 -127v-64q0 -142 5.5 -178.5t33.5 -64.5q29 -39 55.5 -56t73.5 -28q72 -19 176 0q46 11 54 3t14 -71q0 -92 14 -160q0 -18 4 -76t4 -86q8 -128 -12 -149q-9 -9 -19 19q-3 7 -6 18q-11 42 -28.5 59t-55.5 17q-69 -12 -100 -54 q-29 -46 -4 -101t88 -89q42 -22 95.5 -27t102.5 6t91 38.5t61 66.5q28 38 31.5 129t-8.5 403q-23 337 -23 541v36v32.5v27.5v24.5v20t-0.5 16.5t-1.5 12t-2 9t-2 4q-10 23 -58.5 36.5t-78.5 2.5q-3 0 -13 -4t-18 -4q-24 -6 -45 -26.5t-31 -49.5q-6 -23 -6 -191.5t6 -219.5 q5 -29 0.5 -34t-39.5 -11q-81 -19 -92 0q0 1 -1.5 26t-3 64.5t-1.5 76.5q-3 35 -7.5 82t-6.5 71t-2 30q-11 18 -32.5 37.5t-43.5 29.5q-14 8 -84 8q-107 0 -107 -45zM61 1161q0 -33 13 -53q14 -20 29 -29t49 -18q39 -14 87 -4.5t78 39.5t32 71.5t-25 71.5q-41 49 -107 41 q-43 0 -78 -18q-49 -26 -63.5 -45.5t-14.5 -55.5zM420.5 1206.5q-17.5 -38.5 3 -74t72.5 -49.5q79 -26 139.5 15t38.5 104q-9 22 -24.5 37.5t-28.5 15.5q-5 0 -31 13q-42 26 -101 0q-51 -23 -68.5 -61.5z" />
<glyph unicode="&#x152;" horiz-adv-x="1794" d="M70 719q-29 -194 6 -309q44 -193 196 -298.5t355 -88.5q165 9 297 106q6 -50 17.5 -68.5t39.5 -33.5q43 -32 92 -7q32 16 86 7q81 0 187.5 6.5t160.5 17.5q155 39 162 39q7 7 39 23q53 11 53 69q0 24 -23.5 51t-51.5 33q-27 7 -82 6t-82 -12q-53 -17 -153.5 -32 t-164.5 -15q-35 0 -39.5 6t2.5 41q0 8 3.5 66t3.5 88q16 147 19 160q7 29 29 34q3 1 68 6q71 0 146 13t94 26q58 36 50 81t-73 75q-60 24 -233 -8q-17 -4 -34.5 -6t-26.5 -2h-9q-3 15 -1 106t8 197t10 106q69 9 155 17q127 13 169.5 23t70.5 38q29 29 14 68.5t-61 56.5 q-57 23 -271 0q-81 -7 -97 -6t-27 12q-31 25 -76.5 33t-93.5 -8q-9 0 -26 -12t-20 -13q-9 -9 -12 -26.5t-4 -92.5q-65 68 -139 115q-52 26 -118.5 33t-92.5 -10q-39 -21 -25 -48q0 -17 -5.5 -21t-41.5 -13q-105 -17 -201 -98t-149 -195q-71 -142 -100 -336zM334 422 q-32 113 0 340q18 128 39.5 198t64.5 130q74 129 189 129q16 5 30.5 8t21.5 3l7 1q3 0 6.5 -1.5t8 -5t8 -7t10.5 -11t12 -12.5q7 -13 35 -52t37 -52q122 -204 110 -435t-145 -374q-96 -96 -169.5 -100.5t-160.5 75.5q-8 8 -14.5 15.5t-13.5 16.5t-12 15.5t-11.5 18t-10 17.5 t-10.5 20t-10 19t-11 22t-11 22z" />
<glyph unicode="&#x153;" horiz-adv-x="1296" d="M88 567q-6 -68 8.5 -115t57.5 -92q74 -90 200.5 -111.5t239.5 32.5q50 24 94 65q93 -96 254 -96q88 0 162 35q96 37 146.5 105.5t13.5 113.5q-24 24 -82 24h-14h-11h-8t-7 -0.5t-5 -1t-6 -2t-6.5 -2.5t-8.5 -4q-33 -20 -72 -59q-62 -62 -96 -62q-27 0 -53 21 q-43 37 -72 108q-2 5 -5 15t-3.5 13t-2.5 10t-2.5 10.5t-1 10.5l-1 14t-0.5 16v22q0 58 5.5 79.5t25.5 61.5q19 45 52.5 74.5t65.5 26.5q30 0 58 -24.5t28 -53.5q3 -24 -23 -60t-63 -61q-21 -14 -58 -34t-48 -23t-23 -16t-12 -23t10.5 -21t24.5 -14q37 -6 99 8.5t106 42.5 q21 14 30 23q2 2 13.5 8t17.5 10q59 44 84.5 96.5t16.5 100.5q-6 25 -30.5 57.5t-53.5 54.5q-96 68 -238 49q-55 -6 -112.5 -33.5t-96.5 -66.5q-2 2 -7.5 9.5t-8.5 9.5q-75 61 -101 69q-31 20 -73.5 26t-67.5 -7q-13 0 -25 -6.5t-12 -12.5q0 -24 -35 -24q-41 -6 -74.5 -24.5 t-76.5 -55.5q-105 -108 -117 -316zM299 621q26 139 78 194q44 45 69.5 46.5t55.5 -38.5q56 -63 71 -154.5t-12 -160.5q-21 -41 -59 -79t-68 -44q-20 -6 -52 10.5t-52 42.5q-24 32 -30.5 71t-0.5 112z" />
<glyph unicode="&#x178;" horiz-adv-x="798" d="M59.5 1084.5q11.5 -181.5 75.5 -267.5q22 -38 43 -54.5t64 -35.5q44 -23 76.5 -31t97.5 -14q46 -6 53.5 -34.5t7.5 -192.5q0 -235 -7 -265q-4 -16 -11 -17q-2 0 -4 1q-9 16 -17 39q-10 69 -59 82q-28 6 -60 -4t-55 -33q-4 -4 -7.5 -8t-6 -7t-4.5 -8t-3 -6.5t-2.5 -8 t-2 -9t-2.5 -11.5t-3 -12q0 -60 62 -112q50 -50 129 -62q73 -10 145.5 14t112.5 70q13 22 37 76q9 37 12 69t7.5 168t11.5 453q0 429 14 469q12 68 -37 99q-18 11 -63 14.5t-74 -6.5q-35 -9 -55 -30t-32 -73t-16 -128t-4 -210q0 -47 -1.5 -92.5t-3.5 -67.5l-1 -22 q-18 0 -42.5 11t-41.5 28q-98 88 -76 379q11 102 7 129t-37 37q-46 17 -109.5 7t-73.5 -38q-56 -104 -44.5 -285.5zM104 1659q0 -34 13 -53q14 -20 29 -29t49 -18q39 -14 87 -5t78 39t32 72t-25 72q-41 49 -107 41q-41 0 -78 -19q-49 -26 -63.5 -45t-14.5 -55zM463.5 1703.5 q-17.5 -38.5 3 -73.5t72.5 -49q79 -26 139.5 15t38.5 104q-9 22 -24.5 37.5t-28.5 15.5q-7 0 -31 12q-42 26 -101 0q-51 -23 -68.5 -61.5z" />
<glyph unicode="&#x2c6;" horiz-adv-x="765" d="M29 1110q8 -25 65 -35l31 4q0 4 5.5 8.5t10.5 4.5t10 1.5t7 2.5l2 2l18 18q26 13 60 47q85 78 94 78h6q0 -3 31 -18q36 -24 41 -29q12 -12 18 -12h3h1q0 -6 25 -19q5 0 8.5 -3.5t3.5 -8.5q6 -6 12 -6h17q0 -3 4.5 -7t15 -9t17.5 -8.5t22 -9.5t18 -7q78 -10 125 31 q5 5 10 12t7 11l2 5q0 39 -103 94l-28 19q-12 12 -19 12q-16 7 -28 19q-6 4 -54 28q-6 3 -24.5 12.5t-24.5 12.5q-36 22 -75.5 28.5t-71.5 -6.5q-26 -9 -39 -18t-62 -53q-20 -20 -50.5 -49.5t-33.5 -32.5q-8 -5 -15 -11.5t-10 -9.5l-3 -4q0 -3 -1.5 -5.5t-5 -7t-5.5 -9.5 q-14 -14 -25.5 -36.5t-11.5 -35.5z" />
<glyph unicode="&#x2dc;" horiz-adv-x="747" d="M29 535q13 -26 48.5 -27.5t53.5 20.5q23 23 29 35q18 18 18 25v6q11 0 17 6q0 3 3 5.5t8 5.5t7 5q13 5 21 0.5t38 -34.5q64 -46 66 -47q64 -28 129 -25t116.5 25.5t84 66.5t32.5 98q0 36 -11 52.5t-42 25.5q-25 8 -38.5 8.5t-33.5 -4.5q-37 -14 -52 -26t-19 -33 q-19 -82 -41 -82q-8 -4 -19.5 4t-40.5 37l-12 6l-12 6q0 9 -29 19q-4 3 -7.5 4.5t-9 2.5t-9 2t-11.5 1h-12.5h-16.5h-18q-76 0 -122.5 -27.5t-90.5 -101.5q-24 -39 -24 -59z" />
<glyph unicode="&#x2000;" horiz-adv-x="934" />
<glyph unicode="&#x2001;" horiz-adv-x="1868" />
<glyph unicode="&#x2002;" horiz-adv-x="934" />
<glyph unicode="&#x2003;" horiz-adv-x="1868" />
<glyph unicode="&#x2004;" horiz-adv-x="622" />
<glyph unicode="&#x2005;" horiz-adv-x="467" />
<glyph unicode="&#x2006;" horiz-adv-x="311" />
<glyph unicode="&#x2007;" horiz-adv-x="311" />
<glyph unicode="&#x2008;" horiz-adv-x="233" />
<glyph unicode="&#x2009;" horiz-adv-x="373" />
<glyph unicode="&#x200a;" horiz-adv-x="103" />
<glyph unicode="&#x2010;" horiz-adv-x="641" d="M55 694q-29 -30 2 -61q10 -6 38 -7t135 -1h87q171 0 207.5 2t48.5 14q11 11 15 15.5t8 14.5t4 23q0 42 -61 56q-38 12 -132 14t-153 -6q-151 -15 -199 -64z" />
<glyph unicode="&#x2011;" horiz-adv-x="641" d="M55 694q-29 -30 2 -61q10 -6 38 -7t135 -1h87q171 0 207.5 2t48.5 14q11 11 15 15.5t8 14.5t4 23q0 42 -61 56q-38 12 -132 14t-153 -6q-151 -15 -199 -64z" />
<glyph unicode="&#x2012;" horiz-adv-x="641" d="M55 694q-29 -30 2 -61q10 -6 38 -7t135 -1h87q171 0 207.5 2t48.5 14q11 11 15 15.5t8 14.5t4 23q0 42 -61 56q-38 12 -132 14t-153 -6q-151 -15 -199 -64z" />
<glyph unicode="&#x2013;" horiz-adv-x="884" d="M43 741q15 -6 56 -7t198 -1h127q243 0 298.5 2.5t74.5 14.5q21 13 29 23.5t8 29.5q0 43 -86 57q-57 12 -193.5 14t-222.5 -6q-217 -15 -289 -64q-44 -32 0 -63z" />
<glyph unicode="&#x2014;" horiz-adv-x="1073" d="M36 804q-56 -32 1 -63q19 -6 69 -7t244 -1h158q300 0 369 2.5t92 14.5q26 14 36.5 24t10.5 29q0 43 -109 57q-70 12 -239.5 14t-274.5 -6q-270 -15 -357 -64z" />
<glyph unicode="&#x2018;" horiz-adv-x="374" d="M47 1372q0 -99 68 -149q26 -19 77 -21.5t82 10.5q39 12 56 88.5t-11 108.5q-12 21 -41.5 37t-56.5 16q-17 -6 -17 14q1 12 11 56q3 12 14 32t21.5 36t27.5 41t23 34q-99 58 -205 -86q-28 -40 -42 -102t-7 -115z" />
<glyph unicode="&#x2019;" horiz-adv-x="366" d="M34 1614.5q-17 -75.5 11 -107.5q12 -21 41.5 -37t56.5 -16q16 6 16 -13q0 -8 -12 -57q-3 -12 -14 -33t-20 -35t-28 -42t-22 -33q99 -58 205 86q28 40 42 102t7 115q0 101 -67 150q-26 19 -77.5 20t-82.5 -12q-39 -12 -56 -87.5z" />
<glyph unicode="&#x201a;" horiz-adv-x="366" d="M34 166.5q-17 -75.5 11 -107.5q12 -21 41.5 -37t56.5 -16q17 6 16 -13q0 -8 -12 -56q-2 -10 -8.5 -23.5t-17 -31t-19 -30t-22 -33t-17.5 -26.5q99 -58 205 86q28 40 42 102t7 115q0 101 -67 150q-26 19 -77.5 20t-82.5 -12q-39 -12 -56 -87.5z" />
<glyph unicode="&#x201c;" horiz-adv-x="720" d="M35 1364q0 -101 67 -150q26 -19 77.5 -20t82.5 12q39 12 56 87.5t-11 107.5q-12 21 -41.5 37t-56.5 16q-16 -6 -16 12q0 9 12 58q3 12 14 33t20 35t28 42t22 33q-99 58 -205 -86q-28 -40 -42 -102t-7 -115zM387 1366q0 -99 68 -149q26 -19 77 -21.5t82 10.5 q39 12 56 88.5t-11 108.5q-12 21 -41.5 37t-56.5 16q-17 -6 -17 14q1 12 11 56q3 12 14 32t21.5 36t27.5 41t23 34q-99 58 -205 -86q-28 -40 -42 -102t-7 -115z" />
<glyph unicode="&#x201d;" horiz-adv-x="722" d="M42 1614.5q-17 -75.5 11 -107.5q12 -21 42 -37t57 -16q16 6 16 -13q0 -8 -12 -57q-3 -12 -14 -33t-20 -35t-28 -42t-22 -33q24 -14 48.5 -16.5t44.5 4.5t40.5 23t36.5 33.5t34 41.5q28 40 42.5 102t7.5 115q0 100 -68 150q-26 19 -77.5 20t-82.5 -12q-39 -12 -56 -87.5z M395 1616.5q-17 -75.5 11 -107.5q12 -21 41.5 -37t56.5 -16q16 6 16 -13q0 -8 -12 -57q-3 -12 -14 -33t-20 -35t-28 -42t-22 -33q99 -58 205 86q28 40 42 102t7 115q0 100 -68 150q-26 19 -77 20t-82 -12q-39 -12 -56 -87.5z" />
<glyph unicode="&#x201e;" horiz-adv-x="718" d="M34 164.5q-17 -75.5 11 -107.5q12 -21 41.5 -37t56.5 -16q16 6 16 -13q0 -8 -12 -57q-3 -12 -14 -33t-20 -35t-28 -42t-22 -33q99 -58 205 86q28 40 42 102t7 115q0 101 -67 150q-26 19 -77.5 20t-82.5 -12q-39 -12 -56 -87.5zM386 160.5q-17 -75.5 11 -107.5 q12 -21 42 -37t57 -16q16 6 16 -13q0 -8 -12 -57q-3 -12 -14 -33t-20 -35t-28 -42t-22 -33q99 -58 205 86q28 40 42 102t7 115q0 100 -68 150q-26 19 -77.5 20t-82.5 -12q-39 -12 -56 -87.5z" />
<glyph unicode="&#x2026;" horiz-adv-x="1243" d="M16 70q0 -46 56 -80q18 -18 34.5 -21.5t61.5 -3.5q39 0 55.5 2.5t40.5 14.5q47 31 54.5 79t-29.5 89q-8 4 -28 16t-28 16q-23 7 -64.5 5t-64.5 -13q-7 0 -13 -2t-9 -4l-2 -2q0 -6 -5.5 -11t-11.5 -5q-19 -6 -33 -30.5t-14 -49.5zM457 70q0 -25 12.5 -43t42.5 -37 q18 -18 34.5 -21.5t61.5 -3.5q39 0 56 3t41 14q47 31 54 79t-30 89q-8 4 -27.5 16t-27.5 16q-23 7 -64.5 5t-64.5 -13q-7 0 -13.5 -2t-9.5 -4l-2 -2q0 -6 -5 -11t-11 -5q-19 -6 -33 -30.5t-14 -49.5zM887 72q0 -25 12.5 -43t42.5 -37q18 -18 34.5 -21.5t61.5 -3.5q39 0 56 3 t41 14q47 31 54 79t-30 89q-8 4 -27.5 16t-27.5 16q-23 7 -64.5 5t-64.5 -13q-7 0 -13.5 -2t-9.5 -4l-2 -2q0 -6 -5 -11t-11 -5q-19 -6 -33 -30.5t-14 -49.5z" />
<glyph unicode="&#x202f;" horiz-adv-x="373" />
<glyph unicode="&#x2039;" horiz-adv-x="387" d="M22.5 509.5q-6.5 -40.5 6.5 -73.5q9 -26 17.5 -37.5t53.5 -62.5q20 -20 49.5 -50.5t32.5 -33.5q5 -8 11.5 -15t10.5 -11l3 -3q3 0 5.5 -1.5t7 -5t9.5 -5.5q13 -13 36.5 -25t35.5 -12q25 9 35 66l-4 30q-10 0 -10 17q0 5 -2 9.5t-4 6.5l-3 2q-3 3 -9 10.5t-9 10.5 q-10 20 -47 57q-78 85 -78 94v6q3 0 5.5 4.5t7 14t5.5 12.5q24 36 29 41q12 12 12 20v3q7 0 19 24q0 4 4 8t8 4q6 7 6 13v16q3 0 7.5 5t9 15t8 17.5t9 21.5t7.5 19q10 80 -31 125q-5 5 -12 9.5t-12 6.5l-4 2q-42 0 -94 -102l-19 -29q-12 -12 -12 -18q-7 -17 -19 -29 q-6 -9 -28 -53q-3 -6 -12.5 -23.5t-12.5 -23.5q-22 -36 -28.5 -76.5z" />
<glyph unicode="&#x203a;" horiz-adv-x="374" d="M-4 240l4 30q10 0 10 17q0 5 2 9.5t4 6.5l2 2q3 3 9.5 10.5t9.5 10.5q10 20 47 57q78 85 78 94v6q-4 0 -19 31q-26 39 -28 41q-13 13 -13 20v3q-6 0 -18 24q0 4 -4 8t-8 4q-6 7 -6 13v16q-3 0 -7.5 5t-9 15t-8 17.5t-9 21.5t-7.5 19q-10 81 30 125q5 5 12.5 9.5t12.5 6.5 l4 2q42 0 94 -102l19 -29q12 -12 12 -18q6 -17 18 -29q10 -15 29 -53q3 -6 12.5 -23.5t12.5 -23.5q22 -36 28.5 -76.5t-6.5 -73.5q-9 -25 -17 -36.5t-55 -63.5q-20 -20 -49 -50.5t-32 -33.5q-5 -8 -11.5 -15t-10.5 -11l-3 -3q-3 0 -5.5 -1.5t-7.5 -5t-10 -5.5 q-13 -13 -36 -25t-35 -12q-25 9 -35 66z" />
<glyph unicode="&#x205f;" horiz-adv-x="467" />
<glyph unicode="&#x20ac;" horiz-adv-x="1175" d="M-99 602q0 -28 31 -43q8 -4 35 -4q5 -45 15 -88q39 -128 112.5 -234t157.5 -151q94 -46 209 -60t217 9q91 23 148 56.5t122 98.5q95 103 113 181t-51 110q-62 24 -123.5 8t-106.5 -69q-72 -95 -106.5 -130.5t-79.5 -58.5q-46 -23 -67.5 -23t-67.5 23q-113 80 -187 291 q-1 6 -3 17.5t-3 17.5q223 4 240 12q37 5 44 33.5t-24 50.5q-23 16 -42.5 19.5t-104.5 3.5h-127q-1 8 -1 18t0.5 24t0.5 23t-1 25t-1 22q154 3 189 6.5t57 14.5q16 11 20 19.5t0 23.5q0 16 -27 35q-15 10 -41 12t-135 2h-61q0 6 10 80q47 142 126.5 231.5t164.5 89.5 q29 0 86.5 -30.5t99.5 -63.5q31 -31 67.5 -37t67.5 17q51 33 -20 104q-63 86 -188.5 121t-257.5 4q-147 -38 -263.5 -167t-162.5 -302q-9 -45 -13 -72q-41 -8 -53 -24q-9 -20 5.5 -38.5t39.5 -23.5q-3 -72 0 -143q-7 -1 -17 -4.5t-12 -3.5q-31 -5 -31 -33z" />
<glyph unicode="&#x25fc;" horiz-adv-x="870" d="M0 0v870h870v-870h-870z" />
</font>
</defs>
</svg>
